<svg id="Adobexd" xmlns="http://www.w3.org/2000/svg" width="150" height="150" viewBox="0 0 150 150">
  <path id="Path_260" data-name="Path 260" d="M0,75a75,75,0,1,1,75,75A75,75,0,0,1,0,75Z" fill="#ff2bc2"/>
  <path id="Path_261" data-name="Path 261" d="M2.4,69.948A67.548,67.548,0,1,1,69.948,137.5,67.548,67.548,0,0,1,2.4,69.948Z" transform="translate(5.052 5.052)"/>
  <path id="Path_262" data-name="Path 262" d="M51.455,68.937l-14.128-27.4L50.648,15.957c.252-.454.1-.757-.3-.757H42.221c-.5,0-.652.246-.9.641l-.009.015q-1.253,2.691-2.53,5.4c-2.278,4.848-4.571,9.727-6.7,14.58h-.1c-2.226-4.972-4.562-9.862-6.906-14.771q-1.265-2.65-2.53-5.311c-.152-.454-.4-.555-.908-.555H12.955a.447.447,0,0,0-.353.757L25.974,42.4,12.148,68.988c-.252.3-.2.706.3.706h8.376a.969.969,0,0,0,.908-.555c3.229-6.66,6.56-14.027,9.587-20.788h.1Q36.494,59.1,41.313,69.089a.99.99,0,0,0,1.06.656h8.78C51.556,69.744,51.707,69.341,51.455,68.937Zm3.078-19.224c0-11.757,7.569-20.94,19.981-20.94a22.373,22.373,0,0,1,2.624.1V15.755a.506.506,0,0,1,.5-.5h8.124c.4,0,.5.152.5.4V61.772a35.965,35.965,0,0,0,.252,4.945c0,.353,0,.4-.3.555A30.056,30.056,0,0,1,73.3,70.2C62.353,70.2,54.533,63.437,54.533,49.713ZM77.138,36.8a6.926,6.926,0,0,0-2.927-.5c-6.357,0-10.6,4.894-10.6,13.018,0,9.284,4.339,13.018,9.99,13.018a9.521,9.521,0,0,0,3.482-.555V36.8Z" transform="translate(25.739 32.477)" fill="#fed7f0" fill-rule="evenodd"/>
</svg>
