<svg xmlns="http://www.w3.org/2000/svg" width="200" height="117.711" viewBox="0 0 200 117.711">
  <g id="computeruidesign" transform="translate(0 -280.804)">
    <path id="Path_279" data-name="Path 279" d="M277.171,362.7l2.729,8.382,3.7-3.119-1.949-6.628Z" transform="translate(-192.225 -55.843)" fill="#ffb9b9"/>
    <path id="Path_281" data-name="Path 281" d="M441.563,480.97s.39,6.238.975,6.628,5.068-.39,5.068-.39,1.347.3,6.823-1.17c6.156-1.651-.78-4.094-.78-4.094s-4.484-2.924-6.433-4.289-3.314,1.56-3.314,1.56C444.292,480.385,441.563,480.97,441.563,480.97Z" transform="translate(-355.059 -167.292)" fill="#2f2e41"/>
    <path id="Path_294" data-name="Path 294" d="M360.508,383.5H290.193v-1.45H258.31v1.45h-70.6a4.757,4.757,0,0,0-4.756,4.758v96.308a4.757,4.757,0,0,0,4.756,4.758h172.8a4.757,4.757,0,0,0,4.756-4.758V388.257a4.757,4.757,0,0,0-4.756-4.758Z" transform="translate(-175.701 -101.246)" fill="#3f3d56"/>
    <rect id="Rectangle_55" data-name="Rectangle 55" width="169.558" height="95.676" transform="translate(13.627 290.662)" opacity="0.1"/>
    <circle id="Ellipse_6" data-name="Ellipse 6" cx="1.74" cy="1.74" r="1.74" transform="translate(96.521 284.573)" fill="#6c63ff"/>
    <rect id="Rectangle_56" data-name="Rectangle 56" width="168.487" height="95.641" transform="translate(13.911 290.614)" fill="#e6e6e6"/>
    <rect id="Rectangle_57" data-name="Rectangle 57" width="158.848" height="83.078" transform="translate(18.731 297.149)" fill="#fff"/>
    <rect id="Rectangle_58" data-name="Rectangle 58" width="40.829" height="65.838" transform="translate(33.158 305.769)" fill="#e6e6e6"/>
    <rect id="Rectangle_59" data-name="Rectangle 59" width="34.024" height="18.123" transform="translate(81.022 305.769)" fill="#1985a1"/>
    <rect id="Rectangle_60" data-name="Rectangle 60" width="34.024" height="19.499" transform="translate(81.022 328.938)" fill="#e6e6e6"/>
    <rect id="Rectangle_61" data-name="Rectangle 61" width="34.024" height="18.123" transform="translate(81.022 353.484)" fill="#e6e6e6"/>
    <rect id="Rectangle_62" data-name="Rectangle 62" width="40.829" height="28.692" transform="translate(122.323 305.769)" fill="#e6e6e6"/>
    <rect id="Rectangle_63" data-name="Rectangle 63" width="40.829" height="28.692" transform="translate(122.323 342.915)" fill="#1985a1"/>
    <path id="Path_295" data-name="Path 295" d="M353.631,717.4H337.083v-1.193a.236.236,0,0,0-.236-.237h-5.674a.237.237,0,0,0-.236.237h0V717.4H327.39v-1.193a.236.236,0,0,0-.236-.237H321.48a.237.237,0,0,0-.236.237h0V717.4H317.7v-1.193a.236.236,0,0,0-.236-.237h-5.674a.236.236,0,0,0-.236.237h0V717.4h-3.546v-1.193a.236.236,0,0,0-.236-.237h-5.674a.236.236,0,0,0-.236.237h0V717.4h-3.546v-1.193a.237.237,0,0,0-.236-.237H292.4a.236.236,0,0,0-.236.237h0V717.4H288.62v-1.193a.236.236,0,0,0-.236-.237H282.71a.236.236,0,0,0-.236.237h0V717.4h-3.546v-1.193a.236.236,0,0,0-.236-.237H234.246a.236.236,0,0,0-.236.237h0V717.4h-3.546v-1.193a.236.236,0,0,0-.236-.237h-5.674a.236.236,0,0,0-.236.237V717.4h-3.546v-1.193a.236.236,0,0,0-.236-.237h-5.674a.236.236,0,0,0-.236.237h0V717.4h-3.546v-1.193a.236.236,0,0,0-.236-.237h-5.674a.236.236,0,0,0-.236.237h0V717.4h-3.546v-1.193a.236.236,0,0,0-.236-.237h-5.674a.236.236,0,0,0-.236.237h0V717.4h-3.546v-1.193a.236.236,0,0,0-.236-.237h-5.674a.236.236,0,0,0-.236.237h0V717.4H182v-1.193a.236.236,0,0,0-.236-.237H176.09a.236.236,0,0,0-.236.237h0V717.4H164.979a5.674,5.674,0,0,0-5.674,5.675v2.566a5.674,5.674,0,0,0,5.674,5.675H353.631a5.675,5.675,0,0,0,5.674-5.675v-2.566a5.674,5.674,0,0,0-5.674-5.675Z" transform="translate(-159.305 -332.801)" fill="#3f3d56"/>
  </g>
</svg>
