<svg xmlns="http://www.w3.org/2000/svg" width="70.008" height="57.587" viewBox="0 0 70.008 57.587">
  <g id="computer_design" data-name="computer design" transform="translate(-8 -56)">
    <path id="Path_48" data-name="Path 48" d="M73.492,56H12.517A4.523,4.523,0,0,0,8,60.517V98.908a4.523,4.523,0,0,0,4.517,4.517H35.792l-1.506,4.517h-3.7a1.129,1.129,0,0,0-1.129,1.129v2.258H19.292a1.129,1.129,0,1,0,0,2.258H68.975a1.129,1.129,0,0,0,0-2.258H56.554v-2.258a1.129,1.129,0,0,0-1.129-1.129h-3.7l-1.506-4.517H73.492a4.523,4.523,0,0,0,4.517-4.517V60.517A4.523,4.523,0,0,0,73.492,56ZM54.3,110.2v1.129H31.712V110.2Zm-17.629-2.258,1.506-4.517h9.663l1.506,4.517ZM75.75,98.908a2.261,2.261,0,0,1-2.258,2.258H12.517a2.261,2.261,0,0,1-2.258-2.258V96.65H75.75Zm-48.6-14.679-.423,10.162H25.409l-.423-10.162Zm-2.007-2.258.754-4.517h.344l.754,4.517Zm.926-6.775c-1.224,0-2.258-1.551-2.258-3.387,0-1.159,1.183-2.843,2.256-4.03.967,1.073,2.261,2.788,2.261,4.03C28.325,73.645,27.29,75.2,26.067,75.2Zm12.288-2.258.133.267v.862H33.971V73.2l.133-.267Zm-3.122-2.258,1-1.992,1,1.992Zm3.255,5.646V94.25a1.165,1.165,0,0,0,.01.141H33.961a1.167,1.167,0,0,0,.01-.141V76.325ZM48.65,71.808h3.387v2.258H50.908a1.129,1.129,0,0,0,0,2.258h1.129v2.258H48.65a1.129,1.129,0,0,0,0,2.258h3.387V83.1H50.908a1.129,1.129,0,0,0,0,2.258h1.129v2.258H48.65a1.129,1.129,0,0,0,0,2.258h3.387v4.517h-7.9v-27.1h7.9V69.55H48.65a1.129,1.129,0,0,0,0,2.258ZM62.2,85.358V94.25a1.164,1.164,0,0,0,.01.141H57.673a1.166,1.166,0,0,0,.01-.141V85.358ZM57.683,83.1v-.862l2.258-4.517L62.2,82.238V83.1ZM75.75,94.392h-11.3a1.163,1.163,0,0,0,.01-.141V81.971a1.14,1.14,0,0,0-.119-.505l-3.388-6.775a1.13,1.13,0,0,0-2.021,0l-3.387,6.775a1.141,1.141,0,0,0-.119.505V94.25a1.166,1.166,0,0,0,.01.141H54.3V66.162a1.129,1.129,0,0,0-1.129-1.129H43a1.129,1.129,0,0,0-1.129,1.129V94.392H40.736a1.166,1.166,0,0,0,.01-.141V72.937a1.141,1.141,0,0,0-.119-.505L37.24,65.657a1.13,1.13,0,0,0-2.021,0l-3.387,6.775a1.141,1.141,0,0,0-.119.505V94.25a1.166,1.166,0,0,0,.01.141H28.984l.469-11.245c0-.025,0-.051,0-.078v-.034a1.131,1.131,0,0,0-.014-.119v0l-1.044-6.268a6.046,6.046,0,0,0,2.189-4.837c0-2.9-3.364-6.116-3.747-6.473a1.132,1.132,0,0,0-1.538,0c-.384.357-3.747,3.571-3.747,6.473a6.046,6.046,0,0,0,2.189,4.837l-1.044,6.268v0a1.131,1.131,0,0,0-.014.119v.034c0,.027,0,.052,0,.078l.469,11.245H10.258V60.517a2.261,2.261,0,0,1,2.258-2.258H73.492a2.261,2.261,0,0,1,2.258,2.258Z" transform="translate(0 0)" fill="#fff"/>
    <path id="Path_49" data-name="Path 49" d="M47.9,352H41.129a1.129,1.129,0,1,0,0,2.258H47.9a1.129,1.129,0,1,0,0-2.258Z" transform="translate(-27.483 -254.221)" fill="#fff"/>
    <path id="Path_50" data-name="Path 50" d="M114.258,352h-1.129a1.129,1.129,0,1,0,0,2.258h1.129a1.129,1.129,0,0,0,0-2.258Z" transform="translate(-89.321 -254.221)" fill="#fff"/>
    <path id="Path_51" data-name="Path 51" d="M201.129,208A1.129,1.129,0,0,0,200,209.129V221.55a1.129,1.129,0,0,0,2.258,0V209.129A1.129,1.129,0,0,0,201.129,208Z" transform="translate(-164.9 -130.546)" fill="#fff"/>
    <path id="Path_52" data-name="Path 52" d="M369.129,272A1.129,1.129,0,0,0,368,273.129v3.387a1.129,1.129,0,0,0,2.258,0v-3.387A1.129,1.129,0,0,0,369.129,272Z" transform="translate(-309.188 -185.513)" fill="#fff"/>
    <path id="Path_53" data-name="Path 53" d="M41.129,90.258h9.033a1.129,1.129,0,1,0,0-2.258H41.129a1.129,1.129,0,1,0,0,2.258Z" transform="translate(-27.483 -27.483)" fill="#fff"/>
    <path id="Path_54" data-name="Path 54" d="M41.129,114.258h2.258a1.129,1.129,0,1,0,0-2.258H41.129a1.129,1.129,0,1,0,0,2.258Z" transform="translate(-27.483 -48.096)" fill="#fff"/>
    <path id="Path_55" data-name="Path 55" d="M425.129,298.258h4.517a1.129,1.129,0,1,0,0-2.258h-4.517a1.129,1.129,0,1,0,0,2.258Z" transform="translate(-357.283 -206.125)" fill="#fff"/>
    <path id="Path_56" data-name="Path 56" d="M449.129,274.258h1.129a1.129,1.129,0,1,0,0-2.258h-1.129a1.129,1.129,0,1,0,0,2.258Z" transform="translate(-377.896 -185.513)" fill="#fff"/>
  </g>
</svg>
