<svg xmlns="http://www.w3.org/2000/svg" width="101.79" height="130.54" viewBox="0 0 101.79 130.54">
  <g id="databaseserver" transform="translate(-313 -373.807)">
    <rect id="Rectangle_95" data-name="Rectangle 95" width="101.79" height="75.76" transform="translate(401.775 376.915) rotate(90)" fill="#2f2e41"/>
    <rect id="Rectangle_96" data-name="Rectangle 96" width="101.79" height="40.405" transform="translate(313 373.807)" fill="#3f3d56"/>
    <rect id="Rectangle_97" data-name="Rectangle 97" width="101.79" height="40.405" transform="translate(313 418.874)" fill="#3f3d56"/>
    <rect id="Rectangle_98" data-name="Rectangle 98" width="101.79" height="40.405" transform="translate(313 463.942)" fill="#3f3d56"/>
    <rect id="Rectangle_99" data-name="Rectangle 99" width="101.79" height="6.216" transform="translate(313 390.939)" fill="#a8d0db"/>
    <rect id="Rectangle_100" data-name="Rectangle 100" width="101.79" height="6.216" transform="translate(313 436.006)" fill="#a8d0db"/>
    <rect id="Rectangle_101" data-name="Rectangle 101" width="101.79" height="6.216" transform="translate(313 481.074)" fill="#a8d0db"/>
    <circle id="Ellipse_15" data-name="Ellipse 15" cx="2.331" cy="2.331" r="2.331" transform="translate(392.645 377.304)" fill="#a8d0db"/>
    <circle id="Ellipse_16" data-name="Ellipse 16" cx="2.331" cy="2.331" r="2.331" transform="translate(400.803 377.304)" fill="#a8d0db"/>
    <circle id="Ellipse_17" data-name="Ellipse 17" cx="2.331" cy="2.331" r="2.331" transform="translate(408.962 377.304)" fill="#a8d0db"/>
    <circle id="Ellipse_18" data-name="Ellipse 18" cx="2.331" cy="2.331" r="2.331" transform="translate(392.645 421.594)" fill="#a8d0db"/>
    <circle id="Ellipse_19" data-name="Ellipse 19" cx="2.331" cy="2.331" r="2.331" transform="translate(400.803 421.594)" fill="#a8d0db"/>
    <circle id="Ellipse_20" data-name="Ellipse 20" cx="2.331" cy="2.331" r="2.331" transform="translate(408.962 421.594)" fill="#a8d0db"/>
    <circle id="Ellipse_21" data-name="Ellipse 21" cx="2.331" cy="2.331" r="2.331" transform="translate(392.645 465.884)" fill="#a8d0db"/>
    <circle id="Ellipse_22" data-name="Ellipse 22" cx="2.331" cy="2.331" r="2.331" transform="translate(400.803 465.884)" fill="#a8d0db"/>
    <circle id="Ellipse_23" data-name="Ellipse 23" cx="2.331" cy="2.331" r="2.331" transform="translate(408.962 465.884)" fill="#a8d0db"/>
  </g>
</svg>
