<svg xmlns="http://www.w3.org/2000/svg" width="185.739" height="130.359" viewBox="0 0 185.739 130.359">
  <g id="Developer" transform="translate(0 0)">
    <rect id="Rectangle_94" data-name="Rectangle 94" width="116" height="76" transform="translate(69)" fill="#fff"/>
    <path id="Path_331" data-name="Path 331" d="M893.292,730.875c-1.206,4.591-5.43,7.46-5.43,7.46s-2.27-4.574-1.064-9.166,5.43-7.46,5.43-7.46S894.5,726.284,893.292,730.875Z" transform="translate(-744.132 -609.63)" fill="#3f3d56"/>
    <path id="Path_332" data-name="Path 332" d="M897.523,751.677c-3.377,3.336-3.754,8.429-3.754,8.429s5.1-.316,8.474-3.652S906,748.024,906,748.024,900.9,748.34,897.523,751.677Z" transform="translate(-750.192 -631.403)" fill="#79c99e"/>
    <path id="Path_333" data-name="Path 333" d="M179.486,639.074h6.359l15.671-6.132s11.129-4.542,10.22,4.088-2.5,20.213-2.5,20.213-5-2.271-7.722-1.59-.908-13.854-.908-13.854-22.257,10.674-24.3,9.312-2.5-10.9-2.5-10.9Z" transform="translate(-154.503 -535.197)" fill="#2f2e41"/>
    <path id="Path_334" data-name="Path 334" d="M179.486,639.074h6.359l15.671-6.132s11.129-4.542,10.22,4.088-2.5,20.213-2.5,20.213-5-2.271-7.722-1.59-.908-13.854-.908-13.854-22.257,10.674-24.3,9.312-2.5-10.9-2.5-10.9Z" transform="translate(-154.503 -535.197)" opacity="0.1"/>
    <path id="Path_335" data-name="Path 335" d="M237.406,558.82l7.7,11.057,17.942,14.99s16.579,3.861,14.308,6.586-16.125-2.725-16.125-2.725-20.667-14.989-21.349-16.125-8.176-11.81-8.176-11.81Z" transform="translate(-202.404 -474.857)" fill="#a0616a"/>
    <path id="Path_336" data-name="Path 336" d="M237.406,558.82l7.7,11.057,17.942,14.99s16.579,3.861,14.308,6.586-16.125-2.725-16.125-2.725-20.667-14.989-21.349-16.125-8.176-11.81-8.176-11.81Z" transform="translate(-202.404 -474.857)" opacity="0.1"/>
    <path id="Path_337" data-name="Path 337" d="M202.356,507.092l5,9.766s-1.136,4.769-2.952,5.224-9.539-5.9-9.539-5.9Z" transform="translate(-171.922 -432.058)" fill="#d0cde1"/>
    <path id="Path_338" data-name="Path 338" d="M202.356,507.092l5,9.766s-1.136,4.769-2.952,5.224-9.539-5.9-9.539-5.9Z" transform="translate(-171.922 -432.058)" opacity="0.1"/>
    <path id="Path_339" data-name="Path 339" d="M558.368,643.508l1.476,6.088a.38.38,0,0,1-.007.205l-6.7,20.922a.38.38,0,0,1-.74-.073l-.926-8.15a.379.379,0,0,1,.016-.161l6.145-18.86a.38.38,0,0,1,.731.028Z" transform="translate(-466.98 -544.687)" fill="#2f2e41"/>
    <path id="Path_340" data-name="Path 340" d="M498,575.493l1.363,5.224-5.905,19.078-1.363-5.905Z" transform="translate(-407.156 -476.158)" fill="#f2f2f2"/>
    <path id="Path_341" data-name="Path 341" d="M415.735,762.272c.227.681,23.62-.227,23.847-.454a4.932,4.932,0,0,0,.5-.908c.213-.454.409-.908.409-.908l-.908-7.354-23.166-.822s-.579,6.232-.7,9.084A6.817,6.817,0,0,0,415.735,762.272Z" transform="translate(-354.641 -634.547)" fill="#2f2e41"/>
    <path id="Path_342" data-name="Path 342" d="M428.179,689.965l.454,6.359h-10.22v-6.359Z" transform="translate(-346.191 -570.871)" opacity="0.1"/>
    <path id="Path_343" data-name="Path 343" d="M370.372,701.748l.061-.012-.288,2.738h-5.678v-2.725Z" transform="translate(-301.557 -580.61)" opacity="0.1"/>
    <path id="Path_344" data-name="Path 344" d="M415.735,805.818c.227.681,23.62-.227,23.847-.454a4.929,4.929,0,0,0,.5-.908H415.719A6.813,6.813,0,0,0,415.735,805.818Z" transform="translate(-354.641 -678.093)" opacity="0.1"/>
    <circle id="Ellipse_10" data-name="Ellipse 10" cx="10.22" cy="10.22" r="10.22" transform="translate(23.62 51.415)" fill="#a0616a"/>
    <path id="Path_345" data-name="Path 345" d="M179.5,439.9s-3.407,5.9-4.088,9.085-10.22-6.359-10.22-6.359l-1.249-3.293s8.971-4.2,8.29-7.608S179.5,439.9,179.5,439.9Z" transform="translate(-146.339 -369.176)" fill="#a0616a"/>
    <path id="Path_346" data-name="Path 346" d="M212.341,584.722l9.312,12.264,22.257,16.579s16.125,3.407,12.491,5.905S242.32,617.2,242.32,617.2s-22.484-12.037-27.254-17.034-13.627-13.4-13.627-13.4Z" transform="translate(-177.365 -496.288)" fill="#a0616a"/>
    <path id="Path_347" data-name="Path 347" d="M95.339,688.462l2.725,4.315,16.265-5.117a12.788,12.788,0,0,1,10.648,1.285c2.839,1.789,4.656,4.628.568,8.829-8.176,8.4-13.627,3.861-13.627,3.861S84.438,714.58,79.9,708.221s-4.769-9.539-4.769-9.539S92.614,687.781,95.339,688.462Z" transform="translate(-72.855 -580.95)" fill="#2f2e41"/>
    <path id="Path_348" data-name="Path 348" d="M275.285,772.289s7.268,4.769-1.363,7.041a22.866,22.866,0,0,1-14.989-.909s-7.495,0-7.495-3.861,2.5-4.315,2.5-4.315l7.722,1.135S270.97,768.882,275.285,772.289Z" transform="translate(-218.734 -649.788)" fill="#d0cde1"/>
    <path id="Path_349" data-name="Path 349" d="M201.594,355.215a7.62,7.62,0,0,0,2.142.767,1.955,1.955,0,0,0,1.975-.846,2.657,2.657,0,0,0,.224-1.2,5.35,5.35,0,0,0-.853-3.56c-.5-.614-1.237-1-1.758-1.6a7.565,7.565,0,0,1-.889-1.452c-1.013-1.9-2.512-3.729-4.6-4.278a9.966,9.966,0,0,0-2.682-.205l-5.247.074a9.138,9.138,0,0,0-2.524.272c-1.689.511-2.918,1.931-4.045,3.289a20.572,20.572,0,0,0-2.32,3.2,11.233,11.233,0,0,0-1.332,5.5,5.149,5.149,0,0,0,.189,1.456,8.079,8.079,0,0,0,.572,1.257c.984,1.933,1.568,4.347.46,6.211a11.934,11.934,0,0,0,5.1-3.464,9.551,9.551,0,0,1,1.771-2.139,1.773,1.773,0,0,1,2.476.206,2.22,2.22,0,0,1,.25,1.04,4.764,4.764,0,0,0,.287,1.754,1.315,1.315,0,0,0,1.428.815c.989-.279.894-1.8,1.656-2.486.578-.524,1.471-.423,2.214-.661a3.285,3.285,0,0,0,1.886-1.857c.281-.631.277-2.282.81-2.624C199.457,354.258,200.975,354.939,201.594,355.215Z" transform="translate(-159.37 -296.152)" fill="#2f2e41"/>
    <path id="Path_350" data-name="Path 350" d="M78.758,472.125a2.7,2.7,0,0,1,1.4,0c1.458.391,4.726,1.428,5.427,3,.908,2.044,4.088,5.224,4.088,5.224s4.315,4.315,3.407,7.268-4.315,6.359-4.315,6.359.908,14.081-3.634,17.715-6.359,1.136-6.359,4.542-14.081,14.081-16.806,7.495c0,0,1.363-12.264.908-16.579C62.429,502.9,63.084,476.369,78.758,472.125Z" transform="translate(-61.968 -403.051)" fill="#d0cde1"/>
    <path id="Path_351" data-name="Path 351" d="M150.619,502.917s13.854,10.22,11.356,14.535c0,0-8.4,4.088-10.22,3.861s-8.857-8.176-10.674-8.857S138.355,499.51,150.619,502.917Z" transform="translate(-126.545 -428.11)" fill="#d0cde1"/>
    <circle id="Ellipse_11" data-name="Ellipse 11" cx="11.22" cy="11.22" r="11.22" transform="translate(74.751 29.768)" fill="#f2f2f2"/>
    <path id="Path_352" data-name="Path 352" d="M795.522,162.363H732.649V149.207h62.873Zm-62.6-.277h62.319v-12.6H732.926Z" transform="translate(-616.883 -135.947)" fill="#3f3d56"/>
    <rect id="Rectangle_81" data-name="Rectangle 81" width="62.596" height="12.879" transform="translate(111.473 15.891)" fill="#79c99e"/>
    <circle id="Ellipse_12" data-name="Ellipse 12" cx="0.969" cy="0.969" r="0.969" transform="translate(70.934 1.662)" fill="#79c99e"/>
    <circle id="Ellipse_13" data-name="Ellipse 13" cx="0.969" cy="0.969" r="0.969" transform="translate(74.257 1.662)" fill="#79c99e"/>
    <circle id="Ellipse_14" data-name="Ellipse 14" cx="0.969" cy="0.969" r="0.969" transform="translate(77.581 1.662)" fill="#79c99e"/>
    <path id="Path_353" data-name="Path 353" d="M579.092,148.277H462.487V72.386H579.092ZM462.764,148H578.815V72.663H462.764Z" transform="translate(-393.354 -72.386)" fill="#3f3d56"/>
    <rect id="Rectangle_82" data-name="Rectangle 82" width="116.328" height="0.277" transform="translate(69.272 4.201)" fill="#3f3d56"/>
    <path id="Path_354" data-name="Path 354" d="M474.827,81.02a1.108,1.108,0,1,1,1.108-1.108A1.108,1.108,0,0,1,474.827,81.02Zm0-1.939a.831.831,0,1,0,.831.831.831.831,0,0,0-.831-.831Z" transform="translate(-402.647 -77.697)" fill="#3f3d56"/>
    <path id="Path_355" data-name="Path 355" d="M494.082,81.02a1.108,1.108,0,1,1,1.108-1.108A1.108,1.108,0,0,1,494.082,81.02Zm0-1.939a.831.831,0,1,0,.831.831.831.831,0,0,0-.831-.831Z" transform="translate(-418.579 -77.697)" fill="#3f3d56"/>
    <path id="Path_356" data-name="Path 356" d="M513.338,81.02a1.108,1.108,0,1,1,1.108-1.108A1.108,1.108,0,0,1,513.338,81.02Zm0-1.939a.831.831,0,1,0,.831.831.831.831,0,0,0-.831-.831Z" transform="translate(-434.511 -77.697)" fill="#3f3d56"/>
    <rect id="Rectangle_83" data-name="Rectangle 83" width="0.277" height="71.52" transform="translate(105.656 4.339)" fill="#3f3d56"/>
    <rect id="Rectangle_84" data-name="Rectangle 84" width="20.358" height="2.77" transform="translate(118.882 39.503)" fill="#f2f2f2"/>
    <rect id="Rectangle_85" data-name="Rectangle 85" width="20.358" height="2.77" transform="translate(150.872 39.503)" fill="#f2f2f2"/>
    <path id="Path_357" data-name="Path 357" d="M776.951,295.467H756.317V292.42h20.634Zm-20.358-.277h20.081V292.7H756.594Z" transform="translate(-636.466 -254.44)" fill="#3f3d56"/>
    <rect id="Rectangle_86" data-name="Rectangle 86" width="20.358" height="2.77" transform="translate(118.882 60.969)" fill="#f2f2f2"/>
    <path id="Path_358" data-name="Path 358" d="M776.951,419.825H756.317v-3.047h20.634Zm-20.358-.277h20.081v-2.493H756.594Z" transform="translate(-636.466 -357.333)" fill="#3f3d56"/>
    <rect id="Rectangle_87" data-name="Rectangle 87" width="52.348" height="2.77" transform="translate(118.951 49.959)" fill="#f2f2f2"/>
    <path id="Path_359" data-name="Path 359" d="M809.344,357.646H756.718V354.6h52.625Zm-52.349-.277h52.071v-2.493H756.995Z" transform="translate(-636.798 -305.886)" fill="#3f3d56"/>
    <path id="Path_360" data-name="Path 360" d="M962.285,295.467H941.651V292.42h20.634Zm-20.358-.277h20.081V292.7h-20.08Z" transform="translate(-789.809 -254.44)" fill="#3f3d56"/>
    <path id="Path_361" data-name="Path 361" d="M516.424,248.628a11.392,11.392,0,1,1,11.392-11.392A11.392,11.392,0,0,1,516.424,248.628Zm0-22.439a11.047,11.047,0,1,0,11.047,11.047A11.047,11.047,0,0,0,516.424,226.189Z" transform="translate(-428.555 -199.356)" fill="#3f3d56"/>
    <rect id="Rectangle_88" data-name="Rectangle 88" width="48.848" height="0.345" transform="translate(129.123 128.5)" fill="#3f3d56"/>
    <path id="Path_367" data-name="Path 367" d="M893.292,730.875c-1.206,4.591-5.43,7.46-5.43,7.46s-2.27-4.574-1.064-9.166,5.43-7.46,5.43-7.46S894.5,726.284,893.292,730.875Z" transform="translate(-752.132 -609.63)" fill="#3f3d56"/>
    <path id="Path_368" data-name="Path 368" d="M902.243,751.677c3.377,3.336,3.755,8.429,3.755,8.429s-5.1-.316-8.474-3.652-3.755-8.429-3.755-8.429S898.866,748.34,902.243,751.677Z" transform="translate(-770.192 -631.403)" fill="#79c99e"/>
    <path id="Path_369" data-name="Path 369" d="M886.8,730.875c1.206,4.591,5.43,7.46,5.43,7.46s2.27-4.574,1.064-9.166-5.43-7.46-5.43-7.46S885.592,726.284,886.8,730.875Z" transform="translate(-733.84 -609.63)" fill="#3f3d56"/>
    <path id="Path_370" data-name="Path 370" d="M897.523,751.677c-3.377,3.336-3.755,8.429-3.755,8.429s5.1-.316,8.474-3.652S906,748.024,906,748.024,900.9,748.34,897.523,751.677Z" transform="translate(-736.456 -631.403)" fill="#79c99e"/>
    <path id="Path_371" data-name="Path 371" d="M886.8,730.875c1.206,4.591,5.43,7.46,5.43,7.46s2.27-4.574,1.064-9.166-5.43-7.46-5.43-7.46S885.592,726.284,886.8,730.875Z" transform="translate(-724.84 -609.63)" fill="#3f3d56"/>
    <path id="Path_372" data-name="Path 372" d="M897.523,751.677c-3.377,3.336-3.755,8.429-3.755,8.429s5.1-.316,8.474-3.652S906,748.024,906,748.024,900.9,748.34,897.523,751.677Z" transform="translate(-727.456 -631.403)" fill="#79c99e"/>
  </g>
</svg>
