<svg xmlns="http://www.w3.org/2000/svg" width="574.688" height="494.51" viewBox="0 0 574.688 494.51">
  <g id="frontend_design" data-name="frontend design" transform="translate(-48.312 -2006.065)">
    <path id="Path_817" data-name="Path 817" d="M189.453,327.788c21.162-18.341,48.612-17.154,72.666-7.61s46.15,26.53,69.587,38.606a192.5,192.5,0,0,0,61.135,19.728c29.87,4.232,63.226-.934,84.037-30.571,23.176-33.019,21.4-92.572-3.661-122.862-12.752-15.416-29.449-22.984-44.009-35.037s-28.044-32.028-26.8-55.265c1.148-21.489,14.5-38.012,28.31-48.369,10.675-8,23.821-16.743,25.107-33.322,1.245-16.037-9.81-28.609-20.366-35.756-34.436-23.316-76.871-23.091-111.189.589C312.03,26.37,300.793,37.61,287.958,44.187c-33.7,17.285-70.836-.112-106.521-6.479a173.82,173.82,0,0,0-90.6,8.166c-17.671,6.461-35.411,16.35-47.825,34.738-8.955,13.267-14.532,30.061-19.767,46.645q-8.374,26.52-16.1,53.424C4.056,191.449,1.014,202.422.213,213.938c-1.446,20.873,4.649,41.507,12.949,59.119,19.707,41.824,52.9,71.232,88.846,78.7s73.975-7.119,101.854-39.045" transform="matrix(0.966, 0.259, -0.259, 0.966, 146.612, 2006.065)" fill="#79c99e" opacity="0.1"/>
    <g id="Group_35" data-name="Group 35" transform="translate(135 2103)">
      <rect id="Rectangle_94" data-name="Rectangle 94" width="240" height="157" transform="translate(143)" fill="#fff"/>
      <path id="Path_331" data-name="Path 331" d="M900.623,740.688c-2.5,9.506-11.244,15.447-11.244,15.447s-4.7-9.472-2.2-18.979,11.244-15.447,11.244-15.447S903.119,731.181,900.623,740.688Z" transform="translate(-591.767 -489.633)" fill="#3f3d56"/>
      <path id="Path_332" data-name="Path 332" d="M901.543,755.587c-6.992,6.908-7.774,17.453-7.774,17.453s10.554-.655,17.546-7.562,7.774-17.453,7.774-17.453S908.535,748.679,901.543,755.587Z" transform="translate(-596.473 -506.543)" fill="#79c99e"/>
      <path id="Path_333" data-name="Path 333" d="M185.565,646.919h13.168l32.449-12.7s23.043-9.405,21.162,8.465-5.173,41.854-5.173,41.854-10.346-4.7-15.989-3.292-1.881-28.686-1.881-28.686-46.087,22.1-50.319,19.281-5.173-22.573-5.173-22.573Z" transform="translate(-133.835 -431.825)" fill="#2f2e41"/>
      <path id="Path_334" data-name="Path 334" d="M185.565,646.919h13.168l32.449-12.7s23.043-9.405,21.162,8.465-5.173,41.854-5.173,41.854-10.346-4.7-15.989-3.292-1.881-28.686-1.881-28.686-46.087,22.1-50.319,19.281-5.173-22.573-5.173-22.573Z" transform="translate(-133.835 -431.825)" opacity="0.1"/>
      <path id="Path_335" data-name="Path 335" d="M243.512,558.82l15.936,22.9L296.6,612.754s34.33,7.995,29.627,13.638-33.389-5.643-33.389-5.643-42.795-31.038-44.205-33.389S231.7,562.9,231.7,562.9Z" transform="translate(-171.037 -384.963)" fill="#a0616a"/>
      <path id="Path_336" data-name="Path 336" d="M243.512,558.82l15.936,22.9L296.6,612.754s34.33,7.995,29.627,13.638-33.389-5.643-33.389-5.643-42.795-31.038-44.205-33.389S231.7,562.9,231.7,562.9Z" transform="translate(-171.037 -384.963)" opacity="0.1"/>
      <path id="Path_337" data-name="Path 337" d="M210.38,507.092l10.346,20.222s-2.351,9.876-6.113,10.816S194.861,525.9,194.861,525.9Z" transform="translate(-147.363 -351.723)" fill="#d0cde1"/>
      <path id="Path_338" data-name="Path 338" d="M210.38,507.092l10.346,20.222s-2.351,9.876-6.113,10.816S194.861,525.9,194.861,525.9Z" transform="translate(-147.363 -351.723)" opacity="0.1"/>
      <path id="Path_339" data-name="Path 339" d="M565.75,643.819l3.056,12.607a.787.787,0,0,1-.015.425l-13.863,43.322a.787.787,0,0,1-1.532-.151l-1.918-16.877a.783.783,0,0,1,.034-.333l12.725-39.052a.787.787,0,0,1,1.514.058Z" transform="translate(-376.518 -439.195)" fill="#2f2e41"/>
      <path id="Path_340" data-name="Path 340" d="M504.323,575.493l2.822,10.816-12.227,39.5L492.1,613.585Z" transform="translate(-316.215 -369.805)" fill="#f2f2f2"/>
      <path id="Path_341" data-name="Path 341" d="M415.774,773.457c.47,1.411,48.908-.47,49.378-.941a10.213,10.213,0,0,0,1.035-1.881c.442-.941.846-1.881.846-1.881l-1.881-15.227-47.968-1.7s-1.2,12.9-1.444,18.811A14.114,14.114,0,0,0,415.774,773.457Z" transform="translate(-289.271 -508.985)" fill="#2f2e41"/>
      <path id="Path_342" data-name="Path 342" d="M438.635,689.965l.94,13.167H418.413V689.965Z" transform="translate(-268.867 -443.363)" opacity="0.1"/>
      <path id="Path_343" data-name="Path 343" d="M376.694,701.761l.126-.025-.6,5.668H364.467v-5.643Z" transform="translate(-234.202 -450.927)" opacity="0.1"/>
      <path id="Path_344" data-name="Path 344" d="M415.774,807.277c.47,1.411,48.908-.47,49.378-.941a10.2,10.2,0,0,0,1.035-1.881H415.741A14.1,14.1,0,0,0,415.774,807.277Z" transform="translate(-289.271 -542.805)" opacity="0.1"/>
      <circle id="Ellipse_10" data-name="Ellipse 10" cx="21.162" cy="21.162" r="21.162" transform="translate(48.908 106.461)" fill="#a0616a"/>
      <path id="Path_345" data-name="Path 345" d="M196.154,449.32s-7.054,12.227-8.465,18.811-21.162-13.167-21.162-13.167l-2.586-6.819s18.576-8.7,17.165-15.754S196.154,449.32,196.154,449.32Z" transform="translate(-127.494 -302.886)" fill="#a0616a"/>
      <path id="Path_346" data-name="Path 346" d="M224.012,584.722l19.281,25.394,46.087,34.33s33.389,7.054,25.865,12.227-29.157-4.7-29.157-4.7-46.557-24.924-56.433-35.27-28.216-27.746-28.216-27.746Z" transform="translate(-151.591 -401.607)" fill="#a0616a"/>
      <path id="Path_347" data-name="Path 347" d="M116.98,689.978l5.643,8.935,33.679-10.6a26.481,26.481,0,0,1,22.048,2.66c5.878,3.7,9.641,9.582,1.176,18.282-16.93,17.4-28.216,7.995-28.216,7.995S94.407,744.059,85,730.891s-9.876-19.751-9.876-19.751S111.337,688.566,116.98,689.978Z" transform="translate(-70.423 -467.359)" fill="#2f2e41"/>
      <path id="Path_348" data-name="Path 348" d="M300.816,774.478s15.049,9.876-2.822,14.578-31.038-1.881-31.038-1.881-15.519,0-15.519-7.995,5.173-8.935,5.173-8.935L272.6,772.6S291.881,767.424,300.816,774.478Z" transform="translate(-183.719 -520.822)" fill="#d0cde1"/>
      <path id="Path_349" data-name="Path 349" d="M225.045,368.472a15.777,15.777,0,0,0,4.435,1.589,4.048,4.048,0,0,0,4.09-1.752,5.5,5.5,0,0,0,.465-2.488c.057-2.582-.13-5.374-1.766-7.372-1.042-1.272-2.562-2.074-3.64-3.315a15.662,15.662,0,0,1-1.84-3.006c-2.1-3.938-5.2-7.722-9.515-8.857a20.637,20.637,0,0,0-5.554-.425L200.855,343a18.922,18.922,0,0,0-5.226.563c-3.5,1.057-6.043,4-8.375,6.81a42.6,42.6,0,0,0-4.8,6.629,23.26,23.26,0,0,0-2.757,11.4,10.661,10.661,0,0,0,.391,3.016,16.729,16.729,0,0,0,1.185,2.6c2.037,4,3.247,9,.953,12.861,3.986-1.628,7.929-3.763,10.559-7.172,1.176-1.525,2.1-3.311,3.666-4.43s4.122-1.216,5.127.426a4.6,4.6,0,0,1,.519,2.153,9.865,9.865,0,0,0,.594,3.633,2.722,2.722,0,0,0,2.957,1.687c2.048-.577,1.851-3.719,3.428-5.147,1.2-1.084,3.045-.877,4.584-1.369a6.8,6.8,0,0,0,3.9-3.846c.583-1.307.574-4.726,1.677-5.434C220.62,366.49,223.764,367.9,225.045,368.472Z" transform="translate(-137.614 -246.172)" fill="#2f2e41"/>
      <path id="Path_350" data-name="Path 350" d="M96.734,472.223a5.58,5.58,0,0,1,2.905.007c3.019.81,9.786,2.956,11.237,6.221,1.881,4.233,8.465,10.816,8.465,10.816s8.935,8.935,7.054,15.049-8.935,13.168-8.935,13.168,1.881,29.157-7.524,36.681-13.168,2.351-13.168,9.405-29.157,29.157-34.8,15.519c0,0,2.822-25.395,1.881-34.33C62.922,535.953,64.279,481.009,96.734,472.223Z" transform="translate(-61.968 -329.195)" fill="#d0cde1"/>
      <path id="Path_351" data-name="Path 351" d="M161.97,503.556s28.686,21.162,23.514,30.1c0,0-17.4,8.465-21.162,7.995s-18.341-16.93-22.1-18.341S136.575,496.5,161.97,503.556Z" transform="translate(-112.121 -348.657)" fill="#d0cde1"/>
      <circle id="Ellipse_11" data-name="Ellipse 11" cx="23.232" cy="23.232" r="23.232" transform="translate(154.782 61.639)" fill="#f2f2f2"/>
      <path id="Path_352" data-name="Path 352" d="M862.837,176.449H732.649V149.207H862.837Zm-129.614-.574h129.04V149.781H733.223Z" transform="translate(-492.94 -121.75)" fill="#3f3d56"/>
      <rect id="Rectangle_81" data-name="Rectangle 81" width="129.613" height="26.668" transform="translate(230.82 32.905)" fill="#79c99e"/>
      <circle id="Ellipse_12" data-name="Ellipse 12" cx="2.007" cy="2.007" r="2.007" transform="translate(146.878 3.441)" fill="#79c99e"/>
      <circle id="Ellipse_13" data-name="Ellipse 13" cx="2.007" cy="2.007" r="2.007" transform="translate(153.76 3.441)" fill="#79c99e"/>
      <circle id="Ellipse_14" data-name="Ellipse 14" cx="2.007" cy="2.007" r="2.007" transform="translate(160.642 3.441)" fill="#79c99e"/>
      <path id="Path_353" data-name="Path 353" d="M703.934,229.528H462.487V72.386H703.935Zm-240.875-.574h240.3v-156h-240.3Z" transform="translate(-319.337 -72.386)" fill="#3f3d56"/>
      <rect id="Rectangle_82" data-name="Rectangle 82" width="240.875" height="0.574" transform="translate(143.437 8.699)" fill="#3f3d56"/>
      <path id="Path_354" data-name="Path 354" d="M476.014,83.393a2.294,2.294,0,1,1,2.294-2.294A2.294,2.294,0,0,1,476.014,83.393Zm0-4.015a1.721,1.721,0,1,0,1.721,1.721,1.721,1.721,0,0,0-1.721-1.721Z" transform="translate(-326.555 -76.511)" fill="#3f3d56"/>
      <path id="Path_355" data-name="Path 355" d="M495.269,83.393a2.294,2.294,0,1,1,2.294-2.294A2.294,2.294,0,0,1,495.269,83.393Zm0-4.015a1.721,1.721,0,1,0,1.72,1.721,1.721,1.721,0,0,0-1.72-1.721Z" transform="translate(-338.928 -76.511)" fill="#3f3d56"/>
      <path id="Path_356" data-name="Path 356" d="M514.524,83.393a2.294,2.294,0,1,1,2.294-2.294A2.294,2.294,0,0,1,514.524,83.393Zm0-4.015a1.721,1.721,0,1,0,1.72,1.721,1.721,1.721,0,0,0-1.72-1.721Z" transform="translate(-351.301 -76.511)" fill="#3f3d56"/>
      <rect id="Rectangle_83" data-name="Rectangle 83" width="0.574" height="148.092" transform="translate(218.775 8.985)" fill="#3f3d56"/>
      <rect id="Rectangle_84" data-name="Rectangle 84" width="42.153" height="5.735" transform="translate(246.162 81.797)" fill="#f2f2f2"/>
      <rect id="Rectangle_85" data-name="Rectangle 85" width="42.153" height="5.735" transform="translate(312.402 81.797)" fill="#f2f2f2"/>
      <path id="Path_357" data-name="Path 357" d="M799.044,298.728H756.317V292.42h42.727Zm-42.153-.573h41.58v-5.162H756.891Z" transform="translate(-508.148 -213.777)" fill="#3f3d56"/>
      <rect id="Rectangle_86" data-name="Rectangle 86" width="42.153" height="5.735" transform="translate(246.162 126.244)" fill="#f2f2f2"/>
      <path id="Path_358" data-name="Path 358" d="M799.044,423.086H756.317v-6.308h42.727Zm-42.153-.573h41.58v-5.162H756.891Z" transform="translate(-508.148 -293.688)" fill="#3f3d56"/>
      <rect id="Rectangle_87" data-name="Rectangle 87" width="108.394" height="5.735" transform="translate(246.305 103.447)" fill="#f2f2f2"/>
      <path id="Path_359" data-name="Path 359" d="M865.687,360.907H756.718V354.6H865.685Zm-108.4-.573h107.82v-5.162H757.292Z" transform="translate(-508.406 -253.733)" fill="#3f3d56"/>
      <path id="Path_360" data-name="Path 360" d="M984.376,298.728H941.651V292.42h42.725Zm-42.153-.573H983.8v-5.162H942.224Z" transform="translate(-627.241 -213.777)" fill="#3f3d56"/>
      <path id="Path_361" data-name="Path 361" d="M528.621,273.022a23.589,23.589,0,1,1,23.589-23.589A23.589,23.589,0,0,1,528.621,273.022Zm0-46.464A22.874,22.874,0,1,0,551.5,249.433,22.874,22.874,0,0,0,528.621,226.559Z" transform="translate(-346.676 -170.996)" fill="#3f3d56"/>
      <rect id="Rectangle_88" data-name="Rectangle 88" width="101.148" height="0.715" transform="translate(267.367 266.079)" fill="#3f3d56"/>
      <path id="Path_367" data-name="Path 367" d="M900.623,740.688c-2.5,9.506-11.244,15.447-11.244,15.447s-4.7-9.472-2.2-18.979,11.244-15.447,11.244-15.447S903.119,731.181,900.623,740.688Z" transform="translate(-608.331 -489.633)" fill="#3f3d56"/>
      <path id="Path_368" data-name="Path 368" d="M911.315,755.587c6.992,6.908,7.774,17.453,7.774,17.453s-10.554-.655-17.546-7.562-7.774-17.453-7.774-17.453S904.323,748.679,911.315,755.587Z" transform="translate(-637.886 -506.543)" fill="#79c99e"/>
      <path id="Path_369" data-name="Path 369" d="M887.175,740.688c2.5,9.506,11.244,15.447,11.244,15.447s4.7-9.472,2.2-18.979-11.244-15.447-11.244-15.447S884.679,731.181,887.175,740.688Z" transform="translate(-570.455 -489.633)" fill="#3f3d56"/>
      <path id="Path_370" data-name="Path 370" d="M901.543,755.587c-6.992,6.908-7.774,17.453-7.774,17.453s10.554-.655,17.546-7.562,7.775-17.453,7.775-17.453S908.535,748.679,901.543,755.587Z" transform="translate(-568.031 -506.543)" fill="#79c99e"/>
      <path id="Path_371" data-name="Path 371" d="M887.175,740.688c2.5,9.506,11.244,15.447,11.244,15.447s4.7-9.472,2.2-18.979-11.244-15.447-11.244-15.447S884.679,731.181,887.175,740.688Z" transform="translate(-551.819 -489.633)" fill="#3f3d56"/>
      <path id="Path_372" data-name="Path 372" d="M901.543,755.587c-6.992,6.908-7.774,17.453-7.774,17.453s10.554-.655,17.546-7.562,7.775-17.453,7.775-17.453S908.535,748.679,901.543,755.587Z" transform="translate(-549.395 -506.543)" fill="#79c99e"/>
    </g>
  </g>
</svg>
