<svg xmlns="http://www.w3.org/2000/svg" xmlns:xlink="http://www.w3.org/1999/xlink" width="364.708" height="302.121" viewBox="0 0 364.708 302.121">
  <defs>
    <filter id="Path_846" x="290.104" y="275.171" width="35.756" height="25.882" filterUnits="userSpaceOnUse">
      <feOffset dy="3" input="SourceAlpha"/>
      <feGaussianBlur stdDeviation="3" result="blur"/>
      <feFlood flood-opacity="0.251"/>
      <feComposite operator="in" in2="blur"/>
      <feComposite in="SourceGraphic"/>
    </filter>
    <filter id="Path_848" x="312.599" y="276.176" width="36.015" height="25.945" filterUnits="userSpaceOnUse">
      <feOffset dy="3" input="SourceAlpha"/>
      <feGaussianBlur stdDeviation="3" result="blur-2"/>
      <feFlood flood-opacity="0.251"/>
      <feComposite operator="in" in2="blur-2"/>
      <feComposite in="SourceGraphic"/>
    </filter>
    <filter id="Path_867" x="44.874" y="264.724" width="32.205" height="24.793" filterUnits="userSpaceOnUse">
      <feOffset dy="3" input="SourceAlpha"/>
      <feGaussianBlur stdDeviation="3" result="blur-3"/>
      <feFlood flood-opacity="0.251"/>
      <feComposite operator="in" in2="blur-3"/>
      <feComposite in="SourceGraphic"/>
    </filter>
    <filter id="Path_869" x="0" y="255.885" width="30.664" height="31.451" filterUnits="userSpaceOnUse">
      <feOffset dy="3" input="SourceAlpha"/>
      <feGaussianBlur stdDeviation="3" result="blur-4"/>
      <feFlood flood-opacity="0.251"/>
      <feComposite operator="in" in2="blur-4"/>
      <feComposite in="SourceGraphic"/>
    </filter>
  </defs>
  <g id="Frontend_planning" data-name="Frontend planning" transform="translate(-7.149 1.346) scale(0.966 1)">
    <path id="Path_861" data-name="Path 861" d="M945.293,766.784H863.566a.426.426,0,0,1,0-.851h81.728a.426.426,0,0,1,0,.851Z" transform="translate(-572.719 -485.219)" fill="#2e3847"/>
    <path id="Path_828" data-name="Path 828" d="M644.151,120.164c3.2,6.809-3.58,8.737-11.346,12.386s-13.578,7.637-16.777.829-5.8-20.322,5.191-25.485C632.584,102.554,640.952,113.355,644.151,120.164Z" transform="translate(-429.203 -106.46)" fill="#2f2e41"/>
    <circle id="Ellipse_146" data-name="Ellipse 146" cx="10.455" cy="10.455" r="10.455" transform="translate(188.648 6.184)" fill="#ffb8b8"/>
    <path id="Path_829" data-name="Path 829" d="M720.242,235.968c-.362-.472-.724-.936-1.09-1.388q-.709-.881-1.426-1.707c-5.419-6.253-11.182-10.19-17.529-10.612h-.009l-.094-.009L687.449,234.58l-4.3,4.189.094.23,2.32,5.776H726.21A99.954,99.954,0,0,0,720.242,235.968Z" transform="translate(-469.344 -172.964)" fill="#2f2e41"/>
    <path id="Path_830" data-name="Path 830" d="M620.481,132.93h0l3.742-1.759-.521-5.4,2.5,4.468,1.789-.841-.3-3.149,1.46,2.606,13.291-6.246h0a11.067,11.067,0,0,0-14.723-5.31l-1.926.905A11.067,11.067,0,0,0,620.481,132.93Z" transform="translate(-432.746 -112.082)" fill="#2f2e41"/>
    <path id="Path_831" data-name="Path 831" d="M521.373,407.858h-218.3a7.031,7.031,0,0,1-7.023-7.023V269.664a5.151,5.151,0,0,1,5.145-5.146H523.162a5.24,5.24,0,0,1,5.234,5.235V400.835a7.031,7.031,0,0,1-7.023,7.023Z" transform="translate(-247.021 -197.239)" fill="#f2f2f2"/>
    <path id="Path_832" data-name="Path 832" d="M319.363,416.166H524.039a6.811,6.811,0,0,0,6.811-6.811V298.024a6.811,6.811,0,0,0-6.811-6.811H319.363a6.811,6.811,0,0,0-6.811,6.811V409.356A6.811,6.811,0,0,0,319.363,416.166Z" transform="translate(-256.497 -212.57)" fill="#fff"/>
    <path id="Path_833" data-name="Path 833" d="M528.165,261.333H295.82v-3.576a7.055,7.055,0,0,1,7.049-7.045H521.116a7.055,7.055,0,0,1,7.049,7.045Z" transform="translate(-246.887 -189.31)" fill="#a8d0db"/>
    <circle id="Ellipse_147" data-name="Ellipse 147" cx="1.823" cy="1.823" r="1.823" transform="translate(59.92 64.9)" fill="#fff"/>
    <circle id="Ellipse_148" data-name="Ellipse 148" cx="1.823" cy="1.823" r="1.823" transform="translate(66.841 64.9)" fill="#fff"/>
    <circle id="Ellipse_149" data-name="Ellipse 149" cx="1.823" cy="1.823" r="1.823" transform="translate(73.762 64.9)" fill="#fff"/>
    <path id="Path_834" data-name="Path 834" d="M553.821,492.431h-18.3a4.048,4.048,0,0,1-4.044-4.044v-18.3a4.048,4.048,0,0,1,4.044-4.044h18.3a4.048,4.048,0,0,1,4.044,4.044v18.3A4.048,4.048,0,0,1,553.821,492.431Zm-18.3-25.54a3.2,3.2,0,0,0-3.193,3.193v18.3a3.2,3.2,0,0,0,3.193,3.193h18.3a3.2,3.2,0,0,0,3.193-3.193v-18.3a3.2,3.2,0,0,0-3.193-3.193Z" transform="translate(-382.232 -312.98)" fill="#ccc"/>
    <path id="Path_835" data-name="Path 835" d="M558.818,494.215H547.751a1.278,1.278,0,0,1-1.277-1.277V479.317a1.278,1.278,0,0,1,1.277-1.277h8.019a1.28,1.28,0,0,1,.8.282l3.048,2.449a1.27,1.27,0,0,1,.477,1v11.172A1.278,1.278,0,0,1,558.818,494.215Zm-11.067-15.324a.426.426,0,0,0-.426.426v13.621a.426.426,0,0,0,.426.426h11.067a.426.426,0,0,0,.426-.426V481.766a.423.423,0,0,0-.159-.332l-3.048-2.449a.426.426,0,0,0-.266-.094Z" transform="translate(-390.847 -319.872)" fill="#ccc"/>
    <path id="Path_836" data-name="Path 836" d="M560.71,490.891H553.9a.426.426,0,0,1,0-.851h6.811a.426.426,0,0,1,0,.851Z" transform="translate(-394.867 -326.764)" fill="#ccc"/>
    <path id="Path_837" data-name="Path 837" d="M560.71,496.891H553.9a.426.426,0,0,1,0-.851h6.811a.426.426,0,0,1,0,.851Z" transform="translate(-394.867 -330.21)" fill="#ccc"/>
    <path id="Path_838" data-name="Path 838" d="M560.71,502.891H553.9a.426.426,0,0,1,0-.851h6.811a.426.426,0,0,1,0,.851Z" transform="translate(-394.867 -333.656)" fill="#ccc"/>
    <path id="Path_839" data-name="Path 839" d="M655.821,492.431h-18.3a4.048,4.048,0,0,1-4.044-4.044v-18.3a4.048,4.048,0,0,1,4.044-4.044h18.3a4.048,4.048,0,0,1,4.044,4.044v18.3A4.048,4.048,0,0,1,655.821,492.431Zm-18.3-25.54a3.2,3.2,0,0,0-3.193,3.193v18.3a3.2,3.2,0,0,0,3.193,3.193h18.3a3.2,3.2,0,0,0,3.193-3.193v-18.3a3.2,3.2,0,0,0-3.193-3.193Z" transform="translate(-440.814 -312.98)" fill="#ccc"/>
    <path id="Path_840" data-name="Path 840" d="M660.67,495.4H648.751a1.278,1.278,0,0,1-1.277-1.277v-6.811a1.278,1.278,0,0,1,1.277-1.277H660.67a1.278,1.278,0,0,1,1.277,1.277v6.811A1.278,1.278,0,0,1,660.67,495.4Zm-11.919-8.513a.426.426,0,0,0-.426.426v6.811a.426.426,0,0,0,.426.426H660.67a.426.426,0,0,0,.426-.426v-6.811a.426.426,0,0,0-.426-.426Z" transform="translate(-448.855 -324.466)" fill="#ccc"/>
    <path id="Path_841" data-name="Path 841" d="M654.71,492.994a1.279,1.279,0,0,1-.677-.193l-6.36-3.975a.426.426,0,1,1,.451-.722l6.36,3.975a.428.428,0,0,0,.451,0L661.3,488.1a.426.426,0,0,1,.451.722l-6.359,3.975a1.279,1.279,0,0,1-.677.193Z" transform="translate(-448.854 -325.615)" fill="#ccc"/>
    <path id="Path_842" data-name="Path 842" d="M451.821,492.431h-18.3a4.048,4.048,0,0,1-4.044-4.044v-18.3a4.048,4.048,0,0,1,4.044-4.044h18.3a4.048,4.048,0,0,1,4.044,4.044v18.3A4.048,4.048,0,0,1,451.821,492.431Zm-18.3-25.54a3.2,3.2,0,0,0-3.193,3.193v18.3a3.2,3.2,0,0,0,3.193,3.193h18.3a3.2,3.2,0,0,0,3.193-3.193v-18.3a3.2,3.2,0,0,0-3.193-3.193Z" transform="translate(-323.65 -312.98)" fill="#ccc"/>
    <path id="Path_843" data-name="Path 843" d="M456.67,495.4H444.751a1.278,1.278,0,0,1-1.277-1.277v-6.811a1.278,1.278,0,0,1,1.277-1.277H456.67a1.278,1.278,0,0,1,1.277,1.277v6.811A1.278,1.278,0,0,1,456.67,495.4Zm-11.919-8.513a.426.426,0,0,0-.426.426v6.811a.426.426,0,0,0,.426.426H456.67a.426.426,0,0,0,.426-.426v-6.811a.426.426,0,0,0-.426-.426Z" transform="translate(-331.69 -324.466)" fill="#ccc"/>
    <path id="Path_844" data-name="Path 844" d="M457.329,499.712h-8.566a.851.851,0,0,1-.737-1.277l2.58-4.469a.851.851,0,0,1,1.475,0l1.666,2.887.965-1.672a.851.851,0,0,1,1.475,0l1.879,3.255a.851.851,0,0,1-.737,1.277Zm0-.851h0l-1.879-3.255-1.334,2.311a.426.426,0,0,1-.369.213h0a.426.426,0,0,1-.369-.213l-2.035-3.525-2.58,4.469Z" transform="translate(-334.239 -328.774)" fill="#ccc"/>
    <circle id="Ellipse_150" data-name="Ellipse 150" cx="0.851" cy="0.851" r="0.851" transform="translate(122.851 163.276)" fill="#ccc"/>
    <path id="Path_845" data-name="Path 845" d="M758.434,620.99h-5.219l-2.482-20.129h7.7Z" transform="translate(-431.172 -345.096)" fill="#ffb8b8"/>
    <g transform="matrix(1.04, 0, 0, 1, 7.4, -1.35)" filter="url(#Path_846)">
      <path id="Path_846-2" data-name="Path 846" d="M930.112,757.369H913.285v-.213a6.549,6.549,0,0,1,6.549-6.549h10.278Z" transform="translate(-588.17 -475.07) scale(0.97 1)" fill="#2f2e41"/>
    </g>
    <path id="Path_847" data-name="Path 847" d="M808.434,620.99h-5.219l-2.482-20.129h7.7Z" transform="translate(-459.889 -345.096)" fill="#ffb8b8"/>
    <g transform="matrix(1.04, 0, 0, 1, 7.4, -1.35)" filter="url(#Path_848)">
      <path id="Path_848-2" data-name="Path 848" d="M980.116,757.369H963.289v-.213a6.549,6.549,0,0,1,6.55-6.549h10.278Z" transform="translate(-615.91 -475.07) scale(0.97 1)" fill="#2f2e41"/>
    </g>
    <path id="Path_849" data-name="Path 849" d="M957.382,629.721l-4.833-1.47a1.913,1.913,0,0,1-1.348-1.632L946.7,583.913a.2.2,0,0,0-.2-.19.2.2,0,0,0-.217.174l-7.547,41.374a1.916,1.916,0,0,1-2.271,1.532l-6.177-1.272a1.922,1.922,0,0,1-1.525-2.006l4.591-67.814,31.132-3.359L959.852,628a1.914,1.914,0,0,1-2.469,1.716Z" transform="translate(-610.402 -362.552)" fill="#2f2e41"/>
    <circle id="Ellipse_151" data-name="Ellipse 151" cx="10.455" cy="10.455" r="10.455" transform="translate(336.496 113.195)" fill="#ffb8b8"/>
    <path id="Path_850" data-name="Path 850" d="M939.433,485.5l6.75-42.5a16.115,16.115,0,0,1,20.434-12.94h0a16.066,16.066,0,0,1,11.323,18.415l-7.062,37.957Z" transform="translate(-616.537 -291.942)" fill="#a8d0db"/>
    <path id="Path_851" data-name="Path 851" d="M993.682,552.011a4.281,4.281,0,0,0,.744-6.521l6.979-13.515-7.86.839-5.423,12.706a4.3,4.3,0,0,0,5.56,6.492Z" transform="translate(-643.847 -350.848)" fill="#ffb8b8"/>
    <path id="Path_852" data-name="Path 852" d="M1000.415,493.238a1.918,1.918,0,0,1-1.033-.49l-2.67-2.467a1.922,1.922,0,0,1-.465-2.151l5.337-12.65-.757-24.995a6.171,6.171,0,1,1,12.228,1.668l1.294,15.712a19.74,19.74,0,0,1-3.8,13.365l-8.323,11.251a1.918,1.918,0,0,1-1.36.768A1.893,1.893,0,0,1,1000.415,493.238Z" transform="translate(-649.081 -300.98)" fill="#a8d0db"/>
    <path id="Path_853" data-name="Path 853" d="M854.4,376.665a4.28,4.28,0,0,0,5.715,3.227l9.725,11.7,2.292-7.565-9.586-9.947a4.3,4.3,0,0,0-8.146,2.588Z" transform="translate(-567.655 -258.711)" fill="#ffb8b8"/>
    <path id="Path_854" data-name="Path 854" d="M872.033,391.683a1.918,1.918,0,0,1,.854-.76l3.313-1.5a1.922,1.922,0,0,1,2.162.411l9.568,9.847,23.312,9.048a6.171,6.171,0,1,1-6.3,10.61l-14.974-4.934a19.74,19.74,0,0,1-10.824-8.714l-7.116-12.051a1.917,1.917,0,0,1-.177-1.552,1.891,1.891,0,0,1,.184-.408Z" transform="translate(-577.67 -268.881)" fill="#a8d0db"/>
    <path id="Path_855" data-name="Path 855" d="M823.847,375.652l-.426,13.621L815.58,402.9l6.548-15.185Z" transform="translate(-468.416 -215.75)" opacity="0.1"/>
    <path id="Path_856" data-name="Path 856" d="M976.465,381.434a2.734,2.734,0,0,1-2.993-2,4.156,4.156,0,0,0-2.959-3.1c-1.918-.438-4.262.465-5.667-.989a2.825,2.825,0,0,1-.671-2.487,5.711,5.711,0,0,1,2.368-3.332,14.5,14.5,0,0,1,8.031-3,28.811,28.811,0,0,1,4.521.225,20.008,20.008,0,0,1,4.624.845,10.887,10.887,0,0,1,6.811,7.952,12.569,12.569,0,0,1-2.578,10.271,13.494,13.494,0,0,1-5.176,3.941,2.019,2.019,0,0,1-1.535.078c-1.259-.5-1.053-2.06-.479-3.1.614-1.113,1.559-2.191,1.065-3.545a2.683,2.683,0,0,0-1.331-1.433,6.862,6.862,0,0,0-4-.332Z" transform="translate(-630.712 -255.82)" fill="#2f2e41"/>
    <path id="Path_857" data-name="Path 857" d="M662.223,359.148H532.82a7.031,7.031,0,0,1-7.023-7.023V324.456a7.031,7.031,0,0,1,7.023-7.023h129.4a7.032,7.032,0,0,1,7.024,7.023v27.668A7.031,7.031,0,0,1,662.223,359.148Z" transform="translate(-378.971 -227.63)" fill="#fff"/>
    <path id="Path_858" data-name="Path 858" d="M661.936,359.074h-129.4a7.244,7.244,0,0,1-7.236-7.236V324.169a7.245,7.245,0,0,1,7.236-7.236h129.4a7.244,7.244,0,0,1,7.236,7.236v27.668A7.244,7.244,0,0,1,661.936,359.074Zm-129.4-41.289a6.392,6.392,0,0,0-6.385,6.385v27.668a6.392,6.392,0,0,0,6.385,6.385h129.4a6.392,6.392,0,0,0,6.385-6.385V324.169a6.392,6.392,0,0,0-6.385-6.385Z" transform="translate(-378.684 -227.342)" fill="#3f3d56"/>
    <path id="Path_859" data-name="Path 859" d="M667.723,360.953h-97.9a7.031,7.031,0,0,1-7.023-7.023V339.456a7.031,7.031,0,0,1,7.023-7.023h97.9a7.031,7.031,0,0,1,7.023,7.023v14.473A7.031,7.031,0,0,1,667.723,360.953Z" transform="translate(-400.222 -236.245)" fill="#f2f2f2"/>
    <circle id="Ellipse_152" data-name="Ellipse 152" cx="8.399" cy="8.399" r="8.399" transform="translate(182.268 100.109)" fill="#ff6584"/>
    <path id="Path_860" data-name="Path 860" d="M679.12,367.241,667.264,357.3l-11.651-9.772a1.7,1.7,0,0,0-2.193,0l-11.614,9.817-2.837,2.4-4.277-3.587-13-10.9a1.7,1.7,0,0,0-2.193,0l-12.956,10.952-13.16,11.124a.426.426,0,0,0,.276.751l26.982-.052,8.541-.016-.084.071,25.458-.049,24.291-.047a.426.426,0,0,0,.273-.752Z" transform="translate(-417.702 -243.38)" fill="#3f3d56"/>
    <path id="Path_862" data-name="Path 862" d="M727.117,194.626a4.776,4.776,0,0,0-3.086-2.171,4.385,4.385,0,0,0-.706-.089l-32.432-29a3.837,3.837,0,0,0-2.4-1.145,3.265,3.265,0,0,0-.541-.017,3.854,3.854,0,0,0-2.537,6.589l12.417,10.825,20.389,17.772a5.062,5.062,0,0,0,.149.992,4.8,4.8,0,0,0,4.116,3.563,4.722,4.722,0,0,0,2.575-.426,4.855,4.855,0,0,0,1.652-1.264c.047-.055.089-.106.132-.166a4.807,4.807,0,0,0,.268-5.466Z" transform="translate(-469.991 -138.475)" fill="#ffb8b8"/>
    <path id="Path_863" data-name="Path 863" d="M642.769,240.581l-.3-12.285-.255-10.195-.175-7.134-.345-13.906A3.85,3.85,0,0,0,635,194.827a2.953,2.953,0,0,0-.319.409,3.8,3.8,0,0,0-.664,2.575l.758,20.291.379,10.195.485,13a5.124,5.124,0,0,0-.379.6,4.813,4.813,0,1,0,7.5-1.32Z" transform="translate(-441.116 -156.486)" fill="#ffb8b8"/>
    <path id="Path_864" data-name="Path 864" d="M672.5,187.406l-3.01-8.151-4.87-13.2a6.813,6.813,0,0,0-4.235-4.12c-.077-.026-.157-.051-.234-.072a6.8,6.8,0,0,0-5.636.775l-16.4,10.4a6.85,6.85,0,0,0-2.243,9.258,117.607,117.607,0,0,0,6.7,10.3c1.911,2.6,5.47,2.877,6.087,7.134h12.093l12.242-10.991Z" transform="translate(-441.651 -138.108)" fill="#ccc"/>
    <circle id="Ellipse_153" data-name="Ellipse 153" cx="9.863" cy="9.863" r="9.863" transform="translate(33.199 129.194)" fill="#a0616a"/>
    <path id="Path_874" data-name="Path 874" d="M263.017,766.784H181.29a.426.426,0,0,1,0-.851h81.728a.426.426,0,0,1,0,.851Z" transform="translate(-180.864 -485.219)" fill="#2e3847"/>
    <path id="Path_865" data-name="Path 865" d="M305.955,415.9q.146.116.283.246a4.418,4.418,0,0,1-.178,6.591,4.134,4.134,0,0,1-.346.261l.668,22.537a3.431,3.431,0,0,1-2.36,3.349l-.041.009-18.3,1.949a3.788,3.788,0,1,1-.733-7.54l13.044-1.149,2.256-19.517a4.206,4.206,0,0,1-.414-.421,4.418,4.418,0,0,1,6.12-6.314Z" transform="translate(-238.678 -283.635)" fill="#a0616a"/>
    <path id="Path_866" data-name="Path 866" d="M139.327,623.551h4.924l2.342-18.99h-7.267Z" transform="translate(-80.02 -347.221)" fill="#a0616a"/>
    <g transform="matrix(1.04, 0, 0, 1, 7.4, -1.35)" filter="url(#Path_867)">
      <path id="Path_867-2" data-name="Path 867" d="M317.242,751.857h9.7a6.179,6.179,0,0,1,6.179,6.179v.2H317.242Z" transform="translate(-257.51 -475.79) scale(0.97 1)" fill="#2f2e41"/>
    </g>
    <path id="Path_868" data-name="Path 868" d="M24.366,611.166l4.23,2.519,11.728-15.118-6.244-3.717Z" transform="translate(-13.994 -341.643)" fill="#a0616a"/>
    <g transform="matrix(1.04, 0, 0, 1, 7.4, -1.35)" filter="url(#Path_869)">
      <path id="Path_869-2" data-name="Path 869" d="M200.224,734.889l8.331,4.96h0a6.179,6.179,0,0,1,2.148,8.47l-.1.172-13.64-8.121Z" transform="translate(-190.78 -466.04) scale(0.97 1)" fill="#2f2e41"/>
    </g>
    <path id="Path_870" data-name="Path 870" d="M264.011,617.7H258.5a1.8,1.8,0,0,1-1.8-1.616l-5.558-52.245a.6.6,0,0,0-1.148-.184l-10.027,22.2L222.216,614.8a1.816,1.816,0,0,1-2.268.709l-7.092-3.12a1.808,1.808,0,0,1-.824-2.581l16.319-27.324,5-23.022c-1.574-9.984,5.174-24.827,5.242-24.976l.033-.073,18.588-7.265.093.114c7.33,24.056,11.8,49.944,8.5,88.78A1.819,1.819,0,0,1,264.011,617.7Z" transform="translate(-198.619 -348.078)" fill="#2f2e41"/>
    <path id="Path_871" data-name="Path 871" d="M262.073,500.667l-.087-.182c-.041-.087-4.174-8.8-7.361-18.121a13.743,13.743,0,0,1,.953-11.013,13.893,13.893,0,0,1,8.859-6.812h0a13.91,13.91,0,0,1,16.145,8.33c2.527,6.32,1.722,13.066.964,18.37l-.015.106-.1.046Z" transform="translate(-222.808 -311.896)" fill="#3f3d56"/>
    <path id="Path_872" data-name="Path 872" d="M288.992,408.831H273.33V402c3.438-1.366,6.8-2.527,8.835,0a6.827,6.827,0,0,1,6.827,6.827Z" transform="translate(-233.971 -275.345)" fill="#2f2e41"/>
    <path id="Path_873" data-name="Path 873" d="M255.124,401.185c-9.363,0-11.984,11.736-11.984,18.357,0,3.692,1.67,5.013,4.294,5.46l.927-4.942,2.17,5.155c.737,0,1.511-.011,2.314-.026l.736-1.515,1.641,1.488c6.573.01,11.885.968,11.885-5.62C267.107,412.921,264.809,401.185,255.124,401.185Z" transform="translate(-216.632 -275.731)" fill="#2f2e41"/>
    <path id="Path_875" data-name="Path 875" d="M347.321,403.324h-18.3a4.048,4.048,0,0,1-4.044-4.044v-18.3a4.048,4.048,0,0,1,4.044-4.044h18.3a4.048,4.048,0,0,1,4.044,4.044v18.3A4.048,4.048,0,0,1,347.321,403.324Z" transform="translate(-263.632 -261.802)" fill="#fff"/>
    <path id="Path_876" data-name="Path 876" d="M347.321,403.324h-18.3a4.048,4.048,0,0,1-4.044-4.044v-18.3a4.048,4.048,0,0,1,4.044-4.044h18.3a4.048,4.048,0,0,1,4.044,4.044v18.3A4.048,4.048,0,0,1,347.321,403.324Zm-18.3-25.54a3.2,3.2,0,0,0-3.193,3.193v18.3a3.2,3.2,0,0,0,3.193,3.193h18.3a3.2,3.2,0,0,0,3.193-3.193v-18.3a3.2,3.2,0,0,0-3.193-3.193Z" transform="translate(-263.632 -261.802)" fill="#3f3d56"/>
    <path id="Path_877" data-name="Path 877" d="M352.17,405.926H340.251a1.278,1.278,0,0,1-1.277-1.277V395.71a1.278,1.278,0,0,1,1.277-1.277h3.355a1.269,1.269,0,0,1,1.088.608l.936,1.521h6.54a1.278,1.278,0,0,1,1.277,1.277v6.811A1.278,1.278,0,0,1,352.17,405.926Z" transform="translate(-271.672 -271.853)" fill="#a8d0db"/>
    <path id="Path_878" data-name="Path 878" d="M321.965,428.947q.089.164.165.336a4.418,4.418,0,0,1-2.721,6.005,4.137,4.137,0,0,1-.421.106l-8.13,21.03a3.431,3.431,0,0,1-3.475,2.17l-.041-.008-17.621-5.3a3.788,3.788,0,1,1,2.25-7.234l12.468,4,9.653-17.113a4.2,4.2,0,0,1-.218-.549,4.418,4.418,0,0,1,8.091-3.444Z" transform="translate(-241.855 -290.359)" fill="#a0616a"/>
  </g>
</svg>
