<svg id="Hosting_Support" data-name="Hosting Support" xmlns="http://www.w3.org/2000/svg" width="60.552" height="60.552" viewBox="0 0 60.552 60.552">
  <g id="Group_3" data-name="Group 3" transform="translate(0 26.267)">
    <g id="Group_2" data-name="Group 2">
      <path id="Path_61" data-name="Path 61" d="M21.491,239.212a1.182,1.182,0,0,0-.261-.043,7.558,7.558,0,0,0,2.093-5.224v-6.222a1.194,1.194,0,0,0-.013-.167c.008-.112.013-.225.013-.34V223.28a1.183,1.183,0,0,0-1.183-1.183H14.208a6.065,6.065,0,0,0-6.058,6.058v5.79a7.557,7.557,0,0,0,2.093,5.224,1.18,1.18,0,0,0-.261.043A11,11,0,0,0,0,250.147V255.2a1.183,1.183,0,0,0,1.183,1.183H30.291a1.183,1.183,0,0,0,1.183-1.183v-5.053A11,11,0,0,0,21.491,239.212Zm-10.976-9.557v-1.5a3.7,3.7,0,0,1,3.693-3.693h6.75v2.754a2.517,2.517,0,0,1-2.514,2.514H10.516Zm0,2.441h7.928a4.848,4.848,0,0,0,2.514-.7v2.549a5.221,5.221,0,1,1-10.442,0Zm7.8,9.436-2.574,2.574-2.574-2.574Zm10.8,12.486H2.365v-2.365H7.273a1.183,1.183,0,0,0,0-2.365H2.408A8.631,8.631,0,0,1,9.889,241.6l5.011,5.011a1.183,1.183,0,0,0,1.673,0l5.011-5.011a8.627,8.627,0,0,1,7.524,8.544Z" transform="translate(0 -222.097)" fill="#fff"/>
    </g>
  </g>
  <g id="Group_5" data-name="Group 5" transform="translate(29.078)">
    <g id="Group_4" data-name="Group 4">
      <path id="Path_62" data-name="Path 62" d="M267.364,17.115a1.184,1.184,0,0,0-.261-.043,7.558,7.558,0,0,0,2.093-5.224V5.626a1.185,1.185,0,0,0-.013-.167c.008-.112.013-.225.013-.34V1.183A1.183,1.183,0,0,0,268.013,0H260.08a6.065,6.065,0,0,0-6.058,6.058v5.79a7.558,7.558,0,0,0,2.093,5.224,1.184,1.184,0,0,0-.261.043,11,11,0,0,0-9.982,10.935V33.1a1.183,1.183,0,0,0,1.183,1.183h9.516a1.183,1.183,0,1,0,0-2.365h-8.333V28.05a8.627,8.627,0,0,1,7.524-8.544l5.011,5.011a1.183,1.183,0,0,0,1.673,0l5.011-5.011a8.627,8.627,0,0,1,7.524,8.544v3.87h-8.712a1.183,1.183,0,0,0,0,2.365h9.9a1.183,1.183,0,0,0,1.183-1.183V28.05A11,11,0,0,0,267.364,17.115Zm-5.755,4.893-2.574-2.574h5.148Zm5.221-10.161a5.221,5.221,0,0,1-10.442,0V10h7.928a4.85,4.85,0,0,0,2.514-.7Zm0-6.729a2.517,2.517,0,0,1-2.514,2.514h-7.928V6.058a3.7,3.7,0,0,1,3.693-3.693h6.75Z" transform="translate(-245.872)" fill="#fff"/>
    </g>
  </g>
  <g id="Group_7" data-name="Group 7" transform="translate(43.633 31.92)">
    <g id="Group_6" data-name="Group 6">
      <path id="Path_63" data-name="Path 63" d="M370.959,270.246a1.182,1.182,0,1,0,.347.836A1.192,1.192,0,0,0,370.959,270.246Z" transform="translate(-368.94 -269.9)" fill="#fff"/>
    </g>
  </g>
  <g id="Group_9" data-name="Group 9">
    <g id="Group_8" data-name="Group 8">
      <path id="Path_64" data-name="Path 64" d="M31.625,16.549,26.679,11.6V5.913A5.92,5.92,0,0,0,20.766,0H5.913A5.92,5.92,0,0,0,0,5.913V16.321a5.92,5.92,0,0,0,5.913,5.913H20.766a5.88,5.88,0,0,0,5.472-3.666h4.551a1.183,1.183,0,0,0,.836-2.019Zm-6.25-.346a1.183,1.183,0,0,0-1.153.918,3.529,3.529,0,0,1-3.456,2.749H5.913a3.552,3.552,0,0,1-3.548-3.548V5.913A3.552,3.552,0,0,1,5.913,2.365H20.766a3.552,3.552,0,0,1,3.548,3.548v6.179a1.183,1.183,0,0,0,.346.836L27.933,16.2Z" fill="#fff"/>
    </g>
  </g>
  <g id="Group_11" data-name="Group 11" transform="translate(28.581 38.318)">
    <g id="Group_10" data-name="Group 10">
      <path id="Path_65" data-name="Path 65" d="M267.724,324H252.872a5.88,5.88,0,0,0-5.472,3.666h-4.551a1.183,1.183,0,0,0-.836,2.019l4.946,4.946v5.69a5.92,5.92,0,0,0,5.913,5.913h14.852a5.92,5.92,0,0,0,5.913-5.913V329.913A5.92,5.92,0,0,0,267.724,324Zm3.548,16.321a3.552,3.552,0,0,1-3.548,3.548H252.872a3.552,3.552,0,0,1-3.548-3.548v-6.179a1.183,1.183,0,0,0-.346-.836l-3.273-3.273h2.559a1.183,1.183,0,0,0,1.153-.918,3.529,3.529,0,0,1,3.456-2.749h14.852a3.552,3.552,0,0,1,3.548,3.548Z" transform="translate(-241.666 -324)" fill="#fff"/>
    </g>
  </g>
  <g id="Group_13" data-name="Group 13" transform="translate(44.231 45.942)">
    <g id="Group_12" data-name="Group 12">
      <path id="Path_66" data-name="Path 66" d="M382.3,388.81a1.182,1.182,0,0,0-1.672,0l-3.144,3.144-1.462-1.462a1.183,1.183,0,0,0-1.673,1.673l2.3,2.3a1.183,1.183,0,0,0,1.673,0l3.98-3.98A1.183,1.183,0,0,0,382.3,388.81Z" transform="translate(-373.999 -388.463)" fill="#fff"/>
    </g>
  </g>
  <g id="Group_15" data-name="Group 15" transform="translate(10.525 4.025)">
    <g id="Group_14" data-name="Group 14">
      <path id="Path_67" data-name="Path 67" d="M97.185,37.844a4.11,4.11,0,0,0-3.8-3.8A4.067,4.067,0,0,0,90.3,35.134a4.115,4.115,0,0,0-1.3,3,1.183,1.183,0,0,0,2.365,0,1.735,1.735,0,1,1,2.117,1.693,1.986,1.986,0,0,0-1.564,1.947V42.4a1.183,1.183,0,1,0,2.365,0V42.06A4.079,4.079,0,0,0,97.185,37.844Z" transform="translate(-88.994 -34.032)" fill="#fff"/>
    </g>
  </g>
  <g id="Group_17" data-name="Group 17" transform="translate(13.443 15.74)">
    <g id="Group_16" data-name="Group 16">
      <path id="Path_68" data-name="Path 68" d="M115.689,133.437a1.182,1.182,0,1,0,.347.836A1.192,1.192,0,0,0,115.689,133.437Z" transform="translate(-113.67 -133.09)" fill="#fff"/>
    </g>
  </g>
  <g id="Group_19" data-name="Group 19" transform="translate(10.821 53.456)">
    <g id="Group_18" data-name="Group 18">
      <path id="Path_69" data-name="Path 69" d="M93.519,452.346a1.182,1.182,0,1,0,.347.836A1.192,1.192,0,0,0,93.519,452.346Z" transform="translate(-91.5 -452)" fill="#fff"/>
    </g>
  </g>
</svg>
