<svg xmlns="http://www.w3.org/2000/svg" width="324.63" height="226.975" viewBox="0 0 324.63 226.975">
  <g id="icon" transform="translate(-1572.61 -173.091)">
    <g id="Path_15" data-name="Path 15" transform="translate(1732.539 258.421)">
      <g id="Path_15-2" data-name="Path 15" transform="translate(0 81.84) rotate(-90)">
        <path id="Path_26" data-name="Path 26" d="M80.322,163.6H0L23.441,0H56.721Z" transform="translate(0.758 0.548)" fill="#495464"/>
        <path id="Path_27" data-name="Path 27" d="M24.915,3.633,2.2,161.067h77.44L56.765,3.633H24.915M23.766,0H57.912L81.84,164.7H0Z" transform="translate(0)" fill="none"/>
      </g>
    </g>
    <g id="Path_16" data-name="Path 16" transform="translate(1695.276 197.965)">
      <g id="Path_16-2" data-name="Path 16" transform="matrix(0.766, 0.643, -0.643, 0.766, 31.961, 0)">
        <path id="Path_28" data-name="Path 28" d="M38.811,48.626H16.039L0,0H54.96Z" transform="translate(0.758 0.548)" fill="#495464"/>
        <path id="Path_29" data-name="Path 29" d="M39.174,48.626,54.958,1.1H1.517L17.194,48.626h21.98m.791,1.1H16.4L0,0H56.478Z" transform="translate(0 0)" fill="none"/>
      </g>
    </g>
    <g id="Path_17" data-name="Path 17" transform="translate(1648.984 173.091)">
      <g id="Path_17-2" data-name="Path 17" transform="translate(56.478 49.723) rotate(180)">
        <path id="Path_30" data-name="Path 30" d="M54.96,48.626H0L16.039,0H38.811l7.673,23.1Z" transform="translate(0.758 0.548)" fill="#495464"/>
        <path id="Path_31" data-name="Path 31" d="M17.194,1.1,1.517,48.626H54.958l-8.237-24.8L39.174,1.1H17.194M16.4,0H39.965l7.8,23.479,8.716,26.244H0Z" transform="translate(0 0)" fill="none"/>
      </g>
    </g>
    <g id="Path_18" data-name="Path 18" transform="translate(1572.61 273.883)">
      <g id="Path_18-2" data-name="Path 18" transform="translate(49.723 0) rotate(90)">
        <path id="Path_32" data-name="Path 32" d="M54.96,48.626H0L16.039,0H38.811Z" transform="translate(0.758 0.548)" fill="#495464"/>
        <path id="Path_33" data-name="Path 33" d="M17.194,1.1,1.517,48.626H54.958L39.174,1.1H17.194M16.4,0H39.965L56.478,49.723H0Z" transform="translate(0 0)" fill="none"/>
      </g>
    </g>
    <g id="Path_19" data-name="Path 19" transform="translate(1584.723 198.505)">
      <g id="Path_19-2" data-name="Path 19" transform="matrix(-0.766, 0.643, -0.643, -0.766, 75.226, 38.09)">
        <path id="Path_34" data-name="Path 34" d="M54.96,48.626H0L16.039,0H38.811Z" transform="translate(0.758 0.548)" fill="#495464"/>
        <path id="Path_35" data-name="Path 35" d="M17.194,1.1,1.517,48.626H54.958L39.174,1.1H17.194M16.4,0H39.965L56.478,49.723H0Z" transform="translate(0 0)" fill="none"/>
      </g>
    </g>
    <g id="Path_20" data-name="Path 20" transform="translate(1695.276 325.672)">
      <g id="Path_20-2" data-name="Path 20" transform="matrix(0.766, -0.643, 0.643, 0.766, 0, 36.304)">
        <path id="Path_36" data-name="Path 36" d="M54.96,48.626H0L16.039,0H38.811Z" transform="translate(0.758 0.548)" fill="#495464"/>
        <path id="Path_37" data-name="Path 37" d="M17.194,1.1,1.517,48.626H54.958L39.174,1.1H17.194M16.4,0H39.965L56.478,49.723H0Z" transform="translate(0 0)" fill="none"/>
      </g>
    </g>
    <g id="Path_21" data-name="Path 21" transform="translate(1584.722 325.673)">
      <g id="Path_21-2" data-name="Path 21" transform="matrix(0.766, 0.643, -0.643, 0.766, 31.961, 0)">
        <path id="Path_38" data-name="Path 38" d="M54.96,48.626H0L16.039,0H38.811Z" transform="translate(0.758 0.548)" fill="#495464"/>
        <path id="Path_39" data-name="Path 39" d="M17.194,1.1,1.517,48.626H54.958L39.174,1.1H17.194M16.4,0H39.965L56.478,49.723H0Z" transform="translate(0 0)" fill="none"/>
      </g>
    </g>
  </g>
</svg>
