<svg id="linkdin" xmlns="http://www.w3.org/2000/svg" width="25.866" height="25.866" viewBox="0 0 25.866 25.866">
  <g id="post-linkedin" transform="translate(0 0)">
    <path id="Path_46" data-name="Path 46" d="M23.28,0H2.587A2.594,2.594,0,0,0,0,2.587V23.28a2.594,2.594,0,0,0,2.587,2.587H23.28a2.594,2.594,0,0,0,2.587-2.587V2.587A2.594,2.594,0,0,0,23.28,0ZM7.76,21.986H3.88V10.347H7.76ZM5.82,8.148A2.328,2.328,0,1,1,8.148,5.82,2.318,2.318,0,0,1,5.82,8.148ZM21.986,21.986h-3.88V15.132a1.94,1.94,0,1,0-3.88,0v6.855h-3.88V10.347h3.88V11.9a4.178,4.178,0,0,1,3.233-1.811,4.582,4.582,0,0,1,4.527,4.527Z" fill="#fff"/>
  </g>
</svg>
