<svg xmlns="http://www.w3.org/2000/svg" width="399" height="232" viewBox="0 0 399 232">
  <g id="Main_Comp" data-name="Main Comp" transform="translate(-140 -1869)">
    <g id="Main_Comp-2" data-name="Main Comp" transform="translate(0 -21)">
      <g id="Rectangle_237" data-name="Rectangle 237" transform="translate(140 1890)" fill="#3d4b5e" stroke="#707070" stroke-width="1">
        <rect width="399" height="232" stroke="none"/>
        <rect x="0.5" y="0.5" width="398" height="231" fill="none"/>
      </g>
      <text id="Main_Content" data-name="Main Content" transform="translate(288 1941)" fill="#79c99e" stroke="#ac9d9d" stroke-width="1" font-size="18" font-family="SegoeUI, Segoe UI"><tspan x="0" y="0">Main Content</tspan></text>
      <g id="Rectangle_238" data-name="Rectangle 238" transform="translate(170 1975)" fill="#fff" stroke="#707070" stroke-width="1">
        <rect width="85" height="85" stroke="none"/>
        <rect x="0.5" y="0.5" width="84" height="84" fill="none"/>
      </g>
      <g id="Rectangle_239" data-name="Rectangle 239" transform="translate(424 1975)" fill="#fff" stroke="#707070" stroke-width="1">
        <rect width="85" height="85" stroke="none"/>
        <rect x="0.5" y="0.5" width="84" height="84" fill="none"/>
      </g>
      <g id="Rectangle_240" data-name="Rectangle 240" transform="translate(297 1975)" fill="#fff" stroke="#707070" stroke-width="1">
        <rect width="85" height="85" stroke="none"/>
        <rect x="0.5" y="0.5" width="84" height="84" fill="none"/>
      </g>
    </g>
    <g id="Main_Comp-3" data-name="Main Comp" transform="translate(0 -21)">
      <g id="Rectangle_237-2" data-name="Rectangle 237" transform="translate(140 1890)" fill="#3d4b5e" stroke="#707070" stroke-width="1">
        <rect width="399" height="232" stroke="none"/>
        <rect x="0.5" y="0.5" width="398" height="231" fill="none"/>
      </g>
      <text id="Main_Content-2" data-name="Main Content" transform="translate(288 1941)" fill="#79c99e" font-size="18" font-family="SegoeUI, Segoe UI"><tspan x="0" y="0">Main Content</tspan></text>
      <g id="Rectangle_238-2" data-name="Rectangle 238" transform="translate(170 1975)" fill="#fff" stroke="#707070" stroke-width="1">
        <rect width="85" height="85" stroke="none"/>
        <rect x="0.5" y="0.5" width="84" height="84" fill="none"/>
      </g>
      <g id="Rectangle_239-2" data-name="Rectangle 239" transform="translate(424 1975)" fill="#fff" stroke="#707070" stroke-width="1">
        <rect width="85" height="85" stroke="none"/>
        <rect x="0.5" y="0.5" width="84" height="84" fill="none"/>
      </g>
      <g id="Rectangle_240-2" data-name="Rectangle 240" transform="translate(297 1975)" fill="#fff" stroke="#707070" stroke-width="1">
        <rect width="85" height="85" stroke="none"/>
        <rect x="0.5" y="0.5" width="84" height="84" fill="none"/>
      </g>
    </g>
  </g>
</svg>
