<svg xmlns="http://www.w3.org/2000/svg" width="561.776" height="354.428" viewBox="0 0 561.776 354.428">
  <g id="Map" transform="translate(-42.942 -126.572)">
    <path id="Path_882" data-name="Path 882" d="M210.413,254.246a27.592,27.592,0,0,0-1.215-5.768,2.569,2.569,0,0,0-1.07-1.635,1.793,1.793,0,0,0-1.062-.015l-5.453,1.035a1.883,1.883,0,0,0-1.244.6c-.71.926-.011,2.418-.033,3.7a3.307,3.307,0,0,1-2.17,2.989,6.657,6.657,0,0,1-3.449-.053l-7.625-1.469a12.781,12.781,0,0,0,5.768-4.773c1-1.474,1.537-4.226.087-4.924a2.9,2.9,0,0,0-1.324-.132c-3.455.033-6.173-3.543-9.407-5.05-4.246-1.85-8.97-.1-11.706,4.327l4.062.243a1.548,1.548,0,0,1,1.082.358c.89.907-.217,2.649-.091,4.069.163,1.845,2.139,2.239,3.628,2.426s3.378,1.687,2.662,3.317c-7.485,3.2-15.1-6.25-22.963-5.087-1.99.294-3.868,1.264-5.811,1.873-11.866,3.723-24.133-6.21-36.255-4.107a39.122,39.122,0,0,0-7.914,2.588,10.164,10.164,0,0,0-4.569,2.955c-1.2,1.558-1.655,4.222-.519,5.851a21.658,21.658,0,0,1-9.306-1.1,6.856,6.856,0,0,1,2.68,5.7,47.7,47.7,0,0,0-14.145,5.348,29.914,29.914,0,0,0,2.928,4.836l-6.187,4.929c2.09.653,3.171,4.187,1.955,6.395,2.167-1.2,3.511-4.289,5.828-4.916,1.518-.411,3.063.359,4.5,1.083s3.024,1.425,4.515.882,2.591-2.941,1.643-4.468a63.543,63.543,0,0,1,19.6-3.8,2.06,2.06,0,0,1,1.484.349c.864.743.637,2.349.59,3.651s.772,3.015,1.711,2.428c-1.1,1.188-.16,3.424.9,4.673s2.337,2.972,1.688,4.6c-.169.424-.457.763-.619,1.191a3.541,3.541,0,0,0,1.183,3.574c.9.839,2,1.425,2.629,2.586s.342,3.194-.777,3.357l-3.18-5.006A11.245,11.245,0,0,0,121.3,298.9c3.372,3.418,3.879,10.375,1.056,14.488-1.443,2.1-3.494,3.379-5.285,5.018s-3.447,3.974-3.443,6.733c.008,4.768-.306,9.2,1.134,13.618a235.012,235.012,0,0,0,9.184,23.761c.909,2.015,2.083,4.224,3.924,4.571q-3.489-10.534-6.282-21.395c1.213.006,2.614.125,3.325,1.344.589,1.009.462,2.38.645,3.6a12.726,12.726,0,0,0,1.148,3.348l11.108,24.537c.921,2.034,1.977,4.217,3.737,5.041,1.125.527,2.427.428,3.463,1.186.812.594,1.359,1.649,2.186,2.209,2.34,1.583,5.594-1.453,7.781.437a25.365,25.365,0,0,1,1.6,2.018c2.02,2.169,5.333.718,7.664,2.336,1.5,1.043,2.281,3.128,3.083,5.018,2.008,4.734,5.256,9.372,9.559,9.749,1.352.118,2.732-.2,4.053.173a3.346,3.346,0,0,1,2.41,3.462c-.364,2.845.77,5.96.465,8.815-.555,5.2-6.5,7.487-7.015,12.7-.112,1.14.063,2.317-.156,3.434-.268,1.368-1.1,2.482-1.391,3.842-.558,2.577.931,5.141,2.566,6.875s3.586,3.229,4.481,5.655c.945,2.565.481,5.556.788,8.35.671,6.1,4.92,10.622,9.293,13.538a10.142,10.142,0,0,1,3.625,3.29c1.126,2.012,1.013,4.664,1.389,7.067.92,5.887,4.917,10.737,5.03,16.731.081,4.261-1.829,8.126-2.97,12.146a34.4,34.4,0,0,0,1.865,23.492,40.8,40.8,0,0,1,2.478,5.409c1.077,3.457.728,7.387,1.721,10.883,1.313,4.622,4.922,8.439,4.577,13.32,1.638,4.219,5.256,6.292,8.894,7.548l6.52,2.251a6.875,6.875,0,0,0,3.824.553,3.343,3.343,0,0,0,2.452-3.227c-3.2-.894-6.5-1.845-9.133-4.261s-4.441-6.718-3.441-10.589c.464-1.795,1.45-3.867.512-5.35-.537-.849-1.519-1.071-2.125-1.846-.945-1.208-.62-3.238.059-4.7s1.661-2.759,1.935-4.408a5.074,5.074,0,0,0-1.738-4.785,9.26,9.26,0,0,0,3.227-2.568,4.63,4.63,0,0,0,.573-4.421c1.983.312,4.323.464,5.625-1.416,1.039-1.5.968-3.747.557-5.659a29.062,29.062,0,0,1-1.126-5.748,68.244,68.244,0,0,0,13.7-.576,10.905,10.905,0,0,0-4.167-6.471c2.06-.432,3.936-3.49,4.587-5.952a18.882,18.882,0,0,0,.083-7.685,5.083,5.083,0,0,1-.062-2.013,3.605,3.605,0,0,1,1.63-1.954l10.224-7.281a6.233,6.233,0,0,0,1.635-1.5c1.071-1.56.913-3.916.364-5.849s-1.427-3.751-1.638-5.783c-.632-6.078,4.615-10.439,6.386-16.161a29.7,29.7,0,0,0,.971-7.085c.144-2.577.155-5.57-1.44-7.231-1.53-1.592-3.919-1.237-5.52-2.717-1.467-1.358-1.974-3.994-3.577-5.091-1.456-1-3.281-.362-4.9-.831-2.851-.825-4.645-4.9-7.556-5.276-1.643-.213-3.5.783-4.848-.4-1.186-1.045-1.234-3.146-1.46-4.929-.811-5.675-4.386-10.123-8.96-11.146-1.694-.337-3.537-.209-4.978-1.363-1.459-1.169-2.128-3.357-3.274-4.975-1.847-2.608-4.756-3.535-7.481-4.33l-11.085-3.231c-1.968-.574-4.5-.878-5.56,1.26a11.647,11.647,0,0,0-.658,2.565c-.812,3.3-3.245,5.568-6.024,5.623a7.571,7.571,0,0,0-4.2-4.031,22.035,22.035,0,0,1-3.4-1,5.735,5.735,0,0,1-2.463-3.553,7.2,7.2,0,0,1,.391-4.66,8.726,8.726,0,0,0-1.016-8.865,8.347,8.347,0,0,0-7.139-2.4c-.662-1.791.445-3.812,1.638-5.114s2.641-2.581,2.9-4.525c.409-3.058-2.738-5.38-5.126-4.468s-3.913,3.789-4.921,6.625a21.5,21.5,0,0,1-1.982,4.713c-.912,1.372-2.381,2.355-3.771,1.914-1.967-.623-2.727-3.521-3.162-5.98a47.742,47.742,0,0,1-1.049-10.018c.122-3.374,1.04-6.839,3.046-9.123,3.27-3.722,8.286-3.357,12.7-2.764a4.729,4.729,0,0,1,.331-5.282,4.189,4.189,0,0,1,4.39-1.337,5.973,5.973,0,0,1,3.4,2.521c1.254,1.9,1.611,4.456,2.558,6.608s3.079,3.987,4.824,2.833c1.507-1,1.746-3.588,1.371-5.654s-1.171-4.075-1.036-6.186c.259-4.028,3.627-6.453,6.6-8.112s6.374-3.89,6.845-7.889a8.736,8.736,0,0,1,.353-2.293,4.1,4.1,0,0,1,1.331-1.552c8.673-7.107,17.49-14.3,27.4-18.185.516-.2.576.023,1.1-.136.736-.527.248-1.986-.457-2.573s-1.648-1.038-1.827-2.068a7.923,7.923,0,0,1,.322-2.266c.23-1.882-1.586-3.619-3-2.867-.8-1.308.779-2.827,2.053-3.262a45.975,45.975,0,0,1,11.714-2.373,1.762,1.762,0,0,1,1.333.281,2.331,2.331,0,0,1,.109,2.7,14.31,14.31,0,0,1-1.793,2.018,7.107,7.107,0,0,0-1.269,6.1c2.068,1.3,4.317,2.647,6.607,2.188a4.869,4.869,0,0,0,3.247-6.2c-1-2.374-4.014-2.909-4.532-5.51-.606-3.046,2.871-5.755,2.087-8.738-.343-1.307-1.393-2.076-2.2-3.019a9.667,9.667,0,0,1-1.446-9.084,7.365,7.365,0,0,1-7.31-2.837c-1.748-2.188-3.143-5.64-5.626-5.542-2.278.09-4.241,3.386-6.371,2.38-.524-.247-1.077-.751-1.585-.456a1.718,1.718,0,0,0-.591,1.217c-.541,3.21.39,6.867-1.021,9.641-1.535,3.018-5.086,3.437-6.947,6.158-1.01,1.478-1.4,3.468-2.33,5.026s-2.9,2.548-4.014,1.191a8,8,0,0,0-1.5-8.342,13.8,13.8,0,0,0-3.32-2,19.015,19.015,0,0,1-3.709-2.563,4.292,4.292,0,0,1-1.362-1.807,5.045,5.045,0,0,1,.093-2.857c1.152-4.095,4.038-7.061,7.5-7.7,1.484-.25,3.211-.162,4.193-1.564.52-.742.792-1.863,1.546-2.165a1.886,1.886,0,0,1,1.428.218l5.538,2.417a3.228,3.228,0,0,0,1.973.4,1.6,1.6,0,0,0,1.157-1.743c-.177-1.141-1.592-1.688-1.463-2.838a2.024,2.024,0,0,1,.464-.966c4.047-5.341,9.806-8.162,15.7-7.69.7,1.424-.406,3.109-1.326,4.325s-1.659,3.387-.547,4.322a2.574,2.574,0,0,0,1.475.412,11.122,11.122,0,0,1,3.925,1.476q2.871,1.549,5.631,3.39a10.906,10.906,0,0,1,.142-4.5c.46-1.407,1.767-2.51,2.909-1.963,1.1.528,1.665,2.335,2.837,2.5,1.564.221,2.181-2.644,1.527-4.42s-1.946-3.262-2.054-5.209c-.073-1.314.33-2.943-.516-3.738a2.033,2.033,0,0,0-1-.434l-21.127-4.821c-1.255-.286-3.067-.067-3.123,1.513-.031.882.6,1.755.323,2.566-.3.866-1.287.786-2.006,1.093-1.115.475-1.675,2.117-1.568,3.573a11.38,11.38,0,0,0,1.323,4.027C213.867,255.09,211.787,254.958,210.413,254.246Z" transform="translate(-36.85 -95.159)" fill="#2e3847"/>
    <path id="Path_883" data-name="Path 883" d="M283.459,228.84c-2.729-1.12-5.732,0-7.515,2.791a2.2,2.2,0,0,0-.349,1.966c.418.882,1.481.534,2.266.218a4.663,4.663,0,0,1,3.579-.106c.737.314,1.4.868,2.135,1.169a1.826,1.826,0,0,0,2.192-.4,4.187,4.187,0,0,0,.54-2.54,2.379,2.379,0,0,0-.42-1.679,1.859,1.859,0,0,0-.971-.356,3.283,3.283,0,0,1-1.957-1.418" transform="translate(-126.754 -91.992)" fill="#3f3d56"/>
    <path id="Path_884" data-name="Path 884" d="M302.777,225.125a1.654,1.654,0,0,0-1.53.934,2.606,2.606,0,0,0-.153,2.106,5.739,5.739,0,0,0,2.813.227,2.684,2.684,0,0,0,1.966-2.235,3.813,3.813,0,0,1-3.2-.759" transform="translate(-138.454 -90.908)" fill="#3f3d56"/>
    <path id="Path_885" data-name="Path 885" d="M345.49,217.167a28.333,28.333,0,0,0-7.212,3.038c2.225,1.061,3.63,3.8,3.461,6.749a4.335,4.335,0,0,0,.033,1.669,2.268,2.268,0,0,0,1.707,1.3,9.228,9.228,0,0,0,3.744.593,3.805,3.805,0,0,0,3.1-2.349,19.133,19.133,0,0,1,.645-1.889c1.617-3.055,6.423.639,8.159-2.314.612-1.04.556-2.606,1.353-3.43a2.721,2.721,0,0,1,1.391-.658,80.083,80.083,0,0,1,10.567-1.866c1.681-.181,3.871-.93,3.885-3.022a24.265,24.265,0,0,0-18.672,3.115c-2.081,1.293-4.834,4.012-6.839,2.3-.751-.642-.714-2.37-1.747-3.091C348.01,216.572,346.611,216.872,345.49,217.167Z" transform="translate(-155.607 -87.343)" fill="#2e3847"/>
    <path id="Path_886" data-name="Path 886" d="M389.027,221.775l2.972.708a3.5,3.5,0,0,0-2.948,1.463,5.5,5.5,0,0,0-1.059,3.712c2.783,1.153,5.817.031,8.748.184s6.342,2.75,5.842,6.335c-.151,1.084-.656,2.167-.394,3.218a12.632,12.632,0,0,0,1,1.937,5.163,5.163,0,0,1-.654,4.486c-.778,1.285-1.824,2.31-2.507,3.676-1.7,3.4-.733,7.787.278,11.581A11.317,11.317,0,0,0,401.892,263c1.5,1.976,3.942,2.148,6.129,2.188,1.592.029,3.416-.069,4.423-1.6,1.315-2,.4-5.113,1.261-7.457.786-2.129,2.789-3.042,4.6-3.69a59.944,59.944,0,0,0,9.854-3.988c3.9-2.226,7.549-5.694,11.838-5.981a13.177,13.177,0,0,0,3.6-.313,3.269,3.269,0,0,0,2.172-3.142,6.335,6.335,0,0,0-1.623-3.168c-.679-.96-1.212-2.436-.588-3.452l11.242-2.6c-.8-2.693-1.418-6.24.413-7.993.661-.632,1.545-.885,2.108-1.65.959-1.3.477-3.548-.63-4.656a6.278,6.278,0,0,0-4.021-1.512,87.059,87.059,0,0,0-14.826.163l-28.963,1.969c-1.943.132-4.187-.07-5.97.753-1.509.7-2.582,1.974-4.308,2.423C395.416,220.118,391.91,219.557,389.027,221.775Z" transform="translate(-178.441 -87.149)" fill="#2e3847"/>
    <path id="Path_887" data-name="Path 887" d="M487.372,267.866a1.019,1.019,0,0,0-.865.243,1.536,1.536,0,0,0-.282.827,6.556,6.556,0,0,0,.64,3.91,2.922,2.922,0,0,0,2.826,1.68c1.338-.212,2.324-1.627,3.554-2.318,1.9-1.064,9.948-2.722,4.378-6.453-1.92-1.286-3.16-.151-4.673.7A8.928,8.928,0,0,1,487.372,267.866Z" transform="translate(-223.549 -104.112)" fill="#2e3847"/>
    <path id="Path_888" data-name="Path 888" d="M577.2,221.43a3.5,3.5,0,0,0-1.547,1.67,1.92,1.92,0,0,0,.51,2.236,1.673,1.673,0,0,0,.759.149l2.644.1c1.123.042,2.527.338,2.829,1.681.224,1-.277,2.278.328,2.99a1.534,1.534,0,0,0,.9.435,4.979,4.979,0,0,0,2.665.107c1.924-.64.913-2.1,1.519-3.393.927-1.984.767-.783,2.4-1.92,1.207-.84,2.766-2.363,1.759-4.5C590.218,217.257,579.789,219.831,577.2,221.43Z" transform="translate(-264.595 -88.911)" fill="#2e3847"/>
    <path id="Path_889" data-name="Path 889" d="M665.169,219.624l-1.536.254a51.356,51.356,0,0,0-10.28,2.441,14.464,14.464,0,0,0,4.5,1.37,11.345,11.345,0,0,1,2.522.445c1.473.544,2.958,1.948,4.381,1.229.882-.446,1.17-1.585,1.9-2.189.5-.417,2.419-1.092,2.633-1.513C671.023,218.258,666.5,219.4,665.169,219.624Z" transform="translate(-300.364 -88.976)" fill="#2e3847"/>
    <path id="Path_890" data-name="Path 890" d="M681.682,231.844a30.064,30.064,0,0,0-5.667,5.146,4.592,4.592,0,0,0-1.393,3.112c.087,1.628,1.486,2.573,2.7,3.209l4.909,2.577c.6-1.041.05-2.478-.565-3.5s-1.347-2.206-1.075-3.437c.31-1.4,1.691-1.883,2.85-2.125,1.887-.394,6.977-.363,6.366-4.134C689.084,228.249,683.577,230.531,681.682,231.844Z" transform="translate(-310.133 -92.542)" fill="#2e3847"/>
    <path id="Path_891" data-name="Path 891" d="M685.575,595.322a7.054,7.054,0,0,0,.3,5.119,3.775,3.775,0,0,0,4.293,1.84,7.785,7.785,0,0,0,3.986-3.178,17.874,17.874,0,0,0,2.293-4.36,40.639,40.639,0,0,0,1.7-7.71l1.524-9.924c.341-2.218.327-9.017-2.96-6.8-.9.605-2.977,5.384-3.918,6.739-1.7,2.442-1.921,4.812-2.814,7.77C688.857,588.522,686.61,591.61,685.575,595.322Z" transform="translate(-315.014 -204.563)" fill="#2e3847"/>
    <path id="Path_892" data-name="Path 892" d="M1003.039,682.69a22.305,22.305,0,0,1-3.124-1.844,39.7,39.7,0,0,0-1.584,10.7l7.36-5.165c1.107-.777,2.362-1.857,2.338-3.434a1.181,1.181,0,0,0-.407-.988.816.816,0,0,0-.516-.075,10.831,10.831,0,0,0-3.116,1.242,3.143,3.143,0,0,1-3.178.021" transform="translate(-458.858 -241.15)" fill="#2e3847"/>
    <path id="Path_893" data-name="Path 893" d="M1068.737,686.6a14.054,14.054,0,0,0-2.36,1.05c-1.689,1.066-2.838,3.09-4.358,4.493a15.964,15.964,0,0,1-4.924,2.8,1.692,1.692,0,0,0,.276,2.157,2.889,2.889,0,0,0,1.944.542c1.786.049,3.667.07,5.231-1a17.675,17.675,0,0,0,2.463-2.424,25.3,25.3,0,0,1,6.2-4.347,7.006,7.006,0,0,0,2.161-1.6c1.366-1.669,1.462-4.243-.508-4.812C1073.267,683,1070.25,685.995,1068.737,686.6Z" transform="translate(-485.727 -241.995)" fill="#2e3847"/>
    <path id="Path_894" data-name="Path 894" d="M1105.069,664.373a8.707,8.707,0,0,0-1.878-6.239c-.02,2.3-.077,4.745-1.119,6.645-.742,1.354-1.907,2.268-2.72,3.558s-1.175,3.333-.22,4.465a3.161,3.161,0,0,0,2.119.905c1.9.277,4.1.432,5.43-1.27.727-.929,1.081-2.3,1.968-2.987a2.482,2.482,0,0,0,.863-.766,1.547,1.547,0,0,0-.87-1.933c-.655-.26-1.377-.138-2.035-.385a1.555,1.555,0,0,1-.924-1.908" transform="translate(-504.907 -233.662)" fill="#2e3847"/>
    <path id="Path_895" data-name="Path 895" d="M1028.885,537.872a6.933,6.933,0,0,1-3.047.223c-1.691-.385-3.007-1.966-4.372-3.262a17.083,17.083,0,0,0-11.268-4.882c-3.71-.087-7.454,1.16-11.1.29a5.21,5.21,0,0,0,2.58,3.6c1.209.732,2.543,1.1,3.758,1.817a10.436,10.436,0,0,1,4.346,5.606,17.876,17.876,0,0,0,1.23,3.353c1.211,2.021,3.507,2.465,5.533,2.3,2.642-.216,5.4-1.158,7.858.063,1.88.934,3.226,2.974,4.8,4.561s3.781,2.764,5.583,1.619c-3.843-1.543-6.431-6-6.387-11.013,1.768.2,6.86.124,6.586-3.6C1034.751,535.393,1030.4,537.531,1028.885,537.872Z" transform="translate(-459.212 -191.401)" fill="#2e3847"/>
    <path id="Path_896" data-name="Path 896" d="M966.546,574.774c.314-2.135,2.031-4.02,1.5-6.086a3.02,3.02,0,0,0-2.916-2.17c-1.21-.035-2.4.412-3.608.454a14.2,14.2,0,0,0-2.363.042c-2.4.49-3.882,3.611-6.145,4.721-1.376.675-2.922.546-4.353,1.012-3.249,1.059-5.3,4.866-7.575,7.935A26.5,26.5,0,0,1,927.36,590.6c-1.847.53-3.833.87-5.3,2.357-1.944,1.97-2.423,5.347-2.855,8.414a166.023,166.023,0,0,1-5.456,24.836l7.714,1.221a8.508,8.508,0,0,0,4.4-.079,12.207,12.207,0,0,0,2.894-1.911,25.589,25.589,0,0,1,11.287-5.052,9.785,9.785,0,0,1,6.034.524,6.8,6.8,0,0,1,3.681,5.563,4.12,4.12,0,0,1,4.737,1.429,11.276,11.276,0,0,1,2.261,5.6c.2,1.309.407,2.877,1.386,3.426.8.448,1.715-.034,2.589-.121,2.966-.294,5.427,3.994,8.342,3.256,3.126-.792,3.894-6.6,6.944-7.761,1.752-.668,4.209.144,5.048-1.876.739-1.781-.736-3.836-.584-5.83.187-2.456,2.523-3.5,4.324-4.545,6.208-3.612,9.154-13.973,6.146-21.614-1.782-4.527-5.289-8.092-5.937-13.065-.5-3.827.718-8.289-1.249-11.3-1-1.532-2.7-2.378-3.291-4.206a25.408,25.408,0,0,1-.426-3.672c-.2-1.216-1.057-2.487-2.025-2.172-2.81.915-3.707,11.68-5.212,14.3C970.519,582.292,965.822,579.673,966.546,574.774Z" transform="translate(-419.997 -202.618)" fill="#2e3847"/>
    <path id="Path_897" data-name="Path 897" d="M911.927,547.629a3.708,3.708,0,0,0-2.929-.186,2.17,2.17,0,0,0-.719,2.984c5.778-.279,11.591-.556,17.32.417,6.6,1.121,13.133,3.9,19.762,3.081a84.517,84.517,0,0,0-11.528-3.317l-6.49-1.537a41.247,41.247,0,0,0-5.27-1.01C918.37,547.681,915.567,548.895,911.927,547.629Z" transform="translate(-417.326 -197.091)" fill="#2e3847"/>
    <path id="Path_898" data-name="Path 898" d="M921.32,506.365c-.48-.05-1.074-.092-1.322.419-.237.489.034,1.134-.093,1.682a1.3,1.3,0,0,1-1.588.838c-.623-.1-1.3-.346-1.848.026a2.209,2.209,0,0,0-.606,2.207,6.009,6.009,0,0,0,1.068,2.112A20.064,20.064,0,0,0,919.7,517.1c1.986,1.818,4.676,2.694,5.927,5.332a3.585,3.585,0,0,0,.792,1.321c.6.472,1.383.113,2.03-.254l2.266-1.284a2.629,2.629,0,0,0,1.059-.893,3.473,3.473,0,0,0-.235-3.048,6.043,6.043,0,0,1-.9-2.985c.166-1.918,2.155-2.652,2.973-4.293s.288-3.786.383-5.727c.111-2.27,1.261-5.223-.589-6.919-1.573-1.442-3.076-.11-4.206,1.482C926.824,503.183,925.7,506.819,921.32,506.365Z" transform="translate(-420.934 -180.78)" fill="#2e3847"/>
    <path id="Path_899" data-name="Path 899" d="M951.112,456.758c.774,1.837,2.386,2.933,3.23,4.722.914,1.939.81,4.444,1.8,6.324,1.018,1.928,3.066,2.952,3.637,5.145.623,2.394-.791,5.3.336,7.4a2.431,2.431,0,0,0,1.762,1.21,2.218,2.218,0,0,0,1.911-.791,3.936,3.936,0,0,0-.111-4.661c-.667-.754-1.626-1.08-2.183-1.962a4.709,4.709,0,0,1-.565-1.707,13.778,13.778,0,0,1,.142-5.355,2.918,2.918,0,0,0,.109-1.4c-.251-.9-1.238-.968-1.931-1.388-1.574-.953-1.535-3.707-1.261-5.851-.183,1.428-4.284-1-4.714-1.809-.853-1.607-.389-4.706-.558-6.481C950.877,451.249,950.166,454.513,951.112,456.758Z" transform="translate(-436.972 -165.094)" fill="#2e3847"/>
    <path id="Path_900" data-name="Path 900" d="M871.862,501.333c-.757-1.051-1.9-2.15-2.912-1.516a2.607,2.607,0,0,0-.684,2.819,6.074,6.074,0,0,0,1.651,2.441,63.251,63.251,0,0,1,6.238,6.63c3.3,4.5,5.051,10.571,8.642,14.716a4.666,4.666,0,0,0,2.721,1.826,2.2,2.2,0,0,0,2.341-2,4.238,4.238,0,0,0-1.086-2.811c-1.395-1.881-2.922-3.613-4.239-5.579a5.213,5.213,0,0,1-1.084-2.806c-.007-1.059.772-2.167,1.6-1.9-1.006-.319-1.752-2.4-3.228-2.788-1.234-.326-1.532.621-3-.16C876.021,508.708,873.823,504.056,871.862,501.333Z" transform="translate(-399.041 -181.407)" fill="#2e3847"/>
    <path id="Path_901" data-name="Path 901" d="M984.156,348.924a20.442,20.442,0,0,1-2.366-1.048,3.592,3.592,0,0,0-4.553,3.791c.184,1.774,1.516,2.97,2.251,4.509,1.09,2.282.8,5.177.227,7.732a6.838,6.838,0,0,1-.787,2.2,6.24,6.24,0,0,1-1.864,1.662,27.255,27.255,0,0,0-7.292,7.682,2.425,2.425,0,0,0-.44,1.029c-.1.9.632,1.558,1.045,2.31.918,1.67.254,3.918.345,5.936a1.847,1.847,0,0,0,.57,1.472c.553.348,1.209-.243,1.508-.917.995-2.235.245-5.823,2.112-6.9.353-.2.781-.29,1.017-.674.374-.61.013-1.514.2-2.243.284-1.095,1.492-1.144,2.419-1.1a11.269,11.269,0,0,0,4.716-.779,3.071,3.071,0,0,0,1.561-1.121,5.09,5.09,0,0,0,.4-3.189,50.758,50.758,0,0,0-4.119-15.585c1.64.26,3.423.485,4.838-.575a3.917,3.917,0,0,0,1.349-3.575C986.673,347.635,985.549,349.243,984.156,348.924Z" transform="translate(-445.53 -131.319)" fill="#2e3847"/>
    <path id="Path_902" data-name="Path 902" d="M550.651,387.4a9.654,9.654,0,0,1,.044,3.936c-.345,1.257-1.43,2.307-2.454,1.922-.8-.3-1.254-1.29-1.819-2.046-3.14-4.2-10.223-1.77-12.163-6.97-.792-2.122-.254-4.665-.794-6.905-.7-2.663-2.765-4.4-5.019-4.228a8.891,8.891,0,0,0-2.888,1.069,61.664,61.664,0,0,1-19.137,5.935,13.032,13.032,0,0,0-3.677.83c-2.7,1.212-4.538,4.312-5.85,7.475s-2.279,6.587-4.037,9.4c-1.847,2.953-4.436,5.022-6.851,7.258a8.164,8.164,0,0,0-2.26,2.937,11.237,11.237,0,0,0-.453,4.364l.493,17.994a19.748,19.748,0,0,0,.979,6.783c1.043,2.586,3.1,4.28,4.533,6.565a15.016,15.016,0,0,1,2.151,8.212c-.03,1.191-.126,2.6.622,3.348a2.364,2.364,0,0,0,1.53.546l19.629,1.992c3.453.35,7.279.927,9.534,4.189,1.064,1.54,1.919,3.754,3.548,3.919a10.8,10.8,0,0,0,2.078-.354c1.764-.173,3.313,1.487,4.291,3.316a17.514,17.514,0,0,1,1.905,9.438c-.16,2.086-.682,4.114-.794,6.2-.428,7.955,5.011,14.867,5.116,22.839.062,4.689-1.733,9.07-3.483,13.228,2.825,5.306.512,12.372,1.636,18.575,1.067,5.885,5.024,10.492,6.01,16.4.451,2.7.477,6.032,2.4,7.425a4.586,4.586,0,0,0,2.716.674,30.218,30.218,0,0,0,16.306-4.6c2.378-1.463,4.842-3.647,5.257-6.9.335-2.622-.737-5.554.354-7.838,1.286-2.692,4.58-2.478,6.473-4.548,3.07-3.357.676-9.76,1.92-14.6,1.118-4.346,4.966-6.656,6.874-10.557a21.772,21.772,0,0,0,1.6-5.368,93.837,93.837,0,0,0,1.625-13.692q.076-4.207.5-8.387c2.057-15.845,14.689-26.455,18.79-41.677.392-1.454.576-3.39-.467-4.213a2.466,2.466,0,0,0-1.986-.258l-9.048,1.415a5.087,5.087,0,0,1-3.347-.239,2.907,2.907,0,0,1-1.224-3.428c1.537-3.452-1.625-7.814-3.029-11.352a178.349,178.349,0,0,0-13.452-27.052,3.079,3.079,0,0,1-.59-1.588l2.568.106c-.867-3.857-2.3-8.078-5.32-9.489-1.7-.8-3.589-.52-5.406-.4C561.38,389.358,555.8,388.384,550.651,387.4Z" transform="translate(-222.223 -139.69)" fill="#2e3847"/>
    <path id="Path_903" data-name="Path 903" d="M580.757,251.905c1.362,1.793,2.888,3.695,4.858,4.007,3.48.552,5.982-3.911,7.575-7.787.123,2.055,1.542,3.615,3.2,3.52a5.67,5.67,0,0,0,2.408-1.167,40.467,40.467,0,0,1,22.476-7.205,3.034,3.034,0,0,1,1.854-3.309c1.6-.393,3.037,1.32,3.807,3.1s1.251,3.841,2.476,5.173,3.595,1.274,4.079-.655c.464-1.851-1.091-3.43-2.384-4.522s-2.654-3.112-1.784-4.723c6.6-1.812,13.245-3.631,20-3.992a6.948,6.948,0,0,0,3.367-.719,3.44,3.44,0,0,0,1.572-3.431c-3.016.879-6.16-.592-7.956-3.721,9.374-.959,19.344-1.777,27.651,3.693,1,2.654-4.084,4.862-2.725,7.255a2.2,2.2,0,0,0,2.055.87c5.773.133,11.579.263,17.287-.818,2.086-.395,4.193-.953,6.287-.632,3.488.533,6.471,3.419,9.9,4.361a4.412,4.412,0,0,0,4.14-.611,3.761,3.761,0,0,0,.719-4.611c3.231-3.927,8.594-2.954,12.856-1.074s8.3,4.912,12.812,5.331c3.235.3,6.515-.779,9.712-.093,2.009.431,3.878,1.539,5.842,2.22,3.713,1.288,7.641,1.016,11.5,1.078a67.223,67.223,0,0,1,28.707,7.074,8.382,8.382,0,0,1,3.191,2.338,4.575,4.575,0,0,1,.713,4.257l-9.445-1.711c.89,2.172,3.192,2.543,5.062,3.292s3.808,3.31,2.685,5.309c-2.026-.8-3.862,1.712-4.885,4.023s-2.27,5.078-4.393,5.219c-1.9.126-4.2-1.881-5.439-.089a48.807,48.807,0,0,1,4.371,8.665c1.224,3.163,2.1,7.148.441,9.993a2.221,2.221,0,0,1-1.117,1.074c-1.351.424-2.229-1.626-3.2-2.868-1.221-1.566-3.068-2.009-4.722-2.744s-3.4-2.179-3.525-4.351a10.283,10.283,0,0,1,.919-3.857,18.077,18.077,0,0,0,.911-6.665,8.662,8.662,0,0,0-1.569-5.022c-1.062-1.281-2.9-1.687-4.035-.514-.532.547-.958,1.423-1.649,1.456-1.22.058-2.158-2.581-3.14-1.68a4.974,4.974,0,0,1-.453,2.767c-2.93,3.16-7.432,1.823-11.209,2.94a19.228,19.228,0,0,0-5.114,2.77,3.584,3.584,0,0,0-1.462,1.522,3.2,3.2,0,0,0,.88,3.347,6.137,6.137,0,0,0,2.9,1.227c4.605,1.082,9.278,2.756,12.914,6.424s6.02,9.732,4.87,15.366l-9.082-10.761q.517,6.778.587,13.592a7.474,7.474,0,0,1-.288,2.614c-.647,1.773-2.4,2.37-3.94,2.761A3.184,3.184,0,0,0,752.757,313a4.64,4.64,0,0,0-.3,3.11,16.518,16.518,0,0,0,3.156,5.645,11.778,11.778,0,0,1,2.638,5.966c.163,2.3-1.237,4.895-3.095,4.734-1.409-.121-2.454-1.685-3.055-3.27a23.148,23.148,0,0,0-1.861-4.7c-2.733-4.075-8.87-2.329-11.318-6.674a8.137,8.137,0,0,0-1.145,6.533c1.139-.884,2.7-.063,3.553,1.222a32.919,32.919,0,0,1,1.931,4.374c.907,1.947,2.35,3.673,2.476,5.915a23.966,23.966,0,0,0,.035,2.544c.225,1.359,1.151,2.335,1.793,3.47,1.494,2.643,1.421,6.274.457,9.272a29.605,29.605,0,0,1-4.407,7.934,89.123,89.123,0,0,1-9.6,11.985,11.64,11.64,0,0,0-2.724,3.4c-.631,1.406-.663,3.379.306,4.448-.694.043-1.937.466-2.631.509a93.975,93.975,0,0,1-.159-10.375c-2.737-1.629-5.683,2.734-5.33,6.473s2.534,6.739,4.087,9.974a14.019,14.019,0,0,1,1.6,7.836c-.379,2.712-2.332,5.215-4.543,4.976-3.518-.381-4.989-6.643-8.473-7.36a1.173,1.173,0,0,0-.917.113c-.517.352-.607,1.21-.636,1.94-.143,3.586-.266,7.314.863,10.62,1.651,4.836,5.917,8.9,5.022,14.032-4.821-2.779-7.327-9.483-8.465-15.922s-1.328-13.2-3.368-19.287c-1.549,2.462-4.8.427-6.22-2.156-1.342-2.449-2.168-5.281-3.47-7.763s-3.3-4.7-5.681-4.84c-2.5-.143-4.669,1.985-6.576,3.995a18.259,18.259,0,0,0-4.095,5.657c-1.334,3.325-.985,7.246-1.049,10.959-.07,4.014-.756,8.25-2.962,11.189s-6.279,3.962-8.712,1.314c-1.271-1.383-1.886-3.449-2.434-5.432q-3.962-14.338-6.589-29.166c-.409,2.253-2,5.156-3.528,3.829a3.924,3.924,0,0,1-.813-1.3c-2.842-5.974-8.106-9.557-13.425-11.706s-10.914-3.151-16.174-5.512a38.5,38.5,0,0,1-8.39-5.183,9.878,9.878,0,0,0-.4,8.37c1.167,2.562,3.807,4.044,6.067,3.148,1.168-.463,2.154-1.468,3.313-1.965a2.325,2.325,0,0,1,3.221,1.132c.485,1.325-.248,2.928.116,4.312.554,2.107,3.117,2.27,4.013,4.187a4.51,4.51,0,0,1-.834,4.473,14.98,14.98,0,0,1-3.385,2.584c-3.771,2.6-6.453,7.039-9.749,10.493s-7.946,5.975-11.873,3.76c.936-5.879-4.711-10.2-5.75-16.047-.342-1.926-.165-3.972-.653-5.85-.707-2.718-2.651-4.586-4.246-6.646A29.9,29.9,0,0,1,592.6,339.31c.086-2.419.445-4.877,0-7.234s-2.018-4.639-3.969-4.532c-4.455.244-10.067.655-12.4-4.054-.834-1.681-1.2-4.142.009-5.43.851-.908,2.107-.823,3.224-.686L589.5,318.6c2.348.286,4.885.523,6.9-1s2.887-5.562,1.022-7.352c-1.363-1.308-3.8-1.237-4.2-3.317-.33-1.732,1.216-3.7.381-5.146-.6-1.038-1.945-.75-2.761.028s-1.408,1.916-2.321,2.505c-1.6,1.034-3.515.05-5.239-.619s-4.033-.725-4.869,1.259c-.935,2.22.829,5.128-.1,7.352-1.227,2.941-5.38,1.267-7.1,3.8-1.977,2.9,1.345,7.23.678,10.938a4.593,4.593,0,0,1-5.41-.377,7.2,7.2,0,0,1-2.271-6.067c.165-1.668.866-3.371.4-4.947a5.244,5.244,0,0,0-2.371-2.69l-9.754-6.684c-.906,2.083.239,4.666,1.671,6.23s3.225,2.743,4.166,4.8c1.235,2.962.4,6.6-1.913,8.311a.99.99,0,0,1-.967.209,1.686,1.686,0,0,1-.627-1.046c-1.721-5.461-4.3-10.846-8.436-13.7s-10.067-2.266-12.776,2.54c-.643,1.142-1.075,2.443-1.636,3.65a16.166,16.166,0,0,1-15.327,9.25,2.582,2.582,0,0,1-1.672-.487c-.964-.826-.921-2.578-.773-4.019l.626-6.116a5.521,5.521,0,0,1,1.092-3.352c1.1-1.081,2.7-.4,4.106-.424,2.184-.127,4.071-1.933,4.723-4.52a8.475,8.475,0,0,0-1.633-7.232c-.645-.751-1.511-1.695-1.17-2.707a1.844,1.844,0,0,1,1.266-1.057c2.528-.91,5.2-1.149,7.684-2.223a9.026,9.026,0,0,0,5.485-6.453c.18-.975.263-2.156.969-2.639a2.429,2.429,0,0,1,1.119-.284c2.793-.493,4.821-3.549,4.673-7.042,1.191-1.032,2.86-.273,4.013.825s2.17,2.548,3.572,3.021c2.613.882,5.139-1.987,7.847-2,1.139-.006,2.318.494,3.389.015s1.735-1.826,2.568-2.817,2.3-1.595,3.066-.528l-.655-6.021a8.064,8.064,0,0,0,7.768-1.742l-8.472-3.55a1.764,1.764,0,0,1-.792-.525c-.616-.822,0-2.1.5-3.039,1.2-2.236,1.4-5.921-.571-7.034-1.345-.76-2.889.152-4.179,1.045L555,259.9c-.2,1.457,1.241,2.283,2.131,3.265a5.175,5.175,0,0,1,.974,4.862,3.707,3.707,0,0,1-3.3,2.882,6.585,6.585,0,0,1,.8,4.682l-4.16.371a1.523,1.523,0,0,1-1.349-.327c-.445-.49-.385-1.349-.488-2.076a4.008,4.008,0,0,0-3.048-3.3,8.748,8.748,0,0,0-4.26.488,2.088,2.088,0,0,1-1.831-.052,2.253,2.253,0,0,1-.724-1.134,6.917,6.917,0,0,1,.946-5.592,28.081,28.081,0,0,1,3.547-4.045,26.906,26.906,0,0,0,6.147-11.823c2.29-1.19,4.661-2.807,6.951-4a17.816,17.816,0,0,1,11.434-2.747l7.756.184a15.309,15.309,0,0,1,6.778,1.21,7.676,7.676,0,0,1,4.136,6.276,2.21,2.21,0,0,1-.5,1.761,1.549,1.549,0,0,1-.981.274C583.812,251.151,582.9,251.812,580.757,251.905Z" transform="translate(-236.392 -91.124)" fill="#2e3847"/>
    <path id="Path_904" data-name="Path 904" d="M517.535,308.157a3.286,3.286,0,0,0,.619-2.831,3.645,3.645,0,0,0-4.4,1.029,9.289,9.289,0,0,0-1.178,1.931c-1.019,2.062-1.921,4.525-1.33,6.83a1.965,1.965,0,0,0,.716,1.215,1.558,1.558,0,0,0,.835.162,22.655,22.655,0,0,0,3.359-.256A1.944,1.944,0,0,0,517.9,315.1c.348-1.038-.494-2.213-.249-3.294a3.708,3.708,0,0,1,.717-1.273,1.924,1.924,0,0,0,.423-1.413c-.1-.508-.726-.8-.952-.355" transform="translate(-234.99 -117.233)" fill="#2e3847"/>
    <path id="Path_905" data-name="Path 905" d="M530.217,295.614a7.631,7.631,0,0,0-3.044-.237,1.121,1.121,0,0,0-.649.183,1.383,1.383,0,0,0-.4.718,3.856,3.856,0,0,0,1.674,4.37,3.239,3.239,0,0,1,1.038.517c.861.828.312,2.521.475,3.857.183,1.5,1.354,2.759,1.139,4.253-.169,1.177-1.183,2.109-1.019,3.287.171,1.234,1.433,1.6,2.44,1.7a2.527,2.527,0,0,0,1.729-.246,3.416,3.416,0,0,0,1.091-1.959,15.373,15.373,0,0,0,.51-4.727,5.356,5.356,0,0,0-.43-2.086,11.3,11.3,0,0,0-1-1.426C531.839,301.039,533.869,296.89,530.217,295.614Z" transform="translate(-241.85 -114.05)" fill="#2e3847"/>
    <path id="Path_906" data-name="Path 906" d="M645.844,522.836s-147.685-105.122-211.265-85.2c0,0-134.744,17.981-150.361,57.54,0,0-42.833-165.982-58.449-171.514" transform="translate(-103.917 -123.393)" fill="none" stroke="#79c99e" stroke-miterlimit="10" stroke-width="2" opacity="0.8"/>
    <path id="Path_907" data-name="Path 907" d="M284.219,494.628c24.763-81.885,247.85-172.621,247.85-172.621-31.678,9.959-97.489,115.08-97.489,115.08S295.373,311.494,225.77,323.113c0,0,306.521,12.449,420.072,199.178" transform="translate(-103.917 -122.849)" fill="none" stroke="#79c99e" stroke-miterlimit="10" stroke-width="2" opacity="0.8"/>
    <ellipse id="Ellipse_158" data-name="Ellipse 158" cx="6.469" cy="8.022" rx="6.469" ry="8.022" transform="translate(115.384 192.242)" fill="#79c99e"/>
    <ellipse id="Ellipse_159" data-name="Ellipse 159" cx="6.469" cy="8.022" rx="6.469" ry="8.022" transform="translate(173.832 363.757)" fill="#79c99e"/>
    <ellipse id="Ellipse_160" data-name="Ellipse 160" cx="6.469" cy="8.022" rx="6.469" ry="8.022" transform="translate(421.681 191.136)" fill="#79c99e"/>
    <ellipse id="Ellipse_161" data-name="Ellipse 161" cx="6.469" cy="8.022" rx="6.469" ry="8.022" transform="translate(535.456 391.42)" fill="#79c99e"/>
    <ellipse id="Ellipse_162" data-name="Ellipse 162" cx="6.469" cy="8.022" rx="6.469" ry="8.022" transform="translate(324.193 306.216)" fill="#79c99e"/>
  </g>
</svg>
