<svg xmlns="http://www.w3.org/2000/svg" width="142.056" height="160.5" viewBox="0 0 142.056 160.5">
  <g id="nodejslogo" transform="translate(-59.084 -40.001)">
    <g id="Group_27" data-name="Group 27" transform="translate(59.084 40.001)">
      <path id="Path_270" data-name="Path 270" d="M123.08,186.5a12.434,12.434,0,0,1-6.168-1.656L97.295,173.221c-2.925-1.656-1.494-2.229-.54-2.548a38.6,38.6,0,0,0,8.87-4.045,1.432,1.432,0,0,1,1.463.128l15.07,8.949a1.839,1.839,0,0,0,1.812,0l58.724-33.951a1.885,1.885,0,0,0,.89-1.592v-67.9a1.9,1.9,0,0,0-.921-1.624L123.97,36.718a1.837,1.837,0,0,0-1.812,0L63.5,70.668a1.859,1.859,0,0,0-.922,1.624v67.869a1.758,1.758,0,0,0,.922,1.561l16.088,9.3c8.744,4.363,14.085-.764,14.085-5.955V78.057a1.684,1.684,0,0,1,1.717-1.688h7.44a1.7,1.7,0,0,1,1.717,1.688V145.1c0,11.656-6.359,18.345-17.391,18.345-3.4,0-6.073,0-13.513-3.694l-15.388-8.886a12.388,12.388,0,0,1-6.168-10.733V72.261a12.426,12.426,0,0,1,6.168-10.733l58.66-33.951a12.855,12.855,0,0,1,12.336,0L187.972,61.56a12.388,12.388,0,0,1,6.168,10.733v67.869a12.466,12.466,0,0,1-6.168,10.733l-58.725,33.95A12.349,12.349,0,0,1,123.08,186.5Zm47.406-66.913c0-12.708-8.585-16.084-26.612-18.472-18.251-2.421-20.094-3.663-20.094-7.93,0-3.535,1.558-8.249,15.07-8.249,12.05,0,16.5,2.612,18.345,10.765a1.7,1.7,0,0,0,1.653,1.337h7.632a1.659,1.659,0,0,0,1.24-.542,1.768,1.768,0,0,0,.444-1.306c-1.176-14.045-10.492-20.574-29.314-20.574-16.755,0-26.738,7.07-26.738,18.95,0,12.867,9.951,16.434,26.007,18.026,19.236,1.88,20.73,4.714,20.73,8.5,0,6.561-5.277,9.363-17.645,9.363-15.547,0-18.95-3.917-20.094-11.656a1.684,1.684,0,0,0-1.685-1.433h-7.6a1.677,1.677,0,0,0-1.684,1.687c0,9.906,5.373,21.721,31.095,21.721,18.567-.032,29.25-7.39,29.25-20.193Z" transform="translate(-52.084 -26.001)" fill="#539e43"/>
    </g>
  </g>
</svg>
