<svg id="postgresql-inc" xmlns="http://www.w3.org/2000/svg" width="121.863" height="121.863" viewBox="0 0 121.863 121.863">
  <path id="Path_934" data-name="Path 934" d="M0,0H121.863V121.863H0Z" fill="#fff" fill-rule="evenodd"/>
  <path id="Path_935" data-name="Path 935" d="M39.268,90.194c-.016-.164-.049-.393-.082-.753-.033-.18-.049-.344-.066-.508l-.7.066h-.18a29.129,29.129,0,0,1-5.961-.409,22.957,22.957,0,0,1-5.469-1.572,19.188,19.188,0,0,1-6.894-5.109,6.15,6.15,0,0,1-1.228-3.16,4.518,4.518,0,0,1,2.784-4.716,7.652,7.652,0,0,1,4.88-.295c2.669.557,4.356.917,5.421,1.178A98.162,98.162,0,0,1,21.418,50.975c-2.882-10.415-2.915-19.47.2-23.449A28.578,28.578,0,0,1,37.859,17.144C46.178,15.162,54.464,16.98,58,18q1.514-.276,3.046-.442c1.474-.147,2.932-.246,4.405-.262a25.86,25.86,0,0,1,7.876,1.032,21.005,21.005,0,0,1,4.848,2.112c8.662-2.948,40.447-11.4,38.679,23.941-.212,4.225-3.52,21.37-8.531,33.258a36.593,36.593,0,0,1-5.9,10.1C99.4,91.112,95.91,92.6,91.948,91.177a10.35,10.35,0,0,1-3.128-1.8,6.317,6.317,0,0,1-.557.589,11.264,11.264,0,0,1-4.65,2.391,20.171,20.171,0,0,1-8.221.426,15.741,15.741,0,0,1-3.832-1.146,15.027,15.027,0,0,1,.066,1.752c-.034.884-.049,1.769-.082,2.39-.083,2.146-.2,4.274-.426,6.337a25.041,25.041,0,0,1-1.163,5.6c-.082.213-.147.409-.228.639-1.294,4-3.619,11.1-14.657,8.745-4.29-.917-8.106-2.079-11.168-6.468-2.669-3.783-4.372-9.858-4.634-20.436Z" transform="translate(-6.865 -5.979)" fill="#6a778f" fill-rule="evenodd"/>
  <path id="Path_936" data-name="Path 936" d="M45.344,84.236c.278-5.371-2.375-6.337-4.225-6.861.2-.278.459-.606.753-.982a18.871,18.871,0,0,0,3.111-5.011c.147-.36.59-1.146,1.163-2.178,2.44-4.372,7.254-13,6.3-18.914-.671-4.208-3.881-6.992-11.889-6.157a1.514,1.514,0,0,1,.082-.246,26.567,26.567,0,0,1,1.867-4.094c3.506-6.37,11.12-15.261,24.679-15.474,16.359-.278,19.339,16,19.879,22.844a17.627,17.627,0,0,0-2.49-1.277,20.888,20.888,0,0,0-4.486-1.278,10.679,10.679,0,0,0-4.733.245c-2.309.721-4.143,2.44-4.864,5.715-2.521,11.709-.262,16.752,1.508,20.7a24.657,24.657,0,0,1,1.569,3.919c.3.833.557,1.617.738,2.336a3.907,3.907,0,0,0-.589-.1,5.051,5.051,0,0,0-3.177.95,6.215,6.215,0,0,0-2.112,2.882,9,9,0,0,0-.311,3.243c.114,5.256.082,10.447-.114,14.672-.2,4.209-.541,7.353-1,8.532a10.708,10.708,0,0,1-2.768,4.307c-1.441,1.228-3.668,1.965-7.2,1.211-3.1-.671-5.191-1.62-6.567-3.062-1.392-1.425-2.162-3.456-2.653-6.272-.344-2.064-.835-5.666-1.294-9.235-.556-4.356-1.048-8.826-1.178-10.415Zm38.434,2.572c-5.387-1.114-5.928-1.785-7.664-4a26.064,26.064,0,0,0-2-2.26.974.974,0,0,0-.639-.3,2.262,2.262,0,0,0-1.294.426A3.265,3.265,0,0,0,71.1,82.19a2.251,2.251,0,0,0,.115,2,10.289,10.289,0,0,0,6.8,4.372,14.526,14.526,0,0,0,5.879-.327,6.253,6.253,0,0,0,1.9-.819,8.6,8.6,0,0,0-2.014-.606Zm1.556-10.251a14.275,14.275,0,0,0,4.977-9.678,14.91,14.91,0,0,0-.082-3.619,57.329,57.329,0,0,1-.279-11.676c.034-.606.066-1.065.049-1.424.017-.114.393-14.934-8.04-23.221,7.614-2.505,32.227-8.515,30.884,18.537-.2,3.946-3.324,20.076-8.073,31.326a31.442,31.442,0,0,1-4.9,8.515c-1.457,1.621-2.947,2.407-4.388,1.883a6.28,6.28,0,0,1-2.539-2.015q-3.672-4.432-7.614-8.629ZM55.251,24.008A32.927,32.927,0,0,0,40.038,38.435a29.069,29.069,0,0,0-2.064,4.52,7.342,7.342,0,0,0-.589,2.931c0,.049.016.1.016.147a26.765,26.765,0,0,0,.459,5.4,39.764,39.764,0,0,1,.475,4.372,32.058,32.058,0,0,1-.36,4.9c-.524,4.34-1.08,8.957,1.834,13.739a1.832,1.832,0,0,1-.147.181c-.114.147-.229.295-.344.425a91.95,91.95,0,0,1-10.791-24.22c-2.423-8.761-2.8-15.9-.8-18.471a22.978,22.978,0,0,1,11.889-8.041A33.638,33.638,0,0,1,55.251,24.008ZM87.167,50.143c0,.425-.034.852-.049,1.277a59.808,59.808,0,0,0,.311,12.233,12.059,12.059,0,0,1,.066,2.964,11.68,11.68,0,0,1-3.013,6.829,10.224,10.224,0,0,1-6.125,3.324,11.43,11.43,0,0,1-1.294.1,26.679,26.679,0,0,0-.855-2.7A38.771,38.771,0,0,0,74.59,70.1c-1.605-3.57-3.651-8.122-1.31-18.947a4.342,4.342,0,0,1,2.915-3.6,7.931,7.931,0,0,1,3.487-.147,17.77,17.77,0,0,1,3.832,1.1A36.731,36.731,0,0,1,87.167,50.143Zm-8.4-1.179a5.487,5.487,0,0,0-3.407.475,1.26,1.26,0,0,0-.785,1.163,2.084,2.084,0,0,0,.916,1.2,2.763,2.763,0,0,0,1.883.475h.017a3.145,3.145,0,0,0,1.768-.966,2.054,2.054,0,0,0,.671-1.378c-.023-.425-.334-.781-1.063-.963ZM40.235,47c6.485-.8,8.99.966,9.432,3.734.786,4.945-3.7,13-5.993,17.112-.622,1.1-1.081,1.949-1.294,2.456a16.838,16.838,0,0,1-.753,1.539c-1.7-3.6-1.261-7.3-.835-10.808a37.153,37.153,0,0,0,.377-5.306,40.3,40.3,0,0,0-.508-4.7A26.43,26.43,0,0,1,40.235,47Zm-.8,32.833c.213.066.459.131.7.212.982.279,2.538.7,2.375,4.078a2.907,2.907,0,0,1-1.2.377,15.547,15.547,0,0,1-3.734.18,20.59,20.59,0,0,1-6.747-1.44,15.55,15.55,0,0,1-4.044-2.621c3.69.687,9.295,1.741,12.642-.786Zm3.439-30.868a1.787,1.787,0,0,0,.606,1.228,2.781,2.781,0,0,0,1.68.9,2.473,2.473,0,0,0,1.464-.309c.582-.323,1.009-.762,1.017-1.2.005-.3-.185-.606-.657-.876a5.072,5.072,0,0,0-1.572-.491,4.516,4.516,0,0,0-1.654.049C43.248,48.375,42.921,48.62,42.871,48.964ZM37.73,77.817c-.655.623-2.866,1.589-10.284.049a5.1,5.1,0,0,0-3.111.082,1.877,1.877,0,0,0-1.163,1.964,3.289,3.289,0,0,0,.688,1.671,15.989,15.989,0,0,0,5.8,4.225,23.482,23.482,0,0,0,7.779,1.7,19.076,19.076,0,0,0,4.438-.229c.311-.066.622-.147.9-.229.229,2.079.573,4.994.95,7.942.459,3.7.967,7.369,1.31,9.367.59,3.389,1.572,5.879,3.39,7.762s4.356,3.078,8.024,3.865c4.585.982,7.6-.1,9.629-1.8a13.248,13.248,0,0,0,3.554-5.437c.606-1.489,1-4.977,1.212-9.448.147-3.258.212-7.107.18-11.1a12.816,12.816,0,0,0,6.5,3.161,17.373,17.373,0,0,0,7.057-.377,8.493,8.493,0,0,0,3.407-1.72,2.817,2.817,0,0,0,.917-1.62,2.262,2.262,0,0,0-.786-2.047,7.9,7.9,0,0,0-3.782-1.556c-4.357-.9-4.749-1.392-5.993-2.98q-.48-.606-1-1.179a.826.826,0,0,0,.016-.2,12.458,12.458,0,0,0,5.617-1.507c1.179,1.245,4.339,4.667,7.8,8.826a8.9,8.9,0,0,0,3.782,2.866c2.7.966,5.175-.164,7.435-2.653a34.537,34.537,0,0,0,5.387-9.318c4.88-11.561,8.089-28.215,8.3-32.293,1.67-33.537-31.065-22.713-36.272-20.781A20.591,20.591,0,0,0,67.14,21.485a31.109,31.109,0,0,0-6.992.868c-1.032-.278-2.489-.688-2.571-.721-.2-.049-.425-.1-.721-.164a36.767,36.767,0,0,0-18.03.147A25.643,25.643,0,0,0,25.5,30.622c-2.555,3.275-2.342,11.365.311,20.96A95.255,95.255,0,0,0,37.73,77.817Z" transform="translate(-8.52 -7.506)" fill="#fff" fill-rule="evenodd"/>
</svg>
