<svg xmlns="http://www.w3.org/2000/svg" xmlns:xlink="http://www.w3.org/1999/xlink" width="607.198" height="458" viewBox="0 0 607.198 458">
  <defs>
    <linearGradient id="linear-gradient" x1="0.877" y1="1" x2="0.877" gradientUnits="objectBoundingBox">
      <stop offset="0" stop-color="gray" stop-opacity="0.251"/>
      <stop offset="0.54" stop-color="gray" stop-opacity="0.122"/>
      <stop offset="1" stop-color="gray" stop-opacity="0.102"/>
    </linearGradient>
    <linearGradient id="linear-gradient-2" x1="0.5" y1="1" x2="0.5" y2="0" xlink:href="#linear-gradient"/>
  </defs>
  <g id="Services" transform="translate(-0.016 -0.004)">
    <path id="Path_656" data-name="Path 656" d="M435.026,106.219c-26.054,22.117-59.849,20.686-89.463,9.177S288.745,83.4,259.891,68.842a240.531,240.531,0,0,0-75.267-23.79c-36.775-5.1-77.842,1.127-103.462,36.865-28.533,39.817-26.342,111.631,4.507,148.157,15.7,18.59,36.256,27.716,54.182,42.25s34.527,38.622,33,66.643C171.436,364.881,155,384.806,138,397.3c-13.143,9.65-29.327,20.19-30.91,40.183-1.532,19.339,12.078,34.5,25.074,43.118,42.4,28.116,94.641,27.846,136.891-.71,15.064-10.191,28.9-23.745,44.7-31.676,41.49-20.843,87.21.135,131.145,7.813a218.227,218.227,0,0,0,111.541-9.847c21.756-7.791,43.6-19.717,58.88-41.89,11.024-16,17.892-36.251,24.336-56.249q10.309-31.981,19.824-64.423c3.8-12.985,7.549-26.218,8.535-40.1,1.78-25.17-5.724-50.052-15.942-71.29-24.263-50.436-65.127-85.9-109.383-94.905S451.611,85.9,417.287,124.4" transform="translate(-61.06 -43.49)" fill="#1985a1" opacity="0.1"/>
    <ellipse id="Ellipse_113" data-name="Ellipse 113" cx="127.866" cy="5.836" rx="127.866" ry="5.836" transform="translate(147.928 294.159)" fill="#1985a1" opacity="0.1"/>
    <path id="Path_657" data-name="Path 657" d="M453.143,353.527A115.923,115.923,0,1,1,569.05,237.6,116.053,116.053,0,0,1,453.143,353.527Zm0-230.72a114.8,114.8,0,1,0,114.8,114.8A114.926,114.926,0,0,0,453.143,122.807Z" transform="translate(-181.642 -77.631)" fill="#fff"/>
    <path id="Path_658" data-name="Path 658" d="M473.3,347.677a89.908,89.908,0,1,1,89.908-89.908A90.018,90.018,0,0,1,473.3,347.677Zm0-178.69a88.782,88.782,0,1,0,88.782,88.782A88.884,88.884,0,0,0,473.3,168.987Z" transform="translate(-201.803 -97.796)" fill="#fff"/>
    <path id="Path_659" data-name="Path 659" d="M494.967,341.394a61.967,61.967,0,1,1,61.967-61.967A61.967,61.967,0,0,1,494.967,341.394Zm0-122.807a60.84,60.84,0,1,0,60.84,60.84,60.84,60.84,0,0,0-60.84-60.84Z" transform="translate(-223.466 -119.454)" fill="#fff"/>
    <ellipse id="Ellipse_114" data-name="Ellipse 114" cx="8.039" cy="2.659" rx="8.039" ry="2.659" transform="translate(544.032 224.458)" fill="#6c63ff" opacity="0.1"/>
    <ellipse id="Ellipse_115" data-name="Ellipse 115" cx="47.343" cy="7.768" rx="47.343" ry="7.768" transform="translate(53.248 359.427)" fill="#1985a1" opacity="0.1"/>
    <g id="Group_57" data-name="Group 57" transform="translate(31.599 151.945)" opacity="0.1">
      <path id="Path_660" data-name="Path 660" d="M269.122,313.21H124.689a7.571,7.571,0,0,0-7.549,7.549v91.26a7.571,7.571,0,0,0,7.549,7.549h113.3s2.935,15.582-6.709,17.261c0,0,21.6,1.549,17.824-17.261h20.015a7.571,7.571,0,0,0,7.549-7.549v-91.26A7.571,7.571,0,0,0,269.122,313.21Z" transform="translate(-117.14 -313.21)"/>
      <g id="Group_56" data-name="Group 56" transform="translate(21.26 24.223)" opacity="0.2">
        <rect id="Rectangle_200" data-name="Rectangle 200" width="117.005" height="7.132" rx="3.566"/>
        <rect id="Rectangle_201" data-name="Rectangle 201" width="117.005" height="7.132" rx="3.566" transform="translate(0 31.874)"/>
        <rect id="Rectangle_202" data-name="Rectangle 202" width="98.122" height="7.132" rx="3.566" transform="translate(0 47.805)"/>
        <rect id="Rectangle_203" data-name="Rectangle 203" width="50.734" height="7.132" rx="3.566" transform="translate(0 15.937)"/>
      </g>
    </g>
    <path id="Path_661" data-name="Path 661" d="M271.358,312.09H126.919a7.571,7.571,0,0,0-7.549,7.549V410.9a7.571,7.571,0,0,0,7.549,7.549h113.3s2.941,15.582-6.709,17.255c0,0,21.6,1.549,17.824-17.255h20.021A7.566,7.566,0,0,0,278.9,410.9V319.639a7.566,7.566,0,0,0-7.543-7.549Z" transform="translate(-86.515 -160.776)" fill="#fff"/>
    <g id="Group_58" data-name="Group 58" transform="translate(54.121 175.537)" opacity="0.2">
      <rect id="Rectangle_204" data-name="Rectangle 204" width="117.005" height="7.132" rx="3.566" fill="#1985a1"/>
      <rect id="Rectangle_205" data-name="Rectangle 205" width="117.005" height="7.132" rx="3.566" transform="translate(0 31.874)" fill="#1985a1"/>
      <rect id="Rectangle_206" data-name="Rectangle 206" width="98.122" height="7.132" rx="3.566" transform="translate(0 47.81)" fill="#1985a1"/>
      <rect id="Rectangle_207" data-name="Rectangle 207" width="50.734" height="7.132" rx="3.566" transform="translate(0 15.937)" fill="#1985a1"/>
    </g>
    <path id="Path_662" data-name="Path 662" d="M271.555,302.276,263.55,319.3s-1.183,3.194-1.944,3.786-4.124,10.7-4.124,10.7L248.9,347.05h0l-.563.9-3.38-.93-2.36-8.827.146-2.563v-.321s5.312-5.555,6.49-5.977c0,0,.924.107,2.7-4.2s3.38-5.239,3.38-5.239l.924-3.121,9.949-15.835s8.337-11.96,10.608-6.653S271.555,302.276,271.555,302.276Z" transform="translate(-140.325 -152.409)" fill="#ffd2c6"/>
    <path id="Path_663" data-name="Path 663" d="M217.31,520.375a1.915,1.915,0,0,1-.27.817c-.924,1.346-6.146,28.894-6.146,28.894.417,1.859-.755,5.566-1.521,7.25s-2.445,10.444-2.445,10.444-.417,18.872-1.51,21.818.349,9.267.349,9.267c-.107,2.907,1.639,5.977,2.676,7.543.079.1.141.2.2.287.338.484.563.76.563.76a4.388,4.388,0,0,0,1.177,1.459c.073.062.152.118.237.18a13.412,13.412,0,0,0,4.721,1.994l.163.034c.676.152,1.127.208,1.127.208l.417,2.253-4.462.924-8.506.563s-10.027.76-7.752-3.707a7.066,7.066,0,0,0,.411-.946h0c.085-.214.163-.439.231-.665a23.123,23.123,0,0,0,.445-9.509l-1.96-15.182c-3.194-14.151,2.524-29.908,2.524-29.908s-.5-1.262.6-4.462,0-10.191,0-10.191-.563-9.013-1.346-13.481a27.238,27.238,0,0,1-.3-5.673,28.331,28.331,0,0,1,.3-3.324l19.21-2.546A14.822,14.822,0,0,1,217.31,520.375Z" transform="translate(-119.316 -249.589)" fill="#ffd2c6"/>
    <path id="Path_664" data-name="Path 664" d="M218.179,683.781l-4.462.924-8.506.563s-10.027.76-7.752-3.707a7.057,7.057,0,0,0,.411-.946h0c.085-.214.163-.439.231-.665a15.429,15.429,0,0,1,5.07,1.025c2.856,1.127,5.008-1.775,5.008-1.775l1.386-2.648.2-.383c.338.484.563.76.563.76a4.506,4.506,0,0,0,1.414,1.634l-.237.5-1.346,2.817s1.724.175,4.084.563a1.825,1.825,0,0,0,2.22-1.217l.163.034c.676.152,1.127.208,1.127.208Z" transform="translate(-120.467 -319.756)" opacity="0.1"/>
    <path id="Path_665" data-name="Path 665" d="M221.744,686.419c-.338,1.515-9.729,1.983-9.729,1.983s-5.228-.507-6.692.715-5.78.93-5.949.93-2.439-.09-3.329-4.169c-.862-3.977,1.16-4.67,1.262-4.7h0a15.282,15.282,0,0,1,5.312,1.031c2.856,1.127,5.008-1.769,5.008-1.769l1.589-3.036c.338.484.563.76.563.76a4.45,4.45,0,0,0,1.414,1.639l-1.583,3.329s1.724.175,4.084.563a1.951,1.951,0,0,0,2.383-1.853,1.915,1.915,0,0,0,0-.254s1.47.422,3.279.93A3.38,3.38,0,0,1,221.744,686.419Z" transform="translate(-119.903 -320.294)" fill="#626696"/>
    <path id="Path_666" data-name="Path 666" d="M256.946,538.769c-.225,1.346-.456,4.833-.456,4.833.789,2.918-1.234,9.853-1.234,9.853l-1.008,3.943c.451,5.07-2.777,17.413-2.777,17.413s-2.163,11.458-3.29,16.4a13.638,13.638,0,0,0,.563,8.258c.056.135.09.2.09.2a.943.943,0,0,0,.068.276c.028.09.073.27.118.4a6.085,6.085,0,0,0,1.127,1.882,5.7,5.7,0,0,0,.6.62l.034.034a12.191,12.191,0,0,0,3.583,2.2h0l.563.225a16.94,16.94,0,0,0,1.786.563h0a1.856,1.856,0,0,0,.2.045l-.456,2.648-5.949-1.521-7.971-2.586-3.943-2.253s.045-.214.124-.625v-.068c.034-.175.068-.383.118-.62.67-3.436,2.2-13.182,1.431-20.336-.952-8.873,2.743-21.12,3.645-24.038a14.573,14.573,0,0,0,.676-5.166c-1.465-2.141-1.8-10.67-1.8-10.67s-2.693-5.509-4.924-11.351a29.857,29.857,0,0,1-1.606-5.9,20.648,20.648,0,0,1-.327-4.315s18.094-16.511,20.077-.524c.068.563.13,1.059.192,1.566C257.937,534.775,257.16,537.467,256.946,538.769Z" transform="translate(-137.41 -247.905)" fill="#ffd2c6"/>
    <path id="Path_667" data-name="Path 667" d="M259.04,674.207l-.456,2.648-5.949-1.521-7.971-2.586-3.943-2.253s.045-.214.124-.625V669.8c.034-.175.068-.383.118-.62l.563-.056h.045a7.5,7.5,0,0,1,3.341.451c1.3.49,3,1.048,3.346.811a4.259,4.259,0,0,1,1.91-.338l.828-1.814.118-.276a6.017,6.017,0,0,0,1.127,1.882,6.356,6.356,0,0,0,.637.653l-.034.642-.045.907a11.593,11.593,0,0,0,2.862,1.324,1.656,1.656,0,0,0,.8,0h0l.563.225a16.937,16.937,0,0,0,1.786.563h0A1.833,1.833,0,0,0,259.04,674.207Z" transform="translate(-139.504 -316.172)" opacity="0.1"/>
    <path id="Path_668" data-name="Path 668" d="M255.641,680.382c-1.662-.479-5.667-1.239-6.315-.648s-6.2,0-6.2,0a3.38,3.38,0,0,1-2.867-1.69c-1.127-1.8-.22-7.611-.22-7.611l.411-.039.687-.068h.045a7.419,7.419,0,0,1,3.341.451c1.3.485,3,1.042,3.346.811a4.179,4.179,0,0,1,1.91-.338l.946-2.09a6.083,6.083,0,0,0,1.127,1.882,6.357,6.357,0,0,0,.637.653l-.079,1.549a11.667,11.667,0,0,0,2.862,1.318,1.127,1.127,0,0,0,1.375-.434.851.851,0,0,0,.1-.231h0a9.676,9.676,0,0,0,2.349.783h0a4.3,4.3,0,0,1,4.586,3.3C264.531,680.562,257.269,680.855,255.641,680.382Z" transform="translate(-139.058 -316.695)" fill="#626696"/>
    <path id="Path_669" data-name="Path 669" d="M219.21,520.362c-.372.107-.71.208-1.025.31a14.211,14.211,0,0,1-2.484.524c-5.312.749-14.083.3-16.861.124a28.337,28.337,0,0,1,.3-3.324l19.21-2.546A15.05,15.05,0,0,1,219.21,520.362Z" transform="translate(-121.217 -249.576)" opacity="0.1"/>
    <path id="Path_670" data-name="Path 670" d="M234.641,495.393s-7.053,1.093-12.788,2.349c-1.915.417-3.684.851-4.991,1.279a15.33,15.33,0,0,1-2.484.524c-6.388.9-17.734.068-17.734.068-3.115-10.106,3.786-22.832,3.786-22.832-.163-1.014,1.437-4.124,1.437-4.124l.028-.1.98-3.605h26.2l.321,1.549.665,3.155,4.112,19.531Z" transform="translate(-119.905 -229.271)" fill="#626696"/>
    <path id="Path_671" data-name="Path 671" d="M256.2,520.152l-.158.068-3.065,1.358c-3.318,1.532-13.25,1.82-16.72,1.848a20.648,20.648,0,0,1-.327-4.315s18.094-16.511,20.077-.524C256.078,519.155,256.14,519.645,256.2,520.152Z" transform="translate(-137.41 -247.901)" opacity="0.1"/>
    <path id="Path_672" data-name="Path 672" d="M244.036,499.97l-.642.282-3.065,1.363c-3.38,1.555-13.627,1.831-16.9,1.848h-.862a3.947,3.947,0,0,1-3.031-1.842c0-.2-.158-1.2-.293-2.056-.113-.687-.214-1.279-.214-1.279a78.686,78.686,0,0,1-10.191-5.278c-2.574-1.752-1.927-14.2-1.425-20.46.175-2.158.327-3.577.327-3.577l26.522,1.549,3.718.214,2.129.473.563.118s1.521,11.12,2.253,12.044.259,4.045.169,5.819a10.809,10.809,0,0,1-.248,2.253s1.093,3.121.834,4.867a9.706,9.706,0,0,0,.355,3.662Z" transform="translate(-124.759 -229.28)" fill="#626696"/>
    <circle id="Ellipse_116" data-name="Ellipse 116" cx="10.867" cy="10.867" r="10.867" transform="translate(80.023 156.609)" fill="#ffd2c6"/>
    <path id="Path_673" data-name="Path 673" d="M206.079,348.8s.755,10.292-1.346,12.653a94.051,94.051,0,0,1-7.583,6.822l1.69,6.991,9.52,1.1,11.12-11.881-2.529-3.115s-1.938-6.574-.338-9.858S206.079,348.8,206.079,348.8Z" transform="translate(-120.479 -176.789)" fill="#ffd2c6"/>
    <path id="Path_674" data-name="Path 674" d="M248.9,379.376h0l-.563.9-3.38-.93-2.36-8.827.146-2.563.693-1s3.707.09,3.543,3.459C246.819,373.376,248.5,378.249,248.9,379.376Z" transform="translate(-140.325 -184.736)" opacity="0.1"/>
    <path id="Path_675" data-name="Path 675" d="M240.508,472.657s-2.681.6-5.752,1-6.614.6-8.067-.242c-2.439-1.442-15.655-1.031-19.446-.884a4.34,4.34,0,0,0-.653.028l.98-3.605h26.2l.321,1.549,3.718.214,2.129.473C240.294,472.06,240.508,472.657,240.508,472.657Z" transform="translate(-124.601 -229.271)" opacity="0.1"/>
    <path id="Path_676" data-name="Path 676" d="M216.8,368.15s3.707.085,3.538,3.453,2.022,9.182,2.022,9.182l-.845,1.938s-1.177,4.715-.254,5.9,4.3,1.177,2.36,10.867c0,0-.417,7.245.592,9.6s1.008,8,2.524,10.36a56.937,56.937,0,0,1,3.543,7.836s-10.957,2.439-13.819.755-20.472-.828-20.472-.828.084-2.952,0-3.284a2.817,2.817,0,0,1,.423-2.152c.563-.8,1.515-2.146,1.008-3.324s1.268-2.918.338-4.743-2.056-2.191-1.831-3.188a4.321,4.321,0,0,0-1.031-3.189c-.67-.839-5.228-9.746-5.228-9.746l-.755-4.174s-5.864-4.3-5.757-6.321,2.22-4.822,2.22-4.822l5.633-5.538s3.115,3.38,6.146,2.191,9.571-6.822,9.571-6.822,2.332-1.262,2.5-2.186,1.6-.085,1.6-.085,2.107-1.155,2.529-.749a7.313,7.313,0,0,0,2.253.749Z" transform="translate(-114.369 -185.255)" fill="#ffcde5"/>
    <path id="Path_677" data-name="Path 677" d="M165.362,399.3l-1.8,1.4a23.993,23.993,0,0,0-2.253,9.182,125.809,125.809,0,0,1-2.253,14.23l-3.538,6.326s-5.831,12.207-6.585,15.447-4.214,8.72-4.214,8.72S133.009,465.132,141.183,467s8.422-8.377,8.422-8.377a11.067,11.067,0,0,0,2.22-3.538c.31-1.431,10.67-19.756,10.67-19.756s3.628-4.929,2.867-7.537c0,0,4.715-11.092,4.715-13.875a49.282,49.282,0,0,0-.755-6.9l.755-5.814Z" transform="translate(-94.775 -198.857)" fill="#ffd2c6"/>
    <path id="Path_678" data-name="Path 678" d="M221.624,440.53s-8.259,4.321-9.858,4.546,6.991-.9,6.991-.9Z" transform="translate(-126.774 -216.861)" opacity="0.1"/>
    <path id="Path_679" data-name="Path 679" d="M229.153,446.51s-10.951,3.707-15.773,3.031C213.4,449.541,225.362,451.817,229.153,446.51Z" transform="translate(-127.566 -219.472)" opacity="0.1"/>
    <path id="Path_680" data-name="Path 680" d="M230.432,448.66s-9.858,6.2-15.672,5.188c0,0,13.565,2.7,15.672,1.268l-6.067-1.69S231.108,449.866,230.432,448.66Z" transform="translate(-128.168 -220.411)" opacity="0.1"/>
    <path id="Path_681" data-name="Path 681" d="M198.729,306.647a10.264,10.264,0,0,0-8.292,1.566c-1.69,1.329-2.817,3.38-4.715,4.349a27.741,27.741,0,0,1-3.081,1.087,8.889,8.889,0,0,0-5.425,9.577c.3,1.69,1.082,3.211,1.465,4.856.687,2.941.084,6.022-.665,8.946a94.133,94.133,0,0,1-9.38,23.226,2.434,2.434,0,0,0-.468,1.56,2.253,2.253,0,0,0,.563,1c3.893,4.507,10.23,6.045,16.179,6.247a12.253,12.253,0,0,0,6.411-1.065,9.69,9.69,0,0,0,3.127-2.867,15.21,15.21,0,0,0,2.918-9.808c-.163-2.817-1.127-5.684-.4-8.416a2.254,2.254,0,0,1,.507-1.031c.642-.653,1.69-.484,2.614-.591,2.473-.287,4.073-2.9,4.366-5.363s-.327-4.963-.338-7.447a15.6,15.6,0,0,1,2.935-9.171c.822-1.127,1.876-2.253,2.152-3.667.349-1.775-.682-3.081-1.572-4.507-1.38-2.186-2.056-4.738-4.157-6.405a11.222,11.222,0,0,0-4.743-2.073Z" transform="translate(-107.822 -158.29)" opacity="0.1"/>
    <path id="Path_682" data-name="Path 682" d="M197.55,305.447a10.249,10.249,0,0,0-8.292,1.572c-1.69,1.324-2.817,3.38-4.715,4.349a27.219,27.219,0,0,1-3.076,1.082,8.9,8.9,0,0,0-5.431,9.577c.3,1.69,1.082,3.211,1.47,4.862.687,2.941.079,6.016-.665,8.94a94.19,94.19,0,0,1-9.363,23.226,2.383,2.383,0,0,0-.462,1.555,2.169,2.169,0,0,0,.563,1c3.9,4.507,10.23,6.045,16.179,6.247a12.251,12.251,0,0,0,6.411-1.059,9.712,9.712,0,0,0,3.127-2.873,15.21,15.21,0,0,0,2.9-9.785c-.163-2.817-1.127-5.684-.394-8.422a2.253,2.253,0,0,1,.5-1.031c.642-.653,1.69-.484,2.62-.563,2.473-.287,4.067-2.9,4.36-5.369s-.321-4.957-.338-7.447a15.6,15.6,0,0,1,2.929-9.2,9.853,9.853,0,0,0,2.146-3.673c.349-1.775-.676-3.076-1.566-4.507-1.38-2.186-2.056-4.738-4.163-6.4A11.165,11.165,0,0,0,197.55,305.447Z" transform="translate(-107.319 -157.766)" fill="#985c7e"/>
    <path id="Path_683" data-name="Path 683" d="M214.76,492.62s2.163,10.106,5.757,12.861Z" transform="translate(-128.168 -239.607)" opacity="0.1"/>
    <g id="Group_59" data-name="Group 59" transform="translate(59.681 157.691)" opacity="0.1">
      <path id="Path_684" data-name="Path 684" d="M183.877,338.157c-.113-.394-.242-.789-.377-1.177C183.613,337.374,183.742,337.769,183.877,338.157Z" transform="translate(-174.199 -329.336)"/>
      <path id="Path_685" data-name="Path 685" d="M207.4,323.41a3.656,3.656,0,0,1-.045.952c-.282,1.425-1.329,2.535-2.152,3.673a15.554,15.554,0,0,0-2.935,9.165c0,2.49.625,4.974.332,7.447s-1.887,5.07-4.36,5.369c-.913.107-1.977-.068-2.614.563a2.254,2.254,0,0,0-.507,1.031c-.715,2.738.237,5.6.394,8.422a15.21,15.21,0,0,1-2.9,9.785,9.768,9.768,0,0,1-3.127,2.873,12.6,12.6,0,0,1-6.416,1.059c-5.847-.2-12.067-1.69-15.976-6.033a1.544,1.544,0,0,0-.1.811,2.169,2.169,0,0,0,.563,1c3.9,4.507,10.23,6.045,16.179,6.247a12.251,12.251,0,0,0,6.411-1.059,9.768,9.768,0,0,0,3.127-2.873,15.21,15.21,0,0,0,2.9-9.785c-.163-2.817-1.127-5.684-.394-8.422a2.253,2.253,0,0,1,.5-1.031c.642-.653,1.69-.484,2.62-.563,2.473-.287,4.067-2.9,4.36-5.369s-.321-4.957-.338-7.447a15.6,15.6,0,0,1,2.929-9.165,9.852,9.852,0,0,0,2.146-3.673,4.174,4.174,0,0,0-.608-2.974Z" transform="translate(-166.989 -323.41)"/>
    </g>
    <path id="Path_686" data-name="Path 686" d="M567.515,807.448s-21.435-1.3-18.906,13.723a3.664,3.664,0,0,0,1.9,3.859s.039-1.127,2.2-.732a9.867,9.867,0,0,0,2.327.113,4.862,4.862,0,0,0,2.851-1.177h0s6.022-2.49,8.365-12.337c0,0,1.735-2.146,1.69-2.7l-3.617,1.544s1.234,2.608.259,4.777c0,0-.113-4.681-.811-4.569-.141,0-1.876.9-1.876.9s2.124,4.546.518,7.847c0,0,.608-5.6-1.183-7.515l-2.546,1.482s2.484,4.7.8,8.529c0,0,.434-5.876-1.335-8.163l-2.31,1.8s2.338,4.625.913,7.8c0,0-.186-6.839-1.414-7.323a13.857,13.857,0,0,0-2.321,2.507s1.594,3.38.6,5.132c0,0-.608-4.557-1.127-4.574,0,0-2.011,3.02-2.22,5.07a10.974,10.974,0,0,1,1.729-5.38,6.034,6.034,0,0,0-3.076,1.594s.31-2.135,3.572-2.321a15.4,15.4,0,0,1,2.107-2.428,13.209,13.209,0,0,0-5.211.6s1.729-2.017,5.808-1.127l2.253-1.859s-4.27-.563-6.084.062c0,0,2.084-1.786,6.7-.484l2.479-1.487a22.516,22.516,0,0,0-5.808-.5s2.287-1.234,6.535.107l1.774-.8s-2.67-.524-3.448-.6-.823-.3-.823-.3a9.216,9.216,0,0,1,5.008.563S567.577,807.685,567.515,807.448Z" transform="translate(-273.858 -377.069)" fill="#79c99e"/>
    <ellipse id="Ellipse_117" data-name="Ellipse 117" cx="15.171" cy="2.563" rx="15.171" ry="2.563" transform="translate(263.721 446.711)" fill="#1985a1" opacity="0.1"/>
    <path id="Path_687" data-name="Path 687" d="M865.628,774.849s-21.407-1.29-18.906,13.729a3.664,3.664,0,0,0,1.9,3.859s.039-1.127,2.2-.738a9.925,9.925,0,0,0,2.332.113A4.811,4.811,0,0,0,856,790.633h0s6.028-2.484,8.366-12.331c0,0,1.735-2.152,1.69-2.7l-3.639,1.577s1.234,2.608.265,4.777c0,0-.118-4.687-.811-4.574-.141,0-1.882.9-1.882.9s2.124,4.546.524,7.853c0,0,.608-5.6-1.189-7.521l-2.546,1.487s2.484,4.693.8,8.523c0,0,.434-5.876-1.335-8.163l-2.3,1.786s2.332,4.631.907,7.808c0,0-.186-6.845-1.408-7.357a14.129,14.129,0,0,0-2.327,2.512s1.6,3.38.608,5.126c0,0-.608-4.552-1.127-4.574,0,0-2.011,3.019-2.219,5.07a10.956,10.956,0,0,1,1.735-5.38,6.061,6.061,0,0,0-3.081,1.594s.315-2.129,3.577-2.321a15.4,15.4,0,0,1,2.107-2.428,13.241,13.241,0,0,0-5.216.6s1.735-2.017,5.808-1.1l2.253-1.859s-4.276-.563-6.084.062c0,0,2.084-1.78,6.7-.484l2.479-1.482a22.307,22.307,0,0,0-5.814-.5s2.287-1.234,6.54.1l1.775-.794s-2.67-.524-3.453-.608-.823-.3-.823-.3a9.232,9.232,0,0,1,5.014.563S865.7,775.085,865.628,774.849Z" transform="translate(-404.035 -362.834)" fill="#79c99e"/>
    <ellipse id="Ellipse_118" data-name="Ellipse 118" cx="15.171" cy="2.563" rx="15.171" ry="2.563" transform="translate(431.658 428.346)" fill="#1985a1" opacity="0.1"/>
    <ellipse id="Ellipse_119" data-name="Ellipse 119" cx="43.687" cy="7.166" rx="43.687" ry="7.166" transform="translate(434.08 238.918)" fill="#1985a1" opacity="0.1"/>
    <path id="Path_688" data-name="Path 688" d="M910.878,167.664a23.452,23.452,0,0,0,0-11.977v-5.633s2.039-11.047-7.042-18.134l-6.028-5.312s-3.38-2.9-4.355-3.081a4.42,4.42,0,0,0-.563-.084l-.18-.1a18.146,18.146,0,0,1-1.318-2.777,2.574,2.574,0,0,0,2.146-.732,2.817,2.817,0,0,0,.507-.845h0c.349-.783.406-1.729.7-2.563a5.983,5.983,0,0,1,1.127-1.842c-.062.1-.124.2-.18.3.851-1.059,1.966-1.972,2.76-3.093a6.752,6.752,0,0,0,.439-.687l-.118.141a15.483,15.483,0,0,0,1.769-6.016,5.431,5.431,0,0,0,.034-2.152,7.173,7.173,0,0,0-.6-1.363c-1.307-2.7-1.279-6.1-3.38-8.253-1.572-1.617-3.943-2.113-6.2-2.389s-4.6-.434-6.529-1.611a7.07,7.07,0,0,0-1.769-.975,1.459,1.459,0,0,0-1.741.648,1.127,1.127,0,0,1-.231.468.749.749,0,0,1-.67.039l-2.986-.8.034.152h-.073l.107.473a.263.263,0,0,1,.282.163l-.479.738a7.4,7.4,0,0,1-2.7-.563,1.275,1.275,0,0,0,0,.146h-.039c-.056.845.9,1.391,1.194,2.186a1.657,1.657,0,0,1,0,1.07,2.433,2.433,0,0,1-.563.856c-1.065,1.048-2.417.839-3.639,1.5a.777.777,0,0,0-.445.49.377.377,0,0,0-.039.27.631.631,0,0,0,.248.31,5.635,5.635,0,0,0,1.161.721l-.349.338a13.374,13.374,0,0,0,4.619,21.807c.045.231.079.468.113.721v.068l.034.321-4.028,1.69a3.205,3.205,0,0,1-2.884-1.853c-.935-1.938-4.242,0-4.242,0s-10.1-.761-13.836,1.1c0,0-6.028-2.529-6.873-2.7s-2.124-.845-2.721-.676-1.358-1.127-1.78-1.014-.563-.839-1.949-1.177-1.87.084-3.38-1.437-13.92-7.5-13.92-7.5l-5.6-4.557-5.943-4.721-.107.2c-.034-.141-.073-.287-.113-.439a56.324,56.324,0,0,0-2.2-6.929c-.383-.913-.563-2.067-1.065-1.459-.315.366-.856-.434-1.69-.975a1.4,1.4,0,0,0-2.1.608h0c-4.625,7.25-6.281,7.774-3.6,10.427,2.383,2.366,3.971,4.456,5.921,5.07l.231.073a.327.327,0,0,1-.13,0L815.2,117.826s8.146,7.087,13.751,9.363,5.177,2.952,5.177,2.952,16.973,8.6,19.6,8.45,2.124,17.627,1.02,20.494-2.884,23.615-2.884,23.615-1.69,4.383.084,7.419c0,0,.394,5.814.039,7.205-1.549,2.383-3.752,6.428-4.112,10.591a6.051,6.051,0,0,1-.068.642,1.459,1.459,0,0,1-.4.327s.146-.034.377-.113a21.4,21.4,0,0,1-1.127,5.07,20.659,20.659,0,0,0-1.386,7.323v13.4l-1.121,8.309s-1.358,6.292,0,7.757a3.566,3.566,0,0,1,.744,2.586,4.788,4.788,0,0,0,.868,3.014,2.287,2.287,0,0,1,.563,1.938c-.451,1.459.665,16.973.665,16.973s-.327,4.276-.777,4.507.755,4.912.755,4.912-4.586,3.825-3.419,5.853l1.172,1.8-.31.3-.192.192a1.786,1.786,0,0,0-1.166-.22,43.716,43.716,0,0,1-4.614,4.107c-2.067,1.493-7.7,3.656-7.7,3.656l-4.439.361h-.084s-2.124-.2-.935,3.093,11.83,2.253,11.83,2.253l6.2-.98s11.086.051,14.258-.648c1.329-.3,1.645-1,1.56-1.724h0l-.034-.034a4.428,4.428,0,0,0-.907-1.865.885.885,0,0,0-.079-.1l.2-2.253c4.7-2.71-1.329-8.044-1.329-8.044a53.782,53.782,0,0,1,3.127-5.954c1.065-1.448,1.059-22.939,1.059-22.939s.563-7.763-.907-9.577a3.239,3.239,0,0,1,1.583-2.924c1.048-.715,4.214-10.568,6.7-18.748l1.566,9.639s-.338,4.608.682,5.96a2.293,2.293,0,0,1,.417,1.791,7.971,7.971,0,0,0,.231,3.9,2.524,2.524,0,0,0,.817,1.386c.907.451.963,2.056,1.3,2.394s2.434-.479,2.546.755a27.586,27.586,0,0,1,0,3.262l.682,20.015s-1.127,1.69-1.358,6.073a7.849,7.849,0,0,1-.817,3.583,1.831,1.831,0,0,0,.169,2.152l.2.225-.839.648a1.831,1.831,0,0,0-.518,2.253,1.808,1.808,0,0,0-.524,1.944,2.256,2.256,0,0,0,.147.315,3.172,3.172,0,0,0-1.69.834,13.855,13.855,0,0,1-2.986,3.008,56.282,56.282,0,0,0-4.766,4.078,6.838,6.838,0,0,1-2.783,2.253,4.5,4.5,0,0,1-.839.248c-2.253.456-1.527,2.789.282,3.155s7.808,2.22,12.478,1.127a4.36,4.36,0,0,0,3.419-.473,47.085,47.085,0,0,1,6.664-2.253s2.546,0,2.884-1.014a3.879,3.879,0,0,0,.146-.986l.073-.068-.068-.062a13.275,13.275,0,0,0-.175-2.253c-.062-.383-.135-.732-.2-1.008-.22-.845-.62-1.932-.794-2.394a.854.854,0,0,0,.079-.118c.969-1.639-.642-5.633-.642-5.633a10.768,10.768,0,0,1,1.921-2.253c.907-.67,3.284-18.213,3.284-18.213s-.113-4.507,1.127-6.523-1.69-14.281-1.69-14.281-1.245-2.817-.789-3.825-.456-4.721-.456-4.721v-4.428a4.866,4.866,0,0,0-.259-1.555,7.394,7.394,0,0,1-.3-4.507c.794-2.022,2.6-14.506,2.6-14.506s-1.414-5.5.654-9.887a9.466,9.466,0,0,1,.563-1.02c1.532-2.411,1.076-6.692.321-10.14-.118-.535-.242-1.048-.366-1.538-.056-.208-.113-.406-.163-.6l.242-.1a7.59,7.59,0,0,1,.073-.89,6.2,6.2,0,0,0,4.084-2.817s5.177-5.819,9.763-8.264,4.924-5.988,4.924-5.988c-.682-1.183,1.211-5.988,1.211-5.988ZM892.852,123.51Zm3.115,51.911-4.9,5.684a.118.118,0,0,1,0-.034c-1.273-1.769,1.189-5.735,1.189-5.735l4.05-9.075a5.489,5.489,0,0,1-.53,2.681c-1.127,1.521,2.034,4.05,2.034,4.05-1.7-.017-1.865,2.428-1.865,2.428Z" transform="translate(-382.248 -62.882)" fill="url(#linear-gradient)"/>
    <path id="Path_689" data-name="Path 689" d="M810.63,102.361l-2.67,5.188a10.337,10.337,0,0,1-2.49-.518,9.447,9.447,0,0,1-5.847-5.07c-2.389-5.284,1.566-8.7,3.408-9.7s3.549-2.158,4.929,1.127a57.148,57.148,0,0,1,2.174,6.884C810.438,101.522,810.63,102.361,810.63,102.361Z" transform="translate(-383.231 -64.328)" fill="#cc818c"/>
    <path id="Path_690" data-name="Path 690" d="M954.306,146.1l-4.27,6.371s-20.2,9.633-16.337-1.69c1.69-4.986,1.9-8.636,1.594-11.16v-.068a8.809,8.809,0,0,0-1.583-4.507s19.689-10.072,16.759-3.183a9.578,9.578,0,0,0-.7,4.535,15.447,15.447,0,0,0,2.124,6.292A20.847,20.847,0,0,0,954.306,146.1Z" transform="translate(-441.888 -81.025)" fill="#cc818c"/>
    <path id="Path_691" data-name="Path 691" d="M924.9,336.622s2.907,12.179,1.69,14.19-1.127,6.478-1.127,6.478-2.349,17.435-3.245,18.106a10.7,10.7,0,0,0-1.9,2.253s1.594,3.943.637,5.577a1.324,1.324,0,0,1-.637.563c-1.5.631-7.03-2.169-10.179-3.887a1.736,1.736,0,0,1-.834-1,1.775,1.775,0,0,1,.513-1.927,1.836,1.836,0,0,1,.513-2.253l.828-.642-.192-.225a1.831,1.831,0,0,1-.169-2.141,7.9,7.9,0,0,0,.806-3.555c.225-4.36,1.341-6.033,1.341-6.033l-.67-19.891a28.56,28.56,0,0,0,0-3.239c-.113-1.228-2.18-.417-2.512-.755s-.394-1.927-1.284-2.377a2.5,2.5,0,0,1-.811-1.375,8.01,8.01,0,0,1-.231-3.881,2.287,2.287,0,0,0-.411-1.78c-1.008-1.341-.67-5.921-.67-5.921l-1.543-9.577c-2.456,8.129-5.583,17.92-6.614,18.63a3.222,3.222,0,0,0-1.566,2.907c1.453,1.786.9,9.5.9,9.5s0,21.339-1.048,22.793a55.555,55.555,0,0,0-3.087,5.921s5.988,5.329,1.279,8.016l-.051.028c-4.805,2.681-14.748-4.8-14.748-4.8l1.037-1.037.3-.3-1.127-1.791c-1.155-2.011,3.38-5.808,3.38-5.808s-1.206-4.693-.76-4.918.76-4.473.76-4.473-1.1-15.419-.653-16.866a2.253,2.253,0,0,0-.53-1.927,4.811,4.811,0,0,1-.856-2.991,3.56,3.56,0,0,0-.732-2.569c-1.341-1.453,0-7.712,0-7.712l1.127-8.27V304.489a20.844,20.844,0,0,1,1.352-7.391,22.306,22.306,0,0,0,1.217-5.949c.366-4.236,2.642-8.354,4.174-10.7.811-1.239,1.414-1.983,1.414-1.983l35.755-1.4s.563,1.594,1.127,3.808c.124.484.248.991.361,1.527.749,3.436,1.2,7.69-.316,10.089a7.961,7.961,0,0,0-.563,1.008c-2.045,4.355-.648,9.825-.648,9.825s-1.786,12.393-2.569,14.416c-.563,1.425-.045,3.414.3,4.45a4.951,4.951,0,0,1,.254,1.544v4.4s.9,3.684.451,4.693S924.9,336.622,924.9,336.622Z" transform="translate(-418.598 -145.48)" fill="#444053"/>
    <path id="Path_692" data-name="Path 692" d="M959.812,297.179a9.254,9.254,0,0,0-.563,1.008l-2.011-.113c.192-1.037-1.177-10.754-1.177-10.754l4.056-.231C960.871,290.549,961.327,294.808,959.812,297.179Z" transform="translate(-451.867 -149.859)" opacity="0.1"/>
    <path id="Path_693" data-name="Path 693" d="M960.4,296.629a7.942,7.942,0,0,0-.563,1.008l-2.017-.113c.2-1.037-1.172-10.76-1.172-10.76l4.05-.225C961.467,289.976,961.917,294.23,960.4,296.629Z" transform="translate(-452.125 -149.619)" fill="#444053"/>
    <path id="Path_694" data-name="Path 694" d="M960.4,296.629a7.942,7.942,0,0,0-.563,1.008l-2.017-.113c.2-1.037-1.172-10.76-1.172-10.76l4.05-.225C961.467,289.976,961.917,294.23,960.4,296.629Z" transform="translate(-452.125 -149.619)" opacity="0.05"/>
    <path id="Path_695" data-name="Path 695" d="M943.77,462.113a1.324,1.324,0,0,1-.637.563c-1.5.631-7.03-2.169-10.179-3.887a1.735,1.735,0,0,1-.834-1c1.792-.327,2.969,1.69,2.969,1.69a2.642,2.642,0,0,1,3.684.9c1.538,2.253,4.833,1.307,4.833,1.307S943.674,461.837,943.77,462.113Z" transform="translate(-441.413 -224.383)" opacity="0.1"/>
    <path id="Path_696" data-name="Path 696" d="M933.735,469.217c-.338,1-2.85,1-2.85,1a53.523,53.523,0,0,0-6.512,2.293,4.452,4.452,0,0,1-3.38.473c-4.614,1.065-10.534-.777-12.32-1.127s-2.49-2.681-.282-3.127a4.408,4.408,0,0,0,.828-.253,6.726,6.726,0,0,0,2.749-2.253,56.988,56.988,0,0,1,4.7-4.056,13.611,13.611,0,0,0,2.952-2.986c2.625-2.321,4.507.868,4.507.868a2.642,2.642,0,0,1,3.684.9c1.538,2.253,4.833,1.307,4.833,1.307s.563,1.51.868,2.6c.068.276.141.625.2,1.008A8.816,8.816,0,0,1,933.735,469.217Z" transform="translate(-430.449 -224.637)" fill="#ff748f"/>
    <circle id="Ellipse_120" data-name="Ellipse 120" cx="0.31" cy="0.31" r="0.31" transform="translate(495.292 236.896)" fill="#575988"/>
    <circle id="Ellipse_121" data-name="Ellipse 121" cx="0.31" cy="0.31" r="0.31" transform="translate(492.667 239.352)" fill="#575988"/>
    <circle id="Ellipse_122" data-name="Ellipse 122" cx="0.31" cy="0.31" r="0.31" transform="translate(489.997 241.561)" fill="#575988"/>
    <circle id="Ellipse_123" data-name="Ellipse 123" cx="0.31" cy="0.31" r="0.31" transform="translate(491.377 240.575)" fill="#575988"/>
    <circle id="Ellipse_124" data-name="Ellipse 124" cx="0.31" cy="0.31" r="0.31" transform="translate(494.036 238.045)" fill="#575988"/>
    <path id="Path_697" data-name="Path 697" d="M933.735,475.047c-.338,1-2.85,1-2.85,1a53.523,53.523,0,0,0-6.512,2.293,4.452,4.452,0,0,1-3.38.473c-4.614,1.065-10.534-.777-12.32-1.127s-2.49-2.681-.282-3.127a4.408,4.408,0,0,0,.828-.253,21.406,21.406,0,0,0,6.045,1.127c4.552.192,8.157,0,8.157,0l4.608-1.482a7.712,7.712,0,0,1,2.85-1.037,7.322,7.322,0,0,0,2.817-1.228A8.816,8.816,0,0,1,933.735,475.047Z" transform="translate(-430.449 -230.467)" fill="#dce6f2"/>
    <path id="Path_698" data-name="Path 698" d="M933.5,479.531a3.8,3.8,0,0,1-.766-.079l.068-.327a4.839,4.839,0,0,0,2.76-.383,13.249,13.249,0,0,0,1.222-.563,14.2,14.2,0,0,1,1.453-.637l.456-.158c.253-.085.507-.169.749-.276.141-.056.276-.124.411-.186a4.586,4.586,0,0,1,1.037-.394,4.828,4.828,0,0,1,.563-.073,4.789,4.789,0,0,0,.507-.062,4.4,4.4,0,0,0,.969-.361,4.7,4.7,0,0,1,1.042-.383l.248-.045a1.189,1.189,0,0,0,.721-.265l.242.231a1.5,1.5,0,0,1-.913.366l-.231.039a4.405,4.405,0,0,0-.969.361,4.7,4.7,0,0,1-1.042.383,3.715,3.715,0,0,1-.563.068,4.913,4.913,0,0,0-.524.068,4.261,4.261,0,0,0-.958.372l-.423.192c-.259.107-.518.2-.777.282l-.445.158c-.484.18-.963.406-1.431.62s-.817.389-1.239.563a5.96,5.96,0,0,1-2.169.49Z" transform="translate(-441.68 -232.061)" fill="#575988" opacity="0.5"/>
    <path id="Path_699" data-name="Path 699" d="M936,381.309a8.126,8.126,0,0,1,6.287-3.324,21.523,21.523,0,0,0,5.667-.445,14.069,14.069,0,0,1-4.3,1.69A72.632,72.632,0,0,0,936,381.309Z" transform="translate(-443.108 -189.356)" opacity="0.1"/>
    <path id="Path_700" data-name="Path 700" d="M938.38,384.319a9.339,9.339,0,0,1,3.3-1.51c1.2-.056,2.253-.169,2.253-.169a6.365,6.365,0,0,1-1.842.9C941.061,383.817,938.38,384.319,938.38,384.319Z" transform="translate(-444.147 -191.583)" opacity="0.1"/>
    <path id="Path_701" data-name="Path 701" d="M939.17,387.4s3.16.254,3.188,1.093" transform="translate(-444.492 -193.661)" opacity="0.1"/>
    <path id="Path_702" data-name="Path 702" d="M887,299.2c.163.028,2.98-2.935,3.177-4.107a2.872,2.872,0,0,1,1.228-1.8s1.82.727.2,2.952A9.023,9.023,0,0,1,887,299.2Z" transform="translate(-421.711 -152.567)" opacity="0.1"/>
    <path id="Path_703" data-name="Path 703" d="M950.829,131.8c-.642,1.521-1.211,1.634-1.087,3.11a11.2,11.2,0,0,1-2.557,2.011c-2,1.189-4.174,3.51-6.664,3.51a13.211,13.211,0,0,1-4.867-.918,8.81,8.81,0,0,0-1.583-4.507S953.747,124.915,950.829,131.8Z" transform="translate(-442.265 -81.001)" opacity="0.1"/>
    <path id="Path_704" data-name="Path 704" d="M948.516,113.823A13.323,13.323,0,1,1,935.193,100.5,13.323,13.323,0,0,1,948.516,113.823Z" transform="translate(-436.938 -68.382)" fill="#cc818c"/>
    <path id="Path_705" data-name="Path 705" d="M954.306,153.978l-4.27,6.371s-20.2,9.633-16.337-1.69c1.69-4.986,1.9-8.636,1.594-11.16h.034a10.563,10.563,0,0,1,.4,2.569c.062,1.735.107,3.943,4.422,4.664a12.053,12.053,0,0,0,11.734-4.174A20.842,20.842,0,0,0,954.306,153.978Z" transform="translate(-441.888 -88.906)" opacity="0.1"/>
    <path id="Path_706" data-name="Path 706" d="M815.561,109.336l-2.67,5.188a10.338,10.338,0,0,1-2.49-.518l-.231-.276c1.093.417,4.777-6.54,4.777-6.54l.118.1C815.37,108.5,815.561,109.336,815.561,109.336Z" transform="translate(-388.162 -71.304)" opacity="0.1"/>
    <path id="Path_707" data-name="Path 707" d="M933.41,280.887c-8.625,3.746-38.47.563-38.47.563a3.764,3.764,0,0,0,.152-.975c.811-1.239,1.414-1.983,1.414-1.983l35.755-1.4S932.841,278.673,933.41,280.887Z" transform="translate(-425.178 -145.493)" opacity="0.1"/>
    <path id="Path_708" data-name="Path 708" d="M881.911,130.47l-3.977,1.69a3.177,3.177,0,0,1-2.85-1.848c-.918-1.927-4.186,0-4.186,0s-9.977-.755-13.661,1.093c0,0-5.949-2.518-6.76-2.681s-2.1-.839-2.681-.67-1.341-1.093-1.758-1.008-.591-.839-1.932-1.172-1.842.085-3.352-1.425-13.74-7.459-13.74-7.459l-5.532-4.507-5.864-4.693s-3.69,6.952-4.777,6.535l11.143,13.407s8.044,7.042,13.576,9.3,5.109,2.935,5.109,2.935,16.765,8.546,19.362,8.382,2.1,17.514,1,20.365-2.845,23.463-2.845,23.463-1.69,4.355.079,7.374c0,0,.422,6.2,0,7.29,0,0,30.031,3.211,38.549-.563,0,0,1.256-13.909,0-15.672s1.177-5.7,1.177-5.7l5.323-12.01,13.058-13.165s2.011-10.979-6.952-18.027l-5.954-5.278s-3.329-2.879-4.3-3.059-.614,0-.614,0a12.053,12.053,0,0,1-11.83,4.315c-4.315-.727-4.36-2.924-4.422-4.664a10.569,10.569,0,0,0-.394-2.552Z" transform="translate(-388.455 -71.566)" fill="#67647e"/>
    <path id="Path_709" data-name="Path 709" d="M948.9,228.13s-18.438.755-22.122,6.54c0,0,4.777-2.253,9.047-1.594S948.9,228.13,948.9,228.13Z" transform="translate(-439.082 -124.114)" opacity="0.1"/>
    <path id="Path_710" data-name="Path 710" d="M929.9,260.756s8.715.563,10.563-1.256,1.848-2.929,1.848-2.929Z" transform="translate(-440.444 -136.532)" opacity="0.1"/>
    <path id="Path_711" data-name="Path 711" d="M966.96,196.6s-7.374,8.715,1.594,12.484Z" transform="translate(-455.381 -110.346)" opacity="0.1"/>
    <path id="Path_712" data-name="Path 712" d="M891.67,166.7s2.682,5.47,4.022,5.836Z" transform="translate(-423.75 -97.289)" opacity="0.1"/>
    <path id="Path_713" data-name="Path 713" d="M875.61,162.53s6.7,6.033,7.96,6.619C883.57,169.149,876.613,162.53,875.61,162.53Z" transform="translate(-416.738 -95.469)" opacity="0.1"/>
    <path id="Path_714" data-name="Path 714" d="M920.212,152.27s-6.456,9.633-2.253,15.5C917.925,167.773,915.6,160.816,920.212,152.27Z" transform="translate(-434.609 -90.988)" opacity="0.1"/>
    <path id="Path_715" data-name="Path 715" d="M935.733,277.683l-1.972,1.853-.276.259-2.281,2.158c-.169.124-.327.248-.49.361-9.3,6.664-11.16-3.459-11.16-3.459s-4.107,2.681-4.693.5,9.577-5.278,11.058-5.109a1.96,1.96,0,0,0,.406,0,6.371,6.371,0,0,0,2.084-.738c.152-.079.3-.158.451-.242a16.693,16.693,0,0,0,1.5-.946Z" transform="translate(-433.866 -143.41)" fill="#cc818c"/>
    <path id="Path_716" data-name="Path 716" d="M952.059,113.822a13.323,13.323,0,0,1-6.514,11.454,7.777,7.777,0,0,1-.483-.97c-.479-1.127-.772-2.3-1.251-3.419a10.67,10.67,0,0,0-2.253-3.262,1.425,1.425,0,0,0-.563-.411,1.617,1.617,0,0,0-1.222.338,5.531,5.531,0,0,1-1.859.817,1.977,1.977,0,0,1-1.865-.563,2.8,2.8,0,0,1-.293-2.327,28.883,28.883,0,0,0,.868-5.2,5.129,5.129,0,0,0-2.2-4.54c-1.352-.766-3.031-.563-4.535-.986a4.878,4.878,0,0,1-.682-.237,13.329,13.329,0,0,1,22.866,9.306Z" transform="translate(-440.143 -68.381)" opacity="0.1"/>
    <path id="Path_717" data-name="Path 717" d="M927.234,98.376c-.242.13-.507.361-.434.631a.62.62,0,0,0,.242.31,5.769,5.769,0,0,0,2.107,1.082c1.5.406,3.188.214,4.54.986a5.12,5.12,0,0,1,2.2,4.535,30.372,30.372,0,0,1-.873,5.2,2.818,2.818,0,0,0,.3,2.332,1.989,1.989,0,0,0,1.865.563,5.493,5.493,0,0,0,1.853-.811,1.606,1.606,0,0,1,1.222-.338,1.487,1.487,0,0,1,.6.406,10.58,10.58,0,0,1,2.253,3.267c.484,1.127.777,2.3,1.251,3.419a5.515,5.515,0,0,0,2.253,2.783,2.817,2.817,0,0,0,3.38-.355c.777-.856.755-2.152,1.127-3.25.665-1.9,2.524-3.093,3.684-4.732,1.307-1.842,1.69-4.169,2.022-6.4a5.375,5.375,0,0,0,.034-2.141,7.757,7.757,0,0,0-.592-1.352c-1.3-2.681-1.267-6.056-3.335-8.2-1.555-1.606-3.91-2.1-6.129-2.366s-4.546-.439-6.45-1.606a7.1,7.1,0,0,0-1.746-.969,1.437,1.437,0,0,0-1.718.642,1.127,1.127,0,0,1-.231.468.733.733,0,0,1-.654.039l-2.952-.794.338,1.487a7.368,7.368,0,0,1-3.132-.563c-.056.839.89,1.386,1.183,2.169a2.006,2.006,0,0,1-.563,2.045C929.78,97.925,928.44,97.717,927.234,98.376Z" transform="translate(-439.085 -64.36)" fill="#585268"/>
    <path id="Path_718" data-name="Path 718" d="M894.787,455.837l-.118,1.341-.051.028c-4.805,2.681-14.748-4.8-14.748-4.8l1.037-1.037a1.8,1.8,0,0,1,.451,1.4l2.034.113,2.428,2.625s6.574.76,8.354.332Z" transform="translate(-418.598 -221.594)" opacity="0.1"/>
    <path id="Path_719" data-name="Path 719" d="M879.855,463.106c-3.127.693-14.083.642-14.083.642l-6.118.975s-10.529,1.008-11.7-2.253.918-3.07.918-3.07h.079l4.383-.355s5.56-2.152,7.6-3.634a43.839,43.839,0,0,0,4.552-4.079s1.831-.355,1.8,1.763l2.034.113,2.428,2.62s6.574.766,8.354.338h.614l-.282,3.239.079.1C880.9,460.008,882.649,462.481,879.855,463.106Z" transform="translate(-404.505 -221.568)" fill="#ff748f"/>
    <circle id="Ellipse_125" data-name="Ellipse 125" cx="0.31" cy="0.31" r="0.31" transform="translate(463.695 233.088)" fill="#575988"/>
    <circle id="Ellipse_126" data-name="Ellipse 126" cx="0.31" cy="0.31" r="0.31" transform="translate(455.819 236.507)" fill="#575988"/>
    <circle id="Ellipse_127" data-name="Ellipse 127" cx="0.31" cy="0.31" r="0.31" transform="translate(451.763 237.741)" fill="#575988"/>
    <circle id="Ellipse_128" data-name="Ellipse 128" cx="0.31" cy="0.31" r="0.31" transform="translate(457.887 235.854)" fill="#575988"/>
    <circle id="Ellipse_129" data-name="Ellipse 129" cx="0.31" cy="0.31" r="0.31" transform="translate(453.786 237.127)" fill="#575988"/>
    <circle id="Ellipse_130" data-name="Ellipse 130" cx="0.31" cy="0.31" r="0.31" transform="translate(459.977 234.885)" fill="#575988"/>
    <circle id="Ellipse_131" data-name="Ellipse 131" cx="0.31" cy="0.31" r="0.31" transform="translate(462.044 233.989)" fill="#575988"/>
    <path id="Path_720" data-name="Path 720" d="M879.855,469.375c-3.127.693-14.083.642-14.083.642l-6.118.975s-10.529,1.008-11.7-2.253.918-3.07.918-3.07h.079c.67.868,2.017,1.859,4.664,1.9l7.571.31,7.847-.563s7.323-.225,8.546-.473a17.756,17.756,0,0,0,2.929-1.076C880.9,466.277,882.649,468.75,879.855,469.375Z" transform="translate(-404.505 -227.837)" fill="#dce6f2"/>
    <path id="Path_721" data-name="Path 721" d="M869.039,471.609a4.942,4.942,0,0,1-1.239-.152l.113-.3a6.078,6.078,0,0,0,3.121-.141c.372-.1.738-.2,1.127-.315a12.777,12.777,0,0,1,5.436-.614h.242a51.458,51.458,0,0,0,10.056-.451,3.741,3.741,0,0,0,2.152-.862l.242.237a4.079,4.079,0,0,1-2.338.958,52.232,52.232,0,0,1-10.14.451h-.237a16.455,16.455,0,0,0-3.329.1,17.3,17.3,0,0,0-2,.5c-.372.113-.744.225-1.127.321A8.377,8.377,0,0,1,869.039,471.609Z" transform="translate(-413.327 -229.192)" fill="#575988" opacity="0.5"/>
    <path id="Path_722" data-name="Path 722" d="M946.6,277.683l-1.972,1.853-4.9-6.27a16.684,16.684,0,0,0,1.5-.946Z" transform="translate(-444.736 -143.41)" opacity="0.1"/>
    <path id="Path_723" data-name="Path 723" d="M968.542,190.5l3.853,5.363V201.5a23.459,23.459,0,0,1,0,11.9l.2,5.194s-1.87,4.777-1.2,5.949c0,0-.338,3.521-4.862,5.954s-9.639,8.168-9.639,8.168-1.927,3.69-7.121,2.85l-4.946,2.1-5.7-7.29,7.706-4.191s2.681-3.605,4.276-3.436l6.535-7.611s.169-2.428,1.842-2.428c0,0-3.1-2.512-2.011-4.022s.169-8.213.169-8.213Z" transform="translate(-444.474 -107.682)" fill="#67647e"/>
    <path id="Path_724" data-name="Path 724" d="M978.55,233.786s8.8-.163,9.887,2.1S981.231,232.53,978.55,233.786Z" transform="translate(-461.688 -126.502)" opacity="0.1"/>
    <path id="Path_725" data-name="Path 725" d="M942.419,280.273a2.325,2.325,0,0,1-.034.439,2.963,2.963,0,0,1-2.772,2.518h-.158a2.958,2.958,0,0,1-2.958-2.958,3.036,3.036,0,0,1,.163-.963c-1.4-1.127-1.47-3.143-1.436-4.152a6.372,6.372,0,0,0,2.084-.738,13.86,13.86,0,0,0,1.459,2.98,2.816,2.816,0,0,1,.687-.085,2.958,2.958,0,0,1,2.963,2.957Z" transform="translate(-442.767 -144.327)" opacity="0.1"/>
    <path id="Path_726" data-name="Path 726" d="M937.834,273.26s-1.983.445-1.983.806-.445,3.634,1.729,4.974,1.96-1.87,1.96-1.87S937.665,274.291,937.834,273.26Z" transform="translate(-443.026 -143.82)" fill="#575988"/>
    <circle id="Ellipse_132" data-name="Ellipse 132" cx="2.963" cy="2.963" r="2.963" transform="translate(494.064 132.983)" fill="#e4aab4"/>
    <circle id="Ellipse_133" data-name="Ellipse 133" cx="2.541" cy="2.541" r="2.541" transform="translate(494.487 133.406)" fill="#dce6f2"/>
    <path id="Path_727" data-name="Path 727" d="M922.824,286.84a14.675,14.675,0,0,0,14.3,1.9v2.512s-5.363,3.684-10.225,1.453S922.824,286.84,922.824,286.84Z" transform="translate(-437.334 -149.75)" opacity="0.1"/>
    <path id="Path_728" data-name="Path 728" d="M922.824,285.65a14.661,14.661,0,0,0,14.3,1.887v2.512s-5.363,3.684-10.225,1.453S922.824,285.65,922.824,285.65Z" transform="translate(-437.334 -149.231)" opacity="0.1"/>
    <path id="Path_729" data-name="Path 729" d="M922.824,285.65a14.661,14.661,0,0,0,14.3,1.887v2.512s-5.363,3.684-10.225,1.453S922.824,285.65,922.824,285.65Z" transform="translate(-437.334 -149.231)" fill="#444053"/>
    <path id="Path_730" data-name="Path 730" d="M923.126,285.65a14.675,14.675,0,0,0,14.3,1.9v2.512s-5.38,3.667-10.225,1.453S923.126,285.65,923.126,285.65Z" transform="translate(-437.467 -149.231)" opacity="0.05"/>
    <path id="Path_731" data-name="Path 731" d="M888,451.32s8.382,1.538,9.61,1.87-.338.924-.338.924S889.594,452.745,888,451.32Z" transform="translate(-422.148 -221.573)" opacity="0.1"/>
    <path id="Path_732" data-name="Path 732" d="M887.61,440.148c.135,0,5.7-1.566,6.9-4.248" transform="translate(-421.978 -214.839)" opacity="0.1"/>
    <path id="Path_733" data-name="Path 733" d="M902,386.508s2.253,2.963,3.707,2.879S903.324,386.395,902,386.508Z" transform="translate(-428.261 -193.27)" opacity="0.1"/>
    <path id="Path_734" data-name="Path 734" d="M904.22,395.24s.946,2.1,2.343,1.425" transform="translate(-429.23 -197.085)" opacity="0.1"/>
    <path id="Path_735" data-name="Path 735" d="M913.59,313.552l5.943,15.672s.839-10.084-.935-13.1A5.233,5.233,0,0,0,913.59,313.552Z" transform="translate(-433.322 -161.404)" opacity="0.05"/>
    <g id="Group_60" data-name="Group 60" transform="translate(487.642 27.487)" opacity="0.1">
      <path id="Path_736" data-name="Path 736" d="M938.778,92.759l-.051-.225-.958-.253.107.468A6.865,6.865,0,0,0,938.778,92.759Z" transform="translate(-931.523 -92.28)"/>
      <path id="Path_737" data-name="Path 737" d="M933.977,97.266l.1-.09a2,2,0,0,0,.563-2.039,2.766,2.766,0,0,0-.473-.761,7.322,7.322,0,0,1-1.38-.406c-.056.839.89,1.38,1.183,2.169a1.69,1.69,0,0,1,.006,1.127Z" transform="translate(-929.347 -93.018)"/>
      <path id="Path_738" data-name="Path 738" d="M947.141,127.337a5.538,5.538,0,0,1-2.253-2.783c-.479-1.127-.766-2.31-1.251-3.419a10.507,10.507,0,0,0-2.253-3.262,1.426,1.426,0,0,0-.592-.411,1.6,1.6,0,0,0-1.222.338,5.633,5.633,0,0,1-1.859.817,2.011,2.011,0,0,1-1.865-.563,2.8,2.8,0,0,1-.293-2.327,28.951,28.951,0,0,0,.873-5.205,5.032,5.032,0,0,0-2.2-4.507c-1.352-.772-3.031-.563-4.507-.986a5.723,5.723,0,0,1-2.107-1.082l-.118-.107a3.6,3.6,0,0,0-.366.175c-.242.13-.5.361-.434.625a.67.67,0,0,0,.248.315,5.8,5.8,0,0,0,2.107,1.076c1.5.411,3.183.22,4.535.991a5.1,5.1,0,0,1,2.2,4.507,30.291,30.291,0,0,1-.873,5.2,2.8,2.8,0,0,0,.293,2.327,1.983,1.983,0,0,0,1.865.563,5.634,5.634,0,0,0,1.859-.811,1.628,1.628,0,0,1,1.222-.344,1.482,1.482,0,0,1,.563.411,10.636,10.636,0,0,1,2.253,3.262c.484,1.127.772,2.3,1.251,3.419a5.527,5.527,0,0,0,2.253,2.817,2.852,2.852,0,0,0,3.38-.355,2.659,2.659,0,0,0,.5-.839,2.873,2.873,0,0,1-3.211.158Z" transform="translate(-926.681 -97.328)"/>
      <path id="Path_739" data-name="Path 739" d="M971.54,135.083c.839-1.059,1.938-1.96,2.727-3.076a7.9,7.9,0,0,0,.434-.687C973.686,132.61,972.295,133.652,971.54,135.083Z" transform="translate(-946.269 -109.327)"/>
    </g>
    <g id="Group_62" data-name="Group 62" transform="translate(322.945 37.413)" opacity="0.1">
      <path id="Path_740" data-name="Path 740" d="M774.574,109.9H641.288a6.985,6.985,0,0,0-6.968,6.963v84.213a6.985,6.985,0,0,0,6.968,6.963H745.844s2.71,14.382-6.2,15.926c0,0,19.931,1.431,16.449-15.926h18.472a6.98,6.98,0,0,0,6.963-6.963V116.863a6.98,6.98,0,0,0-6.957-6.963Z" transform="translate(-634.32 -109.9)"/>
      <g id="Group_61" data-name="Group 61" transform="translate(19.621 22.353)" opacity="0.2">
        <rect id="Rectangle_208" data-name="Rectangle 208" width="107.969" height="6.58" rx="3.29"/>
        <rect id="Rectangle_209" data-name="Rectangle 209" width="89.092" height="6.58" rx="3.29" transform="translate(0 29.406)"/>
        <rect id="Rectangle_210" data-name="Rectangle 210" width="64.136" height="6.58" rx="3.29" transform="translate(0 14.703)"/>
      </g>
    </g>
    <path id="Path_741" data-name="Path 741" d="M777.664,107.83H644.379a6.991,6.991,0,0,0-6.969,6.968v84.213a6.985,6.985,0,0,0,6.969,6.963H748.934s2.71,14.382-6.2,15.926c0,0,19.931,1.431,16.449-15.926h18.472a6.98,6.98,0,0,0,6.963-6.963V114.8a6.985,6.985,0,0,0-6.957-6.968Z" transform="translate(-312.724 -71.583)" fill="#fff"/>
    <g id="Group_63" data-name="Group 63" transform="translate(344.307 58.6)" opacity="0.2">
      <rect id="Rectangle_211" data-name="Rectangle 211" width="107.969" height="6.58" rx="3.29" fill="#1985a1"/>
      <rect id="Rectangle_212" data-name="Rectangle 212" width="89.092" height="6.58" rx="3.29" transform="translate(0 29.412)" fill="#1985a1"/>
      <rect id="Rectangle_213" data-name="Rectangle 213" width="64.136" height="6.58" rx="3.29" transform="translate(0 14.709)" fill="#1985a1"/>
    </g>
    <path id="Path_742" data-name="Path 742" d="M137.905,596.48s2.005,2.625-.93,6.591-5.357,7.323-4.377,9.785c0,0,4.428-7.363,8.033-7.464S141.871,600.908,137.905,596.48Z" transform="translate(-92.195 -284.959)" fill="#79c99e"/>
    <path id="Path_743" data-name="Path 743" d="M137.994,596.48a3.312,3.312,0,0,1,.406.823c3.521,4.135,5.391,7.988,2.011,8.089-3.149.09-6.923,5.718-7.83,7.143a1.027,1.027,0,0,0,.107.321s4.428-7.363,8.033-7.464S141.96,600.908,137.994,596.48Z" transform="translate(-92.283 -284.959)" opacity="0.1"/>
    <path id="Path_744" data-name="Path 744" d="M148.452,601.956c0,.924-.1,1.69-.231,1.69s-.231-.749-.231-1.69.13-.49.259-.49S148.452,601.033,148.452,601.956Z" transform="translate(-99.012 -287.089)" fill="#ffd037"/>
    <path id="Path_745" data-name="Path 745" d="M149.86,603.892c-.811.445-1.521.71-1.583.6s.563-.563,1.358-1,.5-.118.563,0S150.671,603.452,149.86,603.892Z" transform="translate(-99.136 -287.92)" fill="#ffd037"/>
    <path id="Path_746" data-name="Path 746" d="M119.858,596.48s-2.005,2.625.93,6.591,5.357,7.323,4.377,9.785c0,0-4.428-7.363-8.033-7.464S115.892,600.908,119.858,596.48Z" transform="translate(-84.761 -284.959)" fill="#79c99e"/>
    <path id="Path_747" data-name="Path 747" d="M119.858,596.48a3.313,3.313,0,0,0-.406.823c-3.521,4.135-5.391,7.988-2.011,8.089,3.149.09,6.923,5.718,7.83,7.143-.028.107-.068.214-.107.321,0,0-4.428-7.363-8.033-7.464S115.892,600.908,119.858,596.48Z" transform="translate(-84.761 -284.959)" opacity="0.1"/>
    <path id="Path_748" data-name="Path 748" d="M116.73,601.956c0,.924.1,1.69.231,1.69s.231-.749.231-1.69-.13-.49-.259-.49S116.73,601.033,116.73,601.956Z" transform="translate(-85.362 -287.089)" fill="#ffd037"/>
    <path id="Path_749" data-name="Path 749" d="M114.061,603.892c.811.445,1.521.71,1.583.6s-.563-.563-1.358-1-.5-.118-.563,0S113.245,603.452,114.061,603.892Z" transform="translate(-83.978 -287.92)" fill="#ffd037"/>
    <ellipse id="Ellipse_134" data-name="Ellipse 134" cx="21.001" cy="3.222" rx="21.001" ry="3.222" transform="translate(19.402 341.547)" fill="#6c63ff" opacity="0.1"/>
    <path id="Path_750" data-name="Path 750" d="M135.22,618.322l-.1.817-.141,1.161-.062.484-.141,1.155-.056.484-.141,1.16-1.611,13.176c-.141,1.177-2.062,2.1-4.383,2.1h-8.371c-2.321,0-4.236-.918-4.383-2.1l-1.611-13.171-.141-1.16-.056-.484-.141-1.155-.062-.484-.141-1.161-.1-.817c-.079-.665.963-1.228,2.253-1.228H132.9C134.234,617.094,135.276,617.658,135.22,618.322Z" transform="translate(-83.984 -293.963)" fill="#65617d"/>
    <path id="Path_751" data-name="Path 751" d="M74.112,577.23l-.141,1.16H52.841l-.141-1.16Z" transform="translate(-23.005 -252.053)" fill="#9d9cb5"/>
    <path id="Path_752" data-name="Path 752" d="M74.068,580.15l-.141,1.155H53.2l-.146-1.155Z" transform="translate(-23.158 -253.329)" fill="#9d9cb5"/>
    <path id="Path_753" data-name="Path 753" d="M74.022,583.06l-.141,1.16H53.551l-.141-1.16Z" transform="translate(-23.315 -254.599)" fill="#9d9cb5"/>
    <ellipse id="Ellipse_135" data-name="Ellipse 135" cx="47.343" cy="7.768" rx="47.343" ry="7.768" transform="translate(316.461 436.903)" fill="#1985a1" opacity="0.1"/>
    <g id="Group_65" data-name="Group 65" transform="translate(266.656 206.11)" opacity="0.1">
      <path id="Path_754" data-name="Path 754" d="M686.383,409.36H541.949a7.571,7.571,0,0,0-7.549,7.549v91.261a7.571,7.571,0,0,0,7.549,7.549h113.3s2.935,15.582-6.709,17.255c0,0,21.593,1.549,17.818-17.255h20.021a7.571,7.571,0,0,0,7.549-7.549v-91.26a7.571,7.571,0,0,0-7.549-7.549Z" transform="translate(-534.4 -409.36)"/>
      <g id="Group_64" data-name="Group 64" transform="translate(21.26 40.16)" opacity="0.2">
        <rect id="Rectangle_214" data-name="Rectangle 214" width="117.005" height="7.132" rx="3.566" transform="translate(0 15.937)"/>
        <rect id="Rectangle_215" data-name="Rectangle 215" width="50.734" height="7.132" rx="3.566"/>
      </g>
    </g>
    <path id="Path_755" data-name="Path 755" d="M684.171,407.13H539.709a7.571,7.571,0,0,0-7.549,7.549v91.261a7.571,7.571,0,0,0,7.549,7.549h113.3s2.935,15.582-6.709,17.261c0,0,21.6,1.549,17.824-17.261h20.043a7.571,7.571,0,0,0,7.549-7.549v-91.26a7.571,7.571,0,0,0-7.549-7.549Z" transform="translate(-266.765 -202.276)" fill="#fff"/>
    <g id="Group_66" data-name="Group 66" transform="translate(286.661 245.014)" opacity="0.2">
      <rect id="Rectangle_216" data-name="Rectangle 216" width="117.005" height="7.132" rx="3.566" transform="translate(0 15.937)" fill="#1985a1"/>
      <rect id="Rectangle_217" data-name="Rectangle 217" width="50.734" height="7.132" rx="3.566" fill="#1985a1"/>
    </g>
    <path id="Path_756" data-name="Path 756" d="M662.567,630.736c-.682-2.89-1.127-5.431-1.127-5.431a11.194,11.194,0,0,0-1.256-5.515V619h0v-5.819a19.514,19.514,0,0,1,1.47-3.048c1.048-1.831,0-8.535,0-8.535s-3.887-9.453-2.941-15.447-7.982-26.629-7.982-26.629a26.192,26.192,0,0,1,.839-5.893,4.56,4.56,0,0,0,.113-1.234,1.317,1.317,0,0,0,0-.152v.051c-.135-3.943-3.262-11.368-3.262-11.368l.422-14.123s1.994-8.332-1.262-19.514c-1.127-3.9-1.865-7.025-2.327-9.43-.051-.276-.1-.563-.146-.789,6.7-1.02,11.83-1.87,11.83-1.87s-3.876-16.263-6.5-19.08-4.721-11.83-4.721-11.83-1.369-11.486.839-14.838,2.518-9.143,2.518-9.143,5.07-3.662,5.673-5.284a27.962,27.962,0,0,0,1.69-7.216c0-1.932-.631-3.662-.423-4.676s-1.47-4.878-.631-6.709a4.929,4.929,0,0,0,.338-1.763v-.051h0a24.9,24.9,0,0,0-.445-4.766,13.52,13.52,0,0,0-4.986-2.665l-.113-.439-.282-1.127c-.169-.113-.332-.208-.5-.3V404.9l-.051-1.651.794-3.707c1.549-6.456-7.064-7.419-7.064-7.419a4.506,4.506,0,0,0-2.439-2.135c-1.735-.608-.287,9.706.524,10.365a37.43,37.43,0,0,1,3.38,5.318h0l.146.265a3.166,3.166,0,0,0-.394.411l.327,2.253.051.344a9.386,9.386,0,0,0-1.375,2.343,5,5,0,0,1,1.262,3.662,11.133,11.133,0,0,0,.518,4.467c-.09-.107-1.2-1.307-2.3-1.014s-4.2,1.222-4.2,1.222-2.31.406-2.1.913-1.577,2.743-1.577,2.743l-6.2-5.881c-.056-.175-.124-.349-.18-.535a14.756,14.756,0,0,1-.563-2.574,14.733,14.733,0,0,0,1.983-.631,4.293,4.293,0,0,0,1.69-1.1,6.686,6.686,0,0,0,1-2.676,38.711,38.711,0,0,1,2.3-5.138,16.675,16.675,0,0,0,1.239-9.222,6.089,6.089,0,0,0-.952-2.7c-1.014-1.4-2.851-1.96-4.191-3.076s-2.2-2.817-3.752-3.645a7.469,7.469,0,0,0-4.715-.406,25.4,25.4,0,0,0-8.794,3.2,4.528,4.528,0,0,1-2.941.969,3.963,3.963,0,0,1-2.124-1.56.1.1,0,0,1,.028-.084l-.068-.079a10.911,10.911,0,0,0-.918,4.6,6.556,6.556,0,0,0,.028.744v.473h0a1.127,1.127,0,0,1-.045.332,2.422,2.422,0,0,1-.563.839,4.425,4.425,0,0,0-.507.687,2.259,2.259,0,0,1,.085-.254,3.69,3.69,0,0,0-.642,1.96,1.937,1.937,0,0,0,.462,1.4,6.76,6.76,0,0,0,1.014.817,11.83,11.83,0,0,0,5.633,12.3c.073.175.146.355.214.535a14.813,14.813,0,0,1,1.127,6.76,2.457,2.457,0,0,1-.079.5c-.034.163-.152.169-.22.259h0s-10.247.1-12.664-2.084-6.09,5.335-6.09,5.335-3.673.71-4.405,0-5.042-.1-5.042-.1a9.267,9.267,0,0,0-6.377-2.332,18.949,18.949,0,0,0-4.7-2.614h0l-.113-.039h0a5.284,5.284,0,0,0-2.31-.293s-5.042-4.169-6.512-6.4-8.45-10.529-8.5-10.568v-.4l-.079-1.211a4.009,4.009,0,0,1-.625.056c-.039-.118-.085-.259-.141-.417a23.418,23.418,0,0,0-1.487-3.419s0-1.521.445-1.9-.186-5.971-.186-5.971-4.54-10.619-8.608-2.693c0,0-7.69,5.132-1.234,11.1,0,0,2.574,1.245,2.935,2.253.242.642,1.127,2.434,1.69,3.622l.265.535-.073.062.1,1,.039.383c-1.217.693-2.039,1.375-1.842,1.893a11.459,11.459,0,0,1,.738,2.743s8.889,11.154,10.044,15.942c0,0,23.936,14.224,31.812,15.238l-1.363,7.115a56.9,56.9,0,0,0-.315,5.791c.1,1.527-.946,8.45-.946,8.45s-1.363,10.14-2.518,11.582-.918,7.509-.918,7.509a51.343,51.343,0,0,1-1.577,8.636,22.638,22.638,0,0,0-.315,8.642s-3.988,9.143,5.566,2.946c0,0,4.693-.293,10.095-.479v.563c0,.693,0,1.448-.034,2.253-.073,5.239-.1,12.455.135,17.92.422,9.65,3.38,28.758,3.38,28.758v9.577a13.185,13.185,0,0,0-.276,2.744,17.886,17.886,0,0,0,2.586,9.61l.738,6.4s1.724,4.219,1.758,6.76a3.911,3.911,0,0,1-.073.614,4.367,4.367,0,0,0-.085.98c-.1,2.907,1.656,9.858,1.656,9.858s.1,7.014,1.127,7.419c.9.349-1.2,4.045-1.825,5.1a.374.374,0,0,0-.039-.2l-.13.214a4.912,4.912,0,0,0-.327,1.769,2.552,2.552,0,0,0,1.166,2.467c1.994,1.217,3.065,2.253,1.369,2.642a18.176,18.176,0,0,0-1.848.389l-.09-.237a1.127,1.127,0,0,0-.687,1.228,5.114,5.114,0,0,0,.625,2.377,27.107,27.107,0,0,0,2.817,5.183l.811-.09a4.344,4.344,0,0,1-.468.868,3.347,3.347,0,0,1-1.189,1.053,3.582,3.582,0,0,1-1.437.49,4.062,4.062,0,0,0-2.974,1.448c-1.048,1.358-1.69,3.2.366,4.822l7.509,2.591s12.912,1.69,12.23-1.222-1.127-5.436-1.127-5.436a11.447,11.447,0,0,0-1.048-5.138,6.88,6.88,0,0,0-.456-.755l.456-.051s.946-6.405,2.2-7.622c.293-.282.36-.5.287-.665.13-.349-.2-.563-.62-.67l-.09.253a6.15,6.15,0,0,0-1.256-.141s-.417-3.352.946-4.569a1.3,1.3,0,0,0,.265-1,5.6,5.6,0,0,0-.141-1.369l-.051.079a49.6,49.6,0,0,0-3.014-7.887s-.107-3.048.738-4.27-.107-16.562-.107-16.562.315-7.419-.631-10.872,1.155-7.521,1.155-7.521v-.225l.028-.051s-.051-.456-.124-1.166v.068c-.214-1.96-.614-5.521-.907-7.166-.422-2.338.1-13.52.1-13.52l1.893-4.777,3.38,8.236,3.572,10.974a9.336,9.336,0,0,1,1.808,4.664,2.306,2.306,0,0,1,0,.344,6.624,6.624,0,0,0-.039.738,6.5,6.5,0,0,0,1.087,3.9s.946,5.183,2.417,6.506a5.86,5.86,0,0,1,1.47,3.859s1.78,7.521,2.625,8.844c.7,1.127.744,4.174.738,5.109h0v.276s.248,2.687.237,4.946v.806a.245.245,0,0,1,0-.062,8.254,8.254,0,0,1-.22,1.831.191.191,0,0,1-.034.107l.034-.383a19.36,19.36,0,0,0-.563,4.687c-.051,2.7.36,5.9,2,7.78,2.817,3.256,4.619,2.85,4.619,2.85s-1.363,4.062-3.048,4.873a.953.953,0,0,0-.175.118,1.745,1.745,0,0,0-.045-.237,1.972,1.972,0,0,0-.49,1.515,10.8,10.8,0,0,0,2.079,6.022,3.279,3.279,0,0,0,1.42.828l-.265.163a5.809,5.809,0,0,1-.563.276,2.721,2.721,0,0,1-.856.22,4.022,4.022,0,0,0-2.974,1.448c-1.048,1.352-1.69,3.194.366,4.817l7.509,2.591S663.248,633.637,662.567,630.736Z" transform="translate(-271.52 -191.348)" fill="url(#linear-gradient-2)"/>
    <path id="Path_757" data-name="Path 757" d="M661,820.946l-7.267-2.591c-2.005-1.622-1.363-3.464-.355-4.822a3.887,3.887,0,0,1,2.879-1.448,3.379,3.379,0,0,0,1.391-.49,3.261,3.261,0,0,0,1.127-1.053,5.312,5.312,0,0,0,.828-2.817s7.982-2.338,10.14,0a6,6,0,0,1,.969,1.414,11.83,11.83,0,0,1,1.014,5.138s.411,2.541,1.065,5.436S661,820.946,661,820.946Z" transform="translate(-319.28 -376.748)" fill="#2d293d"/>
    <path id="Path_758" data-name="Path 758" d="M724.14,814.585l-7.267-2.591c-2.005-1.622-1.369-3.465-.355-4.817a3.847,3.847,0,0,1,2.879-1.448,2.55,2.55,0,0,0,.828-.22,4.282,4.282,0,0,0,.563-.276c2.028-1.127,1.977-3.859,1.977-3.859s7.977-2.338,10.14,0a5.447,5.447,0,0,1,.761,1.036,11.5,11.5,0,0,1,1.222,5.521s.406,2.541,1.065,5.436S724.14,814.585,724.14,814.585Z" transform="translate(-346.85 -373.975)" fill="#2d293d"/>
    <path id="Path_759" data-name="Path 759" d="M674.731,807.731a6,6,0,0,1,.969,1.414h0l-11.96,1.386a5.313,5.313,0,0,0,.828-2.817S672.551,805.393,674.731,807.731Z" transform="translate(-324.222 -376.749)" opacity="0.1"/>
    <path id="Path_760" data-name="Path 760" d="M737.3,802.4v2.253c-1.853,3.065-10.85,2.394-13.464.856a4.281,4.281,0,0,0,.563-.276c2.028-1.127,1.977-3.859,1.977-3.859s7.977-2.338,10.14,0A5.443,5.443,0,0,1,737.3,802.4Z" transform="translate(-350.465 -373.975)" opacity="0.1"/>
    <path id="Path_761" data-name="Path 761" d="M703.176,694.8a20.727,20.727,0,0,0-1.425,3.048v8.028c-2.028,3.38-12.6,2.253-14.021.406s-2.946-6.6-1.318-7.414,2.946-4.878,2.946-4.878-1.729.406-4.473-2.845-1.932-10.467-1.42-12.2,0-7.521,0-7.521.1-4.062-.715-5.385-2.541-8.839-2.541-8.839,0-2.541-1.42-3.865-2.338-6.5-2.338-6.5a6.675,6.675,0,0,1-1.031-4.366c.31-2.541-1.724-5.284-1.724-5.284l-3.453-10.974-3.256-8.23-1.814,4.771s-.513,11.177-.1,13.52,1.014,8.535,1.014,8.535-2.034,4.067-1.127,7.521.608,10.872.608,10.872.913,15.345.1,16.562-.71,4.27-.71,4.27,4.163,8.94,2.817,10.14-.918,4.574-.918,4.574,2.817,0,1.628,1.217-2.079,7.639-2.079,7.639l-12.286,1.42a25.522,25.522,0,0,1-2.755-5.183c-1.628-3.763.3-3.38,1.944-3.757s.6-1.425-1.329-2.642-.817-3.943-.817-3.943,2.946-4.98,1.932-5.391-1.127-7.414-1.127-7.414-2.034-8.337-1.527-10.568-1.628-7.622-1.628-7.622l-.71-6.405a17.616,17.616,0,0,1-2.253-12.089v-9.875s-2.817-19.1-3.25-28.758c-.259-6.2-.186-14.619-.1-19.886.051-2.952.1-4.907.1-4.907L686.513,576a36.261,36.261,0,0,0,.794,6.518c.445,2.411,1.127,5.532,2.253,9.436,3.149,11.177,1.217,19.508,1.217,19.508l-.406,14.128s3.864,9.447,3.048,12.7a27.043,27.043,0,0,0-.811,5.893s8.636,20.629,7.723,26.623,2.817,15.447,2.817,15.447S704.19,692.971,703.176,694.8Z" transform="translate(-314.912 -276.016)" fill="#575988"/>
    <path id="Path_762" data-name="Path 762" d="M705.71,691.53l13.368-1.78S711.507,697.473,705.71,691.53Z" transform="translate(-342.548 -325.686)" opacity="0.05"/>
    <path id="Path_763" data-name="Path 763" d="M724.109,666.57s.456,4.726-2.439,6.507C721.676,673.077,726.858,672.26,724.109,666.57Z" transform="translate(-349.517 -315.565)" opacity="0.1"/>
    <path id="Path_764" data-name="Path 764" d="M712.328,639.88s-11.171,9.194-15.21,8.45S712.328,639.88,712.328,639.88Z" transform="translate(-338.553 -303.91)" opacity="0.1"/>
    <path id="Path_765" data-name="Path 765" d="M669.533,700.58s-8.484,1.927-8.737,5.335S669.533,700.58,669.533,700.58Z" transform="translate(-322.934 -330.415)" opacity="0.1"/>
    <path id="Path_766" data-name="Path 766" d="M672.494,775.8s-11.988,2.253-8.585,3.757a60.423,60.423,0,0,0,9.013,2.743S676.764,782.5,672.494,775.8Z" transform="translate(-324.03 -363.261)" opacity="0.05"/>
    <g id="Group_67" data-name="Group 67" transform="translate(327.499 304.277)" opacity="0.05">
      <path id="Path_767" data-name="Path 767" d="M658.884,785.421a2.389,2.389,0,0,1-1.093-1.741l-.124.214s-1.127,2.743.811,3.943c.225.141.434.282.625.417.36-.068.744-.118,1.127-.208C661.853,787.651,660.817,786.638,658.884,785.421Z" transform="translate(-648.927 -670.979)"/>
      <path id="Path_768" data-name="Path 768" d="M687.059,783.7c.332-.3.321-1.087.118-2.09a5.668,5.668,0,0,0-.682,2.946A2.467,2.467,0,0,1,687.059,783.7Z" transform="translate(-661.655 -670.075)"/>
      <path id="Path_769" data-name="Path 769" d="M683.6,695.58a13.661,13.661,0,0,0-.811,3.735,14.716,14.716,0,0,1,.93-2.569S683.674,696.29,683.6,695.58Z" transform="translate(-660.039 -632.509)"/>
      <path id="Path_770" data-name="Path 770" d="M732.83,685.237a4.681,4.681,0,0,0,.113-1.127c-.152.755-.259,1.459-.332,2.079A5.461,5.461,0,0,1,732.83,685.237Z" transform="translate(-681.793 -627.5)"/>
      <path id="Path_771" data-name="Path 771" d="M683.509,757.963a6.48,6.48,0,0,0,.3-2.253,7.654,7.654,0,0,0-.563,2.85A2.744,2.744,0,0,1,683.509,757.963Z" transform="translate(-660.24 -658.765)"/>
      <path id="Path_772" data-name="Path 772" d="M674.648,793.72a39.989,39.989,0,0,0-1.4,6.242l-12.286,1.425a25.75,25.75,0,0,1-2.755-5.183c-.141-.332-.253-.625-.344-.9-.738.338-1.025,1.127-.062,3.335a25.992,25.992,0,0,0,2.749,5.183l12.3-1.425s.913-6.4,2.129-7.622C675.578,794.182,675.195,793.878,674.648,793.72Z" transform="translate(-648.861 -675.363)"/>
      <path id="Path_773" data-name="Path 773" d="M651.956,683.731s.1,7.014,1.127,7.419h0c.513-1.16.856-2.253.4-2.445-1.02-.406-1.127-7.419-1.127-7.419s-2.028-8.332-1.521-10.568-1.628-7.622-1.628-7.622l-.71-6.4a17.594,17.594,0,0,1-2.253-12.095v-9.858s-2.817-19.1-3.25-28.73c-.259-6.2-.186-14.647-.1-19.886,0-.952.028-1.8.045-2.507l-.349.034s-.056,1.955-.1,4.912c-.09,5.262-.163,13.7.1,19.88.406,9.656,3.25,28.758,3.25,28.758v9.858a17.593,17.593,0,0,0,2.253,12.095l.715,6.36s2.135,5.385,1.628,7.622S651.956,683.731,651.956,683.731Z" transform="translate(-642.403 -583.62)"/>
      <path id="Path_774" data-name="Path 774" d="M721.7,798.718a11.831,11.831,0,0,1-1.944-4.828c-1.256,1.127.186,5.526,1.538,7.267,1.42,1.825,11.988,2.946,14.021-.406v-1.938C732.566,801.54,723.063,800.447,721.7,798.718Z" transform="translate(-675.97 -675.437)"/>
      <path id="Path_775" data-name="Path 775" d="M749.9,782.01a19.721,19.721,0,0,0-1.425,3.048v1.414c.231-.524.563-1.217,1.02-2.039a6.078,6.078,0,0,0,.445-2.513A.34.34,0,0,0,749.9,782.01Z" transform="translate(-688.719 -670.21)"/>
      <path id="Path_776" data-name="Path 776" d="M720.181,773.3a19.626,19.626,0,0,0,1-2.417s-1.729.406-4.473-2.817c-2-2.366-2.112-6.833-1.825-9.751-.513,1.724-1.324,8.94,1.42,12.191C718.1,772.612,719.454,773.17,720.181,773.3Z" transform="translate(-673.825 -659.905)"/>
      <path id="Path_777" data-name="Path 777" d="M701.372,701.594a54.3,54.3,0,0,1,.2,6.022,8.779,8.779,0,0,1,.208-.946c.513-1.724,0-7.515,0-7.515s.1-4.067-.71-5.385-2.541-8.844-2.541-8.844,0-2.541-1.42-3.859-2.338-6.507-2.338-6.507a6.653,6.653,0,0,1-1.02-4.366c.3-2.541-1.724-5.284-1.724-5.284l-3.459-10.979-3.25-8.23-1.831,4.777s0,.6-.062,1.544l1.487-3.881,3.25,8.23,3.47,10.979s2.034,2.743,1.729,5.284a6.653,6.653,0,0,0,1.02,4.366s.913,5.183,2.332,6.507a6.015,6.015,0,0,1,1.425,3.859s1.729,7.521,2.541,8.844S701.372,701.594,701.372,701.594Z" transform="translate(-660.318 -610.728)"/>
    </g>
    <path id="Path_778" data-name="Path 778" d="M722.691,405.578l-.766,3.707.045,1.651.034,1.222-4.242.434-.473-.879h0A38.823,38.823,0,0,0,714,406.4c-.783-.659-2.18-10.974-.5-10.365a4.439,4.439,0,0,1,2.36,2.141S724.189,399.151,722.691,405.578Z" transform="translate(-345.603 -197.418)" fill="#ffcdd3"/>
    <path id="Path_779" data-name="Path 779" d="M725.555,423.389l-4.242.434-.473-.879h0a3.746,3.746,0,0,1,4.681-.772Z" transform="translate(-349.155 -208.627)" opacity="0.1"/>
    <path id="Path_780" data-name="Path 780" d="M726.438,425.681l-5.594,1.3-.113-.834-.321-2.253a3.847,3.847,0,0,1,5.414-.738l.276,1.127Z" transform="translate(-348.967 -208.913)" fill="#dce6f2"/>
    <path id="Path_781" data-name="Path 781" d="M559.853,399.928l-5.966,3.2L553.324,402c-.563-1.189-1.414-2.98-1.645-3.622-.355-.986-2.845-2.253-2.845-2.253-6.247-5.971,1.194-11.1,1.194-11.1,3.943-7.926,8.332,2.693,8.332,2.693s.608,5.594.18,5.971-.434,1.9-.434,1.9a23.138,23.138,0,0,1,1.442,3.419C559.757,399.579,559.853,399.928,559.853,399.928Z" transform="translate(-272.956 -191.34)" fill="#ffcdd3"/>
    <path id="Path_782" data-name="Path 782" d="M565.269,413.028l-5.966,3.2-.563-1.127c.839-.7,3.831-3.121,4.811-3.014a7.506,7.506,0,0,0,1.414.039C565.173,412.679,565.269,413.028,565.269,413.028Z" transform="translate(-278.372 -204.44)" opacity="0.1"/>
    <path id="Path_783" data-name="Path 783" d="M566.035,415.185l-6.7,3.307-.135-1.442-.1-1s3.887-3.329,5.036-3.205a6.063,6.063,0,0,0,1.752,0l.073,1.206Z" transform="translate(-278.529 -204.772)" fill="#dce6f2"/>
    <path id="Path_784" data-name="Path 784" d="M682.61,439.2s-29.248,3.3-23.778,1.527c3.8-1.239,5.312-3.656,5.633-6.343a15.237,15.237,0,0,0-1.093-6.76,29.092,29.092,0,0,0-2.614-5.284s22.359-12.3,17.886-1.127a17.913,17.913,0,0,0-1.267,5.3,14.8,14.8,0,0,0,.563,5.357,15.925,15.925,0,0,0,4.67,7.335Z" transform="translate(-321.781 -206.38)" fill="#ffcdd3"/>
    <path id="Path_785" data-name="Path 785" d="M680.666,421.215a17.917,17.917,0,0,0-1.268,5.3c-2.107,1.769-4.417,1.651-7.38,1.651-2.253,0-4.8.563-6.625-.563a29.091,29.091,0,0,0-2.614-5.284S685.139,410.027,680.666,421.215Z" transform="translate(-323.802 -206.373)" opacity="0.1"/>
    <circle id="Ellipse_136" data-name="Ellipse 136" cx="12.095" cy="12.095" r="12.095" transform="translate(335.721 198.375)" fill="#ffcdd3"/>
    <path id="Path_786" data-name="Path 786" d="M682.61,450.122s-29.248,3.3-23.778,1.527c3.8-1.239,5.312-3.656,5.633-6.343,1.453-1.577,4.377-2.715,6.259-3.318a8.738,8.738,0,0,1,5.3-.085,7.362,7.362,0,0,1,1.927.89,15.925,15.925,0,0,0,4.659,7.329Z" transform="translate(-321.781 -217.299)" opacity="0.1"/>
    <path id="Path_787" data-name="Path 787" d="M726.687,427.063l-5.594,1.3-.113-.834a4.94,4.94,0,0,1,5.369-1.836Z" transform="translate(-349.216 -210.295)" opacity="0.1"/>
    <path id="Path_788" data-name="Path 788" d="M566.109,416.122l-6.7,3.307-.135-1.442a49.282,49.282,0,0,1,6.76-3Z" transform="translate(-278.603 -205.709)" opacity="0.1"/>
    <path id="Path_789" data-name="Path 789" d="M687.376,582.529c-11.323,1.791-27.446,4.118-30,3.341-2.118-.648-8.9-.563-14.793-.377.051-2.952.1-4.907.1-4.907l43.9-4.586A36.255,36.255,0,0,0,687.376,582.529Z" transform="translate(-314.982 -276.016)" opacity="0.1"/>
    <path id="Path_790" data-name="Path 790" d="M660.939,509.842s-37.293,6.405-41.3,5.183-24.55.1-24.55.1c-9.244,6.2-5.385-2.946-5.385-2.946a22.752,22.752,0,0,1,.3-8.636,52.6,52.6,0,0,0,1.555-8.636s-.2-6.1.913-7.521,2.439-11.588,2.439-11.588,1.02-6.906.918-8.45a57.766,57.766,0,0,1,.3-5.791l1.318-7.115c-7.622-1.014-30.792-15.244-30.792-15.244-1.127-4.771-9.751-15.954-9.751-15.954a11.6,11.6,0,0,0-.715-2.743c-.608-1.622,8.54-4.873,8.54-4.873s6.805,8.332,8.23,10.568,6.3,6.4,6.3,6.4a4.957,4.957,0,0,1,2.253.293l.118.034h0a18.217,18.217,0,0,1,4.552,2.614,8.822,8.822,0,0,1,6.2,2.338s4.169-.608,4.879.1,4.27,0,4.27,0,3.555-7.521,5.893-5.335,12.253,2.084,12.253,2.084c1.324-1.758,4.541-3.019,6.552-3.667a8.777,8.777,0,0,1,5.3-.085,6.833,6.833,0,0,1,2.09,1.008l6.016,5.893s1.729-2.253,1.527-2.743,2.034-.913,2.034-.913,2.946-.918,4.062-1.222,2.141.907,2.253,1.014a11.915,11.915,0,0,1-.5-4.467,5.259,5.259,0,0,0-1.222-3.662c3.56-8.737,11.588-1.42,11.588-1.42s.913,4.777.1,6.6.811,5.7.608,6.709.406,2.743.406,4.676a27.416,27.416,0,0,1-1.628,7.211c-.614,1.622-5.487,5.284-5.487,5.284s-.3,5.8-2.439,9.149-.873,14.838-.873,14.838,2.034,8.963,4.591,11.83S660.939,509.842,660.939,509.842Z" transform="translate(-277.249 -205.988)" fill="#656691"/>
    <path id="Path_791" data-name="Path 791" d="M641.711,459.35s-1.127-3.352-2.135-3.656a24.182,24.182,0,0,1-2.946-1.324l.653-1.251s3.814,1.048,4.428,2.163S641.711,459.35,641.711,459.35Z" transform="translate(-312.384 -222.359)" opacity="0.1"/>
    <path id="Path_792" data-name="Path 792" d="M602.22,448.943c-.2,1.014-9.25,1.932-9.25,1.932l4.574-4.586h0l.113.039h0a18.22,18.22,0,0,1,4.563,2.614Z" transform="translate(-293.319 -219.376)" opacity="0.1"/>
    <circle id="Ellipse_137" data-name="Ellipse 137" cx="0.811" cy="0.811" r="0.811" transform="translate(281.917 214.813)" fill="#575988"/>
    <circle id="Ellipse_138" data-name="Ellipse 138" cx="0.811" cy="0.811" r="0.811" transform="translate(282.959 216.441)" fill="#575988"/>
    <circle id="Ellipse_139" data-name="Ellipse 139" cx="0.811" cy="0.811" r="0.811" transform="translate(283.979 217.94)" fill="#575988"/>
    <circle id="Ellipse_140" data-name="Ellipse 140" cx="0.811" cy="0.811" r="0.811" transform="translate(285.044 219.568)" fill="#575988"/>
    <circle id="Ellipse_141" data-name="Ellipse 141" cx="0.659" cy="0.659" r="0.659" transform="translate(380.986 219.63)" fill="#575988"/>
    <circle id="Ellipse_142" data-name="Ellipse 142" cx="0.659" cy="0.659" r="0.659" transform="translate(381.087 221.128)" fill="#575988"/>
    <circle id="Ellipse_143" data-name="Ellipse 143" cx="0.659" cy="0.659" r="0.659" transform="translate(381.177 222.627)" fill="#575988"/>
    <path id="Path_793" data-name="Path 793" d="M645.74,513.06c-.1-.118,22.809,28.809,40.594,12.095C686.334,525.155,658.234,528.963,645.74,513.06Z" transform="translate(-316.361 -248.532)" opacity="0.1"/>
    <path id="Path_794" data-name="Path 794" d="M622.38,539.76s13.706.372,15.137,4.315v4.107a2.62,2.62,0,0,1-2.546,0c-1.38-.749-9.672-4.957-12.591-2.935Z" transform="translate(-306.161 -260.191)" opacity="0.1"/>
    <path id="Path_795" data-name="Path 795" d="M622.83,539.76s13.109.355,14.478,4.118v3.9a2.513,2.513,0,0,1-2.439,0c-1.318-.71-9.244-4.726-12.039-2.817Z" transform="translate(-306.358 -260.191)" fill="#656691"/>
    <path id="Path_796" data-name="Path 796" d="M635.66,486.92a44.282,44.282,0,0,0,5.312,9.12,35.759,35.759,0,0,0,8.326,8.039S635.885,488.807,635.66,486.92Z" transform="translate(-311.96 -237.118)" opacity="0.1"/>
    <path id="Path_797" data-name="Path 797" d="M627.7,458.65s2.287,9.87,8.18,13.227Z" transform="translate(-308.484 -224.773)" opacity="0.1"/>
    <path id="Path_798" data-name="Path 798" d="M621.313,460.418c-.056-.18-2.028,7.808,7.6,12.23C628.935,472.648,624.822,471.256,621.313,460.418Z" transform="translate(-305.606 -225.544)" opacity="0.1"/>
    <path id="Path_799" data-name="Path 799" d="M727.717,448.665c-.152,0,4.755,3.121,6.084,4.569C733.8,453.234,730.613,448.462,727.717,448.665Z" transform="translate(-352.157 -220.411)" opacity="0.1"/>
    <path id="Path_800" data-name="Path 800" d="M664.889,415.407a2.575,2.575,0,0,0,.946,1.634,2.608,2.608,0,0,0,1.127.254c3.69.225,7.526.389,10.934-1.031a4.135,4.135,0,0,0,1.69-1.1,6.816,6.816,0,0,0,.969-2.676,35.116,35.116,0,0,1,2.253-5.138A17.233,17.233,0,0,0,684,398.13a6.113,6.113,0,0,0-.918-2.7c-.98-1.4-2.76-1.96-4.056-3.07s-2.124-2.817-3.634-3.65a7.012,7.012,0,0,0-4.563-.406,24.077,24.077,0,0,0-8.574,3.2,4.257,4.257,0,0,1-2.817.969,3.935,3.935,0,0,1-2.1-1.606,11.268,11.268,0,0,0-.9,5.267,2.34,2.34,0,0,1,0,.794,2.451,2.451,0,0,1-.563.839c-.913,1.053-1.482,2.727-.563,3.791.389.468.992.721,1.375,1.194.682.851.451,2.067.434,3.16a1.611,1.611,0,0,0,.27,1.07,1.561,1.561,0,0,0,1.493.355,4.14,4.14,0,0,1,1.589-.152,2.614,2.614,0,0,1,1.38,1.065C663.515,410.416,664.174,412.8,664.889,415.407Z" transform="translate(-320.34 -193.975)" fill="#2d293d"/>
    <g id="Group_68" data-name="Group 68" transform="translate(334.475 196.775)" opacity="0.1">
      <path id="Path_801" data-name="Path 801" d="M679.947,422.064a4.09,4.09,0,0,1-1.69,1.127c-3.38,1.42-7.245,1.256-10.934,1.025a2.457,2.457,0,0,1-1.127-.254,2.557,2.557,0,0,1-.946-1.634c-.715-2.6-1.375-4.986-3.081-7.149a2.614,2.614,0,0,0-1.38-1.065,4.035,4.035,0,0,0-1.589.152,1.572,1.572,0,0,1-1.476-.355,1.623,1.623,0,0,1-.27-1.076c0-1.087.248-2.31-.434-3.155-.383-.479-.98-.727-1.375-1.194a2.389,2.389,0,0,1-.237-2.428,2.782,2.782,0,0,0-.169,3.239c.389.468.991.721,1.375,1.194.682.851.451,2.067.434,3.16a1.611,1.611,0,0,0,.27,1.07,1.56,1.56,0,0,0,1.493.355,4.142,4.142,0,0,1,1.589-.152,2.613,2.613,0,0,1,1.38,1.065c1.69,2.163,2.366,4.546,3.082,7.154a1.91,1.91,0,0,0,2.084,1.887c3.69.225,7.526.389,10.934-1.031a4.134,4.134,0,0,0,1.69-1.1,3.225,3.225,0,0,0,.524-.98,1.715,1.715,0,0,1-.146.141Z" transform="translate(-654.786 -398.585)"/>
      <path id="Path_802" data-name="Path 802" d="M657.631,398.649a1.689,1.689,0,0,0,.372-.608,2.352,2.352,0,0,0,0-.794,11.21,11.21,0,0,1,.563-4.377l-.068-.079a11.188,11.188,0,0,0-.9,5.267A3.461,3.461,0,0,1,657.631,398.649Z" transform="translate(-656.001 -392.79)"/>
    </g>
    <path id="Path_803" data-name="Path 803" d="M668.84,449.36s15.109,2,16.466-.27" transform="translate(-326.449 -220.599)" opacity="0.1"/>
    <path id="Path_804" data-name="Path 804" d="M721,438.47s8.388,0,10.236,3.16" transform="translate(-349.225 -215.962)" opacity="0.1"/>
    <path id="Path_805" data-name="Path 805" d="M1039.5,425s1.048,1.369-.484,3.442-2.817,3.825-2.287,5.115c0,0,2.315-3.848,4.2-3.9S1041.571,427.287,1039.5,425Z" transform="translate(-487.038 -210.08)" fill="#79c99e"/>
    <path id="Path_806" data-name="Path 806" d="M1039.548,425a1.855,1.855,0,0,1,.214.428c1.837,2.163,2.817,4.174,1.048,4.225-1.645.051-3.617,2.991-4.09,3.735a.5.5,0,0,0,.056.169c.023.056,2.315-3.848,4.2-3.9S1041.621,427.287,1039.548,425Z" transform="translate(-487.088 -210.08)" opacity="0.1"/>
    <path id="Path_807" data-name="Path 807" d="M1045.012,427.811c0,.484-.051.879-.118.879s-.124-.394-.124-.879.068-.254.135-.254S1045.012,427.332,1045.012,427.811Z" transform="translate(-490.604 -211.172)" fill="#ffd037"/>
    <path id="Path_808" data-name="Path 808" d="M1045.751,428.823c-.422.231-.794.372-.822.31s.282-.293.71-.524.254-.062.287,0S1046.179,428.592,1045.751,428.823Z" transform="translate(-490.672 -211.604)" fill="#ffd037"/>
    <path id="Path_809" data-name="Path 809" d="M1030.071,425s-1.053,1.369.484,3.442,2.817,3.825,2.287,5.115c0,0-2.315-3.848-4.2-3.9S1028,427.287,1030.071,425Z" transform="translate(-483.154 -210.08)" fill="#79c99e"/>
    <path id="Path_810" data-name="Path 810" d="M1030.071,425a1.715,1.715,0,0,0-.22.428c-1.837,2.163-2.817,4.174-1.048,4.225,1.645.051,3.622,2.991,4.1,3.735a.5.5,0,0,1-.056.169c-.022.056-2.315-3.848-4.2-3.9S1028,427.287,1030.071,425Z" transform="translate(-483.154 -210.08)" opacity="0.1"/>
    <path id="Path_811" data-name="Path 811" d="M1028.43,427.812c0,.484.056.879.124.879a1.781,1.781,0,0,0,.118-.879c0-.479-.068-.254-.135-.254S1028.43,427.334,1028.43,427.812Z" transform="translate(-483.469 -211.174)" fill="#ffd037"/>
    <path id="Path_812" data-name="Path 812" d="M1027.039,428.823c.428.231.794.372.828.31s-.287-.293-.71-.524-.259-.062-.293,0S1026.617,428.592,1027.039,428.823Z" transform="translate(-482.748 -211.604)" fill="#ffd037"/>
    <path id="Path_813" data-name="Path 813" d="M1029,438.59s2.935-.09,3.819-.721,4.507-1.38,4.738-.372,4.411,5.025,1.127,5.07-7.7-.513-8.585-1.053S1029,438.59,1029,438.59Z" transform="translate(-483.717 -215.321)" fill="#a8a8a8"/>
    <path id="Path_814" data-name="Path 814" d="M1038.723,443.431c-3.312,0-7.7-.518-8.58-1.053-.676-.411-.941-1.882-1.031-2.558H1029s.186,2.372,1.07,2.907,5.267,1.082,8.585,1.053c.958,0,1.284-.349,1.267-.851C1039.8,443.234,1039.439,443.425,1038.723,443.431Z" transform="translate(-483.717 -216.551)" opacity="0.2"/>
  </g>
</svg>
