<svg id="simple_database" data-name="simple database" xmlns="http://www.w3.org/2000/svg" width="60" height="60" viewBox="0 0 60 60">
  <path id="Path_652" data-name="Path 652" d="M30,15.23c-3.07,0-30-.213-30-7.615S26.93,0,30,0,60,.213,60,7.615,33.07,15.23,30,15.23ZM3.97,7.615C5.8,9.057,14.582,11.423,30,11.423S54.2,9.057,56.03,7.615C54.2,6.173,45.417,3.808,30,3.808S5.8,6.173,3.97,7.615Zm52.347.294h.025Z" fill="#fff"/>
  <path id="Path_653" data-name="Path 653" d="M30,17.769c-3.07,0-30-.213-30-7.615a1.89,1.89,0,0,1,1.875-1.9A1.886,1.886,0,0,1,3.737,9.935c1.155,1.4,10.03,4.026,26.262,4.026s25.107-2.622,26.263-4.026A1.874,1.874,0,0,1,60,10.154c0,7.4-26.93,7.615-30,7.615Zm26.25-7.618Zm-52.5,0Z" transform="translate(0 12.316)" fill="#fff"/>
  <path id="Path_654" data-name="Path 654" d="M30,23.769c-3.07,0-30-.213-30-7.615a1.89,1.89,0,0,1,1.875-1.9,1.886,1.886,0,0,1,1.862,1.685c1.155,1.4,10.03,4.026,26.262,4.026s25.107-2.622,26.263-4.026A1.874,1.874,0,0,1,60,16.154c0,7.4-26.93,7.615-30,7.615Zm26.25-7.618Zm-52.5,0Z" transform="translate(0 21.274)" fill="#fff"/>
  <path id="Path_655" data-name="Path 655" d="M30,56.539c-3.07,0-30-.21-30-7.488V4.122a1.875,1.875,0,0,1,3.75,0V48.848c1.2,1.388,10.075,3.946,26.25,3.946s25.048-2.558,26.25-3.946V4.122a1.875,1.875,0,0,1,3.75,0V49.051C60,56.329,33.07,56.539,30,56.539Z" transform="translate(0 3.461)" fill="#fff"/>
  <circle id="Ellipse_110" data-name="Ellipse 110" cx="2.5" cy="2.5" r="2.5" transform="translate(9.835 32.457)" fill="#fff"/>
  <circle id="Ellipse_111" data-name="Ellipse 111" cx="2.5" cy="2.5" r="2.5" transform="translate(9.835 17.704)" fill="#fff"/>
  <circle id="Ellipse_112" data-name="Ellipse 112" cx="2.5" cy="2.5" r="2.5" transform="translate(9.835 47.08)" fill="#fff"/>
</svg>
