<svg xmlns="http://www.w3.org/2000/svg" xmlns:xlink="http://www.w3.org/1999/xlink" width="740" height="859.512" viewBox="0 0 740 859.512">
  <defs>
    <filter id="Ground" x="197" y="790.238" width="543" height="69.274" filterUnits="userSpaceOnUse">
      <feOffset dy="3" input="SourceAlpha"/>
      <feGaussianBlur stdDeviation="3" result="blur"/>
      <feFlood flood-opacity="0.251"/>
      <feComposite operator="in" in2="blur"/>
      <feComposite in="SourceGraphic"/>
    </filter>
  </defs>
  <g id="Thinking" transform="translate(136 -2182)">
    <g id="Thinker" transform="translate(70 2836)">
      <g transform="matrix(1, 0, 0, 1, -206, -654)" filter="url(#Ground)">
        <ellipse id="Ground-2" data-name="Ground" cx="262.5" cy="25.637" rx="262.5" ry="25.637" transform="translate(206 796.24)" fill="#2e3847"/>
      </g>
      <ellipse id="Shadow" cx="123.726" cy="18.67" rx="123.726" ry="18.67" transform="translate(60.748 145.582)" opacity="0.1"/>
      <path id="Neck" d="M482.558,516.59a31.4,31.4,0,0,0-4.893,3.1,10.523,10.523,0,0,0-3.405,4.609,42.453,42.453,0,0,1-2.107-6.231,103.658,103.658,0,0,0-4.3-11.2,14.92,14.92,0,0,0,6.771-5.2c3.344,3.316,6.749,6.772,8.4,11.147.284.758,1.115,1.566,1.31,2.229C484.6,516.032,483.282,516.188,482.558,516.59Z" transform="translate(-274.893 -478.098)" fill="#ffbfc5"/>
      <path id="Ball" d="M329,693.865c0,24.868,17.94,27.5,40.077,27.5s40.072-2.636,40.072-27.5-17.94-34.315-40.072-34.315S329,669,329,693.865Z" transform="translate(-213.427 -547.988)" fill="#79c99e"/>
      <path id="Back_Sock" data-name="Back Sock" d="M545.53,673.206a30.691,30.691,0,0,1,10,5.35,1.031,1.031,0,0,1,.451.613c.078.557-.691.808-1.248.97-1.672.474-2.692,2.018-3.9,3.221s-3.149,2.157-4.559,1.193a4.46,4.46,0,0,1-.959-1.009l-5.952-7.758A36.047,36.047,0,0,1,545.7,673" transform="translate(-306.549 -553.941)" fill="#f1f1f1"/>
      <path id="Back_Shoe" data-name="Back Shoe" d="M558.866,675.483c.791.8,1.115,1.962,1.906,2.787a6.819,6.819,0,0,0,1.761,1.221L567.092,682a12.6,12.6,0,0,0,2.229,1.042,19.787,19.787,0,0,0,2.614.557,18.831,18.831,0,0,1,3.69,1.115c.892.368,1.889,1,1.884,1.962a2.129,2.129,0,0,1-.557,1.271c-1.795,2.263-4.977,2.787-7.853,3.071-6.22.658-12.584,1.148-18.665-.318a7.964,7.964,0,0,1-3.283-1.421c-1.834-1.521-2.229-4.291-1.516-6.571a3.556,3.556,0,0,1,1.449-2.157c.964-.557,2.162-.3,3.271-.379a10.32,10.32,0,0,0,3.344-1.076c.7-.312,1.494-.719,1.672-1.544s-.763-1.538-.557-2.229C555.2,673.767,558.141,674.742,558.866,675.483Z" transform="translate(-309.178 -554.603)" fill="#575a89"/>
      <path id="Back_Shoe_Shader" data-name="Back Shoe Shader" d="M558.866,675.483c.791.8,1.115,1.962,1.906,2.787a6.819,6.819,0,0,0,1.761,1.221L567.092,682a12.6,12.6,0,0,0,2.229,1.042,19.787,19.787,0,0,0,2.614.557,18.831,18.831,0,0,1,3.69,1.115c.892.368,1.889,1,1.884,1.962a2.129,2.129,0,0,1-.557,1.271c-1.795,2.263-4.977,2.787-7.853,3.071-6.22.658-12.584,1.148-18.665-.318a7.964,7.964,0,0,1-3.283-1.421c-1.834-1.521-2.229-4.291-1.516-6.571a3.556,3.556,0,0,1,1.449-2.157c.964-.557,2.162-.3,3.271-.379a10.32,10.32,0,0,0,3.344-1.076c.7-.312,1.494-.719,1.672-1.544s-.763-1.538-.557-2.229C555.2,673.767,558.141,674.742,558.866,675.483Z" transform="translate(-309.178 -554.603)" opacity="0.1"/>
      <path id="Front_Socks" data-name="Front Socks" d="M577.132,716.573l1.917,1.265a3.427,3.427,0,0,1,1.388,1.371,3.152,3.152,0,0,1-.769,2.937,16.876,16.876,0,0,1-7.379,5.718,11,11,0,0,1-3.2.8,1.337,1.337,0,0,1-.741-.089c-.585-.312-.5-1.143-.507-1.806,0-1.912-1.466-3.467-2.787-4.877s-2.625-3.138-2.324-5.016a6.242,6.242,0,0,1,1.672-2.943,12.033,12.033,0,0,1,2.508-2.369c1.354-.886,1.828-.407,3.1.4Q573.588,714.243,577.132,716.573Z" transform="translate(-316.872 -570.801)" fill="#f1f1f1"/>
      <path id="Front_Shoe" data-name="Front Shoe" d="M572.441,730.331a3.417,3.417,0,0,0,3.015-.68,7.552,7.552,0,0,0,1.956-2.519,20.478,20.478,0,0,0,1.215-2.664,5.691,5.691,0,0,1,1.717-2.915,3.582,3.582,0,0,1,3.9.284,21.5,21.5,0,0,1,3,2.876,20.3,20.3,0,0,0,8.527,4.743,92.428,92.428,0,0,0,9.631,2.057,5.462,5.462,0,0,1,1.85.6,3.73,3.73,0,0,1,1.377,4.057,8.865,8.865,0,0,1-2.385,3.823,9.608,9.608,0,0,1-3.193,2.469,10.194,10.194,0,0,1-3.227.613,55.112,55.112,0,0,1-15.939-1.248,42.649,42.649,0,0,0-5.841-1.165c-1.2-.106-2.413-.072-3.611-.156a19.013,19.013,0,0,1-6.9-1.817,2.435,2.435,0,0,1-1.254-1.048,2.576,2.576,0,0,1-.095-1.382l.8-6.989c.072-.607.273-1.365.881-1.46s.992.5,1.354.959a4.944,4.944,0,0,0,5.913,1.293" transform="translate(-318.401 -575.23)" fill="#575a89"/>
      <path id="Back_Leg" data-name="Back Leg" d="M469,579.368c3.506-.4,7.574-.463,9.948,2.151,1.455,1.605,1.895,3.851,2.4,5.952a38.651,38.651,0,0,0,3.8,10.121,57.242,57.242,0,0,1,3.344,5.913,40.724,40.724,0,0,1,1.717,6.738,40.651,40.651,0,0,0,14.234,22.65c-1.265,3.439-4.927,5.406-8.488,6.287a4.676,4.676,0,0,1-2.658.084,4.748,4.748,0,0,1-1.722-1.271,59.075,59.075,0,0,1-4.643-5.69c-5.133-6.855-10.338-13.849-13.136-21.936-.981-2.842-1.962-6.131-4.721-7.34a8.963,8.963,0,0,0-5.06-.178,68.6,68.6,0,0,0-11.1,2.848c-3.857,1.343-8.271,2.993-11.8.942a8.794,8.794,0,0,1-3.829-5.986,24.661,24.661,0,0,1,0-7.3,7.519,7.519,0,0,1,.769-3.154,6.839,6.839,0,0,1,1.845-1.867,37.984,37.984,0,0,1,10.389-5.573c3.561-1.26,7.4-1.672,11.113-2.3Q465.178,579.8,469,579.368Z" transform="translate(-261.236 -512.403)" fill="#575a89"/>
      <path id="Back_Leg_Shader" data-name="Back Leg Shader" d="M469,579.368c3.506-.4,7.574-.463,9.948,2.151,1.455,1.605,1.895,3.851,2.4,5.952a38.651,38.651,0,0,0,3.8,10.121,57.242,57.242,0,0,1,3.344,5.913,40.724,40.724,0,0,1,1.717,6.738,40.651,40.651,0,0,0,14.234,22.65c-1.265,3.439-4.927,5.406-8.488,6.287a4.676,4.676,0,0,1-2.658.084,4.748,4.748,0,0,1-1.722-1.271,59.075,59.075,0,0,1-4.643-5.69c-5.133-6.855-10.338-13.849-13.136-21.936-.981-2.842-1.962-6.131-4.721-7.34a8.963,8.963,0,0,0-5.06-.178,68.6,68.6,0,0,0-11.1,2.848c-3.857,1.343-8.271,2.993-11.8.942a8.794,8.794,0,0,1-3.829-5.986,24.661,24.661,0,0,1,0-7.3,7.519,7.519,0,0,1,.769-3.154,6.839,6.839,0,0,1,1.845-1.867,37.984,37.984,0,0,1,10.389-5.573c3.561-1.26,7.4-1.672,11.113-2.3Q465.178,579.8,469,579.368Z" transform="translate(-261.236 -512.403)" opacity="0.1"/>
      <path id="Hand" d="M6.811,1.836a18.1,18.1,0,0,1,4.459,3.149,16,16,0,0,1,3.021,5.423,6.582,6.582,0,0,1,.524,2.1,2.38,2.38,0,0,1-.775,1.939,3.472,3.472,0,0,1-2.19.557c-1.014,0-2.034,0-3.049-.078a5.094,5.094,0,0,1-1.806-.346,5.015,5.015,0,0,1-1.4-1.064,19.746,19.746,0,0,1-4.319-5.83C.535,6.061-.68,2.316.479.627S5.551,1.117,6.811,1.836Z" transform="translate(226.804 84.483) rotate(-45)" fill="#ffbfc5"/>
      <path id="Front_Leg" data-name="Front Leg" d="M411.457,623.87c5.189,1.672,10.712,1.85,16.135,2.357a134.749,134.749,0,0,1,26.891,5.317,14.436,14.436,0,0,1,5.072,2.357,15.081,15.081,0,0,1,2.943,3.745,63.257,63.257,0,0,1,3.862,6.755c.986,2.107,1.739,4.314,2.653,6.448a45.316,45.316,0,0,0,14.139,18.107c1.115.864,2.391,1.8,2.681,3.188a4.425,4.425,0,0,1-.418,2.619c-1.338,3.115-4.113,5.384-7.028,7.117-1.248.747-2.631,1.5-3.244,2.826-4.425-1.828-7.719-5.729-10.455-9.653S459.515,666.9,456,663.646a30.792,30.792,0,0,1-4.52-4.414c-1.856-2.63-2.357-6.231-4.854-8.26s-6.131-1.767-9.357-1.449a229.618,229.618,0,0,1-49.686-.557c-3.428-.407-6.95-.931-9.92-2.7s-5.283-5.066-4.865-8.494c.4-3.21,3.065-5.752,6.047-7.006s6.27-1.482,9.475-1.845A99.055,99.055,0,0,0,411.457,623.87Z" transform="translate(-232.795 -532.193)" fill="#575a89"/>
      <path id="Jacket" d="M356.942,578.613c.407-2.72,1.46-5.295,2.123-7.964a48.158,48.158,0,0,1,1.26-4.977c0-.05.039-.095.056-.139a1.148,1.148,0,0,0,.847-.485,1.4,1.4,0,0,0,.073-.747,5.41,5.41,0,0,1,0-.8,56.979,56.979,0,0,1,3.556-5.267c2.229-3.182,4.191-6.565,6.131-9.943,1.594-2.787,3.188-5.54,4.5-8.449.992-2.179,1.822-4.459,2.915-6.565,3.9-7.58,10.879-13.17,18.392-17.182,7.212-3.851,15.009-6.443,22.588-9.508a5.135,5.135,0,0,1,.529.624c4.1,5.6,4.537,12.958,6.225,19.69.68,2.72,1.588,5.428,1.588,8.226,0,4.135-1.979,7.981-3.946,11.62a62.818,62.818,0,0,1-6.192,9.881c-1.159,1.438-2.435,2.787-3.6,4.208-4.782,5.857-7.541,13.064-10.227,20.136-1.549,4.1-4.091,7.724-5.8,11.76a46.043,46.043,0,0,1-1.861,4.687,4.961,4.961,0,0,1-3.94,2.787,5.907,5.907,0,0,1-1.455-.229c-6.092-1.566-11.191-5.573-16.252-9.33-.908-.669-1.817-1.326-2.787-1.928s-1.951-1.154-2.943-1.672l-2.263-1.243c-2.463-1.349-4.938-2.7-7.507-3.846a13.661,13.661,0,0,1-2.229-1.115,13.3,13.3,0,0,1,.212-2.235Z" transform="translate(-225.703 -480.276)" fill="#3f3d56"/>
      <ellipse id="Face" cx="14.033" cy="14.033" rx="14.033" ry="14.033" transform="translate(196.836 9.957)" fill="#ffbfc5"/>
      <path id="Hair" d="M492.54,476.8A3.344,3.344,0,0,0,496,478.421a4.843,4.843,0,0,0,3.227-2.3,9.1,9.1,0,0,0,1.193-3.868,4.042,4.042,0,0,0-.585-3.06,6.72,6.72,0,0,0-1.778-1.248,6.767,6.767,0,0,1-2.229-2.229c-.39-.652-.674-1.36-1.026-2.029-1.276-2.424-3.762-4.4-6.5-4.308a31.02,31.02,0,0,0-3.868.769c-4.353.764-9.079-1.538-13.119.256a12.263,12.263,0,0,0-2.742,1.828q-1.705,1.41-3.277,2.965a6.766,6.766,0,0,0-2,2.9c-.557,2.062.752,4.364-.078,6.326a9.317,9.317,0,0,1-1.009,1.588c-.914,1.343.078,6.588,0,8.209a3.037,3.037,0,0,0,.557,2.229,3.661,3.661,0,0,0,2.787.814h1.822a2.314,2.314,0,0,0,.808-.084,2.447,2.447,0,0,0,.92-.7c1.516-1.6,1.839-6.822,4.041-6.8a1.572,1.572,0,0,1,.953.245c.4.29.513.83.8,1.232a2.33,2.33,0,0,0,2.7.635,6.1,6.1,0,0,0,2.3-1.861,9.067,9.067,0,0,1,2.151-2.057c1.176-.686,2.5-.981,3.645-1.756a31.6,31.6,0,0,0,2.352-2.3,1.977,1.977,0,0,1,2.5-.139C491.866,474.414,491.922,475.574,492.54,476.8Z" transform="translate(-272.224 -459.375)" fill="#3f3d56"/>
      <path id="Arm_Shadow" data-name="Arm Shadow" d="M14.648.224A22.332,22.332,0,0,1,24.423,1a5.194,5.194,0,0,1,2.725,1.622,4.893,4.893,0,0,1,.78,2.04,16.491,16.491,0,0,1-1.187,9.943,1.315,1.315,0,0,0-.162,1.059,1.873,1.873,0,0,0,.557.557,1.939,1.939,0,0,1-.117,2.892c-.262.19-.607.357-.658.674s.273.624.529.869a3.116,3.116,0,0,1,.869,2.865,6.28,6.28,0,0,0-.284,1.265,4.129,4.129,0,0,0,.463,1.51,6.61,6.61,0,0,1,.418,3.344,3.684,3.684,0,0,0-.039,1.633,3.8,3.8,0,0,0,.624.981c1.009,1.36,1.226,3.634-.234,4.459a3.383,3.383,0,0,1,1.8,3.489c.875-.463,1.934.134,2.664.8s1.471,1.494,2.458,1.544c.691.033,1.421-.323,2.045-.039.959.429.925,1.984,1.867,2.447.825.412,1.979-.256,2.681.34.245.206.368.524.607.741.529.49,1.365.284,2.09.251A4.976,4.976,0,0,1,49.1,48.845a12.429,12.429,0,0,1,1.432,4.888,6.471,6.471,0,0,1-.056,2.814,2.413,2.413,0,0,1-1.979,1.783c-8.611.557-17.11-1.51-25.5-3.55a19.825,19.825,0,0,1-7.022-2.787A21.433,21.433,0,0,1,11.4,46.861,66.946,66.946,0,0,1,4.677,36.054C2.4,31.089,1.389,25.649.4,20.271a14.679,14.679,0,0,1-.362-4.4,12.479,12.479,0,0,1,1.939-4.826,52.554,52.554,0,0,1,3.9-5.534A14.464,14.464,0,0,1,14.648.224Z" transform="translate(164.78 52.348) rotate(-20)" opacity="0.1"/>
      <path id="Arm" d="M14.614.224a22.293,22.293,0,0,1,9.781.786,5.149,5.149,0,0,1,2.725,1.616,4.971,4.971,0,0,1,.78,2.04,16.53,16.53,0,0,1-1.187,9.943,1.315,1.315,0,0,0-.162,1.059,1.872,1.872,0,0,0,.557.557,1.94,1.94,0,0,1-.117,2.893c-.262.189-.607.357-.658.674s.273.624.557.869a3.115,3.115,0,0,1,.869,2.865,6.279,6.279,0,0,0-.284,1.265,4.119,4.119,0,0,0,.457,1.51,6.56,6.56,0,0,1,.424,3.344,2.408,2.408,0,0,0,.585,2.614c1.009,1.36,1.226,3.634-.234,4.492a3.372,3.372,0,0,1,1.8,3.483c.875-.463,1.934.134,2.664.8s1.471,1.494,2.458,1.544c.691.033,1.416-.323,2.045-.039.959.435.925,1.984,1.867,2.452.825.407,1.978-.262,2.681.334.245.206.368.524.607.741.529.49,1.365.284,2.09.251A4.976,4.976,0,0,1,49.1,48.873a12.54,12.54,0,0,1,1.432,4.888,6.65,6.65,0,0,1-.056,2.787,2.413,2.413,0,0,1-1.978,1.783c-8.611.557-17.11-1.51-25.5-3.55a19.785,19.785,0,0,1-7.022-2.787A21.328,21.328,0,0,1,11.4,46.861a66.657,66.657,0,0,1-6.721-10.8C2.4,31.088,1.389,25.649.4,20.276a14.712,14.712,0,0,1-.362-4.408,12.478,12.478,0,0,1,1.889-4.832,51.133,51.133,0,0,1,3.9-5.529A14.5,14.5,0,0,1,14.614.224Z" transform="translate(165.376 51.79) rotate(-20)" fill="#3f3d56"/>
    </g>
    <circle id="Think_Bubble_XS" data-name="Think Bubble XS" cx="12.5" cy="12.5" r="12.5" transform="translate(308 2824)" fill="#f5f5f5"/>
    <circle id="Think_Bubble_SM" data-name="Think Bubble SM" cx="25" cy="25" r="25" transform="translate(349 2782)" fill="#f5f5f5"/>
    <circle id="Think_Bubble_MD" data-name="Think Bubble MD" cx="37.5" cy="37.5" r="37.5" transform="translate(364 2695)" fill="#f5f5f5"/>
    <path id="Think_Bubble_XL" data-name="Think Bubble XL" d="M325,0C504.493,0,650,134.315,650,300S504.493,600,325,600c-61.386,0-118.8-15.71-167.934-43.1C63,504.46,0,409.021,0,300,0,134.315,145.507,0,325,0Z" transform="translate(-136 2182)" fill="#f5f5f5"/>
  </g>
</svg>
