<svg xmlns="http://www.w3.org/2000/svg" width="471.057" height="400.571" viewBox="0 0 471.057 400.571">
  <g id="website_design" data-name="website design" transform="translate(-81.312 -927.714)">
    <path id="Path_815" data-name="Path 815" d="M216.913,85.4c17.407,14.777,39.986,13.821,59.772,6.131s37.961-21.374,57.239-31.1a160.7,160.7,0,0,1,50.288-15.894c24.57-3.41,52.008.753,69.125,24.63,19.064,26.6,17.6,74.583-3.011,98.987-10.49,12.42-24.224,18.518-36.2,28.228s-23.068,25.8-22.048,44.525c.945,17.313,11.924,30.626,23.286,38.97,8.781,6.447,19.594,13.489,20.652,26.847,1.024,12.921-8.07,23.049-16.753,28.808-28.326,18.785-63.231,18.6-91.46-.474-10.064-6.809-19.308-15.864-29.865-21.164-27.72-13.926-58.267.09-87.621,5.22a145.8,145.8,0,0,1-74.523-6.579c-14.536-5.205-29.128-13.173-39.339-27.987C89.091,273.858,84.5,260.327,80.2,246.966Q73.31,225.6,66.953,203.923c-2.541-8.675-5.044-17.517-5.7-26.794-1.189-16.817,3.824-33.441,10.652-47.63,16.21-33.7,43.513-57.39,73.081-63.408s60.849,5.736,83.782,31.458" transform="matrix(0.966, -0.259, 0.259, 0.966, 11.061, 1006.508)" fill="#1985a1" opacity="0.1"/>
    <g id="Group_30" data-name="Group 30" transform="translate(154 751.196)">
      <path id="Path_279" data-name="Path 279" d="M277.171,363.551l4.435,13.621,6.019-5.069-3.168-10.77Z" transform="translate(-139.133 -40.414)" fill="#ffb9b9"/>
      <path id="Path_281" data-name="Path 281" d="M441.563,483.268s.634,10.137,1.584,10.77,8.236-.633,8.236-.633,2.189.486,11.087-1.9c10-2.684-1.267-6.652-1.267-6.652s-7.286-4.752-10.454-6.969-5.385,2.534-5.385,2.534C446,482.318,441.563,483.268,441.563,483.268Z" transform="translate(-300.993 -149.043)" fill="#2f2e41"/>
      <path id="Path_294" data-name="Path 294" d="M471.481,384.406H357.221V382.05H305.41v2.356H190.678a7.73,7.73,0,0,0-7.729,7.731v156.5a7.73,7.73,0,0,0,7.729,7.731h280.8a7.73,7.73,0,0,0,7.729-7.731v-156.5a7.73,7.73,0,0,0-7.729-7.731Z" transform="translate(-171.171 -101.246)" fill="#3f3d56"/>
      <rect id="Rectangle_55" data-name="Rectangle 55" width="275.531" height="155.473" transform="translate(22.143 296.823)" opacity="0.1"/>
      <circle id="Ellipse_6" data-name="Ellipse 6" cx="2.827" cy="2.827" r="2.827" transform="translate(156.847 286.929)" fill="#6c63ff"/>
      <rect id="Rectangle_56" data-name="Rectangle 56" width="273.791" height="155.416" transform="translate(22.606 296.745)" fill="#e6e6e6"/>
      <rect id="Rectangle_57" data-name="Rectangle 57" width="258.128" height="135.002" transform="translate(30.437 307.365)" fill="#fff"/>
      <rect id="Rectangle_58" data-name="Rectangle 58" width="66.347" height="106.987" transform="translate(53.882 321.372)" fill="#e6e6e6"/>
      <rect id="Rectangle_59" data-name="Rectangle 59" width="55.289" height="29.449" transform="translate(131.66 321.372)" fill="#1985a1"/>
      <rect id="Rectangle_60" data-name="Rectangle 60" width="55.289" height="31.686" transform="translate(131.66 359.022)" fill="#e6e6e6"/>
      <rect id="Rectangle_61" data-name="Rectangle 61" width="55.289" height="29.449" transform="translate(131.66 398.909)" fill="#e6e6e6"/>
      <rect id="Rectangle_62" data-name="Rectangle 62" width="66.347" height="46.624" transform="translate(198.775 321.372)" fill="#e6e6e6"/>
      <rect id="Rectangle_63" data-name="Rectangle 63" width="66.347" height="46.624" transform="translate(198.775 381.735)" fill="#1985a1"/>
      <path id="Path_295" data-name="Path 295" d="M475.085,718.292H448.194v-1.938a.384.384,0,0,0-.384-.384h-9.22a.384.384,0,0,0-.384.384h0v1.938h-5.763v-1.938a.384.384,0,0,0-.384-.384h-9.22a.384.384,0,0,0-.384.384h0v1.938h-5.763v-1.938a.384.384,0,0,0-.384-.384h-9.22a.384.384,0,0,0-.384.384h0v1.938h-5.762v-1.938a.384.384,0,0,0-.384-.384h-9.22a.384.384,0,0,0-.384.384h0v1.938h-5.762v-1.938a.384.384,0,0,0-.384-.384h-9.22a.384.384,0,0,0-.384.384h0v1.938h-5.762v-1.938a.384.384,0,0,0-.384-.384h-9.22a.384.384,0,0,0-.384.384h0v1.938H353.69v-1.938a.384.384,0,0,0-.384-.384H281.084a.384.384,0,0,0-.384.384h0v1.938h-5.762v-1.938a.384.384,0,0,0-.384-.384h-9.22a.384.384,0,0,0-.384.384v1.938h-5.762v-1.938a.384.384,0,0,0-.384-.384h-9.22a.384.384,0,0,0-.384.384h0v1.938h-5.763v-1.938a.384.384,0,0,0-.384-.384h-9.22a.384.384,0,0,0-.384.384h0v1.938h-5.763v-1.938a.384.384,0,0,0-.384-.384h-9.22a.384.384,0,0,0-.384.384h0v1.938h-5.763v-1.938a.384.384,0,0,0-.384-.384h-9.22a.384.384,0,0,0-.384.384h0v1.938h-5.762v-1.938a.384.384,0,0,0-.384-.384h-9.22a.384.384,0,0,0-.384.384h0v1.938H168.525a9.221,9.221,0,0,0-9.22,9.222v4.17a9.221,9.221,0,0,0,9.22,9.222h306.56a9.221,9.221,0,0,0,9.22-9.222v-4.17a9.221,9.221,0,0,0-9.22-9.222Z" transform="translate(-159.305 -268.823)" fill="#3f3d56"/>
    </g>
  </g>
</svg>
