<svg xmlns="http://www.w3.org/2000/svg" width="957.393" height="1034.78" viewBox="0 0 957.393 1034.78">
  <g id="Group_22" data-name="Group 22" transform="translate(-1572.609 -173.091)">
    <g id="Path_15" data-name="Path 15" transform="translate(2303.316 890.085) rotate(-90)" fill="#fff">
      <path d="M 254.0191040039063 224.1864929199219 L 3.457109689712524 224.1864929199219 L 76.57994079589844 2.499996423721313 L 180.3979339599609 2.499996423721313 L 254.0191040039063 224.1864929199219 Z" stroke="none"/>
      <path d="M 78.38778686523438 4.999984741210938 L 6.9141845703125 221.6864776611328 L 250.5545501708984 221.6864776611328 L 178.5938720703125 4.999984741210938 L 78.38778686523438 4.999984741210938 M 74.77206420898438 -1.52587890625e-05 L 182.201904296875 -1.52587890625e-05 L 257.4835510253906 226.6864776611328 L -3.0517578125e-05 226.6864776611328 L 74.77206420898438 -1.52587890625e-05 Z" stroke="none" fill="#707070"/>
    </g>
    <g id="Path_16" data-name="Path 16" transform="translate(2277.558 286.394) rotate(40)" fill="#fff">
      <path d="M 180.3979949951172 224.1865539550781 L 76.58000946044922 224.1865539550781 L 3.45710563659668 2.500019788742065 L 254.0191650390625 2.500054597854614 L 180.3979949951172 224.1865539550781 Z" stroke="none"/>
      <path d="M 178.5939331054688 221.6865386962891 L 250.5546264648438 5.000037670135498 L 6.914218425750732 5.000000953674316 L 78.38785552978516 221.6865386962891 L 178.5939331054688 221.6865386962891 M 182.2019805908203 226.6865386962891 L 74.77212524414063 226.6865386962891 L 1.35967547976179e-05 1.173752934846561e-07 L 257.483642578125 3.857891351799481e-05 L 182.2019805908203 226.6865386962891 Z" stroke="none" fill="#707070"/>
    </g>
    <g id="Path_17" data-name="Path 17" transform="translate(2179.882 399.777) rotate(180)" fill="#fff">
      <path d="M 254.0191040039063 224.1864929199219 L 3.457109689712524 224.1864929199219 L 76.57994079589844 2.499996423721313 L 180.3979339599609 2.499996423721313 L 215.3765106201172 107.8266754150391 L 254.0191040039063 224.1864929199219 Z" stroke="none"/>
      <path d="M 78.38778686523438 4.999984741210938 L 6.9141845703125 221.6864776611328 L 250.5545501708984 221.6864776611328 L 213.0038757324219 108.6145935058594 L 178.5938720703125 4.999984741210938 L 78.38778686523438 4.999984741210938 M 74.77206420898438 -1.52587890625e-05 L 182.201904296875 -1.52587890625e-05 C 182.201904296875 -1.52587890625e-05 198.9286346435547 50.36712646484375 217.7490539550781 107.0387496948242 C 236.5694885253906 163.7103576660156 257.4835510253906 226.6864776611328 257.4835510253906 226.6864776611328 L -3.0517578125e-05 226.6864776611328 L 74.77206420898438 -1.52587890625e-05 Z" stroke="none" fill="#707070"/>
    </g>
    <g id="Path_18" data-name="Path 18" transform="translate(1799.296 632.602) rotate(90)" fill="#fff">
      <path d="M 254.0191040039063 224.1864929199219 L 3.457109689712524 224.1864929199219 L 76.57994079589844 2.499996423721313 L 180.3979339599609 2.499996423721313 L 254.0191040039063 224.1864929199219 Z" stroke="none"/>
      <path d="M 78.38778686523438 4.999984741210938 L 6.9141845703125 221.6864776611328 L 250.5545501708984 221.6864776611328 L 178.5938720703125 4.999984741210938 L 78.38778686523438 4.999984741210938 M 74.77206420898438 -1.52587890625e-05 L 182.201904296875 -1.52587890625e-05 L 257.4835510253906 226.6864776611328 L -3.0517578125e-05 226.6864776611328 L 74.77206420898438 -1.52587890625e-05 Z" stroke="none" fill="#707070"/>
    </g>
    <g id="Path_19" data-name="Path 19" transform="translate(1970.787 460.046) rotate(140)" fill="#fff">
      <path d="M 254.0191040039063 224.1864929199219 L 3.457109689712524 224.1864929199219 L 76.57994079589844 2.499996423721313 L 180.3979339599609 2.499996423721313 L 254.0191040039063 224.1864929199219 Z" stroke="none"/>
      <path d="M 78.38778686523438 4.999984741210938 L 6.9141845703125 221.6864776611328 L 250.5545501708984 221.6864776611328 L 178.5938720703125 4.999984741210938 L 78.38778686523438 4.999984741210938 M 74.77206420898438 -1.52587890625e-05 L 182.201904296875 -1.52587890625e-05 L 257.4835510253906 226.6864776611328 L -3.0517578125e-05 226.6864776611328 L 74.77206420898438 -1.52587890625e-05 Z" stroke="none" fill="#707070"/>
    </g>
    <g id="Path_20" data-name="Path 20" transform="translate(2131.846 1034.219) rotate(-40)" fill="#fff">
      <path d="M 254.0191040039063 224.1864929199219 L 3.457109689712524 224.1864929199219 L 76.57994079589844 2.499996423721313 L 180.3979339599609 2.499996423721313 L 254.0191040039063 224.1864929199219 Z" stroke="none"/>
      <path d="M 78.38778686523438 4.999984741210938 L 6.9141845703125 221.6864776611328 L 250.5545501708984 221.6864776611328 L 178.5938720703125 4.999984741210938 L 78.38778686523438 4.999984741210938 M 74.77206420898438 -1.52587890625e-05 L 182.201904296875 -1.52587890625e-05 L 257.4835510253906 226.6864776611328 L -3.0517578125e-05 226.6864776611328 L 74.77206420898438 -1.52587890625e-05 Z" stroke="none" fill="#707070"/>
    </g>
    <g id="Path_21" data-name="Path 21" transform="translate(1773.543 868.712) rotate(40)" fill="#fff">
      <path d="M 254.0191040039063 224.1864929199219 L 3.457109689712524 224.1864929199219 L 76.57994079589844 2.499996423721313 L 180.3979339599609 2.499996423721313 L 254.0191040039063 224.1864929199219 Z" stroke="none"/>
      <path d="M 78.38778686523438 4.999984741210938 L 6.9141845703125 221.6864776611328 L 250.5545501708984 221.6864776611328 L 178.5938720703125 4.999984741210938 L 78.38778686523438 4.999984741210938 M 74.77206420898438 -1.52587890625e-05 L 182.201904296875 -1.52587890625e-05 L 257.4835510253906 226.6864776611328 L -3.0517578125e-05 226.6864776611328 L 74.77206420898438 -1.52587890625e-05 Z" stroke="none" fill="#707070"/>
    </g>
  </g>
</svg>
