<svg xmlns="http://www.w3.org/2000/svg" width="957.392" height="1034.78" viewBox="0 0 957.392 1034.78">
  <g id="Logo_green_dark" data-name="Logo green/dark" transform="translate(-1572.61 -173.091)">
    <g id="Path_15" data-name="Path 15" transform="translate(2303.316 890.085) rotate(-90)">
      <path id="Path_26" data-name="Path 26" d="M254.019,224.186H3.457L76.58,2.5H180.4Z" fill="#495464"/>
      <path id="Path_27" data-name="Path 27" d="M78.388,5,6.914,221.686H250.555L178.594,5H78.388M74.772,0H182.2l75.282,226.686H0Z" fill="none"/>
    </g>
    <g id="Path_16" data-name="Path 16" transform="matrix(0.766, 0.643, -0.643, 0.766, 2277.558, 286.394)">
      <path id="Path_28" data-name="Path 28" d="M180.4,224.187H76.58L3.457,2.5H254.019Z" fill="#495464"/>
      <path id="Path_29" data-name="Path 29" d="M178.594,221.687,250.555,5H6.914L78.388,221.687H178.594m3.608,5H74.772L0,0H257.484Z" fill="none"/>
    </g>
    <g id="Path_17" data-name="Path 17" transform="translate(2179.882 399.777) rotate(180)">
      <path id="Path_30" data-name="Path 30" d="M254.019,224.186H3.457L76.58,2.5H180.4l34.979,105.327Z" fill="#1985A1"/>
      <path id="Path_31" data-name="Path 31" d="M78.388,5,6.914,221.686H250.555L213,108.615,178.594,5H78.388M74.772,0H182.2s16.727,50.367,35.547,107.039,39.735,119.647,39.735,119.647H0Z" fill="none"/>
    </g>
    <g id="Path_18" data-name="Path 18" transform="translate(1799.296 632.602) rotate(90)">
      <path id="Path_32" data-name="Path 32" d="M254.019,224.186H3.457L76.58,2.5H180.4Z" fill="#495464"/>
      <path id="Path_33" data-name="Path 33" d="M78.388,5,6.914,221.686H250.555L178.594,5H78.388M74.772,0H182.2l75.282,226.686H0Z" fill="none"/>
    </g>
    <g id="Path_19" data-name="Path 19" transform="matrix(-0.766, 0.643, -0.643, -0.766, 1970.787, 460.046)">
      <path id="Path_34" data-name="Path 34" d="M254.019,224.186H3.457L76.58,2.5H180.4Z" fill="#495464"/>
      <path id="Path_35" data-name="Path 35" d="M78.388,5,6.914,221.686H250.555L178.594,5H78.388M74.772,0H182.2l75.282,226.686H0Z" fill="none"/>
    </g>
    <g id="Path_20" data-name="Path 20" transform="matrix(0.766, -0.643, 0.643, 0.766, 2131.846, 1034.219)">
      <path id="Path_36" data-name="Path 36" d="M254.019,224.186H3.457L76.58,2.5H180.4Z" fill="#495464"/>
      <path id="Path_37" data-name="Path 37" d="M78.388,5,6.914,221.686H250.555L178.594,5H78.388M74.772,0H182.2l75.282,226.686H0Z" fill="none"/>
    </g>
    <g id="Path_21" data-name="Path 21" transform="matrix(0.766, 0.643, -0.643, 0.766, 1773.543, 868.712)">
      <path id="Path_38" data-name="Path 38" d="M254.019,224.186H3.457L76.58,2.5H180.4Z" fill="#495464"/>
      <path id="Path_39" data-name="Path 39" d="M78.388,5,6.914,221.686H250.555L178.594,5H78.388M74.772,0H182.2l75.282,226.686H0Z" fill="none"/>
    </g>
  </g>
</svg>
