<svg xmlns="http://www.w3.org/2000/svg" width="495.141" height="495.141" viewBox="0 0 495.141 495.141">
  <g id="backend_design" data-name="backend design" transform="translate(-816.318 -1422.383)">
    <path id="Path_816" data-name="Path 816" d="M216.913,85.4c17.407,14.777,39.986,13.821,59.772,6.131s37.961-21.374,57.239-31.1a160.7,160.7,0,0,1,50.288-15.894c24.57-3.41,52.008.753,69.125,24.63,19.064,26.6,17.6,74.583-3.011,98.987-10.49,12.42-24.224,18.518-36.2,28.228s-23.068,25.8-22.048,44.525c.945,17.313-11.363-8.344,0,0,8.781,6.447-19.476-16.092-18.418-2.734,1.024,12.921,10.377,13.7,1.694,19.458-28.326,18.785-19.322,96.505-47.55,77.427-10.064-6.809-19.308-15.864-29.865-21.164-27.72-13.926-58.267.09-87.621,5.22a145.8,145.8,0,0,1-74.523-6.579c-14.536-5.205-29.128-13.173-39.339-27.987C89.091,273.858,84.5,260.327,80.2,246.966Q73.31,225.6,66.953,203.923c-2.541-8.675-5.044-17.517-5.7-26.794-1.189-16.817,3.824-33.441,10.652-47.63,16.21-33.7,43.513-57.39,73.081-63.408s60.849,5.736,83.782,31.458" transform="translate(1012.166 1348.441) rotate(45)" fill="#4d5675" opacity="0.25"/>
    <g id="Group_36" data-name="Group 36" transform="translate(665 1174.193)">
      <rect id="Rectangle_95" data-name="Rectangle 95" width="203" height="151.088" transform="translate(490.044 380.006) rotate(90)" fill="#2f2e41"/>
      <rect id="Rectangle_96" data-name="Rectangle 96" width="203" height="80.58" transform="translate(313 373.807)" fill="#3f3d56"/>
      <rect id="Rectangle_97" data-name="Rectangle 97" width="203" height="80.58" transform="translate(313 463.685)" fill="#3f3d56"/>
      <rect id="Rectangle_98" data-name="Rectangle 98" width="203" height="80.58" transform="translate(313 553.563)" fill="#3f3d56"/>
      <rect id="Rectangle_99" data-name="Rectangle 99" width="203" height="12.397" transform="translate(313 407.974)" fill="#a8d0db"/>
      <rect id="Rectangle_100" data-name="Rectangle 100" width="203" height="12.397" transform="translate(313 497.852)" fill="#a8d0db"/>
      <rect id="Rectangle_101" data-name="Rectangle 101" width="203" height="12.397" transform="translate(313 587.729)" fill="#a8d0db"/>
      <circle id="Ellipse_15" data-name="Ellipse 15" cx="4.649" cy="4.649" r="4.649" transform="translate(471.836 380.78)" fill="#a8d0db"/>
      <circle id="Ellipse_16" data-name="Ellipse 16" cx="4.649" cy="4.649" r="4.649" transform="translate(488.107 380.78)" fill="#a8d0db"/>
      <circle id="Ellipse_17" data-name="Ellipse 17" cx="4.649" cy="4.649" r="4.649" transform="translate(504.378 380.78)" fill="#a8d0db"/>
      <circle id="Ellipse_18" data-name="Ellipse 18" cx="4.649" cy="4.649" r="4.649" transform="translate(471.836 469.109)" fill="#a8d0db"/>
      <circle id="Ellipse_19" data-name="Ellipse 19" cx="4.649" cy="4.649" r="4.649" transform="translate(488.107 469.109)" fill="#a8d0db"/>
      <circle id="Ellipse_20" data-name="Ellipse 20" cx="4.649" cy="4.649" r="4.649" transform="translate(504.378 469.109)" fill="#a8d0db"/>
      <circle id="Ellipse_21" data-name="Ellipse 21" cx="4.649" cy="4.649" r="4.649" transform="translate(471.836 557.437)" fill="#a8d0db"/>
      <circle id="Ellipse_22" data-name="Ellipse 22" cx="4.649" cy="4.649" r="4.649" transform="translate(488.107 557.437)" fill="#a8d0db"/>
      <circle id="Ellipse_23" data-name="Ellipse 23" cx="4.649" cy="4.649" r="4.649" transform="translate(504.378 557.437)" fill="#a8d0db"/>
    </g>
  </g>
</svg>
