<svg xmlns="http://www.w3.org/2000/svg" width="579.862" height="637.019" viewBox="0 0 579.862 637.019">
  <g id="Big_Tree" data-name="Big Tree" transform="translate(-877.867 -1137.141)">
    <g id="Group_42" data-name="Group 42" transform="translate(407.839 1122.454) rotate(1.25)">
      <circle id="Ellipse_33" data-name="Ellipse 33" cx="86.788" cy="86.788" r="86.788" transform="translate(783.332 232.009)" fill="#00897b"/>
      <circle id="Ellipse_34" data-name="Ellipse 34" cx="86.788" cy="86.788" r="86.788" transform="translate(691.034 208.298)" fill="#00897b"/>
      <circle id="Ellipse_35" data-name="Ellipse 35" cx="86.788" cy="86.788" r="86.788" transform="translate(589.432 209.147)" fill="#00897b"/>
      <circle id="Ellipse_36" data-name="Ellipse 36" cx="86.788" cy="86.788" r="86.788" transform="translate(556.408 232.009)" fill="#00897b"/>
      <circle id="Ellipse_37" data-name="Ellipse 37" cx="86.788" cy="86.788" r="86.788" transform="translate(500.522 239.632)" fill="#00897b"/>
      <circle id="Ellipse_38" data-name="Ellipse 38" cx="86.788" cy="86.788" r="86.788" transform="translate(477.66 171.046)" fill="#00897b"/>
      <circle id="Ellipse_39" data-name="Ellipse 39" cx="86.788" cy="86.788" r="86.788" transform="translate(503.06 91.449)" fill="#00897b"/>
      <circle id="Ellipse_40" data-name="Ellipse 40" cx="86.788" cy="86.788" r="86.788" transform="translate(551.323 91.449)" fill="#00897b"/>
      <circle id="Ellipse_41" data-name="Ellipse 41" cx="86.788" cy="86.788" r="86.788" transform="translate(579.27 55.886)" fill="#00897b"/>
      <circle id="Ellipse_42" data-name="Ellipse 42" cx="86.788" cy="86.788" r="86.788" transform="translate(650.395 94.836)" fill="#00897b"/>
      <circle id="Ellipse_43" data-name="Ellipse 43" cx="86.788" cy="86.788" r="86.788" transform="translate(816.356 171.046)" fill="#00897b"/>
      <circle id="Ellipse_44" data-name="Ellipse 44" cx="86.788" cy="86.788" r="86.788" transform="translate(766.395 127.86)" fill="#00897b"/>
      <circle id="Ellipse_45" data-name="Ellipse 45" cx="86.788" cy="86.788" r="86.788" transform="translate(734.22 84.674)" fill="#00897b"/>
      <circle id="Ellipse_46" data-name="Ellipse 46" cx="86.788" cy="86.788" r="86.788" transform="translate(673.257 19.475)" fill="#00897b"/>
      <circle id="Ellipse_47" data-name="Ellipse 47" cx="86.788" cy="86.788" r="86.788" transform="translate(786.719 91.449)" fill="#6c63ff"/>
      <g id="Group_39" data-name="Group 39" transform="translate(477.66 19.475)" opacity="0.1">
        <circle id="Ellipse_48" data-name="Ellipse 48" cx="86.788" cy="86.788" r="86.788" transform="translate(305.672 212.534)" fill="#00897b"/>
        <circle id="Ellipse_49" data-name="Ellipse 49" cx="86.788" cy="86.788" r="86.788" transform="translate(213.374 188.823)" fill="#00897b"/>
        <circle id="Ellipse_50" data-name="Ellipse 50" cx="86.788" cy="86.788" r="86.788" transform="translate(111.772 189.672)"/>
        <circle id="Ellipse_51" data-name="Ellipse 51" cx="86.788" cy="86.788" r="86.788" transform="translate(78.748 212.534)" fill="#00897b"/>
        <circle id="Ellipse_52" data-name="Ellipse 52" cx="86.788" cy="86.788" r="86.788" transform="translate(22.862 220.157)" fill="#00897b"/>
        <circle id="Ellipse_53" data-name="Ellipse 53" cx="86.788" cy="86.788" r="86.788" transform="translate(0 151.571)" fill="#00897b"/>
        <circle id="Ellipse_54" data-name="Ellipse 54" cx="86.788" cy="86.788" r="86.788" transform="translate(25.4 71.974)"/>
        <circle id="Ellipse_55" data-name="Ellipse 55" cx="86.788" cy="86.788" r="86.788" transform="translate(73.663 71.974)"/>
        <circle id="Ellipse_56" data-name="Ellipse 56" cx="86.788" cy="86.788" r="86.788" transform="translate(101.61 36.411)"/>
        <circle id="Ellipse_57" data-name="Ellipse 57" cx="86.788" cy="86.788" r="86.788" transform="translate(172.735 75.361)"/>
        <circle id="Ellipse_58" data-name="Ellipse 58" cx="86.788" cy="86.788" r="86.788" transform="translate(338.696 151.571)" fill="#00897b"/>
        <circle id="Ellipse_59" data-name="Ellipse 59" cx="86.788" cy="86.788" r="86.788" transform="translate(288.735 108.385)"/>
        <circle id="Ellipse_60" data-name="Ellipse 60" cx="86.788" cy="86.788" r="86.788" transform="translate(256.56 65.199)"/>
        <circle id="Ellipse_61" data-name="Ellipse 61" cx="86.788" cy="86.788" r="86.788" transform="translate(195.597)"/>
        <circle id="Ellipse_62" data-name="Ellipse 62" cx="86.788" cy="86.788" r="86.788" transform="translate(309.059 71.974)"/>
      </g>
      <path id="Path_391" data-name="Path 391" d="M913.372,593.137s53.059-44.6,26.81-108.1l-26.249-9.831L885.45,562.9Z" transform="translate(-86.116 -122.252)" fill="#67647e"/>
      <path id="Path_392" data-name="Path 392" d="M916.6,471.65,922.883,474l-27.964,86.092,24.4,26.419c-2.021,2.012-3.277,3.065-3.277,3.065l-27.93-30.24Z" transform="translate(-86.517 -121.714)" opacity="0.1"/>
      <path id="Path_398" data-name="Path 398" d="M636.08,490.232l6.893,27.591s48.7,6.35,81.176,2.36a42.209,42.209,0,0,0,16.189-5.841c2.742-1.621,7.072-2.326,12.989,2.105,10.136,7.641,59.885,68.765,51.828,132.181a21.92,21.92,0,0,1-18.821,18.881h0A66.1,66.1,0,0,0,758.6,678l-24.619,16.393,252.434-5.518-26.207-31.725s-17.93-15.171-31.725-16.554c-4.024-.4-7.343-4.092-10.026-9.109-15.714-29.416-34.51-57.075-54.884-83.485-14.84-19.237-27.294-39.51-26.131-52.244,2.759-30.35,0-80,0-80l-52.414-6.893s6.893,66.218-56.557,82.764S636.08,490.232,636.08,490.232Z" transform="translate(-48.447 -112.229)" fill="#67647e"/>
      <g id="Group_40" data-name="Group 40" transform="translate(587.624 296.648)" opacity="0.1">
        <path id="Path_399" data-name="Path 399" d="M678.84,502.655s28.966,17.93,92.425,1.375,56.557-82.764,56.557-82.764l9.975,1.3c-.187-4.245-.331-6.792-.331-6.792l-52.414-6.893s6.893,66.218-56.557,82.764-92.425-1.375-92.425-1.375l6.893,27.591s18.609,2.428,40.495,3.336Z" transform="translate(-636.07 -408.88)"/>
        <path id="Path_400" data-name="Path 400" d="M818.782,711.168a66.1,66.1,0,0,1,27.735-10.493h0a21.886,21.886,0,0,0,18.813-18.8c8.1-63.416-41.675-124.651-51.786-132.257-11.036-8.277-16.555,1.375-16.555,1.375a88.8,88.8,0,0,1-11.885,2.267c17.879,23.771,43.458,69.367,37.473,116.2a21.886,21.886,0,0,1-18.813,18.8h0a66.1,66.1,0,0,0-27.735,10.493L751.41,715.141l63.467-1.384Z" transform="translate(-653.492 -429.632)"/>
      </g>
      <path id="Path_413" data-name="Path 413" d="M1092.41,534.064a18.524,18.524,0,0,1-3.15,9.771,18.525,18.525,0,0,1-3.2-9.754c0-5.391,1.392-9.763,3.15-9.771S1092.393,528.674,1092.41,534.064Z" transform="translate(-116.418 -129.669)" fill="#00897b"/>
      <path id="Path_414" data-name="Path 414" d="M810.12,528.483a18.524,18.524,0,0,1-3.175,9.763,18.524,18.524,0,0,1-3.175-9.763c0-5.391,1.418-9.763,3.175-9.763S810.12,523.092,810.12,528.483Z" transform="translate(-73.778 -128.824)" fill="#00897b"/>
      <path id="Path_415" data-name="Path 415" d="M1117.333,642.429a18.524,18.524,0,0,1,3.175,9.763,18.525,18.525,0,0,1-8.311-6.028c-3.175-4.364-4.593-8.736-3.175-9.763S1114.167,638.074,1117.333,642.429Z" transform="translate(-119.804 -146.567)" fill="#00897b"/>
      <path id="Path_416" data-name="Path 416" d="M998.32,581.593a18.525,18.525,0,0,1-3.175,9.763,18.524,18.524,0,0,1-3.175-9.763c0-5.391,1.418-9.763,3.175-9.763S998.32,576.219,998.32,581.593Z" transform="translate(-102.206 -136.847)" fill="#00897b"/>
      <path id="Path_417" data-name="Path 417" d="M928.44,543.393a18.524,18.524,0,0,1-3.175,9.763,18.526,18.526,0,0,1-3.175-9.763c0-5.391,1.418-9.763,3.175-9.763S928.44,538,928.44,543.393Z" transform="translate(-91.65 -131.076)" fill="#00897b"/>
      <path id="Path_418" data-name="Path 418" d="M884.731,567.167a18.523,18.523,0,0,1,2.1,10.052,18.522,18.522,0,0,1-7.641-6.893c-2.683-4.678-3.617-9.177-2.1-10.052S882.057,562.489,884.731,567.167Z" transform="translate(-84.743 -135.079)" fill="#00897b"/>
      <path id="Path_419" data-name="Path 419" d="M852.176,672.391a18.525,18.525,0,0,1-9.3,4.364,18.524,18.524,0,0,1,4.949-8.99c3.931-3.684,8.1-5.637,9.3-4.364S856.107,668.707,852.176,672.391Z" transform="translate(-79.685 -150.62)" fill="#00897b"/>
      <path id="Path_420" data-name="Path 420" d="M852.176,672.391a18.525,18.525,0,0,1-9.3,4.364,18.524,18.524,0,0,1,4.949-8.99c3.931-3.684,8.1-5.637,9.3-4.364S856.107,668.707,852.176,672.391Z" transform="translate(-79.685 -150.62)" fill="#00897b" opacity="0.1"/>
      <path id="Path_421" data-name="Path 421" d="M920.186,665.871a18.523,18.523,0,0,1-9.3,4.364,18.524,18.524,0,0,1,4.949-8.99c3.931-3.684,8.1-5.637,9.3-4.364S924.117,662.178,920.186,665.871Z" transform="translate(-89.958 -149.635)" fill="#00897b"/>
      <path id="Path_422" data-name="Path 422" d="M920.186,665.871a18.523,18.523,0,0,1-9.3,4.364,18.524,18.524,0,0,1,4.949-8.99c3.931-3.684,8.1-5.637,9.3-4.364S924.117,662.178,920.186,665.871Z" transform="translate(-89.958 -149.635)" fill="#00897b" opacity="0.1"/>
      <path id="Path_423" data-name="Path 423" d="M933.226,734.807a18.524,18.524,0,0,1-9.3,4.364,18.524,18.524,0,0,1,4.958-9.016c3.931-3.685,8.1-5.637,9.3-4.364S937.165,731.114,933.226,734.807Z" transform="translate(-91.928 -160.044)" fill="#00897b"/>
      <path id="Path_424" data-name="Path 424" d="M933.226,734.807a18.524,18.524,0,0,1-9.3,4.364,18.524,18.524,0,0,1,4.958-9.016c3.931-3.685,8.1-5.637,9.3-4.364S937.165,731.114,933.226,734.807Z" transform="translate(-91.928 -160.044)" fill="#00897b" opacity="0.1"/>
      <path id="Path_430" data-name="Path 430" d="M1037.51,729.069s14.526-2.886,18.4-6.732,21.309-10.578,23.244-5.773,26.148,21.156,9.687,24.034-38.737,3.846-43.576,1.927S1037.51,729.069,1037.51,729.069Z" transform="translate(-109.085 -158.457)" fill="#a8a8a8"/>
      <path id="Path_431" data-name="Path 431" d="M1088.867,741.328c-16.461,2.886-38.737,3.846-43.576,1.927-3.684-1.469-6.248-8.49-7.267-11.775l-.484.1s2.9,11.537,7.751,13.464,27.115.959,43.576-1.927c4.754-.849,6.112-2.785,5.6-5.263C1094.037,739.46,1092.382,740.708,1088.867,741.328Z" transform="translate(-109.089 -160.962)" opacity="0.2"/>
      <circle id="Ellipse_64" data-name="Ellipse 64" cx="86.788" cy="86.788" r="86.788" transform="translate(783.332 212.534)" fill="#00897b"/>
      <circle id="Ellipse_65" data-name="Ellipse 65" cx="86.788" cy="86.788" r="86.788" transform="translate(691.034 188.823)" fill="#00897b"/>
      <circle id="Ellipse_66" data-name="Ellipse 66" cx="86.788" cy="86.788" r="86.788" transform="translate(589.432 189.672)" fill="#00897b"/>
      <circle id="Ellipse_67" data-name="Ellipse 67" cx="86.788" cy="86.788" r="86.788" transform="translate(556.408 212.534)" fill="#00897b"/>
      <circle id="Ellipse_68" data-name="Ellipse 68" cx="86.788" cy="86.788" r="86.788" transform="translate(500.522 220.157)" fill="#00897b"/>
      <circle id="Ellipse_69" data-name="Ellipse 69" cx="86.788" cy="86.788" r="86.788" transform="translate(477.66 151.571)" fill="#00897b"/>
      <circle id="Ellipse_70" data-name="Ellipse 70" cx="86.788" cy="86.788" r="86.788" transform="translate(503.06 71.974)" fill="#00897b"/>
      <circle id="Ellipse_71" data-name="Ellipse 71" cx="86.788" cy="86.788" r="86.788" transform="translate(551.323 71.974)" fill="#00897b"/>
      <circle id="Ellipse_72" data-name="Ellipse 72" cx="86.788" cy="86.788" r="86.788" transform="translate(579.27 36.411)" fill="#00897b"/>
      <circle id="Ellipse_73" data-name="Ellipse 73" cx="86.788" cy="86.788" r="86.788" transform="translate(650.395 75.361)" fill="#00897b"/>
      <circle id="Ellipse_74" data-name="Ellipse 74" cx="86.788" cy="86.788" r="86.788" transform="translate(816.356 151.571)" fill="#00897b"/>
      <circle id="Ellipse_75" data-name="Ellipse 75" cx="86.788" cy="86.788" r="86.788" transform="translate(766.395 108.385)" fill="#00897b"/>
      <circle id="Ellipse_76" data-name="Ellipse 76" cx="86.788" cy="86.788" r="86.788" transform="translate(734.22 65.199)" fill="#00897b"/>
      <circle id="Ellipse_77" data-name="Ellipse 77" cx="86.788" cy="86.788" r="86.788" transform="translate(673.257 0)" fill="#00897b"/>
      <circle id="Ellipse_78" data-name="Ellipse 78" cx="86.788" cy="86.788" r="86.788" transform="translate(786.719 71.974)" fill="#00897b"/>
      <path id="Path_432" data-name="Path 432" d="M1047.526,260.553s-80.828-38.33-129.736,29.6" transform="translate(-91.001 -88.2)" opacity="0.1"/>
      <path id="Path_433" data-name="Path 433" d="M801.5,171s-89.411-2.7-106.967,79.139" transform="translate(-57.276 -76.298)" opacity="0.1"/>
      <path id="Path_434" data-name="Path 434" d="M666.526,378.242S585.7,339.9,536.79,407.819" transform="translate(-33.449 -105.976)" opacity="0.1"/>
      <path id="Path_470" data-name="Path 470" d="M774.964,753.456a35.987,35.987,0,0,0-9.746-5.323,34.811,34.811,0,0,1-9.338-4.873" transform="translate(-66.544 -162.742)" opacity="0.1"/>
      <path id="Path_472" data-name="Path 472" d="M707.936,796.69q-.093.4-.212.789C707.291,797.233,706.671,796.758,707.936,796.69Z" transform="translate(-59.188 -170.812)" fill="lime" opacity="0.05"/>
      <path id="Path_474" data-name="Path 474" d="M865.021,609.343a30.188,30.188,0,0,1-11.24-12.055,2.717,2.717,0,0,1-.416-1.859c.314-1.206,1.885-1.418,3.022-1.936,2.114-.968,3.005-3.4,4.389-5.28a10.569,10.569,0,0,1,10.332-3.965c2.02.407,3.888,1.409,5.943,1.7,4.4.645,9.186-2.021,13.133,0a11.368,11.368,0,0,1,4.092,4.381c2.691,4.3,6.062,8.88,3.617,13.906a10.86,10.86,0,0,1-6.792,6.121c-3.15.841-6.792.136-10-.2-2.632-.289-5.4-.849-8.048-.611C869.928,609.861,867.984,611.126,865.021,609.343Z" transform="translate(-81.265 -132.753)" opacity="0.1"/>
    </g>
    <g id="Group_44" data-name="Group 44" transform="translate(1463.466 1764.379) rotate(178.75)">
      <ellipse id="Ellipse_33-2" data-name="Ellipse 33" cx="78.12" cy="78.119" rx="78.12" ry="78.119" transform="translate(275.142 208.073)" fill="#00897b"/>
      <ellipse id="Ellipse_34-2" data-name="Ellipse 34" cx="78.12" cy="78.119" rx="78.12" ry="78.119" transform="translate(192.063 229.416)" fill="#00897b"/>
      <ellipse id="Ellipse_35-2" data-name="Ellipse 35" cx="78.12" cy="78.119" rx="78.12" ry="78.119" transform="translate(100.609 228.652)" fill="#00897b"/>
      <ellipse id="Ellipse_36-2" data-name="Ellipse 36" cx="78.12" cy="78.119" rx="78.12" ry="78.119" transform="translate(70.883 208.073)" fill="#00897b"/>
      <ellipse id="Ellipse_37-2" data-name="Ellipse 37" cx="78.12" cy="78.119" rx="78.12" ry="78.119" transform="translate(20.579 201.211)" fill="#00897b"/>
      <ellipse id="Ellipse_38-2" data-name="Ellipse 38" cx="78.12" cy="78.119" rx="78.12" ry="78.119" transform="translate(0 262.947)" fill="#00897b"/>
      <ellipse id="Ellipse_39-2" data-name="Ellipse 39" cx="78.12" cy="78.119" rx="78.12" ry="78.119" transform="translate(22.863 334.594)" fill="#00897b"/>
      <ellipse id="Ellipse_40-2" data-name="Ellipse 40" cx="78.12" cy="78.119" rx="78.12" ry="78.119" transform="translate(66.306 334.594)" fill="#00897b"/>
      <ellipse id="Ellipse_41-2" data-name="Ellipse 41" cx="78.12" cy="78.119" rx="78.12" ry="78.119" transform="translate(91.462 366.604)" fill="#00897b"/>
      <ellipse id="Ellipse_42-2" data-name="Ellipse 42" cx="78.12" cy="78.119" rx="78.12" ry="78.119" transform="translate(155.483 331.545)" fill="#00897b"/>
      <ellipse id="Ellipse_43-2" data-name="Ellipse 43" cx="78.12" cy="78.119" rx="78.12" ry="78.119" transform="translate(304.867 262.947)" fill="#00897b"/>
      <ellipse id="Ellipse_44-2" data-name="Ellipse 44" cx="78.12" cy="78.119" rx="78.12" ry="78.119" transform="translate(259.897 301.82)" fill="#00897b"/>
      <ellipse id="Ellipse_45-2" data-name="Ellipse 45" cx="78.12" cy="78.119" rx="78.12" ry="78.119" transform="translate(230.935 340.692)" fill="#00897b"/>
      <ellipse id="Ellipse_46-2" data-name="Ellipse 46" cx="78.12" cy="78.119" rx="78.12" ry="78.119" transform="translate(176.061 399.379)" fill="#00897b"/>
      <ellipse id="Ellipse_47-2" data-name="Ellipse 47" cx="78.12" cy="78.119" rx="78.12" ry="78.119" transform="translate(278.191 334.594)" fill="#6c63ff"/>
      <g id="Group_39-2" data-name="Group 39" transform="translate(0 201.211)" opacity="0.1">
        <ellipse id="Ellipse_48-2" data-name="Ellipse 48" cx="78.12" cy="78.119" rx="78.12" ry="78.119" transform="translate(275.142 6.862)" fill="#00897b"/>
        <ellipse id="Ellipse_49-2" data-name="Ellipse 49" cx="78.12" cy="78.119" rx="78.12" ry="78.119" transform="translate(192.063 28.205)" fill="#00897b"/>
        <ellipse id="Ellipse_50-2" data-name="Ellipse 50" cx="78.12" cy="78.119" rx="78.12" ry="78.119" transform="translate(100.609 27.441)"/>
        <ellipse id="Ellipse_51-2" data-name="Ellipse 51" cx="78.12" cy="78.119" rx="78.12" ry="78.119" transform="translate(70.883 6.862)" fill="#00897b"/>
        <ellipse id="Ellipse_52-2" data-name="Ellipse 52" cx="78.12" cy="78.119" rx="78.12" ry="78.119" transform="translate(20.579 0)" fill="#00897b"/>
        <ellipse id="Ellipse_53-2" data-name="Ellipse 53" cx="78.12" cy="78.119" rx="78.12" ry="78.119" transform="translate(0 61.736)" fill="#00897b"/>
        <ellipse id="Ellipse_54-2" data-name="Ellipse 54" cx="78.12" cy="78.119" rx="78.12" ry="78.119" transform="translate(22.863 133.383)"/>
        <ellipse id="Ellipse_55-2" data-name="Ellipse 55" cx="78.12" cy="78.119" rx="78.12" ry="78.119" transform="translate(66.306 133.383)"/>
        <ellipse id="Ellipse_56-2" data-name="Ellipse 56" cx="78.12" cy="78.119" rx="78.12" ry="78.119" transform="translate(91.462 165.393)"/>
        <ellipse id="Ellipse_57-2" data-name="Ellipse 57" cx="78.12" cy="78.119" rx="78.12" ry="78.119" transform="translate(155.483 130.334)"/>
        <ellipse id="Ellipse_58-2" data-name="Ellipse 58" cx="78.12" cy="78.119" rx="78.12" ry="78.119" transform="translate(304.867 61.736)" fill="#00897b"/>
        <ellipse id="Ellipse_59-2" data-name="Ellipse 59" cx="78.12" cy="78.119" rx="78.12" ry="78.119" transform="translate(259.897 100.608)"/>
        <ellipse id="Ellipse_60-2" data-name="Ellipse 60" cx="78.12" cy="78.119" rx="78.12" ry="78.119" transform="translate(230.935 139.481)"/>
        <ellipse id="Ellipse_61-2" data-name="Ellipse 61" cx="78.12" cy="78.119" rx="78.12" ry="78.119" transform="translate(176.061 198.168)"/>
        <ellipse id="Ellipse_62-2" data-name="Ellipse 62" cx="78.12" cy="78.119" rx="78.12" ry="78.119" transform="translate(278.191 133.383)"/>
      </g>
      <path id="Path_391-2" data-name="Path 391" d="M25.133,0s47.76,40.141,24.132,97.3l-23.628,8.849L0,27.219Z" transform="translate(289.546 149.294)" fill="#67647e"/>
      <path id="Path_392-2" data-name="Path 392" d="M25.645,106.149l5.655-2.117L6.129,26.539,28.09,2.759C26.272.948,25.141,0,25.141,0L0,27.219Z" transform="translate(291.579 152.015)" opacity="0.1"/>
      <path id="Path_398-2" data-name="Path 398" d="M0,183.771l6.2-24.835s43.84-5.716,73.068-2.124a37.994,37.994,0,0,1,14.572,5.257c2.468,1.46,6.365,2.094,11.692-1.9,9.124-6.877,53.9-61.9,46.652-118.979A19.73,19.73,0,0,0,135.248,24.2h0a59.5,59.5,0,0,1-24.965-9.445L88.122,0,315.344,4.967,291.754,33.523s-16.139,13.655-28.556,14.9c-3.622.359-6.61,3.683-9.025,8.2C240.029,83.1,223.11,108,204.771,131.771,191.413,149.086,180.2,167.334,181.25,178.8c2.484,27.318,0,72.014,0,72.014l-47.179,6.2s6.2-59.6-50.908-74.5S0,183.771,0,183.771Z" transform="translate(98.989 49.129)" fill="#67647e"/>
      <g id="Group_40-2" data-name="Group 40" transform="translate(98.981 49.137)" opacity="0.1">
        <path id="Path_399-2" data-name="Path 399" d="M38.5,16.689S64.571.55,121.692,15.451s50.908,74.5,50.908,74.5l8.979-1.169c-.168,3.821-.3,6.113-.3,6.113L134.1,101.1s6.2-59.6-50.908-74.5S0,27.838,0,27.838L6.2,3S22.955.818,42.655,0Z" transform="translate(0 155.895)"/>
        <path id="Path_400-2" data-name="Path 400" d="M60.643,3.576a59.5,59.5,0,0,0,24.965,9.445h0a19.7,19.7,0,0,1,16.934,16.926c7.29,57.082-37.512,112.2-46.613,119.048-9.934,7.45-14.9-1.238-14.9-1.238a79.91,79.91,0,0,0-10.7-2.04c16.093-21.4,39.117-62.439,33.73-104.59A19.7,19.7,0,0,0,47.125,24.2h0a59.5,59.5,0,0,1-24.965-9.445L0,0,57.128,1.246Z" transform="translate(88.138 0)"/>
      </g>
      <path id="Path_411" data-name="Path 411" d="M0,26.955s26.594-5.491,33.692-12.807S72.7-5.974,76.244,3.174,124.133,43.42,94.009,48.911,23.087,56.227,14.22,52.569,0,26.955,0,26.955Z" transform="translate(165.678 43.178)" fill="#a8a8a8"/>
      <path id="Path_413-2" data-name="Path 413" d="M5.716,8.8A16.673,16.673,0,0,0,2.881,0,16.675,16.675,0,0,0,0,8.78c0,4.852,1.253,8.788,2.835,8.8S5.7,13.648,5.716,8.8Z" transform="translate(442.843 200.348)" fill="#00897b"/>
      <path id="Path_414-2" data-name="Path 414" d="M5.716,8.788A16.674,16.674,0,0,0,2.858,0,16.674,16.674,0,0,0,0,8.788c0,4.852,1.276,8.788,2.858,8.788S5.716,13.64,5.716,8.788Z" transform="translate(227.13 204.619)" fill="#00897b"/>
      <path id="Path_415-2" data-name="Path 415" d="M7.976,8.788A16.672,16.672,0,0,0,10.834,0,16.675,16.675,0,0,0,3.353,5.425C.495,9.353-.781,13.289.495,14.213S5.126,12.708,7.976,8.788Z" transform="translate(459.969 118.025)" fill="#00897b"/>
      <path id="Path_416-2" data-name="Path 416" d="M5.716,8.788A16.674,16.674,0,0,0,2.858,0,16.674,16.674,0,0,0,0,8.788c0,4.852,1.276,8.788,2.858,8.788S5.716,13.625,5.716,8.788Z" transform="translate(370.944 164.035)" fill="#00897b"/>
      <path id="Path_417-2" data-name="Path 417" d="M5.716,8.788A16.674,16.674,0,0,0,2.858,0,16.674,16.674,0,0,0,0,8.788c0,4.852,1.276,8.788,2.858,8.788S5.716,13.64,5.716,8.788Z" transform="translate(317.544 193.226)" fill="#00897b"/>
      <path id="Path_418-2" data-name="Path 418" d="M7.533,9.048A16.673,16.673,0,0,0,9.421,0,16.674,16.674,0,0,0,2.543,6.2C.128,10.415-.712,14.465.656,15.253S5.126,13.258,7.533,9.048Z" transform="translate(282.601 175.169)" fill="#00897b"/>
      <path id="Path_419-2" data-name="Path 419" d="M8.367,3.928A16.674,16.674,0,0,0,0,0,16.674,16.674,0,0,0,4.455,8.092c3.538,3.316,7.29,5.074,8.367,3.928S11.906,7.244,8.367,3.928Z" transform="translate(257.016 99.563)" fill="#00897b"/>
      <path id="Path_420-2" data-name="Path 420" d="M8.367,3.928A16.674,16.674,0,0,0,0,0,16.674,16.674,0,0,0,4.455,8.092c3.538,3.316,7.29,5.074,8.367,3.928S11.906,7.244,8.367,3.928Z" transform="translate(257.016 99.563)" fill="#00897b" opacity="0.1"/>
      <path id="Path_421-2" data-name="Path 421" d="M8.368,3.928A16.675,16.675,0,0,0,0,0,16.674,16.674,0,0,0,4.455,8.093c3.538,3.316,7.29,5.074,8.367,3.928S11.906,7.252,8.368,3.928Z" transform="translate(308.986 104.546)" fill="#00897b"/>
      <path id="Path_422-2" data-name="Path 422" d="M8.368,3.928A16.675,16.675,0,0,0,0,0,16.674,16.674,0,0,0,4.455,8.093c3.538,3.316,7.29,5.074,8.367,3.928S11.906,7.252,8.368,3.928Z" transform="translate(308.986 104.546)" fill="#00897b" opacity="0.1"/>
      <path id="Path_423-2" data-name="Path 423" d="M8.367,3.928A16.673,16.673,0,0,0,0,0,16.675,16.675,0,0,0,4.463,8.115c3.538,3.316,7.29,5.074,8.367,3.928S11.913,7.252,8.367,3.928Z" transform="translate(318.951 51.865)" fill="#00897b"/>
      <path id="Path_424-2" data-name="Path 424" d="M8.367,3.928A16.673,16.673,0,0,0,0,0,16.675,16.675,0,0,0,4.463,8.115c3.538,3.316,7.29,5.074,8.367,3.928S11.913,7.252,8.367,3.928Z" transform="translate(318.951 51.865)" fill="#00897b" opacity="0.1"/>
      <path id="Path_430-2" data-name="Path 430" d="M0,13.008s13.075,2.6,16.559,6.06,19.18,9.521,20.922,5.2S61.018,5.221,46.2,2.631,11.333-.831,6.977.9,0,13.008,0,13.008Z" transform="translate(133.721 44.587)" fill="#a8a8a8"/>
      <path id="Path_431-2" data-name="Path 431" d="M46.2,4.249C31.384,1.65,11.332.787,6.977,2.514,3.66,3.836,1.353,10.155.436,13.113L0,13.021S2.613,2.636,6.977.9,31.384.038,46.2,2.636c4.279.764,5.5,2.506,5.043,4.738C50.854,5.93,49.365,4.806,46.2,4.249Z" transform="translate(133.744 44.566)" opacity="0.2"/>
      <ellipse id="Ellipse_64-2" data-name="Ellipse 64" cx="78.12" cy="78.119" rx="78.12" ry="78.119" transform="translate(275.142 225.603)" fill="#00897b"/>
      <ellipse id="Ellipse_65-2" data-name="Ellipse 65" cx="78.12" cy="78.119" rx="78.12" ry="78.119" transform="translate(192.063 246.946)" fill="#00897b"/>
      <ellipse id="Ellipse_66-2" data-name="Ellipse 66" cx="78.12" cy="78.119" rx="78.12" ry="78.119" transform="translate(100.609 246.182)" fill="#00897b"/>
      <ellipse id="Ellipse_67-2" data-name="Ellipse 67" cx="78.12" cy="78.119" rx="78.12" ry="78.119" transform="translate(70.883 225.603)" fill="#00897b"/>
      <ellipse id="Ellipse_68-2" data-name="Ellipse 68" cx="78.12" cy="78.119" rx="78.12" ry="78.119" transform="translate(20.579 218.741)" fill="#00897b"/>
      <ellipse id="Ellipse_69-2" data-name="Ellipse 69" cx="78.12" cy="78.119" rx="78.12" ry="78.119" transform="translate(0 280.477)" fill="#00897b"/>
      <ellipse id="Ellipse_70-2" data-name="Ellipse 70" cx="78.12" cy="78.119" rx="78.12" ry="78.119" transform="translate(22.863 352.124)" fill="#00897b"/>
      <ellipse id="Ellipse_71-2" data-name="Ellipse 71" cx="78.12" cy="78.119" rx="78.12" ry="78.119" transform="translate(66.306 352.124)" fill="#00897b"/>
      <ellipse id="Ellipse_72-2" data-name="Ellipse 72" cx="78.12" cy="78.119" rx="78.12" ry="78.119" transform="translate(91.462 384.134)" fill="#00897b"/>
      <ellipse id="Ellipse_73-2" data-name="Ellipse 73" cx="78.12" cy="78.119" rx="78.12" ry="78.119" transform="translate(155.483 349.075)" fill="#00897b"/>
      <ellipse id="Ellipse_74-2" data-name="Ellipse 74" cx="78.12" cy="78.119" rx="78.12" ry="78.119" transform="translate(304.867 280.477)" fill="#00897b"/>
      <ellipse id="Ellipse_75-2" data-name="Ellipse 75" cx="78.12" cy="78.119" rx="78.12" ry="78.119" transform="translate(259.897 319.349)" fill="#00897b"/>
      <ellipse id="Ellipse_76-2" data-name="Ellipse 76" cx="78.12" cy="78.119" rx="78.12" ry="78.119" transform="translate(230.935 358.222)" fill="#00897b"/>
      <ellipse id="Ellipse_77-2" data-name="Ellipse 77" cx="78.12" cy="78.119" rx="78.12" ry="78.119" transform="translate(176.061 416.909)" fill="#00897b"/>
      <ellipse id="Ellipse_78-2" data-name="Ellipse 78" cx="78.12" cy="78.119" rx="78.12" ry="78.119" transform="translate(278.191 352.124)" fill="#00897b"/>
      <path id="Path_432-2" data-name="Path 432" d="M116.778,26.646S44.023,61.148,0,0" transform="translate(314.259 391.363)" opacity="0.1"/>
      <path id="Path_433-2" data-name="Path 433" d="M96.284,71.234S15.8,73.664,0,0" transform="translate(143.653 416.672)" opacity="0.1"/>
      <path id="Path_434-2" data-name="Path 434" d="M116.778,26.623S44.023,61.132,0,0" transform="translate(23.116 301.453)" opacity="0.1"/>
      <path id="Path_470-2" data-name="Path 470" d="M17.178,0A32.4,32.4,0,0,1,8.406,4.791,31.333,31.333,0,0,0,0,9.178" transform="translate(190.534 41.434)" opacity="0.1"/>
      <path id="Path_472-2" data-name="Path 472" d="M.677.711Q.592.352.485,0C.1.222-.462.65.677.711Z" transform="translate(153.324 9.072)" fill="lime" opacity="0.05"/>
      <path id="Path_474-2" data-name="Path 474" d="M10.515,1.266A27.174,27.174,0,0,0,.4,12.117a2.445,2.445,0,0,0-.374,1.674c.283,1.085,1.7,1.276,2.72,1.742,1.9.871,2.705,3.057,3.951,4.753a9.514,9.514,0,0,0,9.3,3.569c1.819-.367,3.5-1.268,5.349-1.528,3.958-.581,8.268,1.819,11.821,0a10.233,10.233,0,0,0,3.683-3.943C39.27,14.509,42.3,10.39,40.1,5.867A9.776,9.776,0,0,0,33.99.357c-2.835-.757-6.113-.122-9,.183a37.235,37.235,0,0,1-7.244.55C14.932.8,13.182-.338,10.515,1.266Z" transform="translate(265.008 142.893)" opacity="0.1"/>
      <path id="Path_475" data-name="Path 475" d="M7.976,8.788A16.673,16.673,0,0,0,10.834,0,16.674,16.674,0,0,0,3.353,5.425C.495,9.353-.781,13.289.495,14.213S5.126,12.708,7.976,8.788Z" transform="translate(438.211 3.705) rotate(-20)" fill="#00897b"/>
      <path id="Path_476" data-name="Path 476" d="M8.367,3.928A16.674,16.674,0,0,0,0,0,16.674,16.674,0,0,0,4.455,8.092c3.538,3.316,7.29,5.074,8.368,3.928S11.906,7.244,8.367,3.928Z" transform="translate(225.368 8.681)" fill="#00897b"/>
    </g>
  </g>
</svg>
