<svg xmlns="http://www.w3.org/2000/svg" xmlns:xlink="http://www.w3.org/1999/xlink" width="100" height="100" viewBox="0 0 100 100">
  <defs>
    <filter id="white" x="2.5" y="2.5" width="94" height="95" filterUnits="userSpaceOnUse">
      <feOffset input="SourceAlpha"/>
      <feGaussianBlur stdDeviation="12.5" result="blur"/>
      <feFlood flood-opacity="0.149"/>
      <feComposite operator="in" in2="blur"/>
      <feComposite in="SourceGraphic"/>
    </filter>
  </defs>
  <g id="Colormind_logo" data-name="Colormind logo" transform="translate(-915 -453)">
    <g id="green_group" data-name="green group" transform="translate(915 453)">
      <circle id="Ellipse_1" data-name="Ellipse 1" cx="11.5" cy="11.5" r="11.5" fill="#41777d"/>
      <circle id="Ellipse_2" data-name="Ellipse 2" cx="9" cy="9" r="9" transform="translate(9 9)" fill="#75c373"/>
    </g>
    <g id="blue_group" data-name="blue group" transform="translate(987.688 453)">
      <circle id="Ellipse_1-2" data-name="Ellipse 1" cx="11.5" cy="11.5" r="11.5" transform="translate(4.313)" fill="#415896"/>
      <circle id="Ellipse_2-2" data-name="Ellipse 2" cx="9" cy="9" r="9" transform="translate(0.313 9)" fill="#5eb1e2"/>
    </g>
    <g id="yellow_group" data-name="yellow group" transform="translate(915 525.688)">
      <circle id="Ellipse_1-3" data-name="Ellipse 1" cx="11.5" cy="11.5" r="11.5" transform="translate(0 4.312)" fill="#72615e"/>
      <circle id="Ellipse_2-3" data-name="Ellipse 2" cx="9" cy="9" r="9" transform="translate(9 0.312)" fill="#d1cf62"/>
    </g>
    <g id="purple_group" data-name="purple group" transform="translate(987.688 525.688)">
      <circle id="Ellipse_1-4" data-name="Ellipse 1" cx="11.5" cy="11.5" r="11.5" transform="translate(4.313 4.312)" fill="#71487d"/>
      <circle id="Ellipse_2-4" data-name="Ellipse 2" cx="9" cy="9" r="9" transform="translate(0.313 0.312)" fill="#cb5876"/>
    </g>
    <g transform="matrix(1, 0, 0, 1, 915, 453)" filter="url(#white)">
      <ellipse id="white-2" data-name="white" cx="9.5" cy="10" rx="9.5" ry="10" transform="translate(40 40)" fill="#fff"/>
    </g>
  </g>
</svg>
