<svg id="instagram" xmlns="http://www.w3.org/2000/svg" width="26.099" height="26.104" viewBox="0 0 26.099 26.104">
  <path id="Path_43" data-name="Path 43" d="M26.482,7.675a9.539,9.539,0,0,0-.607-3.167A6.687,6.687,0,0,0,22.055.688,9.563,9.563,0,0,0,18.888.082C17.491.015,17.047,0,13.5,0S9.516.015,8.123.077A9.541,9.541,0,0,0,4.957.683a6.369,6.369,0,0,0-2.315,1.51,6.427,6.427,0,0,0-1.5,2.31A9.564,9.564,0,0,0,.53,7.67C.464,9.067.449,9.511.449,13.055s.015,3.988.076,5.38A9.538,9.538,0,0,0,1.132,21.6a6.686,6.686,0,0,0,3.819,3.819,9.564,9.564,0,0,0,3.167.607c1.392.061,1.836.076,5.38.076s3.988-.015,5.38-.076a9.536,9.536,0,0,0,3.167-.607,6.677,6.677,0,0,0,3.82-3.819,9.571,9.571,0,0,0,.607-3.167c.061-1.392.076-1.836.076-5.38s-.005-3.988-.066-5.38ZM24.131,18.333a7.155,7.155,0,0,1-.449,2.422A4.33,4.33,0,0,1,21.2,23.233a7.18,7.18,0,0,1-2.422.449c-1.377.061-1.79.076-5.273.076s-3.9-.015-5.273-.076a7.151,7.151,0,0,1-2.422-.449,4.017,4.017,0,0,1-1.5-.974,4.058,4.058,0,0,1-.974-1.5,7.182,7.182,0,0,1-.449-2.422c-.061-1.377-.076-1.79-.076-5.273s.015-3.9.076-5.273A7.151,7.151,0,0,1,3.34,5.37a3.968,3.968,0,0,1,.979-1.5,4.052,4.052,0,0,1,1.5-.974,7.185,7.185,0,0,1,2.422-.449c1.377-.061,1.79-.076,5.273-.076s3.9.015,5.273.076a7.155,7.155,0,0,1,2.422.449,4.014,4.014,0,0,1,1.5.974,4.058,4.058,0,0,1,.974,1.5,7.184,7.184,0,0,1,.449,2.422c.061,1.377.076,1.79.076,5.273s-.015,3.891-.076,5.268Zm0,0" transform="translate(-0.449 0)" fill="#000"/>
  <path id="Path_44" data-name="Path 44" d="M131.655,124.5a6.706,6.706,0,1,0,6.706,6.706A6.708,6.708,0,0,0,131.655,124.5Zm0,11.056a4.35,4.35,0,1,1,4.35-4.35A4.351,4.351,0,0,1,131.655,135.556Zm0,0" transform="translate(-118.6 -118.151)" fill="#000"/>
  <path id="Path_45" data-name="Path 45" d="M365.581,90.167a1.566,1.566,0,1,1-1.566-1.566A1.566,1.566,0,0,1,365.581,90.167Zm0,0" transform="translate(-343.989 -84.084)" fill="#000"/>
</svg>
