<svg xmlns="http://www.w3.org/2000/svg" width="467.844" height="578.952" viewBox="0 0 467.844 578.952">
  <g id="Little_Tree" data-name="Little Tree" transform="translate(-470.779 -14.261) rotate(1.25)">
    <g id="tree_top_background" data-name="tree top background">
      <circle id="Ellipse_33" data-name="Ellipse 33" cx="78.119" cy="78.119" r="78.119" transform="translate(752.801 208.835)" fill="#00897b"/>
      <circle id="Ellipse_34" data-name="Ellipse 34" cx="78.119" cy="78.119" r="78.119" transform="translate(669.722 187.493)" fill="#00897b"/>
      <circle id="Ellipse_35" data-name="Ellipse 35" cx="78.119" cy="78.119" r="78.119" transform="translate(578.268 188.257)" fill="#00897b"/>
      <circle id="Ellipse_36" data-name="Ellipse 36" cx="78.119" cy="78.119" r="78.119" transform="translate(548.543 208.836)" fill="#00897b"/>
      <circle id="Ellipse_37" data-name="Ellipse 37" cx="78.119" cy="78.119" r="78.119" transform="translate(498.239 215.697)" fill="#00897b"/>
      <circle id="Ellipse_38" data-name="Ellipse 38" cx="78.119" cy="78.119" r="78.119" transform="translate(477.66 153.962)" fill="#00897b"/>
      <circle id="Ellipse_39" data-name="Ellipse 39" cx="78.119" cy="78.119" r="78.119" transform="translate(500.523 82.315)" fill="#00897b"/>
      <circle id="Ellipse_40" data-name="Ellipse 40" cx="78.119" cy="78.119" r="78.119" transform="translate(543.966 82.315)" fill="#00897b"/>
      <circle id="Ellipse_41" data-name="Ellipse 41" cx="78.119" cy="78.119" r="78.119" transform="translate(569.122 50.304)" fill="#00897b"/>
      <circle id="Ellipse_42" data-name="Ellipse 42" cx="78.119" cy="78.119" r="78.119" transform="translate(633.142 85.364)" fill="#00897b"/>
      <circle id="Ellipse_43" data-name="Ellipse 43" cx="78.119" cy="78.119" r="78.119" transform="translate(782.527 153.962)" fill="#00897b"/>
      <circle id="Ellipse_44" data-name="Ellipse 44" cx="78.119" cy="78.119" r="78.119" transform="translate(737.556 115.089)" fill="#00897b"/>
      <circle id="Ellipse_45" data-name="Ellipse 45" cx="78.119" cy="78.119" r="78.119" transform="translate(708.595 76.217)" fill="#00897b"/>
      <circle id="Ellipse_46" data-name="Ellipse 46" cx="78.119" cy="78.119" r="78.119" transform="translate(653.721 17.53)" fill="#00897b"/>
      <circle id="Ellipse_47" data-name="Ellipse 47" cx="78.119" cy="78.119" r="78.119" transform="translate(755.85 82.314)" fill="#00897b"/>
    </g>
    <g id="tree_top" data-name="tree top" transform="translate(477.66 17.53)" opacity="0.1">
      <circle id="Ellipse_48" data-name="Ellipse 48" cx="78.119" cy="78.119" r="78.119" transform="translate(275.141 191.306)" fill="#00897b"/>
      <circle id="Ellipse_49" data-name="Ellipse 49" cx="78.119" cy="78.119" r="78.119" transform="translate(192.062 169.963)" fill="#00897b"/>
      <circle id="Ellipse_50" data-name="Ellipse 50" cx="78.119" cy="78.119" r="78.119" transform="translate(100.608 170.727)"/>
      <circle id="Ellipse_51" data-name="Ellipse 51" cx="78.119" cy="78.119" r="78.119" transform="translate(70.883 191.306)" fill="#00897b"/>
      <circle id="Ellipse_52" data-name="Ellipse 52" cx="78.119" cy="78.119" r="78.119" transform="translate(20.579 198.168)" fill="#00897b"/>
      <circle id="Ellipse_53" data-name="Ellipse 53" cx="78.119" cy="78.119" r="78.119" transform="translate(0 136.432)" fill="#00897b"/>
      <circle id="Ellipse_54" data-name="Ellipse 54" cx="78.119" cy="78.119" r="78.119" transform="translate(22.863 64.785)"/>
      <circle id="Ellipse_55" data-name="Ellipse 55" cx="78.119" cy="78.119" r="78.119" transform="translate(66.306 64.785)"/>
      <circle id="Ellipse_56" data-name="Ellipse 56" cx="78.119" cy="78.119" r="78.119" transform="translate(91.462 32.775)"/>
      <circle id="Ellipse_57" data-name="Ellipse 57" cx="78.119" cy="78.119" r="78.119" transform="translate(155.482 67.834)"/>
      <circle id="Ellipse_58" data-name="Ellipse 58" cx="78.119" cy="78.119" r="78.119" transform="translate(304.867 136.432)" fill="#00897b"/>
      <circle id="Ellipse_59" data-name="Ellipse 59" cx="78.119" cy="78.119" r="78.119" transform="translate(259.896 97.56)"/>
      <circle id="Ellipse_60" data-name="Ellipse 60" cx="78.119" cy="78.119" r="78.119" transform="translate(230.935 58.687)"/>
      <circle id="Ellipse_61" data-name="Ellipse 61" cx="78.119" cy="78.119" r="78.119" transform="translate(176.061)"/>
      <circle id="Ellipse_62" data-name="Ellipse 62" cx="78.119" cy="78.119" r="78.119" transform="translate(278.19 64.785)"/>
    </g>
    <g id="tree_trunk" data-name="tree trunk">
      <path id="Path_391" data-name="Path 391" d="M910.583,581.359s47.76-40.141,24.132-97.3l-23.628-8.849L885.45,554.139Z" transform="translate(-118.244 -157.505)" fill="#67647e"/>
      <path id="Path_392" data-name="Path 392" d="M913.755,471.65l5.655,2.117L894.239,551.26,916.2,575.04c-1.819,1.811-2.95,2.759-2.95,2.759L888.11,550.579Z" transform="translate(-118.872 -156.666)" opacity="0.1"/>
      <path id="Path_398" data-name="Path 398" d="M636.08,482.1l6.2,24.835s43.839,5.716,73.068,2.124a37.994,37.994,0,0,0,14.572-5.257c2.468-1.46,6.365-2.094,11.692,1.9,9.124,6.877,53.9,61.9,46.652,118.979a19.73,19.73,0,0,1-16.941,16.995h0a59.5,59.5,0,0,0-24.965,9.445L724.2,665.875l227.221-4.967-23.589-28.556s-16.139-13.655-28.556-14.9c-3.622-.359-6.61-3.683-9.025-8.2-14.145-26.478-31.063-51.374-49.4-75.147-13.357-17.316-24.568-35.564-23.521-47.026,2.484-27.319,0-72.014,0-72.014l-47.179-6.2s6.2,59.6-50.908,74.5S636.08,482.1,636.08,482.1Z" transform="translate(-59.431 -141.857)" fill="#67647e"/>
    </g>
    <g id="tree_trunk_shadow" data-name="tree trunk shadow" transform="translate(576.641 267.018)" opacity="0.1">
      <path id="Path_399" data-name="Path 399" d="M674.568,493.288s26.073,16.139,83.193,1.238,50.908-74.5,50.908-74.5l8.979,1.169c-.168-3.821-.3-6.113-.3-6.113l-47.179-6.2s6.2,59.6-50.908,74.5-83.193-1.238-83.193-1.238l6.2,24.835s16.75,2.185,36.45,3Z" transform="translate(-636.07 -408.88)"/>
      <path id="Path_400" data-name="Path 400" d="M812.053,694.7a59.5,59.5,0,0,1,24.965-9.445h0a19.7,19.7,0,0,0,16.934-16.926c7.29-57.082-37.512-112.2-46.613-119.048-9.934-7.45-14.9,1.238-14.9,1.238a79.91,79.91,0,0,1-10.7,2.04c16.093,21.4,39.117,62.439,33.73,104.59a19.7,19.7,0,0,1-16.934,16.926h0a59.5,59.5,0,0,0-24.965,9.445l-22.16,14.756,57.128-1.246Z" transform="translate(-663.273 -441.281)"/>
    </g>
    <g id="big_rock" data-name="big rock">
      <path id="Path_411" data-name="Path 411" d="M860.5,723.483s26.31-5.265,33.332-12.28,38.59-19.295,42.1-10.522,47.378,38.59,17.576,43.855-70.165,7.015-78.937,3.507S860.5,723.483,860.5,723.483Z" transform="translate(-112.36 -209.964)" fill="#a8a8a8"/>
      <path id="Path_412" data-name="Path 412" d="M953.475,749.193c-29.8,5.265-70.165,7.015-78.937,3.507-6.679-2.674-11.325-15.512-13.159-21.48l-.879.183s5.265,21.052,14.03,24.56,49.12,1.758,78.937-3.507c8.612-1.528,11.073-5.089,10.14-9.6C962.881,745.8,959.878,748.07,953.475,749.193Z" transform="translate(-112.36 -217.884)" opacity="0.2"/>
    </g>
    <g id="tree_leaves" data-name="tree leaves">
      <path id="Path_413" data-name="Path 413" d="M1091.776,533.09a16.673,16.673,0,0,1-2.835,8.8,16.675,16.675,0,0,1-2.881-8.78c0-4.852,1.253-8.788,2.835-8.8S1091.761,528.238,1091.776,533.09Z" transform="translate(-165.558 -169.085)" fill="#00897b"/>
      <path id="Path_414" data-name="Path 414" d="M809.486,527.508a16.674,16.674,0,0,1-2.858,8.788,16.674,16.674,0,0,1-2.858-8.788c0-4.852,1.276-8.788,2.858-8.788S809.486,522.655,809.486,527.508Z" transform="translate(-98.981 -167.767)" fill="#00897b"/>
      <path id="Path_415" data-name="Path 415" d="M1116.448,641.8a16.672,16.672,0,0,1,2.858,8.788,16.675,16.675,0,0,1-7.481-5.425c-2.858-3.928-4.134-7.863-2.858-8.788S1113.6,637.885,1116.448,641.8Z" transform="translate(-170.843 -195.47)" fill="#00897b"/>
      <path id="Path_416" data-name="Path 416" d="M997.686,580.618a16.674,16.674,0,0,1-2.858,8.788,16.674,16.674,0,0,1-2.858-8.788c0-4.852,1.276-8.788,2.858-8.788S997.686,575.781,997.686,580.618Z" transform="translate(-143.367 -180.293)" fill="#00897b"/>
      <path id="Path_417" data-name="Path 417" d="M927.806,542.418a16.674,16.674,0,0,1-2.858,8.788,16.674,16.674,0,0,1-2.858-8.788c0-4.852,1.276-8.788,2.858-8.788S927.806,537.565,927.806,542.418Z" transform="translate(-126.886 -171.284)" fill="#00897b"/>
      <path id="Path_418" data-name="Path 418" d="M883.9,566.464a16.673,16.673,0,0,1,1.887,9.048,16.674,16.674,0,0,1-6.877-6.2c-2.415-4.211-3.255-8.261-1.887-9.048S881.488,562.253,883.9,566.464Z" transform="translate(-116.101 -177.532)" fill="#00897b"/>
      <path id="Path_419" data-name="Path 419" d="M851.247,671.454a16.674,16.674,0,0,1-8.367,3.928,16.674,16.674,0,0,1,4.455-8.092c3.538-3.316,7.29-5.074,8.367-3.928S854.786,668.138,851.247,671.454Z" transform="translate(-108.204 -201.797)" fill="#00897b"/>
      <path id="Path_421" data-name="Path 421" d="M919.258,664.934a16.675,16.675,0,0,1-8.368,3.928,16.674,16.674,0,0,1,4.455-8.093c3.538-3.316,7.29-5.074,8.367-3.928S922.8,661.61,919.258,664.934Z" transform="translate(-124.244 -200.26)" fill="#00897b"/>
      <path id="Path_423" data-name="Path 423" d="M932.3,733.867a16.673,16.673,0,0,1-8.367,3.928,16.675,16.675,0,0,1,4.463-8.115c3.538-3.316,7.29-5.074,8.367-3.928S935.843,730.543,932.3,733.867Z" transform="translate(-127.32 -216.512)" fill="#00897b"/>
      <path id="Path_475" data-name="Path 475" d="M7.976,5.622a16.673,16.673,0,0,1,2.858,8.788A16.674,16.674,0,0,1,3.353,8.984C.495,5.056-.781,1.121.495.2S5.126,1.7,7.976,5.622Z" transform="translate(920.798 555.902) rotate(20)" fill="#00897b"/>
      <path id="Path_476" data-name="Path 476" d="M8.367,8.443A16.674,16.674,0,0,1,0,12.371,16.674,16.674,0,0,1,4.455,4.278C7.993.962,11.745-.8,12.823.35S11.906,5.126,8.367,8.443Z" transform="translate(703.028 552.096)" fill="#00897b"/>
    </g>
    <g id="small_rock" data-name="small rock">
      <path id="Path_430" data-name="Path 430" d="M1037.51,727.653s13.075-2.6,16.559-6.06,19.18-9.521,20.922-5.2,23.536,19.043,8.719,21.633-34.868,3.462-39.224,1.735S1037.51,727.653,1037.51,727.653Z" transform="translate(-154.107 -214.035)" fill="#a8a8a8"/>
      <path id="Path_431" data-name="Path 431" d="M1083.741,740.344c-14.817,2.6-34.868,3.462-39.224,1.735-3.316-1.322-5.624-7.642-6.541-10.6l-.436.092s2.613,10.385,6.977,12.119,24.407.864,39.224-1.735c4.279-.764,5.5-2.506,5.043-4.738C1088.394,738.663,1086.9,739.786,1083.741,740.344Z" transform="translate(-154.114 -217.946)" opacity="0.2"/>
    </g>
    <g id="tree_top-2" data-name="tree top">
      <circle id="Ellipse_64" data-name="Ellipse 64" cx="78.119" cy="78.119" r="78.119" transform="translate(752.801 191.306)" fill="#00897b"/>
      <circle id="Ellipse_65" data-name="Ellipse 65" cx="78.119" cy="78.119" r="78.119" transform="translate(669.722 169.963)" fill="#00897b"/>
      <circle id="Ellipse_66" data-name="Ellipse 66" cx="78.119" cy="78.119" r="78.119" transform="translate(578.268 170.727)" fill="#00897b"/>
      <circle id="Ellipse_67" data-name="Ellipse 67" cx="78.119" cy="78.119" r="78.119" transform="translate(548.543 191.306)" fill="#00897b"/>
      <circle id="Ellipse_68" data-name="Ellipse 68" cx="78.119" cy="78.119" r="78.119" transform="translate(498.239 198.168)" fill="#00897b"/>
      <circle id="Ellipse_69" data-name="Ellipse 69" cx="78.119" cy="78.119" r="78.119" transform="translate(477.66 136.432)" fill="#00897b"/>
      <circle id="Ellipse_70" data-name="Ellipse 70" cx="78.119" cy="78.119" r="78.119" transform="translate(500.524 64.785)" fill="#00897b"/>
      <circle id="Ellipse_71" data-name="Ellipse 71" cx="78.119" cy="78.119" r="78.119" transform="translate(543.966 64.785)" fill="#00897b"/>
      <circle id="Ellipse_72" data-name="Ellipse 72" cx="78.119" cy="78.119" r="78.119" transform="translate(569.122 32.775)" fill="#00897b"/>
      <circle id="Ellipse_73" data-name="Ellipse 73" cx="78.119" cy="78.119" r="78.119" transform="translate(633.142 67.834)" fill="#00897b"/>
      <circle id="Ellipse_74" data-name="Ellipse 74" cx="78.119" cy="78.119" r="78.119" transform="translate(782.527 136.432)" fill="#00897b"/>
      <circle id="Ellipse_75" data-name="Ellipse 75" cx="78.119" cy="78.119" r="78.119" transform="translate(737.556 97.559)" fill="#00897b"/>
      <circle id="Ellipse_76" data-name="Ellipse 76" cx="78.119" cy="78.119" r="78.119" transform="translate(708.595 58.687)" fill="#00897b"/>
      <circle id="Ellipse_77" data-name="Ellipse 77" cx="78.119" cy="78.119" r="78.119" transform="translate(653.721 0)" fill="#00897b"/>
      <circle id="Ellipse_78" data-name="Ellipse 78" cx="78.119" cy="78.119" r="78.119" transform="translate(755.85 64.785)" fill="#00897b"/>
    </g>
    <g id="tree_shadows" data-name="tree shadows">
      <path id="Path_432" data-name="Path 432" d="M1034.568,259.477s-72.755-34.5-116.778,26.646" transform="translate(-125.872 -104.339)" opacity="0.1"/>
      <path id="Path_433" data-name="Path 433" d="M790.813,171s-80.481-2.43-96.283,71.234" transform="translate(-73.217 -85.756)" opacity="0.1"/>
      <path id="Path_434" data-name="Path 434" d="M653.568,377.165s-72.755-34.509-116.778,26.623" transform="translate(-36.014 -132.093)" opacity="0.1"/>
      <path id="Path_474" data-name="Path 474" d="M863.855,606.818a27.174,27.174,0,0,1-10.117-10.851,2.445,2.445,0,0,1-.374-1.674c.283-1.085,1.7-1.276,2.72-1.742,1.9-.871,2.705-3.057,3.951-4.753a9.514,9.514,0,0,1,9.3-3.569c1.819.367,3.5,1.268,5.349,1.528,3.958.581,8.268-1.819,11.821,0a10.233,10.233,0,0,1,3.683,3.943c2.422,3.874,5.456,7.993,3.255,12.517a9.776,9.776,0,0,1-6.113,5.51c-2.835.757-6.113.122-9-.183a37.235,37.235,0,0,0-7.244-.55C868.271,607.285,866.522,608.423,863.855,606.818Z" transform="translate(-110.671 -177.83)" opacity="0.1"/>
    </g>
  </g>
</svg>
