<svg xmlns="http://www.w3.org/2000/svg" width="256.21" height="73" viewBox="0 0 256.21 73">
  <g id="mongodb" transform="translate(0 -0.203)">
    <path id="Path_926" data-name="Path 926" d="M429.394,57.93c-.23.046-.462.555-.462.832-.046,1.85-.092,6.75-.092,10.079a.343.343,0,0,0,.277.278c.693.046,2.358.092,3.791.092a9.9,9.9,0,0,0,3.791-.554,4.911,4.911,0,0,0,2.45-4.624c0-4.484-3.144-6.195-7.813-6.195a7.415,7.415,0,0,0-1.942.093ZM441.322,78.6c0-4.577-3.375-7.12-9.478-7.12-.278,0-2.219-.046-2.682.046-.139.047-.323.139-.323.278,0,3.282-.047,8.507.092,10.541a3.488,3.488,0,0,0,1.526,2.5,10.582,10.582,0,0,0,4.022.555c3.652,0,6.842-2.034,6.842-6.8ZM419.963,55.387c.462,0,1.849.138,5.409.138,3.375,0,6.056-.092,9.339-.092,4.022,0,9.57,1.433,9.57,7.443,0,2.959-2.081,5.317-4.808,6.473-.138.046-.138.138,0,.184,3.883.971,7.3,3.375,7.3,7.906,0,4.439-2.774,7.259-6.8,9.016a22.114,22.114,0,0,1-8.6,1.433c-2.358,0-8.692-.277-12.205-.184-.37-.139.324-1.8.647-2.081a8.63,8.63,0,0,0,2.358-.37c1.248-.323,1.387-.693,1.572-2.589.093-1.618.093-7.351.093-11.419,0-5.594.047-9.385,0-11.234-.046-1.433-.555-1.9-1.572-2.173-.787-.138-2.081-.324-3.144-.462-.231-.231.555-1.8.833-1.988ZM393.287,84.144c1.11.878,3.283,1.247,5.225,1.247a10.243,10.243,0,0,0,7.4-2.635c2.45-2.218,4.161-5.64,4.161-11.095,0-5.225-1.988-9.478-6.056-11.974a16.354,16.354,0,0,0-8.692-2.034,6.928,6.928,0,0,0-2.589.323,1.359,1.359,0,0,0-.462.739c-.093.925-.093,8.044-.093,12.206,0,4.3,0,10.31.093,11a2.867,2.867,0,0,0,1.017,2.219ZM382.792,55.387c.879,0,4.253.139,5.872.139,2.913,0,4.993-.138,10.495-.138,4.623,0,8.507,1.248,11.281,3.606a14.99,14.99,0,0,1,5.132,11.835c0,6.981-3.19,11-6.381,13.315-3.189,2.358-7.35,3.744-13.268,3.744-3.144,0-8.553-.092-13.038-.139h-.046c-.231-.416.37-2.034.739-2.08a7.37,7.37,0,0,0,2.127-.416c.97-.37,1.156-.879,1.295-2.589.138-3.19.092-7.027.092-11.373,0-3.1.046-9.154-.047-11.1-.138-1.618-.832-2.034-2.219-2.312-.693-.138-1.618-.324-2.912-.462-.185-.324.647-1.757.878-2.034Z" transform="translate(-190.567 -27.538)" fill="#8e714e" fill-rule="evenodd"/>
    <path id="Path_927" data-name="Path 927" d="M177.534,96.63a9.3,9.3,0,0,1-3-.786,1.409,1.409,0,0,1-.37-.74c-.092-1.618-.092-6.241-.092-9.338a10.9,10.9,0,0,0-1.479-6.2,6.312,6.312,0,0,0-5.363-2.774c-2.034,0-4.762,1.387-7.027,3.329-.046.046-.416.37-.37-.139,0-.508.093-1.526.139-2.219a1.2,1.2,0,0,0-.324-.97,30.856,30.856,0,0,1-7.166,1.849c-1.109.232-1.387,1.3-.23,1.665h.046a10.258,10.258,0,0,1,2.727,1.2,1.438,1.438,0,0,1,.416,1.295c.046,3.467.046,8.784-.092,11.7-.046,1.156-.37,1.572-1.2,1.756l.093-.046a18.254,18.254,0,0,1-1.942.37,2.7,2.7,0,0,0,0,2.081c.508,0,3.19-.139,5.41-.139,3.051,0,4.623.139,5.409.139a3.01,3.01,0,0,0,.231-2.081,8.559,8.559,0,0,1-2.127-.324c-.832-.185-1.064-.6-1.11-1.572-.092-2.451-.092-7.629-.092-11.142a2.229,2.229,0,0,1,.554-1.711,7,7,0,0,1,4.3-1.572,4.78,4.78,0,0,1,3.19,1.064,4.546,4.546,0,0,1,1.479,2.912c.231,1.988.139,5.918.139,9.339,0,1.849-.139,2.312-.832,2.543a8.8,8.8,0,0,1-2.127.416,2.707,2.707,0,0,0,0,2.081c1.341,0,2.913-.139,5.224-.139,2.866,0,4.716.139,5.456.139a3.225,3.225,0,0,0,.138-1.988ZM190.34,78.97c-2.45,0-3.976,1.9-3.976,4.854,0,3.005,1.341,6.473,5.132,6.473a3.582,3.582,0,0,0,2.4-.925,6.122,6.122,0,0,0,1.48-4.253c0-3.837-1.9-6.149-5.039-6.149ZM190.016,99.4a3.974,3.974,0,0,0-1.988.509c-1.942,1.247-2.82,2.45-2.82,3.884a4.089,4.089,0,0,0,1.618,3.328,8.214,8.214,0,0,0,5.547,1.711c4.716,0,6.8-2.543,6.8-5.039a3.533,3.533,0,0,0-2.681-3.56,18.673,18.673,0,0,0-6.473-.833Zm.324,12.021a10.229,10.229,0,0,1-6.611-1.942,6.093,6.093,0,0,1-2.45-4.577,3.542,3.542,0,0,1,.925-2.312,24.517,24.517,0,0,1,4.253-3.421c.092-.046.138-.092.138-.185a.306.306,0,0,0-.185-.23,4.4,4.4,0,0,1-3.005-2.913v-.093c-.046-.278-.138-.555.278-.832.324-.231.786-.508,1.294-.832A18.992,18.992,0,0,0,187.1,92.7a.338.338,0,0,0,.093-.277.306.306,0,0,0-.185-.231c-3.235-1.064-4.854-3.468-4.854-7.074a7.019,7.019,0,0,1,2.958-5.825,13.593,13.593,0,0,1,6.658-2.265h.139A14.177,14.177,0,0,1,197,78.138,8.558,8.558,0,0,0,200,78.6a4,4,0,0,0,3.235-1.2,2.51,2.51,0,0,1,.185.924,3.492,3.492,0,0,1-.6,2.127,2.626,2.626,0,0,1-2.034.879h-.231a10.3,10.3,0,0,1-1.2-.185l-.184.093c-.046.093,0,.185.046.324l.047.093a17.065,17.065,0,0,1,.277,1.988c0,3.791-1.525,5.455-3.144,6.7a10.646,10.646,0,0,1-5.409,2.081,5.823,5.823,0,0,0-.647.046c-.231,0-.555.047-.6.047h-.046c-.37.092-1.294.555-1.294,1.34,0,.693.416,1.526,2.4,1.665.416.046.832.046,1.295.093a40.531,40.531,0,0,1,7.443.924,5.181,5.181,0,0,1,3.467,4.947c0,3.422-2.45,6.612-6.518,8.6a14.873,14.873,0,0,1-6.149,1.341ZM216.692,79.2a4.294,4.294,0,0,0-2.5.693c-1.8,1.11-2.727,3.329-2.727,6.565,0,6.057,3.051,10.31,7.4,10.31a4.7,4.7,0,0,0,3.19-1.11c1.341-1.11,2.035-3.329,2.035-6.427,0-6.01-3.005-10.032-7.4-10.032Zm.833,19.787c-7.859,0-10.68-5.779-10.68-11.188a10.009,10.009,0,0,1,4.577-8.784,13.916,13.916,0,0,1,7.074-2.08c6.01,0,10.217,4.3,10.217,10.495,0,4.207-1.664,7.535-4.855,9.57a12.82,12.82,0,0,1-6.334,1.988h0ZM135.139,79.2a4.3,4.3,0,0,0-2.5.693c-1.8,1.11-2.727,3.329-2.727,6.565,0,6.057,3.051,10.31,7.4,10.31a4.706,4.706,0,0,0,3.19-1.11c1.34-1.11,2.034-3.329,2.034-6.427C142.536,83.223,139.577,79.2,135.139,79.2Zm.832,19.787c-7.859,0-10.68-5.779-10.68-11.188a10.009,10.009,0,0,1,4.576-8.784,13.916,13.916,0,0,1,7.074-2.08c6.01,0,10.217,4.3,10.217,10.495,0,4.207-1.664,7.535-4.855,9.57A12.524,12.524,0,0,1,135.971,98.988Zm-52.843-.462a1.976,1.976,0,0,1-.139-1.063,1.562,1.562,0,0,1,.139-.693,17.056,17.056,0,0,0,2.034-.416c.925-.231,1.295-.739,1.341-1.9.139-2.774.139-8.045.093-11.7v-.093a1.4,1.4,0,0,0-.508-1.295,10.446,10.446,0,0,0-2.774-1.2c-.416-.138-.693-.369-.647-.646,0-.278.278-.6.879-.694a33.825,33.825,0,0,0,7.073-1.8,1.144,1.144,0,0,1,.231.74l-.046.508c-.047.509-.093,1.11-.093,1.711a.358.358,0,0,0,.37.324.651.651,0,0,0,.278-.093c2.959-2.312,5.64-3.144,7.027-3.144a5.985,5.985,0,0,1,5.364,3.282.348.348,0,0,0,.324.185.329.329,0,0,0,.277-.139c2.728-2.081,5.456-3.329,7.258-3.329,4.3,0,6.842,3.19,6.842,8.6,0,1.525,0,3.513-.046,5.317,0,1.618-.046,3.1-.046,4.161a1.455,1.455,0,0,0,.832,1.109,9.872,9.872,0,0,0,2.682.647h.046a3.708,3.708,0,0,1-.277,1.757,11.36,11.36,0,0,1-1.156-.046q-1.755-.092-3.514-.093c-2.866,0-4.346.046-5.779.139a4.511,4.511,0,0,1,0-1.757,14.354,14.354,0,0,0,1.757-.416c.925-.278,1.156-.694,1.2-1.9,0-.878.184-8.368-.093-10.171a4.558,4.558,0,0,0-4.716-4.022,8.2,8.2,0,0,0-4.715,1.8.825.825,0,0,0-.185.462v.047a21.291,21.291,0,0,1,.185,3.791v3c0,2.081-.047,4.022,0,5.5a1.355,1.355,0,0,0,1.11,1.434c.278.046.462.092.693.138.416.093.832.185,1.479.324a2.5,2.5,0,0,1-.046,1.295.887.887,0,0,1-.185.462c-1.572-.046-3.19-.093-5.547-.093-.693,0-1.9.047-2.913.047-.833,0-1.618.046-2.08.046A2.439,2.439,0,0,1,97,97.74a1.44,1.44,0,0,1,.185-.832,3.126,3.126,0,0,1,.647-.092c.554-.093,1.017-.185,1.479-.278.787-.231,1.064-.647,1.11-1.664a80.236,80.236,0,0,0-.046-10.587c-.555-2.681-2.08-4.022-4.531-4.022a8.483,8.483,0,0,0-4.715,1.8,1.493,1.493,0,0,0-.416,1.063v2.728c0,3.329,0,7.49.046,9.293a1.434,1.434,0,0,0,1.295,1.433,9.678,9.678,0,0,0,1.064.185l.832.138a3.877,3.877,0,0,1-.138,1.757c-.462,0-1.017-.046-1.665-.046-.97-.047-2.219-.093-3.606-.093-1.618,0-2.774.046-3.7.093a11.169,11.169,0,0,0-1.71-.093Z" transform="translate(-41.249 -38.222)" fill="#442d22" fill-rule="evenodd"/>
    <path id="Path_928" data-name="Path 928" d="M29.15,80.3l-1.9-.648s.231-9.662-3.236-10.355c-2.311-2.682.371-113.73,8.692-.37,0,0-2.867,1.433-3.375,3.884-.555,2.4-.185,7.49-.185,7.49Z" transform="translate(-11.589 -8.903)" fill="#fff" fill-rule="evenodd"/>
    <path id="Path_929" data-name="Path 929" d="M29.15,80.3l-1.9-.648s.231-9.662-3.236-10.355c-2.311-2.682.371-113.73,8.692-.37,0,0-2.867,1.433-3.375,3.884-.555,2.4-.185,7.49-.185,7.49Z" transform="translate(-11.589 -8.903)" fill="#a6a385" fill-rule="evenodd"/>
    <path id="Path_930" data-name="Path 930" d="M34.183,62.246S50.78,51.335,46.9,28.635C43.152,12.131,34.322,6.722,33.351,4.641A23.339,23.339,0,0,1,31.27.573l.694,45.907c0,.047-1.433,14.055,2.219,15.766" transform="translate(-15.604 -0.185)" fill="#fff" fill-rule="evenodd"/>
    <path id="Path_931" data-name="Path 931" d="M34.183,62.246S50.78,51.335,46.9,28.635C43.152,12.131,34.322,6.722,33.351,4.641A23.339,23.339,0,0,1,31.27.573l.694,45.907c0,.047-1.433,14.055,2.219,15.766" transform="translate(-15.604 -0.185)" fill="#499d4a" fill-rule="evenodd"/>
    <path id="Path_932" data-name="Path 932" d="M14.7,62.662S-.885,52.028.04,33.305C.918,14.581,11.921,5.381,14.048,3.717A4.3,4.3,0,0,0,15.574.2c.971,2.081.786,31.114.924,34.535C16.914,47.914,15.758,60.166,14.7,62.662Z" transform="translate(0)" fill="#fff" fill-rule="evenodd"/>
    <path id="Path_933" data-name="Path 933" d="M14.7,62.662S-.885,52.028.04,33.305C.918,14.581,11.921,5.381,14.048,3.717A4.3,4.3,0,0,0,15.574.2c.971,2.081.786,31.114.924,34.535C16.914,47.914,15.758,60.166,14.7,62.662Z" transform="translate(0)" fill="#58aa50" fill-rule="evenodd"/>
  </g>
</svg>
