<svg xmlns="http://www.w3.org/2000/svg" width="160.332" height="142.663" viewBox="0 0 160.332 142.663">
  <g id="ReactLogo" transform="translate(-18.5 -50.213)">
    <circle id="Ellipse_3" data-name="Ellipse 3" cx="14.327" cy="14.327" r="14.327" transform="translate(84.368 107.059)" fill="#00d8ff"/>
    <g id="Group_20" data-name="Group 20" transform="translate(18.5 88.851)">
      <path id="Path_265" data-name="Path 265" d="M98.695,250.954c-20.12,0-37.7-2.369-50.856-6.878-8.533-2.911-15.782-6.792-20.948-11.216-5.479-4.68-8.39-9.789-8.39-14.726,0-9.475,10.388-18.75,27.826-24.8,14.269-4.966,32.877-7.734,52.34-7.734,19.121,0,37.472,2.683,51.656,7.591,8.3,2.854,15.3,6.564,20.263,10.674,5.394,4.509,8.248,9.446,8.248,14.269,0,9.846-11.615,19.806-30.337,26C135.253,248.528,117.559,250.954,98.695,250.954Zm0-58.5c-18.465,0-36.73,2.683-50.086,7.334-16.039,5.594-23.231,13.242-23.231,18.351,0,5.308,7.734,13.67,24.686,19.464,12.443,4.252,29.281,6.507,48.63,6.507,18.151,0,35.074-2.283,47.66-6.478,17.609-5.85,25.657-14.212,25.657-19.492,0-2.711-2.055-5.908-5.793-9.018-4.309-3.6-10.588-6.878-18.094-9.475C134.625,195.018,117.074,192.449,98.695,192.449Z" transform="translate(-18.5 -185.6)" fill="#00d8ff"/>
    </g>
    <g id="Group_21" data-name="Group 21" transform="translate(49.51 50.212)">
      <path id="Path_266" data-name="Path 266" d="M143.838,192.79a15.047,15.047,0,0,1-7.648-1.884c-8.191-4.737-11.045-18.379-7.591-36.5,2.825-14.869,9.732-32.335,19.464-49.2,9.561-16.553,21.033-31.107,32.363-40.953,6.621-5.765,13.328-9.989,19.378-12.215,6.592-2.426,12.3-2.426,16.467-.029,8.533,4.909,11.358,19.977,7.363,39.27-2.825,13.7-9.561,30.223-18.978,46.576-10.046,17.409-20.891,31.45-31.364,40.611-6.792,5.936-13.784,10.274-20.177,12.529A27.817,27.817,0,0,1,143.838,192.79ZM151,106.916l2.968,1.712c-9.218,15.982-16.039,33.134-18.665,47.061-3.168,16.7-.114,26.741,4.281,29.281a8.446,8.446,0,0,0,4.252.97c5.679,0,14.612-3.6,24.943-12.614,9.9-8.647,20.263-22.118,29.937-38.87,9.075-15.725,15.525-31.536,18.208-44.521,3.739-18.179.514-29.31-4.081-31.964-2.34-1.341-6.136-1.17-10.7.514-5.28,1.941-11.244,5.736-17.238,10.959-10.759,9.361-21.747,23.288-30.936,39.213Z" transform="translate(-127.159 -50.212)" fill="#00d8ff"/>
    </g>
    <g id="Group_22" data-name="Group 22" transform="translate(49.546 50.35)">
      <path id="Path_267" data-name="Path 267" d="M208.939,193.221c-7.763,0-17.609-4.68-27.883-13.527-11.473-9.874-23.145-24.572-32.905-41.439h0c-9.589-16.553-16.438-33.762-19.321-48.516-1.684-8.619-2-16.524-.913-22.888,1.2-6.935,4.024-11.872,8.219-14.3,8.5-4.937,22.974.143,37.7,13.242,10.445,9.275,21.4,23.373,30.851,39.7,10.074,17.409,16.838,33.819,19.521,47.46,1.741,8.847,2.026,17.066.8,23.744-1.313,7.106-4.281,12.158-8.562,14.64A14.658,14.658,0,0,1,208.939,193.221ZM154.087,134.83c9.247,15.982,20.719,30.451,31.45,39.669,12.871,11.073,23.088,13.47,27.512,10.9,4.595-2.654,7.962-13.527,4.481-31.108-2.569-12.9-9.047-28.6-18.75-45.348C189.675,93.22,179.2,79.721,169.3,70.931c-13.87-12.329-25.114-15.1-29.709-12.443-2.34,1.341-4.081,4.737-4.909,9.532-.942,5.537-.656,12.614.885,20.405,2.74,14.013,9.3,30.48,18.522,46.4Z" transform="translate(-127.284 -50.696)" fill="#00d8ff"/>
    </g>
  </g>
</svg>
