<svg xmlns="http://www.w3.org/2000/svg" width="357.175" height="517.082" viewBox="0 0 357.175 517.082">
  <g id="thinkertwo" transform="translate(-919 -510)">
    <circle id="Ellipse_154" data-name="Ellipse 154" cx="75" cy="75" r="75" transform="translate(919 510)" fill="#2e3847"/>
    <circle id="Ellipse_155" data-name="Ellipse 155" cx="37.5" cy="37.5" r="37.5" transform="translate(994 669)" fill="#00d8ff"/>
    <circle id="Ellipse_157" data-name="Ellipse 157" cx="12.5" cy="12.5" r="12.5" transform="translate(1078 731)" fill="#2e3847"/>
    <g id="Thinker" transform="translate(770.588 756)">
      <path id="Neck" d="M470.683,525a49.1,49.1,0,0,1,7.651,4.845,16.453,16.453,0,0,1,5.324,7.206,66.386,66.386,0,0,0,3.294-9.742,162.056,162.056,0,0,1,6.727-17.506,23.327,23.327,0,0,1-10.587-8.13c-5.228,5.185-10.552,10.587-13.14,17.428-.445,1.185-1.743,2.449-2.048,3.486C467.494,524.126,469.55,524.37,470.683,525Z" transform="translate(-109.083 -464.815)" fill="#ffbfc5"/>
      <path id="Ball" d="M454.313,713.2c0,38.881-28.05,43-62.661,43S329,752.082,329,713.2s28.05-53.651,62.652-53.651S454.313,674.329,454.313,713.2Z" transform="translate(51.274 -485.122)" fill="#00d8ff"/>
      <path id="Back_Sock" data-name="Back Sock" d="M555.707,673.323a47.983,47.983,0,0,0-15.633,8.365,1.611,1.611,0,0,0-.706.958c-.122.871,1.08,1.263,1.952,1.516,2.614.741,4.209,3.154,6.1,5.037s4.923,3.372,7.128,1.865a6.97,6.97,0,0,0,1.5-1.577l9.306-12.13A56.362,56.362,0,0,0,555.445,673" transform="translate(-243.07 -486.851)" fill="#f1f1f1"/>
      <path id="Back_Shoe" data-name="Back Shoe" d="M574.448,676.041c-1.237,1.255-1.743,3.067-2.98,4.357a10.663,10.663,0,0,1-2.754,1.908l-7.128,3.921a19.706,19.706,0,0,1-3.486,1.63,30.924,30.924,0,0,1-4.087.871,29.45,29.45,0,0,0-5.769,1.743c-1.394.575-2.954,1.56-2.945,3.067a3.328,3.328,0,0,0,.871,1.987c2.806,3.538,7.781,4.357,12.278,4.8,9.725,1.028,19.676,1.795,29.182-.5a12.45,12.45,0,0,0,5.132-2.222c2.867-2.379,3.486-6.71,2.37-10.273a5.56,5.56,0,0,0-2.266-3.372c-1.507-.871-3.381-.462-5.115-.593a16.137,16.137,0,0,1-5.228-1.682c-1.089-.488-2.335-1.124-2.614-2.414s1.194-2.4.871-3.486C580.173,673.358,575.581,674.883,574.448,676.041Z" transform="translate(-278.551 -487.044)" fill="#575a89"/>
      <path id="Back_Shoe_Shader" data-name="Back Shoe Shader" d="M574.448,676.041c-1.237,1.255-1.743,3.067-2.98,4.357a10.663,10.663,0,0,1-2.754,1.908l-7.128,3.921a19.706,19.706,0,0,1-3.486,1.63,30.924,30.924,0,0,1-4.087.871,29.45,29.45,0,0,0-5.769,1.743c-1.394.575-2.954,1.56-2.945,3.067a3.328,3.328,0,0,0,.871,1.987c2.806,3.538,7.781,4.357,12.278,4.8,9.725,1.028,19.676,1.795,29.182-.5a12.45,12.45,0,0,0,5.132-2.222c2.867-2.379,3.486-6.71,2.37-10.273a5.56,5.56,0,0,0-2.266-3.372c-1.507-.871-3.381-.462-5.115-.593a16.137,16.137,0,0,1-5.228-1.682c-1.089-.488-2.335-1.124-2.614-2.414s1.194-2.4.871-3.486C580.173,673.358,575.581,674.883,574.448,676.041Z" transform="translate(-278.551 -487.044)" opacity="0.1"/>
      <path id="Front_Socks" data-name="Front Socks" d="M568.074,719.664l-3,1.978a5.358,5.358,0,0,0-2.17,2.143c-.654,1.525.227,3.25,1.2,4.592a26.385,26.385,0,0,0,11.537,8.94,17.193,17.193,0,0,0,5.01,1.246,2.089,2.089,0,0,0,1.159-.139c.915-.488.784-1.786.793-2.823,0-2.989,2.292-5.42,4.357-7.625s4.1-4.906,3.634-7.842a9.758,9.758,0,0,0-2.614-4.6,18.809,18.809,0,0,0-3.921-3.7c-2.117-1.385-2.858-.636-4.845.627Q573.616,716.022,568.074,719.664Z" transform="translate(-288.706 -491.75)" fill="#f1f1f1"/>
      <path id="Front_Shoe" data-name="Front Shoe" d="M622.917,735.538a5.342,5.342,0,0,1-4.714-1.063,11.809,11.809,0,0,1-3.058-3.939,32.013,32.013,0,0,1-1.9-4.165c-.627-1.682-1.2-3.538-2.684-4.557-1.743-1.237-4.3-.749-6.1.445a33.614,33.614,0,0,0-4.7,4.5c-3.634,3.625-8.417,5.917-13.332,7.415a144.5,144.5,0,0,1-15.057,3.215,8.539,8.539,0,0,0-2.893.932c-2.039,1.246-2.727,4.026-2.152,6.344a13.86,13.86,0,0,0,3.729,5.978,15.022,15.022,0,0,0,4.993,3.86,15.94,15.94,0,0,0,5.045.958,86.167,86.167,0,0,0,24.921-1.952,66.683,66.683,0,0,1,9.132-1.821c1.873-.166,3.773-.113,5.646-.244a29.727,29.727,0,0,0,10.788-2.841,3.809,3.809,0,0,0,1.961-1.638,4.028,4.028,0,0,0,.148-2.161l-1.246-10.927c-.113-.95-.427-2.135-1.377-2.283s-1.551.784-2.118,1.5a7.729,7.729,0,0,1-9.245,2.022" transform="translate(-333.825 -493.037)" fill="#575a89"/>
      <path id="Back_Leg" data-name="Back Leg" d="M492.41,579.483c-5.481-.619-11.842-.723-15.554,3.364-2.274,2.51-2.963,6.021-3.747,9.306a60.436,60.436,0,0,1-5.943,15.824c-1.743,3.085-3.86,5.969-5.228,9.245s-1.882,6.971-2.684,10.535A63.558,63.558,0,0,1,437,663.17c1.978,5.376,7.7,8.452,13.271,9.829a7.313,7.313,0,0,0,4.156.131,7.427,7.427,0,0,0,2.693-1.987,92.378,92.378,0,0,0,7.259-8.9c8.025-10.718,16.164-21.654,20.538-34.3,1.534-4.444,3.067-9.585,7.381-11.476,2.457-1.063,5.272-.732,7.912-.279a107.256,107.256,0,0,1,17.358,4.453c6.03,2.1,12.931,4.679,18.447,1.473,3.3-1.926,5.228-5.611,5.986-9.359s.375-7.616,0-11.415a11.754,11.754,0,0,0-1.2-4.932,10.69,10.69,0,0,0-2.884-2.919,59.391,59.391,0,0,0-16.242-8.714c-5.568-1.969-11.563-2.614-17.375-3.6Q498.379,580.154,492.41,579.483Z" transform="translate(-130.959 -474.782)" fill="#575a89"/>
      <path id="Back_Leg_Shader" data-name="Back Leg Shader" d="M492.41,579.483c-5.481-.619-11.842-.723-15.554,3.364-2.274,2.51-2.963,6.021-3.747,9.306a60.436,60.436,0,0,1-5.943,15.824c-1.743,3.085-3.86,5.969-5.228,9.245s-1.882,6.971-2.684,10.535A63.558,63.558,0,0,1,437,663.17c1.978,5.376,7.7,8.452,13.271,9.829a7.313,7.313,0,0,0,4.156.131,7.427,7.427,0,0,0,2.693-1.987,92.378,92.378,0,0,0,7.259-8.9c8.025-10.718,16.164-21.654,20.538-34.3,1.534-4.444,3.067-9.585,7.381-11.476,2.457-1.063,5.272-.732,7.912-.279a107.256,107.256,0,0,1,17.358,4.453c6.03,2.1,12.931,4.679,18.447,1.473,3.3-1.926,5.228-5.611,5.986-9.359s.375-7.616,0-11.415a11.754,11.754,0,0,0-1.2-4.932,10.69,10.69,0,0,0-2.884-2.919,59.391,59.391,0,0,0-16.242-8.714c-5.568-1.969-11.563-2.614-17.375-3.6Q498.379,580.154,492.41,579.483Z" transform="translate(-130.959 -474.782)" opacity="0.1"/>
      <path id="Hand" d="M10.648,20.6a28.3,28.3,0,0,0,6.971-4.923A25.017,25.017,0,0,0,22.342,7.2a10.291,10.291,0,0,0,.819-3.276A3.721,3.721,0,0,0,21.95.89,5.429,5.429,0,0,0,18.526.018c-1.586,0-3.181,0-4.766.122a7.965,7.965,0,0,0-2.823.54,7.841,7.841,0,0,0-2.2,1.664A30.873,30.873,0,0,0,1.987,11.46C.837,14-1.063,19.851.749,22.491S8.679,21.725,10.648,20.6Z" transform="translate(315.079 148.686) rotate(-135)" fill="#ffbfc5"/>
      <path id="Front_Leg" data-name="Front Leg" d="M489.112,623.87c-8.113,2.614-16.748,2.893-25.226,3.686a210.683,210.683,0,0,0-42.044,8.313c-2.806.872-5.673,1.813-7.93,3.686a23.577,23.577,0,0,0-4.6,5.856,98.9,98.9,0,0,0-6.039,10.561c-1.542,3.294-2.719,6.745-4.148,10.082a70.852,70.852,0,0,1-22.107,28.311c-1.743,1.351-3.738,2.814-4.191,4.984a6.918,6.918,0,0,0,.653,4.1c2.091,4.871,6.431,8.417,10.988,11.127,1.952,1.168,4.113,2.344,5.071,4.418,6.919-2.858,12.069-8.958,16.347-15.092s8.086-12.748,13.576-17.837c2.414-2.248,5.159-4.2,7.067-6.9,2.9-4.113,3.686-9.742,7.59-12.914s9.585-2.762,14.63-2.266a359,359,0,0,0,77.684-.871c5.359-.636,10.866-1.455,15.511-4.218s8.261-7.921,7.607-13.28c-.619-5.019-4.793-8.993-9.455-10.953s-9.8-2.318-14.813-2.884C512.813,630.4,500.91,628.131,489.112,623.87Z" transform="translate(-82.165 -480.532)" fill="#575a89"/>
      <path id="Jacket" d="M467.4,619.2c-.636-4.252-2.283-8.278-3.32-12.452a75.3,75.3,0,0,0-1.969-7.781c0-.078-.061-.148-.087-.218a1.794,1.794,0,0,1-1.324-.758,2.195,2.195,0,0,1-.113-1.168,8.457,8.457,0,0,0,0-1.246,89.083,89.083,0,0,0-5.559-8.235c-3.486-4.976-6.553-10.265-9.585-15.545-2.492-4.357-4.984-8.661-7.041-13.21-1.551-3.407-2.849-6.971-4.557-10.265-6.1-11.851-17.009-20.591-28.756-26.865-11.276-6.021-23.466-10.073-35.317-14.866a8.03,8.03,0,0,0-.828.976c-6.4,8.757-7.093,20.26-9.733,30.786-1.063,4.252-2.483,8.487-2.483,12.862,0,6.465,3.093,12.478,6.169,18.168a98.216,98.216,0,0,0,9.681,15.45c1.812,2.248,3.808,4.357,5.629,6.579,7.476,9.158,11.79,20.425,15.99,31.483,2.422,6.4,6.4,12.077,9.062,18.386,1.028,2.422,1.621,5.028,2.91,7.328s3.529,4.3,6.161,4.357a9.233,9.233,0,0,0,2.274-.357c9.524-2.448,17.5-8.714,25.409-14.587,1.42-1.046,2.841-2.074,4.357-3.015s3.05-1.8,4.6-2.614l3.538-1.943c3.852-2.109,7.721-4.226,11.738-6.013a21.353,21.353,0,0,0,3.486-1.743A20.794,20.794,0,0,0,467.4,619.2Z" transform="translate(13.688 -465.448)" fill="#3f3d56"/>
      <circle id="Face" cx="21.941" cy="21.941" r="21.941" transform="translate(334.648 15.567)" fill="#ffbfc5"/>
      <path id="Hair" d="M474.22,486.619a5.228,5.228,0,0,1-5.4,2.536,7.572,7.572,0,0,1-5.045-3.6,14.231,14.231,0,0,1-1.865-6.047c-.183-1.664-.157-3.486.915-4.784a10.506,10.506,0,0,1,2.78-1.952,10.579,10.579,0,0,0,3.485-3.486c.61-1.02,1.054-2.126,1.6-3.172,2-3.79,5.882-6.875,10.16-6.736,2.056.07,4.017.871,6.047,1.2,6.806,1.194,14.195-2.405,20.512.4a19.17,19.17,0,0,1,4.287,2.858q2.667,2.2,5.124,4.636a10.579,10.579,0,0,1,3.119,4.54c.871,3.224-1.176,6.823.122,9.89a14.572,14.572,0,0,0,1.577,2.483c1.429,2.1-.122,10.3,0,12.836a4.749,4.749,0,0,1-.871,3.486c-1.037,1.159-2.771,1.255-4.357,1.272h-2.849a3.617,3.617,0,0,1-1.264-.131,3.825,3.825,0,0,1-1.438-1.1c-2.37-2.5-2.876-10.666-6.318-10.631a2.457,2.457,0,0,0-1.49.383c-.619.453-.8,1.3-1.246,1.926a3.642,3.642,0,0,1-4.226.993,9.534,9.534,0,0,1-3.6-2.91,14.177,14.177,0,0,0-3.364-3.215c-1.839-1.072-3.912-1.534-5.7-2.745-1.49-1.011-2.335-2.475-3.677-3.59s-2.475-.959-3.9-.218C475.275,482.889,475.187,484.7,474.22,486.619Z" transform="translate(-132.401 -459.375)" fill="#3f3d56"/>
      <path id="Arm_Shadow" data-name="Arm Shadow" d="M22.9,90.994a34.916,34.916,0,0,0,15.284-1.22,8.121,8.121,0,0,0,4.261-2.536,7.651,7.651,0,0,0,1.22-3.189A25.784,25.784,0,0,0,41.811,68.5a2.056,2.056,0,0,1-.253-1.656,2.929,2.929,0,0,1,.871-.871,3.032,3.032,0,0,0-.183-4.522c-.409-.3-.95-.558-1.028-1.054s.427-.976.828-1.359a4.871,4.871,0,0,0,1.359-4.479,9.818,9.818,0,0,1-.444-1.978,6.456,6.456,0,0,1,.723-2.361,10.335,10.335,0,0,0,.654-5.228,5.761,5.761,0,0,1-.061-2.553,5.943,5.943,0,0,1,.976-1.534c1.577-2.126,1.917-5.681-.366-6.971A5.289,5.289,0,0,0,47.7,28.481c1.368.723,3.024-.209,4.165-1.255s2.3-2.335,3.843-2.414c1.08-.052,2.222.505,3.2.061,1.5-.671,1.447-3.1,2.919-3.825,1.29-.645,3.093.4,4.191-.531.383-.322.575-.819.95-1.159.828-.767,2.135-.444,3.268-.392,2.675.1,5.141-1.743,6.527-3.991A19.432,19.432,0,0,0,79,7.333a10.117,10.117,0,0,0-.087-4.4A3.773,3.773,0,0,0,75.821.144C62.358-.727,49.07,2.506,35.955,5.695c-3.852.941-7.764,2.039-10.979,4.357-2.919,2.117-5.063,5.1-7.154,8.025-3.86,5.411-7.747,10.857-10.509,16.9C3.758,42.737,2.172,51.242.621,59.651a22.951,22.951,0,0,0-.566,6.884,19.511,19.511,0,0,0,3.032,7.546,82.168,82.168,0,0,0,6.1,8.653C12.559,86.89,17.6,90.236,22.9,90.994Z" transform="translate(397.409 167.683) rotate(-160)" opacity="0.1"/>
      <path id="Arm" d="M22.85,90.994a34.855,34.855,0,0,0,15.293-1.229A8.051,8.051,0,0,0,42.4,87.239a7.773,7.773,0,0,0,1.22-3.189A25.845,25.845,0,0,0,41.767,68.5a2.056,2.056,0,0,1-.253-1.656,2.927,2.927,0,0,1,.871-.871,3.032,3.032,0,0,0-.183-4.522c-.41-.3-.95-.558-1.028-1.054s.427-.976.871-1.359a4.871,4.871,0,0,0,1.359-4.479,9.817,9.817,0,0,1-.444-1.978,6.439,6.439,0,0,1,.715-2.361,10.256,10.256,0,0,0,.662-5.228,3.764,3.764,0,0,1,.915-4.087c1.577-2.126,1.917-5.681-.366-7.023A5.272,5.272,0,0,0,47.7,28.438c1.368.723,3.024-.209,4.165-1.255s2.3-2.335,3.843-2.414c1.081-.052,2.213.505,3.2.061,1.5-.68,1.446-3.1,2.919-3.834,1.29-.636,3.093.41,4.191-.523.383-.322.575-.819.95-1.159.828-.767,2.135-.444,3.268-.392,2.675.1,5.141-1.743,6.527-3.991A19.606,19.606,0,0,0,79,7.289a10.4,10.4,0,0,0-.087-4.357A3.773,3.773,0,0,0,75.821.144C62.358-.727,49.07,2.506,35.955,5.695c-3.852.941-7.773,2.039-10.979,4.357-2.919,2.109-5.063,5.1-7.154,8.025-3.86,5.4-7.747,10.849-10.509,16.887C3.758,42.737,2.172,51.242.621,59.642a23,23,0,0,0-.566,6.893A19.509,19.509,0,0,0,3.008,74.09a79.948,79.948,0,0,0,6.1,8.644C12.515,86.908,17.561,90.245,22.85,90.994Z" transform="translate(396.478 166.809) rotate(-160)" fill="#3f3d56"/>
    </g>
  </g>
</svg>
