<svg xmlns="http://www.w3.org/2000/svg" width="70.123" height="51.304" viewBox="0 0 70.123 51.304">
  <g id="Web_Development" data-name="Web Development" transform="translate(0 -68.701)">
    <path id="Path_57" data-name="Path 57" d="M85.861,158.984,73.968,170.877a2.054,2.054,0,0,0,0,2.905L84.706,184.52a2.054,2.054,0,0,0,2.905-2.905l-9.285-9.285,10.44-10.44a2.054,2.054,0,1,0-2.905-2.905Z" transform="translate(-63.318 -77.399)" fill="#fff"/>
    <path id="Path_58" data-name="Path 58" d="M326.462,158.985a2.054,2.054,0,1,0-2.905,2.905l9.285,9.285-10.44,10.44a2.054,2.054,0,1,0,2.905,2.905L337.2,172.628a2.054,2.054,0,0,0,0-2.905Z" transform="translate(-277.727 -77.4)" fill="#fff"/>
    <path id="Path_59" data-name="Path 59" d="M214.674,128.815a2.054,2.054,0,0,0-2.621,1.253l-10.863,30.76a2.054,2.054,0,1,0,3.874,1.368l10.863-30.76A2.054,2.054,0,0,0,214.674,128.815Z" transform="translate(-173.533 -51.779)" fill="#fff"/>
    <path id="Path_60" data-name="Path 60" d="M60.2,68.7H9.925A9.936,9.936,0,0,0,0,78.626v31.455a9.936,9.936,0,0,0,9.925,9.925H60.2a9.936,9.936,0,0,0,9.925-9.925V78.626A9.936,9.936,0,0,0,60.2,68.7Zm5.816,41.38A5.822,5.822,0,0,1,60.2,115.9H9.925a5.822,5.822,0,0,1-5.816-5.816V78.626A5.822,5.822,0,0,1,9.925,72.81H60.2a5.822,5.822,0,0,1,5.816,5.816Z" transform="translate(0)" fill="#fff"/>
  </g>
</svg>
