<svg xmlns="http://www.w3.org/2000/svg" width="473.242" height="213.17" viewBox="0 0 473.242 213.17">
  <g id="wireframe" transform="translate(-25.377 -17.092)">
    <path id="Path_40" data-name="Path 40" d="M853.019,385.452a3.166,3.166,0,1,0,0,6.333H932.41a3.167,3.167,0,0,0,.1-6.333h-79.5Z" transform="translate(-456.595 -289.981)" fill="#ff2bc2"/>
    <path id="Path_938" data-name="Path 938" d="M1034.7,383.635a.623.623,0,0,0,0,.881l2.675,2.675h-6.594a.623.623,0,0,0,0,1.246h6.6l-2.675,2.675a.623.623,0,1,0,.881.881l3.738-3.738a.623.623,0,0,0,0-.881l-3.738-3.738a.623.623,0,0,0-.885,0Z" transform="translate(-540.889 -289.046)" fill="#fff"/>
    <path id="Path_939" data-name="Path 939" d="M817.712,383.637a.623.623,0,0,1,0,.881l-2.675,2.675h6.6a.623.623,0,0,1,0,1.246h-6.6l2.675,2.675a.623.623,0,1,1-.881.881l-3.738-3.738a.623.623,0,0,1,0-.881l3.738-3.738A.623.623,0,0,1,817.712,383.637Z" transform="translate(-439.325 -289.047)" fill="#fff"/>
    <g id="Group_96" data-name="Group 96" transform="translate(396.227 22.948)" opacity="0.4">
      <circle id="Ellipse_163" data-name="Ellipse 163" cx="3.403" cy="3.403" r="3.403" fill="#fff"/>
      <circle id="Ellipse_164" data-name="Ellipse 164" cx="3.403" cy="3.403" r="3.403" transform="translate(14.178)" fill="#fff"/>
      <circle id="Ellipse_165" data-name="Ellipse 165" cx="3.403" cy="3.403" r="3.403" transform="translate(28.355)" fill="#fff"/>
      <circle id="Ellipse_166" data-name="Ellipse 166" cx="3.403" cy="3.403" r="3.403" transform="translate(42.533)" fill="#fff"/>
      <circle id="Ellipse_167" data-name="Ellipse 167" cx="3.403" cy="3.403" r="3.403" transform="translate(56.71)" fill="#fff"/>
      <circle id="Ellipse_168" data-name="Ellipse 168" cx="3.403" cy="3.403" r="3.403" transform="translate(70.888)" fill="#fff"/>
      <circle id="Ellipse_169" data-name="Ellipse 169" cx="3.403" cy="3.403" r="3.403" transform="translate(85.066)" fill="#fff"/>
      <circle id="Ellipse_170" data-name="Ellipse 170" cx="3.403" cy="3.403" r="3.403" transform="translate(0 10.775)" fill="#fff"/>
      <circle id="Ellipse_171" data-name="Ellipse 171" cx="3.403" cy="3.403" r="3.403" transform="translate(14.178 10.775)" fill="#fff"/>
      <circle id="Ellipse_172" data-name="Ellipse 172" cx="3.403" cy="3.403" r="3.403" transform="translate(28.355 10.775)" fill="#fff"/>
      <circle id="Ellipse_173" data-name="Ellipse 173" cx="3.403" cy="3.403" r="3.403" transform="translate(42.533 10.775)" fill="#fff"/>
      <circle id="Ellipse_174" data-name="Ellipse 174" cx="3.403" cy="3.403" r="3.403" transform="translate(56.71 10.775)" fill="#fff"/>
      <circle id="Ellipse_175" data-name="Ellipse 175" cx="3.403" cy="3.403" r="3.403" transform="translate(70.888 10.775)" fill="#fff"/>
      <circle id="Ellipse_176" data-name="Ellipse 176" cx="3.403" cy="3.403" r="3.403" transform="translate(85.066 10.775)" fill="#fff"/>
      <circle id="Ellipse_177" data-name="Ellipse 177" cx="3.403" cy="3.403" r="3.403" transform="translate(0 21.55)" fill="#fff"/>
      <circle id="Ellipse_178" data-name="Ellipse 178" cx="3.403" cy="3.403" r="3.403" transform="translate(14.178 21.55)" fill="#fff"/>
      <circle id="Ellipse_179" data-name="Ellipse 179" cx="3.403" cy="3.403" r="3.403" transform="translate(28.355 21.55)" fill="#fff"/>
      <circle id="Ellipse_180" data-name="Ellipse 180" cx="3.403" cy="3.403" r="3.403" transform="translate(42.533 21.55)" fill="#fff"/>
      <circle id="Ellipse_181" data-name="Ellipse 181" cx="3.403" cy="3.403" r="3.403" transform="translate(56.71 21.55)" fill="#fff"/>
      <circle id="Ellipse_182" data-name="Ellipse 182" cx="3.403" cy="3.403" r="3.403" transform="translate(70.888 21.55)" fill="#fff"/>
      <circle id="Ellipse_183" data-name="Ellipse 183" cx="3.403" cy="3.403" r="3.403" transform="translate(85.066 21.55)" fill="#fff"/>
      <circle id="Ellipse_184" data-name="Ellipse 184" cx="3.403" cy="3.403" r="3.403" transform="translate(0 32.325)" fill="#fff"/>
      <circle id="Ellipse_185" data-name="Ellipse 185" cx="3.403" cy="3.403" r="3.403" transform="translate(14.178 32.325)" fill="#fff"/>
      <circle id="Ellipse_186" data-name="Ellipse 186" cx="3.403" cy="3.403" r="3.403" transform="translate(0 43.1)" fill="#fff"/>
      <circle id="Ellipse_187" data-name="Ellipse 187" cx="3.403" cy="3.403" r="3.403" transform="translate(14.178 43.1)" fill="#fff"/>
      <circle id="Ellipse_188" data-name="Ellipse 188" cx="3.403" cy="3.403" r="3.403" transform="translate(28.355 43.1)" fill="#fff"/>
      <circle id="Ellipse_189" data-name="Ellipse 189" cx="3.403" cy="3.403" r="3.403" transform="translate(28.355 32.325)" fill="#fff"/>
      <circle id="Ellipse_190" data-name="Ellipse 190" cx="3.403" cy="3.403" r="3.403" transform="translate(42.533 32.325)" fill="#fff"/>
      <circle id="Ellipse_191" data-name="Ellipse 191" cx="3.403" cy="3.403" r="3.403" transform="translate(56.71 32.325)" fill="#fff"/>
      <circle id="Ellipse_192" data-name="Ellipse 192" cx="3.403" cy="3.403" r="3.403" transform="translate(70.888 32.325)" fill="#fff"/>
      <circle id="Ellipse_193" data-name="Ellipse 193" cx="3.403" cy="3.403" r="3.403" transform="translate(85.066 32.325)" fill="#fff"/>
    </g>
    <path id="Path_940" data-name="Path 940" d="M753.667,547.739a18.783,18.783,0,1,1,18.783-18.783A18.783,18.783,0,0,1,753.667,547.739Zm0-36.5a17.718,17.718,0,1,0,17.718,17.718,17.718,17.718,0,0,0-17.718-17.718Z" transform="translate(-402.848 -348.288)" fill="#ff2bc2"/>
    <path id="Path_941" data-name="Path 941" d="M769.456,535.743h-5.4v-5.4a1.8,1.8,0,0,0-3.6,0v5.4h-5.4a1.8,1.8,0,1,0,0,3.6h5.4v5.4a1.8,1.8,0,1,0,3.6,0v-5.4h5.4a1.8,1.8,0,0,0,0-3.6Z" transform="translate(-411.435 -356.876)" fill="#fff"/>
    <g id="Group_97" data-name="Group 97" transform="translate(25.377 129.525)" opacity="0.4">
      <circle id="Ellipse_194" data-name="Ellipse 194" cx="2.675" cy="2.675" r="2.675" transform="translate(0 66.881)" fill="#fff"/>
      <circle id="Ellipse_195" data-name="Ellipse 195" cx="2.675" cy="2.675" r="2.675" transform="translate(0 55.734)" fill="#fff"/>
      <circle id="Ellipse_196" data-name="Ellipse 196" cx="2.675" cy="2.675" r="2.675" transform="translate(0 44.587)" fill="#fff"/>
      <circle id="Ellipse_197" data-name="Ellipse 197" cx="2.675" cy="2.675" r="2.675" transform="translate(0 33.441)" fill="#fff"/>
      <circle id="Ellipse_198" data-name="Ellipse 198" cx="2.675" cy="2.675" r="2.675" transform="translate(0 22.294)" fill="#fff"/>
      <circle id="Ellipse_199" data-name="Ellipse 199" cx="2.675" cy="2.675" r="2.675" transform="translate(0 11.147)" fill="#fff"/>
      <circle id="Ellipse_200" data-name="Ellipse 200" cx="2.675" cy="2.675" r="2.675" fill="#fff"/>
      <circle id="Ellipse_201" data-name="Ellipse 201" cx="2.675" cy="2.675" r="2.675" transform="translate(8.472 66.881)" fill="#fff"/>
      <circle id="Ellipse_202" data-name="Ellipse 202" cx="2.675" cy="2.675" r="2.675" transform="translate(8.472 55.734)" fill="#fff"/>
      <circle id="Ellipse_203" data-name="Ellipse 203" cx="2.675" cy="2.675" r="2.675" transform="translate(8.472 44.587)" fill="#fff"/>
      <circle id="Ellipse_204" data-name="Ellipse 204" cx="2.675" cy="2.675" r="2.675" transform="translate(8.472 33.441)" fill="#fff"/>
      <circle id="Ellipse_205" data-name="Ellipse 205" cx="2.675" cy="2.675" r="2.675" transform="translate(8.472 22.294)" fill="#fff"/>
      <circle id="Ellipse_206" data-name="Ellipse 206" cx="2.675" cy="2.675" r="2.675" transform="translate(8.472 11.147)" fill="#fff"/>
      <circle id="Ellipse_207" data-name="Ellipse 207" cx="2.675" cy="2.675" r="2.675" transform="translate(8.472)" fill="#fff"/>
      <circle id="Ellipse_208" data-name="Ellipse 208" cx="2.675" cy="2.675" r="2.675" transform="translate(16.943 66.881)" fill="#fff"/>
      <circle id="Ellipse_209" data-name="Ellipse 209" cx="2.675" cy="2.675" r="2.675" transform="translate(16.943 55.734)" fill="#fff"/>
      <circle id="Ellipse_210" data-name="Ellipse 210" cx="2.675" cy="2.675" r="2.675" transform="translate(16.943 44.587)" fill="#fff"/>
      <circle id="Ellipse_211" data-name="Ellipse 211" cx="2.675" cy="2.675" r="2.675" transform="translate(16.943 33.441)" fill="#fff"/>
      <circle id="Ellipse_212" data-name="Ellipse 212" cx="2.675" cy="2.675" r="2.675" transform="translate(16.943 22.294)" fill="#fff"/>
      <circle id="Ellipse_213" data-name="Ellipse 213" cx="2.675" cy="2.675" r="2.675" transform="translate(16.943 11.147)" fill="#fff"/>
      <circle id="Ellipse_214" data-name="Ellipse 214" cx="2.675" cy="2.675" r="2.675" transform="translate(16.943)" fill="#fff"/>
      <circle id="Ellipse_215" data-name="Ellipse 215" cx="2.675" cy="2.675" r="2.675" transform="translate(25.415 66.881)" fill="#fff"/>
      <circle id="Ellipse_216" data-name="Ellipse 216" cx="2.675" cy="2.675" r="2.675" transform="translate(25.415 55.734)" fill="#fff"/>
      <circle id="Ellipse_217" data-name="Ellipse 217" cx="2.675" cy="2.675" r="2.675" transform="translate(33.886 66.881)" fill="#fff"/>
      <circle id="Ellipse_218" data-name="Ellipse 218" cx="2.675" cy="2.675" r="2.675" transform="translate(33.886 55.734)" fill="#fff"/>
      <circle id="Ellipse_219" data-name="Ellipse 219" cx="2.675" cy="2.675" r="2.675" transform="translate(33.886 44.587)" fill="#fff"/>
      <circle id="Ellipse_220" data-name="Ellipse 220" cx="2.675" cy="2.675" r="2.675" transform="translate(25.415 44.587)" fill="#fff"/>
      <circle id="Ellipse_221" data-name="Ellipse 221" cx="2.675" cy="2.675" r="2.675" transform="translate(25.415 33.441)" fill="#fff"/>
      <circle id="Ellipse_222" data-name="Ellipse 222" cx="2.675" cy="2.675" r="2.675" transform="translate(25.415 22.294)" fill="#fff"/>
      <circle id="Ellipse_223" data-name="Ellipse 223" cx="2.675" cy="2.675" r="2.675" transform="translate(25.415 11.147)" fill="#fff"/>
      <circle id="Ellipse_224" data-name="Ellipse 224" cx="2.675" cy="2.675" r="2.675" transform="translate(25.415)" fill="#fff"/>
    </g>
    <path id="Path_942" data-name="Path 942" d="M448.494,238.262H270.776a3.3,3.3,0,0,0-3.292,3.292V393.521a3.3,3.3,0,0,0,3.292,3.292H448.494a3.3,3.3,0,0,0,3.292-3.292V241.554A3.3,3.3,0,0,0,448.494,238.262Zm1.973,155.259a1.98,1.98,0,0,1-1.973,1.979H270.776a1.976,1.976,0,0,1-1.973-1.979V241.554a1.976,1.976,0,0,1,1.973-1.979H448.494a1.98,1.98,0,0,1,1.973,1.979Z" transform="translate(-184.339 -221.17)" fill="#ff2bc2"/>
    <path id="Path_943" data-name="Path 943" d="M327.163,473.5c0,.234-.006.469-.019.7a13.406,13.406,0,0,1-26.775,0c-.012-.228-.018-.462-.018-.7a13.406,13.406,0,1,1,26.812,0Z" transform="translate(-199.705 -324.875)" fill="#fff"/>
    <path id="Path_944" data-name="Path 944" d="M487.036,468.479H381.7a2.235,2.235,0,1,0,0,4.47H487.036a2.235,2.235,0,1,0,0-4.47Z" transform="translate(-236.69 -328.796)" fill="#ff2bc2"/>
    <path id="Path_945" data-name="Path 945" d="M427.029,493.66H381.7a2.232,2.232,0,1,0,0,4.463h45.325a2.232,2.232,0,0,0,0-4.463Z" transform="translate(-236.693 -340.568)" fill="#fff"/>
    <path id="Path_946" data-name="Path 946" d="M526.679,362.376H348.962a4.558,4.558,0,0,1-4.552-4.553V279.832a4.558,4.558,0,0,1,4.552-4.553H526.679a4.558,4.558,0,0,1,4.552,4.552v77.991A4.558,4.558,0,0,1,526.679,362.376Zm-177.717-85.5a2.958,2.958,0,0,0-2.955,2.955v77.991a2.958,2.958,0,0,0,2.955,2.955H526.679a2.958,2.958,0,0,0,2.955-2.955V279.832a2.958,2.958,0,0,0-2.955-2.955Z" transform="translate(-220.301 -238.476)" fill="#fff"/>
    <path id="Path_947" data-name="Path 947" d="M418.962,328.7a2.234,2.234,0,1,0,0,4.469H524.3a2.234,2.234,0,1,0,0-4.469Z" transform="translate(-254.11 -263.449)" fill="#fff"/>
    <path id="Path_948" data-name="Path 948" d="M418.962,353.012a2.234,2.234,0,1,0,0,4.469H524.3a2.234,2.234,0,1,0,0-4.469Z" transform="translate(-254.11 -274.815)" fill="#fff"/>
    <path id="Path_949" data-name="Path 949" d="M418.962,377.03a2.234,2.234,0,1,0,0,4.469h45.325a2.234,2.234,0,1,0,0-4.469Z" transform="translate(-254.11 -286.044)" fill="#fff"/>
    <path id="Path_950" data-name="Path 950" d="M722.826,476.886,704.977,451.7l5.778,1.2a.8.8,0,1,0,.326-1.565l-8.611-1.793-1.162,8.717a.8.8,0,0,0,1.585.211l.779-5.854,17.851,25.194a.8.8,0,1,0,1.3-.924Z" transform="translate(-387.148 -319.943)" fill="#fff"/>
    <path id="Path_951" data-name="Path 951" d="M446.219,606.825H319.346a2.352,2.352,0,0,1-2.35-2.349V573a2.352,2.352,0,0,1,2.349-2.35H446.219A2.352,2.352,0,0,1,448.568,573v31.472A2.352,2.352,0,0,1,446.219,606.825ZM319.346,571.594a1.411,1.411,0,0,0-1.41,1.41v31.472a1.411,1.411,0,0,0,1.41,1.41H446.219a1.411,1.411,0,0,0,1.41-1.41V573a1.411,1.411,0,0,0-1.41-1.41Z" transform="translate(-207.486 -376.563)" fill="#ff2bc2"/>
    <circle id="Ellipse_225" data-name="Ellipse 225" cx="9.571" cy="9.571" r="9.571" transform="translate(122.003 201.399)" fill="#fff"/>
    <path id="Path_952" data-name="Path 952" d="M398.538,590.368a1.6,1.6,0,1,0,0,3.19h75.2a1.6,1.6,0,1,0,0-3.19Z" transform="translate(-244.861 -385.779)" fill="#fff"/>
    <path id="Path_953" data-name="Path 953" d="M398.538,608.341a1.6,1.6,0,1,0,0,3.19H430.9a1.6,1.6,0,1,0,0-3.19Z" transform="translate(-244.861 -394.182)" fill="#fff"/>
    <path id="Path_954" data-name="Path 954" d="M871.961,428.016H928.35a2.352,2.352,0,0,1,2.349,2.349v58.725a2.352,2.352,0,0,1-2.349,2.35H871.961a2.352,2.352,0,0,1-2.35-2.35V430.365a2.352,2.352,0,0,1,2.349-2.349ZM928.35,490.5a1.411,1.411,0,0,0,1.41-1.41V430.365a1.411,1.411,0,0,0-1.41-1.41H871.961a1.411,1.411,0,0,0-1.41,1.41v58.725a1.411,1.411,0,0,0,1.41,1.41Z" transform="translate(-465.833 -309.88)" fill="#ff2bc2"/>
    <path id="Path_955" data-name="Path 955" d="M927.545,521.579a1.6,1.6,0,1,0,0-3.19H895.188a1.6,1.6,0,1,0,0,3.19Z" transform="translate(-477.044 -352.129)" fill="#fff"/>
    <path id="Path_956" data-name="Path 956" d="M927.545,503.93a1.6,1.6,0,1,0,0-3.19H895.188a1.6,1.6,0,1,0,0,3.19Z" transform="translate(-477.044 -343.878)" fill="#fff"/>
    <path id="Path_957" data-name="Path 957" d="M918.155,450.758a10.04,10.04,0,1,1-10.04,10.04A10.04,10.04,0,0,1,918.155,450.758Z" transform="translate(-483.833 -320.512)" fill="#fff"/>
  </g>
</svg>
